<?xml version="1.0" encoding="UTF-8" standalone="no"?>
<svg
   xmlns:dc="http://purl.org/dc/elements/1.1/"
   xmlns:cc="http://creativecommons.org/ns#"
   xmlns:rdf="http://www.w3.org/1999/02/22-rdf-syntax-ns#"
   xmlns:svg="http://www.w3.org/2000/svg"
   xmlns="http://www.w3.org/2000/svg"
   xmlns:sodipodi="http://sodipodi.sourceforge.net/DTD/sodipodi-0.dtd"
   xmlns:inkscape="http://www.inkscape.org/namespaces/inkscape"
   width="64"
   height="64"
   viewBox="0 0 64 64"
   id="svg2"
   version="1.1"
   inkscape:version="0.91 r13725"
   sodipodi:docname="firework.svg">
  <metadata
     id="metadata36">
    <rdf:RDF>
      <cc:Work
         rdf:about="">
        <dc:format>image/svg+xml</dc:format>
        <dc:type
           rdf:resource="http://purl.org/dc/dcmitype/StillImage" />
      </cc:Work>
    </rdf:RDF>
  </metadata>
  <defs
     id="defs34" />
  <sodipodi:namedview
     pagecolor="#ffffff"
     bordercolor="#666666"
     borderopacity="1"
     objecttolerance="10"
     gridtolerance="10"
     guidetolerance="10"
     inkscape:pageopacity="0"
     inkscape:pageshadow="2"
     inkscape:window-width="2728"
     inkscape:window-height="1349"
     id="namedview32"
     showgrid="false"
     inkscape:zoom="14.75"
     inkscape:cx="17.043715"
     inkscape:cy="33.161719"
     inkscape:window-x="0"
     inkscape:window-y="55"
     inkscape:window-maximized="0"
     inkscape:current-layer="svg2" />
  <path
     fill="#6ADBC6"
     d="M32 30.774s-1.711-10.721-1.711-11.469.767-1.354 1.711-1.354 1.711.606 1.711 1.354S32 30.774 32 30.774zM32 33.277s1.711 10.722 1.711 11.47c0 .747-.767 1.354-1.711 1.354s-1.711-.606-1.711-1.354c0-.748 1.711-11.47 1.711-11.47zM30.749 32.026s-10.721 1.71-11.468 1.71c-.748 0-1.354-.765-1.354-1.71s.606-1.711 1.354-1.711c.747 0 11.468 1.711 11.468 1.711zM33.252 32.026s10.721-1.711 11.469-1.711c.747 0 1.354.766 1.354 1.711 0 .945-.606 1.71-1.354 1.71-.748 0-11.469-1.71-11.469-1.71zM31.115 31.141s-8.791-6.371-9.319-6.9c-.529-.528-.416-1.499.253-2.167.668-.668 1.638-.781 2.167-.253.528.529 6.899 9.32 6.899 9.32zM32.886 32.911s8.791 6.37 9.318 6.899c.529.528.416 1.499-.253 2.168-.668.668-1.638.781-2.167.253-.528-.529-6.898-9.32-6.898-9.32zM31.115 32.911s-6.371 8.791-6.899 9.32c-.529.528-1.5.415-2.167-.253-.669-.669-.782-1.64-.253-2.168.528-.529 9.319-6.899 9.319-6.899zM32.886 31.141s6.37-8.791 6.898-9.32c.529-.528 1.499-.416 2.167.253.669.668.782 1.639.253 2.167-.527.53-9.318 6.9-9.318 6.9z"
     id="path4"
     style="fill:#cd3349;fill-opacity:1" />
  <path
     style="fill:#c47401;fill-opacity:1"
     inkscape:connector-curvature="0"
     id="path8"
     d="m 31.157,29.937 c 0,0 -8.816,-17.251 -9.32,-18.499 -0.504,-1.248 -0.203,-2.546 0.674,-2.9 0.877,-0.354 1.996,0.371 2.5,1.618 0.504,1.247 6.146,19.781 6.146,19.781 z m 1.687,4.178 c 0,0 8.816,17.252 9.32,18.499 0.504,1.248 0.202,2.546 -0.674,2.899 -0.877,0.355 -1.995,-0.369 -2.499,-1.617 C 38.487,52.648 32.844,34.115 32.844,34.115 Z M 29.912,32.87 c 0,0 -17.252,8.815 -18.5,9.319 C 10.164,42.694 8.866,42.392 8.511,41.515 8.158,40.64 8.882,39.52 10.13,39.016 11.377,38.513 29.912,32.87 29.912,32.87 Z m 4.177,-1.688 c 0,0 17.252,-8.816 18.499,-9.32 1.249,-0.504 2.547,-0.203 2.901,0.674 0.354,0.876 -0.371,1.995 -1.619,2.499 -1.247,0.505 -19.781,6.147 -19.781,6.147 z m -4.163,-0.036 c 0,0 -18.432,-5.965 -19.671,-6.491 -1.239,-0.526 -1.943,-1.657 -1.574,-2.527 0.369,-0.87 1.673,-1.149 2.912,-0.623 1.238,0.525 18.333,9.641 18.333,9.641 z m 4.148,1.76 c 0,0 18.432,5.966 19.672,6.491 1.238,0.524 1.943,1.657 1.573,2.526 -0.369,0.871 -1.673,1.149 -2.911,0.624 C 51.169,42.021 34.074,32.906 34.074,32.906 Z M 31.12,34.1 c 0,0 -5.965,18.433 -6.491,19.671 -0.526,1.239 -1.658,1.944 -2.527,1.575 -0.87,-0.37 -1.149,-1.674 -0.624,-2.912 C 22.004,51.195 31.12,34.1 31.12,34.1 Z m 1.761,-4.148 c 0,0 5.964,-18.433 6.49,-19.671 0.526,-1.239 1.657,-1.944 2.527,-1.575 0.87,0.37 1.149,1.673 0.624,2.912 -0.526,1.239 -9.641,18.334 -9.641,18.334 z" />
  <path
     style="fill:#3d7892;fill-opacity:1"
     inkscape:connector-curvature="0"
     id="path12"
     d="m 32.006,47.068 c 0,0 1.712,12.484 1.712,13.355 C 33.72,61.294 32.954,62 32.009,62 c -0.945,10e-4 -1.711,-0.706 -1.711,-1.576 0,-0.871 1.708,-13.356 1.708,-13.356 z m -0.01,-31.112 c 0,0 -1.714,-11.668 -1.714,-12.482 C 30.28,2.66 31.047,2 31.992,2 c 0.945,0 1.711,0.659 1.711,1.473 0,0.814 -1.707,12.483 -1.707,12.483 z M 42.659,42.65 c 0,0 10.04,7.616 10.655,8.232 0.615,0.615 0.573,1.656 -0.095,2.324 -0.668,0.668 -1.709,0.711 -2.324,0.096 C 50.279,52.688 42.659,42.65 42.659,42.65 Z M 20.651,20.659 c 0,0 -9.462,-7.039 -10.039,-7.614 -0.575,-0.576 -0.5,-1.583 0.168,-2.252 0.668,-0.668 1.677,-0.744 2.252,-0.168 0.576,0.574 7.619,10.034 7.619,10.034 z m 22.008,0.69 c 0,0 7.62,-10.036 8.236,-10.651 0.615,-0.616 1.656,-0.573 2.324,0.095 0.668,0.669 0.71,1.709 0.095,2.325 -0.615,0.615 -10.655,8.231 -10.655,8.231 z M 20.651,43.342 c 0,0 -7.043,9.459 -7.619,10.033 -0.575,0.575 -1.584,0.5 -2.252,-0.168 -0.668,-0.668 -0.743,-1.677 -0.168,-2.252 0.577,-0.574 10.039,-7.613 10.039,-7.613 z M 47.068,31.994 c 0,0 12.484,-1.714 13.355,-1.714 0.871,0 1.576,0.766 1.576,1.71 10e-4,0.945 -0.704,1.711 -1.575,1.711 -0.87,0.002 -13.356,-1.707 -13.356,-1.707 z m -31.112,0.011 c 0,0 -11.669,1.713 -12.482,1.713 C 2.66,33.719 2,32.954 2,32.009 c 0,-0.945 0.66,-1.711 1.473,-1.711 0.814,-10e-4 12.483,1.707 12.483,1.707 z" />
  <circle
     style="fill:#3d7892;fill-opacity:1"
     id="circle16"
     r="1.84"
     cy="5.0960002"
     cx="20.728001" />
  <circle
     style="fill:#3d7892;fill-opacity:1"
     id="circle18"
     r="1.84"
     cy="5.0960002"
     cx="43.543999" />
  <circle
     style="fill:#3d7892;fill-opacity:1"
     id="circle20"
     r="1.84"
     cy="59.023998"
     cx="20.209" />
  <circle
     style="fill:#3d7892;fill-opacity:1"
     id="circle22"
     r="1.841"
     cy="59.023998"
     cx="43.025002" />
  <circle
     style="fill:#3d7892;fill-opacity:1"
     id="circle24"
     r="1.841"
     cy="43.209"
     cx="4.9130001" />
  <circle
     style="fill:#3d7892;fill-opacity:1"
     id="circle26"
     r="1.84"
     cy="20.393"
     cx="4.9130001" />
  <circle
     style="fill:#3d7892;fill-opacity:1"
     id="circle28"
     r="1.84"
     cy="43.728001"
     cx="58.841999" />
  <circle
     style="fill:#3d7892;fill-opacity:1"
     id="circle30"
     r="1.84"
     cy="20.912001"
     cx="58.841999" />
</svg>
