<?xml version="1.0" encoding="UTF-8" standalone="no"?>
<!-- Created with Inkscape (http://www.inkscape.org/) -->

<svg
   xmlns:dc="http://purl.org/dc/elements/1.1/"
   xmlns:cc="http://creativecommons.org/ns#"
   xmlns:rdf="http://www.w3.org/1999/02/22-rdf-syntax-ns#"
   xmlns:svg="http://www.w3.org/2000/svg"
   xmlns="http://www.w3.org/2000/svg"
   xmlns:sodipodi="http://sodipodi.sourceforge.net/DTD/sodipodi-0.dtd"
   xmlns:inkscape="http://www.inkscape.org/namespaces/inkscape"
   width="625"
   height="400"
   viewBox="0 0 625.00001 400"
   id="svg2"
   version="1.1"
   inkscape:version="0.91 r13725"
   sodipodi:docname="1.svg">
  <defs
     id="defs4" />
  <sodipodi:namedview
     id="base"
     pagecolor="#ffffff"
     bordercolor="#666666"
     borderopacity="1.0"
     inkscape:pageopacity="0.0"
     inkscape:pageshadow="2"
     inkscape:zoom="2.8"
     inkscape:cx="310.62146"
     inkscape:cy="199.18161"
     inkscape:document-units="px"
     inkscape:current-layer="layer1"
     showgrid="false"
     units="px"
     inkscape:window-width="3840"
     inkscape:window-height="2031"
     inkscape:window-x="0"
     inkscape:window-y="55"
     inkscape:window-maximized="1" />
  <metadata
     id="metadata7">
    <rdf:RDF>
      <cc:Work
         rdf:about="">
        <dc:format>image/svg+xml</dc:format>
        <dc:type
           rdf:resource="http://purl.org/dc/dcmitype/StillImage" />
        <dc:title></dc:title>
      </cc:Work>
    </rdf:RDF>
  </metadata>
  <g
     inkscape:label="Calque 1"
     inkscape:groupmode="layer"
     id="layer1"
     transform="translate(0,-652.36216)">
    <path
       id="path3439"
       d="m 442.55134,981.03419 c -1.64496,-3.7653 -90.87191,-56.85082 -90.967,-56.91739 -12.58913,-9.25643 -14.13425,-18.2609 -3.97452,-23.43347 8.71446,-4.43569 16.20234,-18.67929 21.84558,-33.93078 a 4.6115807,4.6115807 0 0 0 3.21861,0.2282 c 23.69972,-6.92212 24.12759,-54.7542 8.27231,-46.30122 14.81886,-129.28591 -164.18655,-129.35246 -149.37718,0 -15.86005,-8.46249 -15.43218,39.3791 8.27232,46.30122 a 4.6496144,4.6496144 0 0 0 3.21384,-0.22345 c 5.63849,15.24674 13.12162,29.49034 21.83132,33.92603 10.24056,5.20586 8.22003,13.76818 -4.21698,23.6284 -4.14092,3.28991 -61.92356,35.49015 -78.22098,46.39155"
       inkscape:connector-curvature="0"
       style="fill:#5d6d74" />
  </g>
</svg>
