<?xml version="1.0" encoding="UTF-8" standalone="no"?>
<!-- Created with Inkscape (http://www.inkscape.org/) -->

<svg
   xmlns:dc="http://purl.org/dc/elements/1.1/"
   xmlns:cc="http://creativecommons.org/ns#"
   xmlns:rdf="http://www.w3.org/1999/02/22-rdf-syntax-ns#"
   xmlns:svg="http://www.w3.org/2000/svg"
   xmlns="http://www.w3.org/2000/svg"
   xmlns:sodipodi="http://sodipodi.sourceforge.net/DTD/sodipodi-0.dtd"
   xmlns:inkscape="http://www.inkscape.org/namespaces/inkscape"
   width="625"
   height="400"
   viewBox="0 0 625.00001 400"
   id="svg2"
   version="1.1"
   inkscape:version="0.91 r13725"
   sodipodi:docname="3.svg">
  <defs
     id="defs4" />
  <sodipodi:namedview
     id="base"
     pagecolor="#ffffff"
     bordercolor="#666666"
     borderopacity="1.0"
     inkscape:pageopacity="0.0"
     inkscape:pageshadow="2"
     inkscape:zoom="2.8"
     inkscape:cx="296.33575"
     inkscape:cy="199.18161"
     inkscape:document-units="px"
     inkscape:current-layer="layer1"
     showgrid="false"
     units="px"
     inkscape:window-width="3840"
     inkscape:window-height="2031"
     inkscape:window-x="0"
     inkscape:window-y="55"
     inkscape:window-maximized="1" />
  <metadata
     id="metadata7">
    <rdf:RDF>
      <cc:Work
         rdf:about="">
        <dc:format>image/svg+xml</dc:format>
        <dc:type
           rdf:resource="http://purl.org/dc/dcmitype/StillImage" />
        <dc:title></dc:title>
      </cc:Work>
    </rdf:RDF>
  </metadata>
  <g
     inkscape:label="Calque 1"
     inkscape:groupmode="layer"
     id="layer1"
     transform="translate(0,-652.36216)">
    <g
       id="g3563"
       transform="translate(-17.295758,-14.285712)">
      <path
         style="fill:#5d6d74"
         inkscape:connector-curvature="0"
         d="m 332.98232,967.2647 c -1.28629,-2.94432 -71.05851,-44.45527 -71.13287,-44.50732 -9.84424,-7.23819 -11.05247,-14.27936 -3.10793,-18.32412 6.81439,-3.46855 12.66964,-14.60653 17.08245,-26.53263 a 3.6060878,3.6060878 0 0 0 2.51684,0.17844 c 18.53231,-5.41284 18.86688,-42.81578 6.46864,-36.20586 11.5878,-101.09687 -128.38789,-101.1489 -116.80751,0 -12.40198,-6.61736 -12.0674,30.79302 6.46866,36.20586 a 3.6358288,3.6358288 0 0 0 2.5131,-0.17473 c 4.4091,11.92239 10.26063,23.06037 17.07129,26.52892 8.00775,4.07079 6.42777,10.76621 -3.29751,18.47655 -3.23805,2.57259 -48.42197,27.75199 -61.16596,36.2765"
         id="path3439" />
      <g
         transform="matrix(2.5357143,0,0,2.5357143,372.78571,808.36243)"
         id="g3521">
        <path
           style="fill:#5d6d74"
           inkscape:connector-curvature="0"
           d="M 45.458,57.65 C 45.202,57.063 31.299,48.792 31.283,48.781 29.322,47.339 29.084,45.936 30.666,45.13 c 1.357,-0.689 2.523,-2.91 3.403,-5.287 a 0.72,0.72 0 0 0 0.501,0.037 c 3.693,-1.08 3.759,-8.533 1.289,-7.216 2.309,-20.146 -25.582,-20.156 -23.273,0 -2.472,-1.319 -2.404,6.136 1.288,7.216 a 0.726,0.726 0 0 0 0.501,-0.036 c 0.879,2.376 2.045,4.597 3.402,5.286 1.595,0.812 1.279,2.146 -0.658,3.682 -0.646,0.513 -9.646,5.531 -12.188,7.229 -0.004,0.001 -0.013,0.007 -0.013,0.007 l 0.002,0 C 3.871,56.751 3.125,57.335 2.987,57.651 2.263,59.32 2,62 2,62 l 44.444,0 c 0,0 -0.26,-2.68 -0.986,-4.35 z"
           id="path3511" />
        <path
           style="fill:#5d6d74"
           inkscape:connector-curvature="0"
           d="m 34.544,19.867 c 1.815,2.036 3.813,5.542 3.668,11.029 0.704,0.527 1.292,1.429 1.492,2.827 0.368,2.582 -0.683,6.812 -4.04,8.129 -0.909,2.145 -1.902,3.659 -3.004,4.59 l 29.34,0 c 0,0 -0.262,-2.68 -0.986,-4.35 -0.256,-0.586 -14.159,-8.857 -14.174,-8.869 -1.963,-1.442 -2.201,-2.844 -0.619,-3.65 1.357,-0.69 2.523,-2.91 3.404,-5.288 0.16,0.071 0.33,0.086 0.501,0.036 3.692,-1.078 3.759,-8.532 1.289,-7.215 2.261,-19.72 -24.398,-20.134 -23.361,-1.237 2.503,0.701 4.766,2.065 6.49,3.998 z"
           id="path3513" />
      </g>
    </g>
  </g>
</svg>
