<?xml version="1.0" encoding="UTF-8" standalone="no"?>
<!-- Created with Inkscape (http://www.inkscape.org/) -->

<svg
   xmlns:dc="http://purl.org/dc/elements/1.1/"
   xmlns:cc="http://creativecommons.org/ns#"
   xmlns:rdf="http://www.w3.org/1999/02/22-rdf-syntax-ns#"
   xmlns:svg="http://www.w3.org/2000/svg"
   xmlns="http://www.w3.org/2000/svg"
   xmlns:sodipodi="http://sodipodi.sourceforge.net/DTD/sodipodi-0.dtd"
   xmlns:inkscape="http://www.inkscape.org/namespaces/inkscape"
   width="625"
   height="400"
   viewBox="0 0 625.00001 400"
   id="svg2"
   version="1.1"
   inkscape:version="0.91 r13725"
   sodipodi:docname="3.svg">
  <defs
     id="defs4" />
  <sodipodi:namedview
     id="base"
     pagecolor="#ffffff"
     bordercolor="#666666"
     borderopacity="1.0"
     inkscape:pageopacity="0.0"
     inkscape:pageshadow="2"
     inkscape:zoom="2.8"
     inkscape:cx="266.48459"
     inkscape:cy="85.805213"
     inkscape:document-units="px"
     inkscape:current-layer="layer1"
     showgrid="true"
     units="px"
     inkscape:window-width="3840"
     inkscape:window-height="2031"
     inkscape:window-x="0"
     inkscape:window-y="55"
     inkscape:window-maximized="1"
     showguides="false">
    <inkscape:grid
       type="xygrid"
       id="grid4392" />
  </sodipodi:namedview>
  <metadata
     id="metadata7">
    <rdf:RDF>
      <cc:Work
         rdf:about="">
        <dc:format>image/svg+xml</dc:format>
        <dc:type
           rdf:resource="http://purl.org/dc/dcmitype/StillImage" />
        <dc:title></dc:title>
      </cc:Work>
    </rdf:RDF>
  </metadata>
  <g
     inkscape:label="Calque 1"
     inkscape:groupmode="layer"
     id="layer1"
     transform="translate(0,-652.36216)">
    <g
       id="g4394"
       transform="translate(-7.8549373,-2.0629514)">
      <path
         style="fill:#5d6d74"
         inkscape:connector-curvature="0"
         d="m 307.74499,957.6147 c -1.28172,-2.93387 -70.80592,-44.29748 -70.88003,-44.34934 -9.80925,-7.21249 -11.01319,-14.22868 -3.09687,-18.25908 6.79016,-3.45624 12.62459,-14.55468 17.02172,-26.43845 a 3.59327,3.5932878 0 0 0 2.5079,0.1778 c 18.46643,-5.39362 18.79982,-42.66379 6.44564,-36.07733 11.54661,-100.73803 -127.93154,-100.78987 -116.39231,0 -12.3579,-6.59388 -12.02452,30.68371 6.44567,36.07733 a 3.6229054,3.6229233 0 0 0 2.50417,-0.17411 c 4.39341,11.88008 10.22415,22.97852 17.0106,26.43476 7.97928,4.05635 6.40492,10.72799 -3.28579,18.41097 -3.22655,2.56345 -48.24985,27.65349 -60.94854,36.14774"
         id="path3439" />
      <g
         transform="matrix(3.6321133,0,0,3.6321133,310.4417,738.19838)"
         id="g3521">
        <path
           style="fill:#5d6d74"
           inkscape:connector-curvature="0"
           d="M 45.458,57.65 C 45.202,57.063 31.299,48.792 31.283,48.781 29.322,47.339 29.084,45.936 30.666,45.13 c 1.357,-0.689 2.523,-2.91 3.403,-5.287 a 0.72,0.72 0 0 0 0.501,0.037 c 3.693,-1.08 3.759,-8.533 1.289,-7.216 2.309,-20.146 -25.582,-20.156 -23.273,0 -2.472,-1.319 -2.404,6.136 1.288,7.216 a 0.726,0.726 0 0 0 0.501,-0.036 c 0.879,2.376 2.045,4.597 3.402,5.286 1.595,0.812 1.279,2.146 -0.658,3.682 -0.646,0.513 -9.646,5.531 -12.188,7.229 -0.004,0.001 -0.013,0.007 -0.013,0.007 l 0.002,0 C 3.871,56.751 3.125,57.335 2.987,57.651 2.263,59.32 2,62 2,62 l 44.444,0 c 0,0 -0.26,-2.68 -0.986,-4.35 z"
           id="path3511" />
        <path
           style="fill:#5d6d74"
           inkscape:connector-curvature="0"
           d="m 34.544,19.867 c 1.815,2.036 3.813,5.542 3.668,11.029 0.704,0.527 1.292,1.429 1.492,2.827 0.368,2.582 -0.683,6.812 -4.04,8.129 -0.909,2.145 -1.902,3.659 -3.004,4.59 l 29.34,0 c 0,0 -0.262,-2.68 -0.986,-4.35 -0.256,-0.586 -14.159,-8.857 -14.174,-8.869 -1.963,-1.442 -2.201,-2.844 -0.619,-3.65 1.357,-0.69 2.523,-2.91 3.404,-5.288 0.16,0.071 0.33,0.086 0.501,0.036 3.692,-1.078 3.759,-8.532 1.289,-7.215 2.261,-19.72 -24.398,-20.134 -23.361,-1.237 2.503,0.701 4.766,2.065 6.49,3.998 z"
           id="path3513" />
      </g>
    </g>
  </g>
</svg>
