<?xml version="1.0" encoding="UTF-8" standalone="no"?>
<svg
   xmlns:dc="http://purl.org/dc/elements/1.1/"
   xmlns:cc="http://creativecommons.org/ns#"
   xmlns:rdf="http://www.w3.org/1999/02/22-rdf-syntax-ns#"
   xmlns:svg="http://www.w3.org/2000/svg"
   xmlns="http://www.w3.org/2000/svg"
   xmlns:sodipodi="http://sodipodi.sourceforge.net/DTD/sodipodi-0.dtd"
   xmlns:inkscape="http://www.inkscape.org/namespaces/inkscape"
   width="64"
   height="64"
   viewBox="0 0 64 64"
   id="svg2"
   version="1.1"
   inkscape:version="0.91 r13725"
   sodipodi:docname="bowling.svg">
  <metadata
     id="metadata46">
    <rdf:RDF>
      <cc:Work
         rdf:about="">
        <dc:format>image/svg+xml</dc:format>
        <dc:type
           rdf:resource="http://purl.org/dc/dcmitype/StillImage" />
      </cc:Work>
    </rdf:RDF>
  </metadata>
  <defs
     id="defs44" />
  <sodipodi:namedview
     pagecolor="#ffffff"
     bordercolor="#666666"
     borderopacity="1"
     objecttolerance="10"
     gridtolerance="10"
     guidetolerance="10"
     inkscape:pageopacity="0"
     inkscape:pageshadow="2"
     inkscape:window-width="3039"
     inkscape:window-height="1282"
     id="namedview42"
     showgrid="false"
     inkscape:zoom="20.85965"
     inkscape:cx="21.983263"
     inkscape:cy="33.73588"
     inkscape:window-x="0"
     inkscape:window-y="55"
     inkscape:window-maximized="0"
     inkscape:current-layer="svg2" />
  <path
     fill="#BEC0C6"
     d="M2.846 28.913C4.191 21.94 7.124 18.067 6.92 14.259c-.094-1.736-2.007-3.654-2.007-6.705 0-7.404 8.771-7.125 8.745-.029-.012 3.049-1.675 5.029-1.769 6.766-.208 3.811 2.56 7.691 3.833 14.68 1.985 10.943.479 14.188-.141 14.85-2.131 2.287-8.266 2.957-10.758 1.131-3.655-2.681-3.104-10.195-1.977-16.039z"
     id="path4" />
  <path
     fill="#E8ECEF"
     d="M16.248 28.913c-1.271-6.986-4.287-10.846-4.079-14.654.094-1.736 2.006-3.654 2.006-6.705 0-4.627-3.617-6.363-6.33-5.207 0 0-.938 2.434-.938 5.209 0 4.307 2.188 6.928 2.188 6.928C2.4 30.985 3.673 41.47 6.521 43.718c1.952 1.541 7.349 1.939 9.062.102 1.212-1.298 2.651-3.964.665-14.907z"
     id="path6" />
  <path
     style="fill:#cd3349;fill-opacity:1"
     inkscape:connector-curvature="0"
     id="path10"
     d="m 6.497,12.741 6.095,0 c -0.236,0.531 -0.44,2.139 -0.411,2.451 l -5.272,0 C 6.938,14.88 6.733,13.272 6.497,12.741 Z m -0.107,5.028 6.324,0 c 0.287,0.777 0.486,1.588 0.873,2.453 l -8.056,0 C 5.918,19.356 6.104,18.546 6.39,17.769 Z" />
  <path
     style="fill:#bec0c6"
     inkscape:connector-curvature="0"
     id="path14"
     d="m 24.369,28.913 c 1.346,-6.973 4.278,-10.846 4.074,-14.654 -0.094,-1.736 -2.007,-3.654 -2.007,-6.705 0,-7.404 8.771,-7.125 8.745,-0.029 -0.012,3.049 -1.675,5.029 -1.769,6.766 -0.208,3.811 2.56,7.691 3.833,14.68 1.985,10.943 0.479,14.188 -0.141,14.85 -2.131,2.287 -8.266,2.957 -10.758,1.131 -3.655,-2.681 -3.104,-10.195 -1.977,-16.039 z" />
  <path
     style="fill:#e8ecef"
     inkscape:connector-curvature="0"
     id="path16"
     d="M 37.771,28.913 C 36.5,21.927 33.484,18.067 33.692,14.259 c 0.094,-1.736 2.006,-3.654 2.006,-6.705 0,-4.627 -3.617,-6.363 -6.33,-5.207 0,0 -0.938,2.434 -0.938,5.209 0,4.307 2.188,6.928 2.188,6.928 -6.693,16.502 -5.421,26.986 -2.573,29.234 1.952,1.541 7.349,1.939 9.062,0.102 1.211,-1.298 2.651,-3.964 0.664,-14.907 z" />
  <g
     style="fill:#cd3349;fill-opacity:1"
     id="g18">
    <path
       inkscape:connector-curvature="0"
       id="path20"
       d="m 28.021,12.741 6.095,0 c -0.236,0.531 -0.44,2.139 -0.411,2.451 l -5.271,0 c 0.028,-0.312 -0.177,-1.92 -0.413,-2.451 z m -0.108,5.028 6.324,0 c 0.287,0.777 0.486,1.588 0.873,2.453 l -8.056,0 c 0.387,-0.866 0.573,-1.676 0.859,-2.453 z"
       style="fill:#cd3349;fill-opacity:1" />
  </g>
  <path
     style="fill:#bec0c6"
     inkscape:connector-curvature="0"
     id="path24"
     d="m 12.685,32.583 c 1.529,-7.924 4.861,-12.325 4.629,-16.652 -0.106,-1.973 -2.28,-4.153 -2.28,-7.62 0,-8.413 9.968,-8.096 9.938,-0.033 -0.013,3.466 -1.902,5.716 -2.01,7.689 -0.235,4.329 2.909,8.74 4.356,16.682 2.256,12.435 0.543,16.121 -0.16,16.874 -2.421,2.6 -9.393,3.36 -12.225,1.285 -4.156,-3.045 -3.53,-11.584 -2.248,-18.225 z" />
  <path
     style="fill:#e8ecef"
     inkscape:connector-curvature="0"
     id="path26"
     d="M 27.914,32.583 C 26.47,24.645 23.043,20.258 23.279,15.931 c 0.106,-1.973 2.279,-4.153 2.279,-7.62 0,-5.258 -4.111,-7.229 -7.193,-5.916 0,0 -1.066,2.766 -1.066,5.92 0,4.893 2.485,7.872 2.485,7.872 -7.605,18.752 -6.16,30.665 -2.924,33.221 2.218,1.751 8.351,2.203 10.297,0.115 1.378,-1.475 3.015,-4.503 0.757,-16.94 z" />
  <g
     style="fill:#cd3349;fill-opacity:1"
     id="g28">
    <path
       inkscape:connector-curvature="0"
       id="path30"
       d="m 16.833,14.206 6.927,0 c -0.27,0.604 -0.501,2.432 -0.468,2.786 l -5.99,0 c 0.033,-0.354 -0.199,-2.181 -0.469,-2.786 z m -0.122,5.713 7.188,0 c 0.326,0.884 0.553,1.806 0.992,2.787 l -9.154,0 c 0.439,-0.981 0.65,-1.903 0.974,-2.787 z"
       style="fill:#cd3349;fill-opacity:1" />
  </g>
  <circle
     style="fill:#4d4d4d"
     id="circle34"
     r="19.790001"
     cy="42.209"
     cx="42.209999" />
  <circle
     style="fill:#231f20"
     id="circle36"
     r="3.5"
     cy="44.488998"
     cx="41.709999" />
  <circle
     style="fill:#231f20"
     id="circle38"
     r="3"
     cy="34.865002"
     cx="32.313" />
  <circle
     style="fill:#231f20"
     id="circle40"
     r="3"
     cy="30.285"
     cx="44.709999" />
</svg>
