<?xml version="1.0" encoding="UTF-8" standalone="no"?>
<svg
   xmlns:dc="http://purl.org/dc/elements/1.1/"
   xmlns:cc="http://creativecommons.org/ns#"
   xmlns:rdf="http://www.w3.org/1999/02/22-rdf-syntax-ns#"
   xmlns:svg="http://www.w3.org/2000/svg"
   xmlns="http://www.w3.org/2000/svg"
   xmlns:sodipodi="http://sodipodi.sourceforge.net/DTD/sodipodi-0.dtd"
   xmlns:inkscape="http://www.inkscape.org/namespaces/inkscape"
   width="64"
   height="64"
   viewBox="0 0 64 64"
   id="svg2"
   version="1.1"
   inkscape:version="0.91 r13725"
   sodipodi:docname="factory.svg">
  <metadata
     id="metadata66">
    <rdf:RDF>
      <cc:Work
         rdf:about="">
        <dc:format>image/svg+xml</dc:format>
        <dc:type
           rdf:resource="http://purl.org/dc/dcmitype/StillImage" />
      </cc:Work>
    </rdf:RDF>
  </metadata>
  <defs
     id="defs64" />
  <sodipodi:namedview
     pagecolor="#ffffff"
     bordercolor="#666666"
     borderopacity="1"
     objecttolerance="10"
     gridtolerance="10"
     guidetolerance="10"
     inkscape:pageopacity="0"
     inkscape:pageshadow="2"
     inkscape:window-width="3840"
     inkscape:window-height="2031"
     id="namedview62"
     showgrid="false"
     inkscape:zoom="14.75"
     inkscape:cx="57.397945"
     inkscape:cy="27.208276"
     inkscape:window-x="0"
     inkscape:window-y="55"
     inkscape:window-maximized="1"
     inkscape:current-layer="svg2" />
  <circle
     fill="#D0D0D0"
     cx="54.5"
     cy="13.166"
     r="3"
     id="circle4" />
  <circle
     fill="#D0D0D0"
     cx="49.5"
     cy="11.242"
     r="4.242"
     id="circle6" />
  <circle
     fill="#D0D0D0"
     cx="48"
     cy="7.799"
     r="4.799"
     id="circle8" />
  <path
     fill="#E8E8E8"
     d="M47.093 5.02a5.309 5.309 0 0 1 4.967 3.446 3.943 3.943 0 0 0-3.919-4.375c-1.14 0-2.164.487-2.883 1.261a5.29 5.29 0 0 1 1.835-.332z"
     id="path10" />
  <path
     fill="#E8E8E8"
     d="M48.232 8.276a5.31 5.31 0 0 1 4.967 3.446 3.943 3.943 0 0 0-3.919-4.375c-1.14 0-2.165.487-2.884 1.261a5.3 5.3 0 0 1 1.836-.332z"
     id="path12" />
  <path
     fill="#E8E8E8"
     d="M53.36 11.689a3.831 3.831 0 0 1 3.585 2.486 2.846 2.846 0 0 0-4.91-2.248c.414-.151.86-.238 1.325-.238z"
     id="path14" />
  <path
     fill="#62727A"
     d="M63 60H1c-.55 0-1 .45-1 1v2c0 .55.45 1 1 1h62c.549 0 1-.45 1-1v-2c0-.55-.451-1-1-1z"
     id="path16"
     style="fill:#3b3b3b;fill-opacity:1" />
  <path
     fill="#F15744"
     d="M39 40L27 30v10L15 30v10L3 30v30h48V40z"
     id="path18"
     style="fill:#cd3349;fill-opacity:1" />
  <path
     fill="#D33B23"
     d="M51.799 43.2h8.4l-.4-8.4h-7.6zM59.4 26.4L59 18h-6l-.4 8.4zM51.4 51.6L51 60h10l-.4-8.4z"
     id="path20"
     style="fill:#cd3349;fill-opacity:1" />
  <path
     style="fill:#d0d0d0"
     inkscape:connector-curvature="0"
     id="path24"
     d="m 59.4,26.4 -6.8,0 -0.401,8.4 7.6,0 z m -8,25.2 9.2,0 -0.401,-8.4 -8.4,0 z" />
  <path
     fill="#F9F3D9"
     d="M3 45h36v10H3z"
     id="path26" />
  <path
     fill="#B4D7EE"
     d="M3 46h35v8H3z"
     id="path28" />
  <path
     fill="#89664C"
     d="M42 50h6v10h-6z"
     id="path30" />
  <path
     fill="#D33B23"
     d="M41 48h8v2h-8z"
     id="path32"
     style="fill:#c47401;fill-opacity:1" />
  <path
     fill="#F9F3D9"
     d="M3 49.5h35v1H3z"
     id="path34" />
  <path
     fill="#F9F3D9"
     d="M14.5 45h1v10h-1zM26.5 45h1v10h-1z"
     id="path36" />
  <circle
     fill="#DBB471"
     cx="46.5"
     cy="54.5"
     r=".5"
     id="circle38" />
  <path
     fill="#D0D0D0"
     d="M42 60h6v2h-6z"
     id="path40" />
  <path
     fill="#E8E8E8"
     d="M41 62h8v2h-8z"
     id="path42" />
  <circle
     fill="#D0D0D0"
     cx="56.5"
     cy="16"
     r="2"
     id="circle44" />
  <circle
     fill="#D0D0D0"
     cx="41.999"
     cy="5.083"
     r="5.083"
     id="circle46" />
  <circle
     fill="#D0D0D0"
     cx="33.916"
     cy="5.861"
     r="5.861"
     id="circle48" />
  <circle
     fill="#D0D0D0"
     cx="26.541"
     cy="4.955"
     r="4.955"
     id="circle50" />
  <circle
     fill="#D0D0D0"
     cx="18.354"
     cy="7"
     r="7"
     id="circle52" />
  <circle
     fill="#D0D0D0"
     cx="10.586"
     cy="9.174"
     r="9.174"
     id="circle54" />
  <path
     fill="#E8E8E8"
     d="M8.116 3.276c4.67 0 8.642 2.945 10.191 7.073a8.092 8.092 0 0 0-8.04-8.977c-2.339 0-4.44.999-5.917 2.587a10.84 10.84 0 0 1 3.766-.683z"
     id="path56" />
  <path
     fill="#E8E8E8"
     d="M16.522 2.872c3.679 0 6.808 2.32 8.026 5.571.025-.229.041-.462.041-.698a6.374 6.374 0 0 0-6.373-6.372 6.345 6.345 0 0 0-4.661 2.038 8.52 8.52 0 0 1 2.967-.539zM25.182 2.073a6.147 6.147 0 0 1 5.754 3.993A4.569 4.569 0 0 0 26.397.998a4.55 4.55 0 0 0-3.341 1.461 6.12 6.12 0 0 1 2.126-.386z"
     id="path58" />
  <path
     fill="#E8E8E8"
     d="M32.225 2.416A7.055 7.055 0 0 1 38.829 7a5.244 5.244 0 0 0-5.211-5.818 5.22 5.22 0 0 0-3.835 1.677 7.015 7.015 0 0 1 2.442-.443zM40.764 2.111a5.988 5.988 0 0 1 5.605 3.89 4.45 4.45 0 0 0-4.423-4.937c-1.286 0-2.442.55-3.255 1.423a5.965 5.965 0 0 1 2.073-.376zM55.744 14.882c1.09 0 2.017.688 2.379 1.649a1.888 1.888 0 0 0-3.258-1.49c.275-.102.571-.159.879-.159z"
     id="path60" />
</svg>
