<?xml version="1.0" encoding="UTF-8" standalone="no"?>
<svg
   xmlns:dc="http://purl.org/dc/elements/1.1/"
   xmlns:cc="http://creativecommons.org/ns#"
   xmlns:rdf="http://www.w3.org/1999/02/22-rdf-syntax-ns#"
   xmlns:svg="http://www.w3.org/2000/svg"
   xmlns="http://www.w3.org/2000/svg"
   xmlns:sodipodi="http://sodipodi.sourceforge.net/DTD/sodipodi-0.dtd"
   xmlns:inkscape="http://www.inkscape.org/namespaces/inkscape"
   width="64"
   height="64"
   viewBox="0 0 64 64"
   id="svg2"
   version="1.1"
   inkscape:version="0.91 r13725"
   sodipodi:docname="1f60c.svg">
  <metadata
     id="metadata20">
    <rdf:RDF>
      <cc:Work
         rdf:about="">
        <dc:format>image/svg+xml</dc:format>
        <dc:type
           rdf:resource="http://purl.org/dc/dcmitype/StillImage" />
      </cc:Work>
    </rdf:RDF>
  </metadata>
  <defs
     id="defs18" />
  <sodipodi:namedview
     pagecolor="#ffffff"
     bordercolor="#666666"
     borderopacity="1"
     objecttolerance="10"
     gridtolerance="10"
     guidetolerance="10"
     inkscape:pageopacity="0"
     inkscape:pageshadow="2"
     inkscape:window-width="3840"
     inkscape:window-height="2031"
     id="namedview16"
     showgrid="false"
     inkscape:zoom="14.75"
     inkscape:cx="28.108132"
     inkscape:cy="30.83089"
     inkscape:window-x="0"
     inkscape:window-y="55"
     inkscape:window-maximized="1"
     inkscape:current-layer="svg2" />
  <circle
     cx="32"
     cy="32"
     r="30"
     id="circle4"
     fill="#FFDD67" />
  <g
     fill="#917524"
     id="g6">
    <path
       d="M53.203 20.727a14.228 14.228 0 0 0-11.691-3.133c-.58.113-1.09-2.021-.387-2.156a16.417 16.417 0 0 1 13.492 3.615c.541.468-.969 2.06-1.414 1.674zM22.488 17.443c-4.168-.748-8.455.4-11.693 3.133-.443.389-1.953-1.205-1.412-1.674a16.422 16.422 0 0 1 13.492-3.615c.703.135.191 2.27-.387 2.156z"
       id="path8" />
  </g>
  <path
     d="M44.584 40.279c-8.109 5.656-17.106 5.623-25.168 0-.971-.676-1.846.496-1.188 1.578 2.457 4.047 7.418 7.65 13.771 7.65s11.314-3.604 13.771-7.65c.66-1.082-.215-2.253-1.186-1.578z"
     id="path10"
     fill="#664E27" />
  <g
     fill="#664E27"
     id="g12">
    <path
       d="M35.913 27.209c4.214 7.953 12.696 7.951 16.911 0 .208-.4-.34-.58-1.01-1.035-4.225 3.32-11.059 3.014-14.892.002-.668.453-1.215.633-1.009 1.033zM11.175 27.209c4.216 7.953 12.698 7.951 16.912 0 .207-.4-.34-.58-1.01-1.035-4.224 3.32-11.06 3.014-14.892.002-.669.453-1.216.633-1.01 1.033z"
       id="path14" />
  </g>
</svg>
