<?xml version="1.0" encoding="UTF-8" standalone="no"?>
<svg
   xmlns:dc="http://purl.org/dc/elements/1.1/"
   xmlns:cc="http://creativecommons.org/ns#"
   xmlns:rdf="http://www.w3.org/1999/02/22-rdf-syntax-ns#"
   xmlns:svg="http://www.w3.org/2000/svg"
   xmlns="http://www.w3.org/2000/svg"
   xmlns:sodipodi="http://sodipodi.sourceforge.net/DTD/sodipodi-0.dtd"
   xmlns:inkscape="http://www.inkscape.org/namespaces/inkscape"
   width="64"
   height="64"
   viewBox="0 0 64 64"
   id="svg2"
   version="1.1"
   inkscape:version="0.91 r13725"
   sodipodi:docname="people.svg">
  <metadata
     id="metadata12">
    <rdf:RDF>
      <cc:Work
         rdf:about="">
        <dc:format>image/svg+xml</dc:format>
        <dc:type
           rdf:resource="http://purl.org/dc/dcmitype/StillImage" />
      </cc:Work>
    </rdf:RDF>
  </metadata>
  <defs
     id="defs10" />
  <sodipodi:namedview
     pagecolor="#ffffff"
     bordercolor="#666666"
     borderopacity="1"
     objecttolerance="10"
     gridtolerance="10"
     guidetolerance="10"
     inkscape:pageopacity="0"
     inkscape:pageshadow="2"
     inkscape:window-width="3158"
     inkscape:window-height="1333"
     id="namedview8"
     showgrid="false"
     inkscape:zoom="3.6875"
     inkscape:cx="-51.118644"
     inkscape:cy="32"
     inkscape:window-x="0"
     inkscape:window-y="55"
     inkscape:window-maximized="0"
     inkscape:current-layer="svg2" />
  <path
     fill="#5D6D74"
     d="M45.458 57.65c-.256-.587-14.159-8.858-14.175-8.869-1.961-1.442-2.199-2.845-.617-3.651 1.357-.689 2.523-2.91 3.403-5.287a.72.72 0 0 0 .501.037c3.693-1.08 3.759-8.533 1.289-7.216 2.309-20.146-25.582-20.156-23.273 0-2.472-1.319-2.404 6.136 1.288 7.216a.726.726 0 0 0 .501-.036c.879 2.376 2.045 4.597 3.402 5.286 1.595.812 1.279 2.146-.658 3.682-.646.513-9.646 5.531-12.188 7.229-.004.001-.013.007-.013.007h.002c-1.049.703-1.795 1.287-1.933 1.603C2.263 59.32 2 62 2 62h44.444s-.26-2.68-.986-4.35z"
     id="path4"
     style="fill:#3d7890;fill-opacity:1" />
  <path
     fill="#5D6D74"
     d="M34.544 19.867c1.815 2.036 3.813 5.542 3.668 11.029.704.527 1.292 1.429 1.492 2.827.368 2.582-.683 6.812-4.04 8.129-.909 2.145-1.902 3.659-3.004 4.59H62s-.262-2.68-.986-4.35c-.256-.586-14.159-8.857-14.174-8.869-1.963-1.442-2.201-2.844-.619-3.65 1.357-.69 2.523-2.91 3.404-5.288.16.071.33.086.501.036 3.692-1.078 3.759-8.532 1.289-7.215 2.261-19.72-24.398-20.134-23.361-1.237 2.503.701 4.766 2.065 6.49 3.998z"
     id="path6"
     style="fill:#3b3b3b;fill-opacity:1" />
</svg>
