<?xml version="1.0" encoding="iso-8859-1"?>
<!-- Generator: Adobe Illustrator 18.0.0, SVG Export Plug-In . SVG Version: 6.00 Build 0)  -->
<!DOCTYPE svg PUBLIC "-//W3C//DTD SVG 1.1//EN" "http://www.w3.org/Graphics/SVG/1.1/DTD/svg11.dtd">
<svg version="1.1" id="Capa_1" xmlns="http://www.w3.org/2000/svg" xmlns:xlink="http://www.w3.org/1999/xlink" x="0px" y="0px"
	 viewBox="0 0 417.757 417.757" style="enable-background:new 0 0 417.757 417.757;" xml:space="preserve">
<g>
	<path style="fill:#59AAD8;" d="M340.25,208.874c0,1.48-0.02,2.97-0.06,4.44c-0.24,9.5-1.27,18.82-3.01,27.87
		c-0.05,0.29-0.1,0.57-0.16,0.85c-15.43,78.09-84.29,136.97-166.9,136.97c-68.44,0-127.45-40.42-154.44-98.7
		c-1.06-2.28-2.07-4.59-3.03-6.93C4.5,253.484,0,231.704,0,208.874c0-22.42,4.34-43.84,12.23-63.44c1.54-3.84,3.22-7.61,5.04-11.3
		c27.66-56.48,85.71-95.38,152.85-95.38c89.45,0,162.78,69.04,169.61,156.73C340.07,199.904,340.25,204.364,340.25,208.874z"/>
	<path style="fill:#96816E;" d="M417.64,228.664l-2.29,13.22c-0.7,4.04-4.53,6.77-8.58,6.1c-2.49-0.42-5.59-0.9-9.29-1.43
		c-3.13-0.43-6.68-0.91-10.65-1.38c-12.56-1.5-29.26-3.06-49.65-3.99c-69.77-3.21-182.83,0.83-321.5,39.12
		c-1.06-2.28-2.07-4.59-3.03-6.93C4.5,253.484,0,231.704,0,208.874c0-22.42,4.34-43.84,12.23-63.44c1.54-3.84,3.22-7.61,5.04-11.3
		c70.94,8.18,205.64,26.9,322.46,61.35c17.41,5.14,34.42,10.62,50.77,16.47c4.28,1.52,8.5,3.07,12.67,4.66
		c3.31,1.25,6.6,2.52,9.84,3.8C416.31,221.724,418.26,225.164,417.64,228.664z"/>
	<circle style="fill:#AF9E90;" cx="138.187" cy="206.031" r="11.59"/>
	<ellipse style="fill:#4D4D4D;" cx="138.187" cy="206.031" rx="11.59" ry="3.941"/>
	<path style="fill:#5B4B3F;" d="M417.645,228.665l-2.29,13.221c-0.706,4.037-4.534,6.767-8.583,6.096
		c-2.487-0.416-5.587-0.902-9.288-1.423c1.539-11.37,4.048-22.949,5.691-29.947c3.308,1.249,6.593,2.522,9.832,3.806
		C416.315,221.724,418.258,225.16,417.645,228.665z"/>
	<path style="fill:#705E4F;" d="M86.06,210.604H73.334c-11.841,0-21.441-9.599-21.441-21.441v-13.9c0-3.125,2.534-5.659,5.659-5.659
		h0c15.744,0,28.508,12.763,28.508,28.508V210.604z"/>
	<path style="fill:#5B4B3F;" d="M80.168,210.604c-8.055,0-14.608-6.553-14.608-14.608v-12.694c11.408,0.612,20.5,10.086,20.5,21.643
		v5.659H80.168z"/>
</g>
<g>
</g>
<g>
</g>
<g>
</g>
<g>
</g>
<g>
</g>
<g>
</g>
<g>
</g>
<g>
</g>
<g>
</g>
<g>
</g>
<g>
</g>
<g>
</g>
<g>
</g>
<g>
</g>
<g>
</g>
</svg>
