<?xml version="1.0" encoding="iso-8859-1"?>
<!-- Generator: Adobe Illustrator 18.0.0, SVG Export Plug-In . SVG Version: 6.00 Build 0)  -->
<!DOCTYPE svg PUBLIC "-//W3C//DTD SVG 1.1//EN" "http://www.w3.org/Graphics/SVG/1.1/DTD/svg11.dtd">
<svg version="1.1" id="Capa_1" xmlns="http://www.w3.org/2000/svg" xmlns:xlink="http://www.w3.org/1999/xlink" x="0px" y="0px"
	 viewBox="0 0 395.885 395.885" style="enable-background:new 0 0 395.885 395.885;" xml:space="preserve">
<g>
	<path style="fill:#F7931E;" d="M340.25,202.38c0,24.19-5.05,47.21-14.15,68.04c-26.25,60.1-86.21,102.09-155.97,102.09
		c-25.11,0-48.96-5.44-70.41-15.21C40.89,330.52,0,271.23,0,202.38c0-37.99,12.45-73.07,33.5-101.39
		c31.01-41.71,80.66-68.73,136.63-68.73c93.21,0,168.92,74.96,170.11,167.9C340.25,200.9,340.25,201.64,340.25,202.38z"/>
	<path style="fill:#937051;" d="M377.34,236.03l-9.55,15.69l-4.95,8.13c-4.01,6.59-11.18,10.61-18.89,10.6l-17.85-0.03l-149.81-0.28
		L99.72,357.3C40.89,330.52,0,271.23,0,202.38c0-37.99,12.45-73.07,33.5-101.39l143.61-16.77c24.4-2.85,48.78,5.4,66.44,22.47
		l96.69,93.47l23.9,23.1L377.34,236.03z"/>
	<path style="fill:#4D4D4D;" d="M266.552,169.031l-24.743-5.797c-5.856-1.372-9.492-7.232-8.12-13.088v0l24.743,5.797
		C264.289,157.315,267.924,163.175,266.552,169.031L266.552,169.031z"/>
	<path style="fill:#A07C62;" d="M184.377,134.067c0,0-24-32.667-56.667-34.667c0,0-1.095,11.61,0.732,24.282
		c2.122,14.713,14.255,25.933,29.094,26.806l15.506,0.912"/>
	<path style="fill:#6D523E;" d="M173.71,141.4c0,0-13.333-22-39.333-28.667C134.377,112.734,129.71,150.067,173.71,141.4z"/>
	<path style="fill:#4D4D4D;" d="M377.34,236.03l-9.55,15.69c-5.29-3.21-8.82-9.04-8.82-15.69c0-4.96,1.97-9.47,5.17-12.77
		L377.34,236.03z"/>
	<path style="fill:#EFDF9A;" d="M168.064,86.157c3.479-24.657,20.933-55.24,83.813-62.624c50.008-2.84,85.341,33.826,144.008,11.16
		c0,0-15.54,41.614-96.103,25.807c-55.732-10.935-73.229,12.813-76.072,33.568c-1.825,13.327-13.031,23.382-26.467,24.021h0
		C179.665,118.925,165.605,103.582,168.064,86.157z"/>
	<path style="fill:#EFE373;" d="M377.668,277.253L377.668,277.253c-2.87,1.657-6.539,0.674-8.196-2.196l-15-25.981
		c-1.657-2.87-0.674-6.539,2.196-8.196h0c2.87-1.657,6.539-0.674,8.196,2.196l15,25.981
		C381.521,271.927,380.538,275.597,377.668,277.253z"/>
</g>
<g>
</g>
<g>
</g>
<g>
</g>
<g>
</g>
<g>
</g>
<g>
</g>
<g>
</g>
<g>
</g>
<g>
</g>
<g>
</g>
<g>
</g>
<g>
</g>
<g>
</g>
<g>
</g>
<g>
</g>
</svg>
