<?xml version="1.0" encoding="iso-8859-1"?>
<!-- Generator: Adobe Illustrator 18.0.0, SVG Export Plug-In . SVG Version: 6.00 Build 0)  -->
<!DOCTYPE svg PUBLIC "-//W3C//DTD SVG 1.1//EN" "http://www.w3.org/Graphics/SVG/1.1/DTD/svg11.dtd">
<svg version="1.1" id="Capa_1" xmlns="http://www.w3.org/2000/svg" xmlns:xlink="http://www.w3.org/1999/xlink" x="0px" y="0px"
	 viewBox="0 0 463.395 463.395" style="enable-background:new 0 0 463.395 463.395;" xml:space="preserve">
<g>
	<path style="fill:#B4D87D;" d="M401.823,293.265c0,93.96-76.16,170.13-170.12,170.13c-22.99,0-44.91-4.56-64.91-12.82
		c-44.54-18.4-79.57-55.17-95.63-100.86c-6.21-17.67-9.59-36.66-9.59-56.45c0-93.96,76.17-170.12,170.13-170.12
		S401.823,199.305,401.823,293.265z"/>
	<path style="fill:#AF6019;" d="M272.722,209.621c-27.087-7.422-44.121-33.365-41.199-60.418c-1.237,2.717-2.283,5.563-3.097,8.534
		c-2.028,7.403-2.477,14.864-1.563,22.031c-67.424-38.854,3.87-179.173,3.87-179.173c-44.627-4.914-67.727,22.192-67.727,22.192
		c11.735,32.077,13.552,58.68,13.206,74.444c-0.145,6.62-8.612,9.243-12.511,3.891c-15.386-21.12-20.347-52.374-20.347-52.374
		s-5.108,103.933,103.859,168.49c0.021,0.012,0.042,0.025,0.063,0.037c5.804,3.432,8.778,10.267,7.101,16.798
		c-0.444,1.727-1.135,3.55-2.164,5.421c16.5,7.5,24.5,5.5,24.5,5.5s2.043-5.414,3.747-9.926c1.31-3.469,4.466-5.898,8.154-6.28
		l0.059-0.006c22.473-2.334,42.276-18.119,48.606-41.221c0.814-2.972,1.365-5.953,1.686-8.92
		C327.688,203.406,299.809,217.043,272.722,209.621z"/>
	<path style="fill:#A67C52;" d="M230.903,238.778l-23.898,38.228c-3.93-7.316-13.529-10.233-21.222-11.382
		c-1.663-0.242-3.265-0.65-4.807-1.224c-6.409-2.313-11.684-7.18-14.511-13.544c-8.48-19.061-7.83-38.348-7.83-38.348
		s0.015,0,0.03,0.015L230.903,238.778z"/>
	<path style="fill:#A67C52;" d="M358.543,320.457c-0.19,0.51-0.43,1.01-0.73,1.5c-0.78,1.29-1.6,2.55-2.47,3.78
		c-1.19,1.72-2.45,3.38-3.78,4.97c-8.87,10.67-20.54,18.52-33.53,22.74c-1.15,0.37-2.5,0.72-3.96,1.03
		c-10.29,2.23-20.95,1.99-31.17-0.52c-5.36-1.31-12.31-2.96-20.49-4.77c-8.17-1.82-17.56-3.81-27.8-5.81l0.03,0.09
		c0.16,0.6,1.08,4.33,0.15,10.71c-1.22,8.31-5.57,21.12-18.79,37.41c-11.9,14.66-32.26,28.49-49.21,58.99
		c-44.54-18.4-79.57-55.17-95.63-100.86c51.06-37.53,117.44-86.54,141.01-104.91c17.26-13.45,39.71-18.28,60.97-13.11
		c9.96,3.75,18.13,10.85,23.44,19.91c1.21,2.06,2.26,4.23,3.16,6.48c0,0.01,0,0.01,0,0.01c0.9,2.26,1.89,4.48,2.98,6.65
		c2.92,5.9,6.49,11.47,10.67,16.6c4.09,5.03,8.77,9.64,13.97,13.71c2.86,2.25,5.88,4.33,9.04,6.23c3.13,1.87,6.39,3.57,9.8,5.07
		c0.66,0.29,1.32,0.57,1.99,0.84c0.87,0.37,1.75,0.72,2.64,1.05c0.76,0.29,1.53,0.57,2.3,0.84
		C357.913,310.737,360.243,315.947,358.543,320.457z"/>
	<path style="fill:#CCA683;" d="M202.652,252.277c-5.744,14.587-16.869,13.347-16.869,13.347l-4.807-1.224
		c-6.409-2.313-11.684-7.18-14.511-13.544c-8.48-19.061-7.83-38.348-7.83-38.348s0.015,0,0.03,0.015
		C160.086,213.248,208.305,237.902,202.652,252.277z"/>
	<path style="fill:#4D4D4D;" d="M267.947,283.496L267.947,283.496L267.947,283.496c7.265-10.171,22.382-10.171,29.647,0h0l0,0
		C290.329,293.667,275.212,293.667,267.947,283.496z"/>
	<path style="fill:#99704A;" d="M234.793,354.177c-33.24-11.23-18.06-45.61-17.59-46.66c-7.98,25.32,17.41,35.86,17.41,35.86
		l0.03,0.09C234.803,344.067,235.723,347.797,234.793,354.177z"/>
	<circle style="fill:#CCA683;" cx="121.213" cy="363.495" r="13"/>
	<circle style="fill:#CCA683;" cx="142.213" cy="405.495" r="7"/>
	<circle style="fill:#CCA683;" cx="169.213" cy="362.495" r="7"/>
	<path style="fill:#4D4D4D;" d="M358.543,320.457c-0.19,0.51-0.43,1.01-0.73,1.5c-0.78,1.29-1.6,2.55-2.47,3.78
		c-5.27-1.35-9.17-6.12-9.17-11.81c0-2.49,0.74-4.8,2.02-6.73c0.87,0.37,1.75,0.72,2.64,1.05c0.76,0.29,1.53,0.57,2.3,0.84
		C357.913,310.737,360.243,315.947,358.543,320.457z"/>
	<path style="fill:#B4D87D;" d="M324.758,333.501l31.946,15.096l-3.703,7.836l-24.11-11.393
		C324.563,342.994,322.713,337.828,324.758,333.501L324.758,333.501z"/>
</g>
<g>
</g>
<g>
</g>
<g>
</g>
<g>
</g>
<g>
</g>
<g>
</g>
<g>
</g>
<g>
</g>
<g>
</g>
<g>
</g>
<g>
</g>
<g>
</g>
<g>
</g>
<g>
</g>
<g>
</g>
</svg>
