<?xml version="1.0" encoding="iso-8859-1"?>
<!-- Generator: Adobe Illustrator 18.0.0, SVG Export Plug-In . SVG Version: 6.00 Build 0)  -->
<!DOCTYPE svg PUBLIC "-//W3C//DTD SVG 1.1//EN" "http://www.w3.org/Graphics/SVG/1.1/DTD/svg11.dtd">
<svg version="1.1" id="Capa_1" xmlns="http://www.w3.org/2000/svg" xmlns:xlink="http://www.w3.org/1999/xlink" x="0px" y="0px"
	 viewBox="0 0 357.978 357.978" style="enable-background:new 0 0 357.978 357.978;" xml:space="preserve">
<g>
	<path style="fill:#FAD6FC;" d="M344.126,187.848c0,5.89-0.3,11.71-0.89,17.44c-3.03,29.78-13.74,57.29-30.12,80.51
		c-30.79,43.66-81.62,72.18-139.11,72.18c-30.25,0-58.65-7.89-83.26-21.74c-51.85-29.15-86.87-84.68-86.87-148.39
		c0-2.93,0.07-5.85,0.23-8.74c0.77-15.3,3.56-30.06,8.11-44.03c1.66-5.08,3.54-10.05,5.66-14.91
		c26.16-60.29,86.22-102.44,156.13-102.44C267.966,17.728,344.126,93.888,344.126,187.848z"/>
	<path style="fill:#4D4D4D;" d="M253.316,79.088L4.106,179.108c0.77-15.3,3.56-30.06,8.11-44.03c1.66-5.08,3.54-10.05,5.66-14.91
		c27.34-3.62,85.17-14.2,129.38-42.3c59.96-38.12,96.43-26.19,96.43-26.19L253.316,79.088z"/>
	<path style="fill:#896B50;" d="M350.636,220.678c-2.56-5.09-5.02-10.22-7.4-15.39c-5.19-11.29-9.94-22.76-14.25-34.41
		c-6.29-16.95-11.65-34.28-16.04-51.86c-1.78-7.12-4.97-13.73-9.32-19.44c-4.36-5.73-9.86-10.58-16.25-14.21l-11.46-6.5
		c-31.73-18-70.62-17.99-102.23,0.22c-32.3,18.62-100.38,45.89-161.47,55.99c-5.41,16.61-8.34,34.35-8.34,52.77
		c0,63.71,35.02,119.24,86.87,148.39l120.26-123.17l57.59,44.79c0,0,0,0,0.02,0.02c0.21,0.15,0.42,0.31,0.62,0.52
		c3.47,2.9,5.94,6.83,7.03,11.23c1.2,4.78,3.95,8.87,7.63,11.74c3.69,2.88,8.31,4.55,13.24,4.55h5.53l-4.58-11.24
		c-0.86-2.11,0.16-4.51,2.26-5.36c0.51-0.21,1.03-0.31,1.55-0.31c1.62,0,3.16,0.97,3.81,2.57l5.82,14.3
		c-0.5,0.03-1.01,0.04-1.52,0.04c1.05,0,2.08-0.04,3.11-0.12c17.25-1.3,32-13.3,36.64-30.2l3.19-11.67
		C355.066,236.178,354.256,227.888,350.636,220.678z"/>
	<path style="fill:#77563A;" d="M305.775,13.111c-8.391,19.021-21.823,44.281-41.196,66.158c-4.354,1.727-8.726,2.362-11.264-0.176
		c-6.469-6.469,6.893-47.878,30.778-70.353c2.344-2.203,4.689-4.336,7.034-6.381C298.618-4.182,309.776,4.016,305.775,13.111z"/>
	<path style="fill:#896B50;" d="M253.314,79.092c2.539,2.538,6.91,1.904,11.264,0.176c-3.896,4.407-8.056,8.69-12.445,12.745
		L225.11,74.386c0,0,29.104-37.759,58.983-65.647C260.207,31.215,246.845,72.623,253.314,79.092z"/>
	<path style="fill:#4D4D4D;" d="M304.49,150.191h-20.191c-4.779,0-8.653-3.874-8.653-8.653l0,0h20.191
		C300.616,141.538,304.49,145.412,304.49,150.191L304.49,150.191z"/>
	<path style="fill:#4D4D4D;" d="M350.636,220.678c0,0-43.27,26.46-60.3,34.69c-13.61,6.58-19.34,4.23-21.1,3.03
		c3.47,2.9,5.94,6.83,7.03,11.23c1.2,4.78,3.95,8.87,7.63,11.74c3.69,2.88,8.31,4.55,13.24,4.55h5.53l-4.58-11.24
		c-0.86-2.11,0.16-4.51,2.26-5.36c0.51-0.21,1.03-0.31,1.55-0.31c1.62,0,3.16,0.97,3.81,2.57l5.82,14.3
		c17.92-0.65,33.45-12.86,38.23-30.28l3.19-11.67C355.066,236.178,354.256,227.888,350.636,220.678z"/>
	<path style="fill:#6D533E;" d="M211.006,213.068c0,0-19.25-16.2-14.25-37.2c0,0-14.934,23.123,8.283,43.312L211.006,213.068z"/>
</g>
<g>
</g>
<g>
</g>
<g>
</g>
<g>
</g>
<g>
</g>
<g>
</g>
<g>
</g>
<g>
</g>
<g>
</g>
<g>
</g>
<g>
</g>
<g>
</g>
<g>
</g>
<g>
</g>
<g>
</g>
</svg>
