<?xml version="1.0" encoding="iso-8859-1"?>
<!-- Generator: Adobe Illustrator 18.0.0, SVG Export Plug-In . SVG Version: 6.00 Build 0)  -->
<!DOCTYPE svg PUBLIC "-//W3C//DTD SVG 1.1//EN" "http://www.w3.org/Graphics/SVG/1.1/DTD/svg11.dtd">
<svg version="1.1" id="Capa_1" xmlns="http://www.w3.org/2000/svg" xmlns:xlink="http://www.w3.org/1999/xlink" x="0px" y="0px"
	 viewBox="0 0 340.25 340.25" style="enable-background:new 0 0 340.25 340.25;" xml:space="preserve">
<g>
	<path style="fill:#CCCCCC;" d="M340.25,170.12c0,93.96-76.16,170.13-170.12,170.13c-9.27,0-18.36-0.74-27.23-2.17
		c-54.94-8.83-101.08-43.98-125.09-92.1C6.41,223.14,0,197.38,0,170.12C0,76.16,76.17,0,170.13,0S340.25,76.16,340.25,170.12z"/>
	<path style="fill:#BC8A58;" d="M200.23,211.39v12.98c0,45.91-22.11,87.65-57.33,113.71c-54.94-8.83-101.08-43.98-125.09-92.1
		l43.75-34.59H200.23z"/>
	<path style="fill:#00A99D;" d="M263.48,93.61c0,32.17-26.08,58.25-58.26,58.25h-4.99v59.53H61.56l5.58-17l25.45-77.49
		C108.58,68.24,154,35.35,205.22,35.35c16.09,0,30.66,6.52,41.2,17.06S263.48,77.52,263.48,93.61z"/>
	<path style="fill:#4D4D4D;" d="M231.292,88.352L231.292,88.352c-9.734,7.72-23.882,6.087-31.602-3.646l0,0l0,0
		C209.424,76.986,223.572,78.618,231.292,88.352L231.292,88.352z"/>
	<g>
		<path style="fill:#DDCF6B;" d="M332.22,143.93c-2.9,4.5-6.89,8.08-11.51,10.44c-4.14,2.12-8.79,3.29-13.58,3.29h-0.05
			c-19.45-0.03-51.05-2.47-68.1-16.65c0.74-1.46,1.4-2.94,1.98-4.45c17.42,12.81,47.4,15.07,66.12,15.1h0.05
			c4.79,0,9.44-1.17,13.58-3.29c2.77-1.42,5.32-3.27,7.54-5.51C329.56,143.24,330.88,143.6,332.22,143.93z"/>
		<path style="fill:#EFE373;" d="M328.25,142.86c-2.22,2.24-4.77,4.09-7.54,5.51c-4.14,2.12-8.79,3.29-13.58,3.29h-0.05
			c-18.72-0.03-48.7-2.29-66.12-15.1c2.22-5.72,3.34-11.78,3.34-17.86c0-0.98-0.03-1.97-0.09-2.95c-0.23-3.83-0.9-7.65-2.03-11.38
			l-1.01-3.33l1.92,0.8l2.66,1.1c5.79,2.4,12.93,0.6,17.46-3.72c0,0,21.18,26.49,54.24,39.87
			C320.93,140.5,324.53,141.77,328.25,142.86z"/>
		<path style="fill:#4D4D4D;" d="M332.222,143.931c-2.897,4.501-6.891,8.078-11.516,10.443c-2.504-2.758-4.035-6.417-4.035-10.443
			c0-1.694,0.27-3.323,0.777-4.845C322.147,140.993,327.082,142.646,332.222,143.931z"/>
	</g>
	<polygon style="fill:#F2F2F2;" points="200.23,194.39 200.23,211.39 61.56,211.39 67.14,194.39 	"/>
	<path style="fill:#4D4D4D;" d="M269.684,119.854l-7.997-3.341c-1.359-0.568-2-2.13-1.433-3.489v0c0.568-1.359,2.13-2,3.489-1.433
		l7.997,3.341c1.359,0.568,2,2.13,1.433,3.489l0,0C272.604,119.781,271.043,120.422,269.684,119.854z"/>
</g>
<g>
</g>
<g>
</g>
<g>
</g>
<g>
</g>
<g>
</g>
<g>
</g>
<g>
</g>
<g>
</g>
<g>
</g>
<g>
</g>
<g>
</g>
<g>
</g>
<g>
</g>
<g>
</g>
<g>
</g>
</svg>
