<?xml version="1.0" encoding="iso-8859-1"?>
<!-- Generator: Adobe Illustrator 18.0.0, SVG Export Plug-In . SVG Version: 6.00 Build 0)  -->
<!DOCTYPE svg PUBLIC "-//W3C//DTD SVG 1.1//EN" "http://www.w3.org/Graphics/SVG/1.1/DTD/svg11.dtd">
<svg version="1.1" id="Capa_1" xmlns="http://www.w3.org/2000/svg" xmlns:xlink="http://www.w3.org/1999/xlink" x="0px" y="0px"
	 viewBox="0 0 438.716 438.716" style="enable-background:new 0 0 438.716 438.716;" xml:space="preserve">
<g>
	<path style="fill:#0071BC;" d="M389.483,268.584c0,77.67-52.03,143.18-123.15,163.56c-14.92,4.28-30.68,6.57-46.97,6.57
		c-5.91,0-11.74-0.3-17.49-0.89c-10.12-1.03-19.97-2.95-29.48-5.68c-71.12-20.38-123.16-85.89-123.16-163.56
		c0-82.18,58.28-150.75,135.76-166.64c11.1-2.28,22.6-3.48,34.37-3.48c24.09,0,47.01,5.01,67.77,14.04
		C347.363,138.684,389.483,198.724,389.483,268.584z"/>
	<circle style="fill:#EDB888;" cx="226.588" cy="10.935" r="10.934"/>
	<path style="fill:#EDB888;" d="M338.061,46.746c0,6.25-0.85,12.35-2.47,18.16l-1.83,5.15h-33.59c0,8.84,7.16,16,16,16h9.35
		c-4.42,6.22-9.88,11.7-16.17,16.14c-6.46,4.58-13.81,8.08-21.8,10.2l-0.42,0.11l-32.67,8.67l2.26,59.24l0.71,18.43l0.1,2.62
		l2.39,62.78v0.05l0.8,20.99l1.74,45.53l0.67,17.24l0.79,21.04l1.53,40l0.05,1.28l0.83,21.77c-14.92,4.28-30.68,6.57-46.97,6.57
		c-5.91,0-11.74-0.3-17.49-0.89c-10.12-1.03-19.97-2.95-29.48-5.68l0.83-21.77l0.03-0.66l0.29-7.98l0.5-13.06l2.31-60.03l0.1-2.75
		l0.79-21.05l1.39-36.08l1.02-26.68l0.8-21.05l0.32-8.35l2.07-54.42l0.09-2.45l0.72-18.6l1.34-35.27l0.85-22.17l0.03-0.89
		c0.69-17.94,15.43-32.14,33.39-32.14H338.061z"/>
	<polygon style="fill:#EDB888;" points="230.813,6.903 222.364,6.903 217.45,75.024 235.727,75.024 	"/>
	<path style="fill:#4D4D4D;" d="M272.091,68.539l-6.55,6.55c-3.076,3.076-8.063,3.076-11.139,0l-6.55-6.55l6.55-6.55
		c3.076-3.076,8.063-3.076,11.139,0L272.091,68.539z"/>
	<path style="fill:#6D4934;" d="M210.312,184.252c0,15.719-12.75,28.457-28.457,28.457c-0.365,0-0.731-0.011-1.086-0.022
		l2.071-54.422l0.089-2.448C198.139,156.381,210.312,168.899,210.312,184.252z"/>
	<path style="fill:#6D4934;" d="M202.923,430.164c0,2.66-0.36,5.23-1.05,7.66c-10.12-1.03-19.97-2.95-29.48-5.68l0.86-22.43
		l0.29-7.98c0.3-0.03,0.61-0.03,0.92-0.03C190.183,401.704,202.923,414.444,202.923,430.164z"/>
	<path style="fill:#6D4934;" d="M259.927,264.24v0.055c-2.404,0.565-4.896,0.853-7.466,0.853c-18.421,0-33.342-14.932-33.342-33.342
		c0-18.421,14.921-33.342,33.342-33.342c1.695,0,3.356,0.122,4.974,0.377l0.1,2.625L259.927,264.24z"/>
	<path style="fill:#6D4934;" d="M225.455,299.255c0,18.421-14.932,33.342-33.342,33.342c-5.705,0-11.077-1.429-15.763-3.955
		l0.1-2.747l0.798-21.047l1.385-36.089c4.121-1.839,8.684-2.847,13.481-2.847C210.523,265.913,225.455,280.845,225.455,299.255z"/>
	<path style="fill:#6D4934;" d="M265.455,409.097c-4.099,1.163-8.463,1.783-12.971,1.783c-24.436,0-44.231-18.156-44.231-40.554
		c0-22.398,19.795-40.554,44.231-40.554c3.434,0,6.779,0.354,9.981,1.041l0.665,17.236l0.798,21.047L265.455,409.097z"/>
	<path style="fill:#EDB888;" d="M213.613,66.132c-0.271,0.279-0.55,0.542-0.838,0.805c-15.614,14.76-40.256,14.489-55.542-0.805
		l-2.579-2.579l-11.729-11.729c15.565-15.565,40.814-15.565,56.388,0L213.613,66.132z"/>
	<path style="fill:#C1946C;" d="M206.485,67.162c-0.159,0.164-0.323,0.318-0.491,0.472c-9.158,8.657-23.611,8.498-32.577-0.472
		l-1.513-1.513l-6.88-6.88c9.129-9.129,23.939-9.129,33.073,0L206.485,67.162z"/>
</g>
<g>
</g>
<g>
</g>
<g>
</g>
<g>
</g>
<g>
</g>
<g>
</g>
<g>
</g>
<g>
</g>
<g>
</g>
<g>
</g>
<g>
</g>
<g>
</g>
<g>
</g>
<g>
</g>
<g>
</g>
</svg>
