<?xml version="1.0" encoding="iso-8859-1"?>
<!-- Generator: Adobe Illustrator 18.0.0, SVG Export Plug-In . SVG Version: 6.00 Build 0)  -->
<!DOCTYPE svg PUBLIC "-//W3C//DTD SVG 1.1//EN" "http://www.w3.org/Graphics/SVG/1.1/DTD/svg11.dtd">
<svg version="1.1" id="Capa_1" xmlns="http://www.w3.org/2000/svg" xmlns:xlink="http://www.w3.org/1999/xlink" x="0px" y="0px"
	 viewBox="0 0 389.7 389.7" style="enable-background:new 0 0 389.7 389.7;" xml:space="preserve">
<g>
	<path style="fill:#7CCFED;" d="M340.25,194.845c0,29.62-7.57,57.48-20.89,81.73c-28.9,52.69-84.89,88.4-149.23,88.4
		c-58.08,0-109.36-29.1-140.06-73.52C11.11,264.015,0,230.725,0,194.845c0-53.18,24.41-100.67,62.64-131.86
		c29.3-23.92,66.72-38.26,107.49-38.26c75.91,0,140.2,49.72,162.1,118.36C337.44,159.405,340.25,176.795,340.25,194.845z"/>
	<path style="fill:#AC93AD;" d="M389.7,151.979v41.516c0,42.33-30.96,76.55-70.34,83.08c-8.29,1.39-16.95,1.54-25.77,0.28
		l-36.67-5.19c-8.43-1.2-16.65,2.92-20.97,10.26c-13.36,22.7-38.05,37.93-66.29,37.93c-27.69,0-51.95-14.64-65.49-36.61l-19.83,1.98
		l-54.27,6.23C11.11,264.015,0,230.725,0,194.845c0-53.18,24.41-100.67,62.64-131.86l181.85,29.24c5.33,0.84,10.3,3.25,14.18,6.99
		c20.6,19.8,45.68,34.98,73.56,43.87C350.359,148.86,369.645,151.973,389.7,151.979z"/>
	<path style="fill:#917C93;" d="M104.17,283.245l-19.83,1.98c-10.99-41.71,4.36-71.65,4.36-71.65
		C85.7,251.575,104.17,283.245,104.17,283.245z"/>
	<circle style="fill:#AC93AD;" cx="155.367" cy="85.575" r="22.5"/>
	<path style="fill:#917C93;" d="M155.367,98.075c-6.893,0-12.5-5.607-12.5-12.5s5.607-12.5,12.5-12.5s12.5,5.607,12.5,12.5
		S162.259,98.075,155.367,98.075z"/>
	<circle style="fill:#917C93;" cx="215.7" cy="133.472" r="14.77"/>
	<ellipse style="fill:#4D4D4D;" cx="215.7" cy="133.472" rx="14.77" ry="5.022"/>
	<ellipse style="fill:#4D4D4D;" cx="374.804" cy="175.201" rx="3.999" ry="7.998"/>
	<path style="fill:#917C93;" d="M109.86,70.578c0,0-48.16,22.997-52.16,84.997c0,0-14.791-48.221,33.047-88.071"/>
</g>
<g>
</g>
<g>
</g>
<g>
</g>
<g>
</g>
<g>
</g>
<g>
</g>
<g>
</g>
<g>
</g>
<g>
</g>
<g>
</g>
<g>
</g>
<g>
</g>
<g>
</g>
<g>
</g>
<g>
</g>
</svg>
