<?xml version="1.0" encoding="iso-8859-1"?>
<!-- Generator: Adobe Illustrator 18.0.0, SVG Export Plug-In . SVG Version: 6.00 Build 0)  -->
<!DOCTYPE svg PUBLIC "-//W3C//DTD SVG 1.1//EN" "http://www.w3.org/Graphics/SVG/1.1/DTD/svg11.dtd">
<svg version="1.1" id="Capa_1" xmlns="http://www.w3.org/2000/svg" xmlns:xlink="http://www.w3.org/1999/xlink" x="0px" y="0px"
	 viewBox="0 0 384.32 384.32" style="enable-background:new 0 0 384.32 384.32;" xml:space="preserve">
<g>
	<path style="fill:#7CCFED;" d="M362.285,214.19c0,55.49-26.56,104.77-67.67,135.82c-15.93,12.04-34.05,21.34-53.65,27.2
		c-15.46,4.63-31.84,7.11-48.81,7.11c-8.77,0-17.38-0.66-25.79-1.95c-7.48-1.13-14.8-2.76-21.93-4.84
		c-29.02-8.46-54.84-24.46-75.17-45.72c-29.27-30.55-47.23-71.99-47.23-117.62c0-20.92,3.77-40.95,10.68-59.45
		c2.41-6.48,5.22-12.78,8.37-18.85c28.34-54.55,85.35-91.82,151.07-91.82c27.15,0,52.81,6.36,75.58,17.67
		c16.24,8.06,31.01,18.65,43.8,31.25C342.865,123.84,362.285,166.75,362.285,214.19z"/>
	<path style="fill:#CF6F00;" d="M240.97,377.21c-15.46,4.63-31.84,7.11-48.81,7.11c-16.57,0-32.58-2.37-47.72-6.79
		c-29.02-8.46-54.84-24.46-75.17-45.72l181.56-20.43C250.83,311.38,259.69,345.76,240.97,377.21z"/>
	<path style="fill:#F7931E;" d="M312.035,103.26v55.73c0,99.77-59.88,185.56-145.67,223.38c-7.48-1.13-14.8-2.76-21.93-4.84
		c-29.02-8.46-54.84-24.46-75.17-45.72c-29.27-30.55-47.23-71.99-47.23-117.62v-27.44C22.035,83.61,105.645,0,208.785,0
		c53.56,0,97.59,40.78,102.75,92.99C311.865,96.37,312.035,99.79,312.035,103.26z"/>
	<path style="fill:#CF6F00;" d="M340.913,155.94l-84.47-70.72c-16.3-13.65-40.47-11.95-54.71,3.83l-20.49,22.72l-36.29-10.26
		c-5.17-1.46-10.45,1.92-11.28,7.23l-1.26,7.95c-3.05,19.32,7.34,38.57,25.52,45.81c0.43,0.18,0.86,0.34,1.3,0.5
		c3.71,1.34,7.59,1.98,11.48,1.98c4.64,0,9.28-0.92,13.65-2.69c14.85-6.02,31.12,4.77,31.34,20.8l0.18,13.1
		c0.22,15.65,9.34,29.81,23.51,36.48l64.243,31.1c13.33,6.28,28.98-1.87,31.49-16.39l0.964-5.598l-13.816-6.653
		c2.2-5.019,8.053-7.303,13.072-5.103l0,0c4.878,2.139,10.469-0.868,11.374-6.117l9.522-55.138L340.913,155.94z"/>
	<path style="fill:#4D4D4D;" d="M272.941,154.385l-13.629-4.927c-6.418-2.32-9.74-9.404-7.42-15.822v0l13.629,4.927
		C271.94,140.883,275.262,147.967,272.941,154.385L272.941,154.385z"/>
	<path style="fill:#4D4D4D;" d="M356.242,168.77l-3.4,19.7c-9.43-1.6-16.6-9.81-16.6-19.7c0-4.88,1.75-9.36,4.67-12.83
		L356.242,168.77z"/>
	<path style="fill:#B25A02;" d="M182.263,131.109l-38.346-15.339c0,0-10.039,22.41,16.872,35.279
		C178.303,160.437,182.263,131.109,182.263,131.109z"/>
</g>
<g>
</g>
<g>
</g>
<g>
</g>
<g>
</g>
<g>
</g>
<g>
</g>
<g>
</g>
<g>
</g>
<g>
</g>
<g>
</g>
<g>
</g>
<g>
</g>
<g>
</g>
<g>
</g>
<g>
</g>
</svg>
