<?xml version="1.0" encoding="iso-8859-1"?>
<!-- Generator: Adobe Illustrator 18.0.0, SVG Export Plug-In . SVG Version: 6.00 Build 0)  -->
<!DOCTYPE svg PUBLIC "-//W3C//DTD SVG 1.1//EN" "http://www.w3.org/Graphics/SVG/1.1/DTD/svg11.dtd">
<svg version="1.1" id="Capa_1" xmlns="http://www.w3.org/2000/svg" xmlns:xlink="http://www.w3.org/1999/xlink" x="0px" y="0px"
	 viewBox="0 0 429.437 429.437" style="enable-background:new 0 0 429.437 429.437;" xml:space="preserve">
<g>
	<path style="fill:#F7931E;" d="M365.932,259.307c0,5.32-0.24,10.58-0.72,15.78c-2.44,26.52-10.96,51.27-24.17,72.86
		c-29.88,48.87-83.75,81.49-145.23,81.49c-35.51,0-68.47-10.88-95.75-29.48c-17.62-12.02-32.87-27.27-44.89-44.9
		c-18.61-27.27-29.49-60.24-29.49-95.75c0-52.09,23.41-98.7,60.27-129.9c29.65-25.09,67.99-40.22,109.86-40.22
		C289.772,89.187,365.932,165.347,365.932,259.307z"/>
	<path style="fill:#D6C474;" d="M257.979,220.513c0,0,83.24,14.499,137.594-24.685c5.26-3.792,0.668-11.986-5.346-9.561
		c-19.35,7.804-46.84,16.594-77.193,19.231c-44.983,3.909-88.547-18.649-110.109-58.32c-16.666-30.663-19.506-69.485,35.559-102.305
		c4.711-2.808,5.424-9.34,1.381-13.046l0,0c-2.652-2.431-6.584-2.838-9.678-1.001l-23.963,14.228
		c-2.972,1.764-6.733,1.465-9.388-0.748l-1.507-1.256c-3.685-3.071-3.938-8.644-0.546-12.036l4.904-4.903
		c3.599-3.599,3.06-9.579-1.125-12.476l-0.688-0.477c-3.033-2.1-7.097-1.903-9.913,0.48l-18.501,15.654
		c-2.666,2.256-6.472,2.565-9.467,0.768l-0.321-0.193c-3.152-1.891-4.65-5.656-3.659-9.195l2.888-10.314
		C160.358,5.156,156.448,0,151.046,0h0c-6.052,0-11.166,4.486-11.956,10.486L136,33.969c-0.503,3.825-3.617,6.774-7.463,7.07
		l-0.089,0.007c-4.101,0.315-7.796-2.471-8.619-6.501l-3.871-18.949c-1.082-5.296-6.922-8.095-11.728-5.62l0,0
		c-6.8,3.501-11.429,10.12-12.408,17.705c-3.067,23.778-0.401,77.916,67.413,137.544
		C250.332,245.323,257.979,220.513,257.979,220.513z"/>
	<path style="fill:#A67C52;" d="M403.462,307.067c-0.42,2.08-1.3,4.1-2.68,5.93l-2.15,2.86l-10,13.27l-8.09-4.22
		c-1.11-0.58-2.32-0.86-3.52-0.86c-1.97,0-3.92,0.77-5.38,2.23c-3.64,3.64-2.7,9.76,1.86,12.14l5.2,2.71
		c-7.62,6.72-17.91,9.85-28.19,8.27l-9.47-1.45l-37-5.68c0,0,0,0-0.01,0c-0.62-0.1-1.24-0.19-1.87-0.29l-30.9-4.74
		c-9.64-1.48-19.27-0.52-28.12,2.55c-12.4,4.28-23.29,12.68-30.57,24.24l-16.27,25.83c-5.86,9.32-15.17,15.94-25.89,18.44
		c-3.16,0.74-6.35,1.1-9.49,1.1c-15.14,0-29.43-8.26-36.83-22.04l-24.03,12.6c-17.62-12.02-32.87-27.27-44.89-44.9
		c-18.61-27.27-29.49-60.24-29.49-95.75c0-52.09,23.41-98.7,60.27-129.9l166.6,86.91l112.66,58.77l30.62,15.98
		C401.882,294.217,404.722,300.877,403.462,307.067z"/>
	<path style="fill:#A67C52;" d="M231.519,208.395l-55.536,15.747c2.557-10.322-4.046-21.34-10.362-29.042
		c-1.37-1.658-2.541-3.423-3.51-5.293c-4.096-7.703-4.92-16.857-2.134-25.326c8.332-25.38,25.524-43.128,25.524-43.128
		s0.014,0.013,0.016,0.04L231.519,208.395z"/>
	<path style="fill:#CCA683;" d="M193.103,196.928c-17.988,8.909-27.482-1.828-27.482-1.828l-3.51-5.293
		c-4.096-7.703-4.92-16.857-2.134-25.326c8.332-25.38,25.524-43.128,25.524-43.128s0.014,0.013,0.016,0.04
		C186.241,123.302,210.823,188.142,193.103,196.928z"/>
	<path style="fill:#4D4D4D;" d="M235.888,238.813L235.888,238.813L235.888,238.813c10.543-6.714,24.562-1.058,27.494,11.093v0v0
		C252.838,256.62,238.82,250.964,235.888,238.813z"/>
	<path style="fill:#7F5B3B;" d="M302.162,341.976l-30.9-4.74c-9.64-1.48-19.27-0.52-28.12,2.55c-24.17-2.55-49.75-7.54-64.76-17.21
		c-24.38-15.71,3-58,3-58s-10,38,4,46C199.162,318.456,262.402,335.636,302.162,341.976z"/>
	<path style="fill:#7F5B3B;" d="M393.347,299.562l3.222,9.857c0.826,2.527-0.553,5.246-3.08,6.073h0
		c-2.527,0.826-5.246-0.553-6.073-3.08l-3.222-9.857c-0.826-2.528,0.553-5.246,3.08-6.073l0,0
		C389.802,295.656,392.521,297.035,393.347,299.562z"/>
</g>
<g>
</g>
<g>
</g>
<g>
</g>
<g>
</g>
<g>
</g>
<g>
</g>
<g>
</g>
<g>
</g>
<g>
</g>
<g>
</g>
<g>
</g>
<g>
</g>
<g>
</g>
<g>
</g>
<g>
</g>
</svg>
