<?xml version="1.0" encoding="iso-8859-1"?>
<!-- Generator: Adobe Illustrator 18.0.0, SVG Export Plug-In . SVG Version: 6.00 Build 0)  -->
<!DOCTYPE svg PUBLIC "-//W3C//DTD SVG 1.1//EN" "http://www.w3.org/Graphics/SVG/1.1/DTD/svg11.dtd">
<svg version="1.1" id="Capa_1" xmlns="http://www.w3.org/2000/svg" xmlns:xlink="http://www.w3.org/1999/xlink" x="0px" y="0px"
	 viewBox="0 0 382.805 382.805" style="enable-background:new 0 0 382.805 382.805;" xml:space="preserve">
<g>
	<path style="fill:#4D4D4D;" d="M340.25,191.407c0,8.87-0.68,17.57-1.99,26.08c-5.24,34.06-20.58,64.79-42.88,89.03
		c-31.08,33.82-75.69,55.01-125.25,55.01c-21.21,0-41.51-3.88-60.24-10.97c-25.03-9.48-47.24-24.69-65.02-44.04
		c-5.96-6.48-11.42-13.42-16.33-20.76c-18.03-27-28.54-59.45-28.54-94.35c0-41.1,14.57-78.8,38.84-108.21
		c31.21-37.82,78.43-61.92,131.29-61.92C264.08,21.278,340.25,97.447,340.25,191.407z"/>
	<path style="fill:#F6CFF9;" d="M328.96,290.388c4.279-5.061,11.851-5.695,16.911-1.415l12.206,10.321l14.962-44.887h0
		c-16.496-17.511-39.383-60.234-50.973-82.925c-5.012-9.812-12.316-18.268-21.28-24.673L211.76,83.197H38.84
		C14.57,112.608,0,150.308,0,191.407c0,44.39,17,84.82,44.87,115.11h303.165L328.96,290.388z"/>
	<path style="fill:#F6CFF9;" d="M169.575,166.323c0,0-8.685-79.402,19.851-133.992l25.038,30.046
		c14.999,17.999,18.21,43.059,8.234,64.258l-13.422,28.522L169.575,166.323z"/>
	<path style="fill:#E29FD4;" d="M188.876,152.449c-0.706-20.832-0.013-59.141,11.47-92.495l11.454,13.745
		c11.715,14.059,14.25,33.842,6.458,50.4l-10.894,23.149L188.876,152.449z"/>
	<circle style="fill:#E29FD4;" cx="247.736" cy="191.136" r="21.202"/>
	<circle style="fill:#4D4D4D;" cx="247.736" cy="191.136" r="8.94"/>
	<path style="fill:#E29FD4;" d="M382.548,257.578l-17.369,52.108c-1.071,3.212-4.953,4.459-7.693,2.471l0,0
		c-1.769-1.283-2.502-3.566-1.811-5.639l17.369-52.108c1.071-3.212,4.953-4.459,7.693-2.471v0
		C382.506,253.222,383.239,255.504,382.548,257.578z"/>
	<path style="fill:#F6CFF9;" d="M145.71,285.758l-35.82,64.8c-25.03-9.48-47.24-24.69-65.02-44.04
		c-5.96-6.48-11.42-13.42-16.33-20.76H145.71z"/>
</g>
<g>
</g>
<g>
</g>
<g>
</g>
<g>
</g>
<g>
</g>
<g>
</g>
<g>
</g>
<g>
</g>
<g>
</g>
<g>
</g>
<g>
</g>
<g>
</g>
<g>
</g>
<g>
</g>
<g>
</g>
</svg>
