<?xml version="1.0" encoding="iso-8859-1"?>
<!-- Generator: Adobe Illustrator 18.0.0, SVG Export Plug-In . SVG Version: 6.00 Build 0)  -->
<!DOCTYPE svg PUBLIC "-//W3C//DTD SVG 1.1//EN" "http://www.w3.org/Graphics/SVG/1.1/DTD/svg11.dtd">
<svg version="1.1" id="Capa_1" xmlns="http://www.w3.org/2000/svg" xmlns:xlink="http://www.w3.org/1999/xlink" x="0px" y="0px"
	 viewBox="0 0 373.74 373.74" style="enable-background:new 0 0 373.74 373.74;" xml:space="preserve">
<g>
	<path style="fill:#0071BC;" d="M340.25,186.865c0,12.21-1.29,24.11-3.73,35.59c-16.36,76.87-84.64,134.54-166.39,134.54
		c-16.5,0-32.45-2.35-47.53-6.73c-32.33-9.39-60.69-28.11-81.96-53.06c-4.31-5.05-8.33-10.36-12.02-15.9
		C10.53,254.285,0,221.805,0,186.865c0-38.86,13.02-74.67,34.95-103.3c31.09-40.63,80.08-66.82,135.18-66.82
		c79.22,0,145.79,54.15,164.72,127.45C338.38,157.835,340.25,172.125,340.25,186.865z"/>
	<path style="fill:#CCCCCC;" d="M373.74,158.555c0,0.77-0.07,1.55-0.22,2.34c-0.95,5.04-2.26,9.96-3.91,14.72
		c-6.43,18.56-17.98,34.77-33.09,46.84c-1.33,1.07-2.94,2.2-4.72,3.34c-12.52,8.09-26.77,13.09-41.56,14.87
		c-43.07,5.2-156.36,21.13-242.03,53.6c-2.55,0.96-5.07,1.94-7.57,2.94C15.29,267.495,0,228.965,0,186.865
		c0-38.86,13.02-74.67,34.95-103.3h181.38c15.06,0,29.43,5.32,40.98,14.68c2.63,2.13,5.11,4.47,7.42,7.01
		c0.01,0.01,0.01,0.01,0.01,0.01c2.32,2.54,4.74,4.99,7.26,7.33c6.81,6.35,14.32,11.95,22.42,16.66c7.93,4.63,16.42,8.4,25.34,11.2
		c4.91,1.55,9.95,2.8,15.09,3.74c5.07,0.92,10.24,1.54,15.5,1.83c2.34,0.13,4.7,0.2,7.08,0.2c1.16,0,2.32-0.01,3.47-0.04
		C368.05,145.985,373.74,151.725,373.74,158.555z"/>
	<path style="fill:#808080;" d="M264.736,105.265c0,0-102.11-8.86-135.44,59.14c0,0-5.31-41.07,26.02-80.84h61.01
		c18.49,0,35.95,8.02,48.4,21.69C264.736,105.265,264.736,105.265,264.736,105.265z"/>
	<path style="fill:#CCCCCC;" d="M230.19,92.995c-15.99-0.93-31.9,1.92-46.47,8.22c-4.91,2.13-9.67,4.65-14.23,7.55l-1.53,0.97
		c1.24-25.13,17.97-58.79,30.57-80.85c4.78-8.35,17.35-6.33,19.27,3.1l0.37,1.85L230.19,92.995z"/>
	<path style="fill:#B3B3B3;" d="M230.19,92.995c-15.99-0.93-31.9,1.92-46.47,8.22c5.66-21.54,17.79-45.36,27.48-62.33
		c1.65-2.88,4.23-4.52,6.97-5.05L230.19,92.995z"/>
	<path style="fill:#808080;" d="M290.815,127.073l-29.847-8.859c-5.463-1.622-11.376-0.502-15.844,3.034
		c-13.061,10.335-40.545,35.433-61.161,77.157c0,0,62.21,19.657,119.544-64.343L290.815,127.073z"/>
	<path style="fill:#666666;" d="M373.736,158.555c0,0.77-0.07,1.55-0.22,2.34c-0.95,5.04-2.26,9.96-3.91,14.72
		c-11.28-2.83-19.64-13.04-19.64-25.21c0-1.49,0.13-2.96,0.38-4.38c2.34,0.13,4.7,0.2,7.08,0.2c1.16,0,2.32-0.01,3.47-0.04
		C368.046,145.985,373.736,151.725,373.736,158.555z"/>
	<circle style="fill:#4D4D4D;" cx="266.246" cy="137.171" r="10.103"/>
	<path style="fill:#808080;" d="M294.42,129.255l-5.21,5.21l-35.33-29.58l3.43-6.64c2.63,2.13,5.11,4.47,7.42,7.01
		c0.01,0.01,0.01,0.01,0.01,0.01c2.32,2.54,4.74,4.99,7.26,7.33C278.81,118.945,286.32,124.545,294.42,129.255z"/>
	<path style="fill:#808080;" d="M48.21,294.265c-2.55,0.96-5.07,1.94-7.57,2.94C15.29,267.495,0,228.965,0,186.865
		c0-38.86,13.02-74.67,34.95-103.3h83.59C118.54,83.565,39.21,133.395,48.21,294.265z"/>
</g>
<g>
</g>
<g>
</g>
<g>
</g>
<g>
</g>
<g>
</g>
<g>
</g>
<g>
</g>
<g>
</g>
<g>
</g>
<g>
</g>
<g>
</g>
<g>
</g>
<g>
</g>
<g>
</g>
<g>
</g>
</svg>
