<?xml version="1.0" encoding="iso-8859-1"?>
<!-- Generator: Adobe Illustrator 18.0.0, SVG Export Plug-In . SVG Version: 6.00 Build 0)  -->
<!DOCTYPE svg PUBLIC "-//W3C//DTD SVG 1.1//EN" "http://www.w3.org/Graphics/SVG/1.1/DTD/svg11.dtd">
<svg version="1.1" id="Capa_1" xmlns="http://www.w3.org/2000/svg" xmlns:xlink="http://www.w3.org/1999/xlink" x="0px" y="0px"
	 viewBox="0 0 391.67 391.67" style="enable-background:new 0 0 391.67 391.67;" xml:space="preserve">
<g>
	<path style="fill:#0071BC;" d="M340.25,195.84c0,24.45-5.16,47.7-14.45,68.71c-26.4,59.73-86.17,101.41-155.68,101.41
		c-31.88,0-61.71-8.77-87.22-24.03C33.24,312.23,0,257.92,0,195.84c0-31.55,8.59-61.09,23.55-86.42
		c29.6-50.1,84.16-83.71,146.57-83.71c83.89,0,153.6,60.72,167.57,140.6C339.38,175.9,340.25,185.77,340.25,195.84z"/>
	<path style="fill:#CCCCCC;" d="M391.45,186.75c-1.866,9.891-5.145,19.297-9.608,28H350.93c0,7.36,5.97,13.33,13.33,13.33h9.45
		c-11.83,16.41-28.4,29.24-47.91,36.47c-1.51,0.56-3.05,1.09-4.6,1.58l-12.24,3.89L82.9,341.93C33.24,312.23,0,257.92,0,195.84
		c0-31.55,8.59-61.09,23.55-86.42h210.71c18.49,0,35.96,8.02,48.41,21.7c2.32,2.54,4.74,4.99,7.26,7.33
		c13.48,12.57,29.74,22.2,47.76,27.86c11.89,3.75,24.54,5.77,37.67,5.77c1.16,0,2.32-0.01,3.47-0.04
		c7.15-0.2,12.84,5.54,12.84,12.37C391.67,185.18,391.6,185.96,391.45,186.75z"/>
	<path style="fill:#E6E6E6;" d="M391.67,184.41c0,0.77-0.07,1.55-0.22,2.34c-1.21,6.4-3,12.6-5.32,18.54
		c-1.26,3.24-2.69,6.39-4.27,9.46h-30.93c0,7.36,5.97,13.33,13.33,13.33h9.45c-12.75,17.68-31,31.21-52.51,38.05l-12.24,3.89
		c-18.62-3.44-32.72-19.77-32.72-39.38c0-8.37,2.57-16.14,6.97-22.57c-17.84-1.49-31.86-16.43-31.86-34.65
		c0-19.22,15.58-34.79,34.79-34.79c1.07,0,2.34-0.06,3.79-0.18c19.05,17.77,43.64,29.65,70.91,32.79c4.76,0.56,9.61,0.84,14.52,0.84
		c1.16,0,2.32-0.01,3.47-0.04C385.98,171.84,391.67,177.58,391.67,184.41z"/>
	<path style="fill:#4D4D4D;" d="M305.593,173.417l-5.805,5.804c-7.538,7.538-19.759,7.538-27.297,0l-5.805-5.804l5.805-5.805
		c7.538-7.538,19.759-7.538,27.297,0L305.593,173.417z"/>
	<path style="fill:#4D4D4D;" d="M391.67,184.41c0,0.77-0.07,1.55-0.22,2.34c-1.21,6.4-3,12.6-5.32,18.54
		c-0.83,0.09-1.68,0.13-2.54,0.13c-13.62,0-24.66-11.05-24.66-24.67c0-3.37,0.68-6.58,1.91-9.51c4.76,0.56,9.61,0.84,14.52,0.84
		c1.16,0,2.32-0.01,3.47-0.04C385.98,171.84,391.67,177.58,391.67,184.41z"/>
	<circle style="fill:#E6E6E6;" cx="215.76" cy="220.25" r="12.5"/>
	<circle style="fill:#E6E6E6;" cx="267.01" cy="256" r="6.25"/>
	<circle style="fill:#E6E6E6;" cx="259.01" cy="130.75" r="6.25"/>
	<circle style="fill:#E6E6E6;" cx="221.01" cy="157.75" r="6.25"/>
	<circle style="fill:#E6E6E6;" cx="48.76" cy="143.25" r="12.5"/>
	<circle style="fill:#E6E6E6;" cx="142.76" cy="279.25" r="17.5"/>
	<circle style="fill:#E6E6E6;" cx="133.931" cy="183.421" r="22.671"/>
	<circle style="fill:#E6E6E6;" cx="63.76" cy="253.593" r="27.5"/>
</g>
<g>
</g>
<g>
</g>
<g>
</g>
<g>
</g>
<g>
</g>
<g>
</g>
<g>
</g>
<g>
</g>
<g>
</g>
<g>
</g>
<g>
</g>
<g>
</g>
<g>
</g>
<g>
</g>
<g>
</g>
</svg>
