<?xml version="1.0" encoding="iso-8859-1"?>
<!-- Generator: Adobe Illustrator 18.0.0, SVG Export Plug-In . SVG Version: 6.00 Build 0)  -->
<!DOCTYPE svg PUBLIC "-//W3C//DTD SVG 1.1//EN" "http://www.w3.org/Graphics/SVG/1.1/DTD/svg11.dtd">
<svg version="1.1" id="Capa_1" xmlns="http://www.w3.org/2000/svg" xmlns:xlink="http://www.w3.org/1999/xlink" x="0px" y="0px"
	 viewBox="0 0 340.319 340.319" style="enable-background:new 0 0 340.319 340.319;" xml:space="preserve">
<g>
	<path style="fill:#7CCFED;" d="M249.982,320.395c-14.86,7.9-30.36,13.37-46.05,16.55c-70.43,14.29-144.66-17.48-181.7-82.76
		c-0.79-1.38-1.56-2.78-2.31-4.2c-44.08-82.97-12.56-185.97,70.41-230.06c82.97-44.09,185.98-12.56,230.06,70.41
		C364.482,173.305,332.952,276.305,249.982,320.395z"/>
	<path style="fill:#4D4D4D;" d="M22.232,254.185l-10.227-23.904c10.917-4.671,18.53-9.657,17.039-31.385
		c-2.263-32.969,6.479-65.545,25.276-94.209c17.319-26.408,42.878-49.083,73.912-65.572c16.936-8.996,35.969-13.75,55.044-13.75
		c43.604,0,83.388,23.899,103.827,62.371l-22.961,12.199C264.142,99.935,56.989,315.441,22.232,254.185z"/>
	<path style="fill:#F2F2F2;" d="M309.612,221.125l-13.09,6.96c-2.82,1.5-5.75,2.52-8.72,3.11c-6.13,1.2-12.4,0.53-18.04-1.78
		c-6.58-2.69-12.29-7.61-15.89-14.38l-0.11-0.21c0-0.02,0-0.04-0.01-0.06l-4.52-8.47l-1.89-3.55c-4.31,1.36-8.69,2.14-13.05,2.37
		c-3.03,0.17-6.05,0.06-9.02-0.3c-5.93-0.71-11.67-2.42-16.99-5.05h-0.01c-0.99-0.49-1.96-1-2.91-1.55
		c-7.08-4.07-13.27-9.82-17.92-17.02c0.36,0.79,6.64,14.64,12.55,35.68c2.91,10.35,5.72,22.44,7.7,35.58
		c0.87,5.76,1.58,11.73,2.06,17.83c0.78,9.78,0.98,19.91,0.34,30.17c-0.41,6.58-1.15,13.2-2.32,19.81
		c-0.97,5.58-2.24,11.16-3.84,16.68c-3.8,0.77-7.61,1.41-11.42,1.91c-4.37,0.58-8.74,0.98-13.11,1.21
		c-4.49,0.25-8.97,0.31-13.44,0.19c-6.3-0.16-12.56-0.67-18.77-1.53h-0.01c-50.86-6.96-97.85-36.78-124.95-84.54
		c3.83-1.64,7.6-3.54,11.15-5.86c3.25-2.12,6.32-4.59,9.06-7.51c6.35-6.75,10.99-15.92,12.35-28.88c0.48-4.47,0.56-9.39,0.19-14.82
		c-1.16-16.85,1.14-33.05,6.34-48.24v-0.04c1.02-2.99,2.16-5.91,3.4-8.82v-0.01c3.61-8.45,8.14-16.54,13.47-24.22v-0.03
		c5.11-7.32,10.9-14.24,17.36-20.75c4.23-4.26,8.74-8.33,13.49-12.2c7.53-6.13,15.69-11.76,24.38-16.83c2.3-1.34,4.64-2.64,7.01-3.9
		c2.44-1.29,4.91-2.47,7.4-3.51c8.14-3.45,16.55-5.62,24.99-6.6c1.87-0.21,3.73-0.37,5.6-0.47c3.28-0.17,6.57-0.17,9.83,0.01
		c20.35,1.11,39.99,8.99,55.5,22.62c3.76,3.29,7.27,6.93,10.5,10.89c3.71,4.55,7.03,9.53,9.89,14.92l19.63,36.95l7.09,13.34
		l13.73,25.83l11.94,22.47C320.862,206.675,317.762,216.795,309.612,221.125z"/>
	<path style="fill:#4D4D4D;" d="M238.219,126.864l6.323-1.172c6.395-1.185,12.54,3.039,13.725,9.434l1.172,6.323v0
		C249.551,143.281,240.051,136.751,238.219,126.864L238.219,126.864z"/>
	<path style="fill:#F2F2F2;" d="M208.921,89.377L208.921,89.377c26.854-14.268,37.057-47.605,22.788-74.459l0,0l0,0
		C204.855,29.187,194.652,62.523,208.921,89.377L208.921,89.377z"/>
	<path style="fill:#B3B3B3;" d="M212.956,76.192L212.956,76.192c13.292-7.062,18.342-23.563,11.279-36.855l0,0l0,0
		C210.944,46.4,205.894,62.9,212.956,76.192L212.956,76.192z"/>
	<path style="fill:#666666;" d="M187.442,181.195c0.36,0.79,6.64,14.64,12.55,35.68c-50.73-33.49-61.76-107.51-61.76-107.51
		C152.292,147.005,187.442,181.195,187.442,181.195z"/>
	<path style="fill:#666666;" d="M209.752,270.285c-39.81-18.59-71.99-54.62-93.44-104.75c-13.35-31.24-18.89-59.12-20.76-70.53
		c4.23-4.26,8.74-8.33,13.49-12.2l0.6,4.98c0.07,0.55,4.32,34.25,20.62,72.21c18.68,43.52,44.68,74.54,77.43,92.46
		C208.562,258.215,209.272,264.185,209.752,270.285z"/>
	<path style="fill:#666666;" d="M210.092,300.455c-0.41,6.58-1.15,13.2-2.32,19.81c-12.65-15.78-31.28-29.58-50.54-43.84
		c-18.38-13.62-37.39-27.7-52.53-44.47c-27.39-30.31-36.81-67.41-39.98-91.94v-0.01c3.61-8.45,8.14-16.54,13.47-24.22
		c-0.08,10.03,1.18,65.76,37.64,106.11c14.14,15.66,32.54,29.29,50.33,42.47C181.592,275.805,197.272,287.415,210.092,300.455z"/>
	<path style="fill:#666666;" d="M165.962,340.255c-6.3-0.16-12.56-0.67-18.77-1.53h-0.01c-7.49-10.55-16.56-20.08-27.13-28.5
		c-38.34-30.54-56.58-68.46-65.26-98.29c0.48-4.47,0.56-9.39,0.19-14.82c-1.16-16.85,1.14-33.05,6.34-48.24
		c-0.22,9.42,0.26,27.23,5.13,48.34c9.59,41.57,30.77,75.65,62.95,101.27C145.852,311.585,157.592,326.185,165.962,340.255z"/>
	<path style="fill:#666666;" d="M192.512,338.855c-4.37,0.58-8.74,0.98-13.11,1.21c-0.59-0.98-1.2-1.97-1.84-2.97
		c-0.72-1.14-1.45-2.3-2.19-3.47c-0.76-1.17-1.53-2.35-2.3-3.53c-1.54-2.39-3.18-4.76-4.8-7.15c-1.61-2.4-3.33-4.72-4.97-7.06
		c-1.65-2.32-3.36-4.54-4.97-6.73c-1.61-2.19-3.26-4.23-4.79-6.21c-1.51-1.99-3.02-3.8-4.4-5.48c-1.39-1.68-2.63-3.26-3.79-4.59
		c-1.16-1.35-2.17-2.52-3-3.48c-1.57-1.81-2.5-2.9-2.61-3.03c0.13,0.11,1.22,1.03,3.06,2.57c0.98,0.82,2.16,1.82,3.53,2.96
		c1.37,1.14,2.85,2.5,4.5,3.94c1.64,1.46,3.44,3.02,5.27,4.75c1.83,1.72,3.81,3.49,5.78,5.41c1.96,1.92,4.03,3.88,6.06,5.94
		c2.02,2.06,4.13,4.12,6.14,6.27c2.02,2.14,4.07,4.26,6.01,6.42c0.98,1.07,1.95,2.13,2.91,3.19c0.94,1.06,1.87,2.12,2.78,3.16
		c1.85,2.06,3.56,4.13,5.22,6.06C191.512,337.655,192.022,338.265,192.512,338.855z"/>
	<path style="fill:#666666;" d="M85.222,299.695c-0.13-0.11-1.23-1.03-3.06-2.57c-0.98-0.82-2.17-1.82-3.53-2.96
		c-1.37-1.14-2.85-2.5-4.5-3.94c-1.64-1.45-3.44-3.02-5.27-4.74c-1.83-1.73-3.82-3.5-5.78-5.42c-1.96-1.92-4.04-3.88-6.07-5.93
		c-2.02-2.07-4.13-4.13-6.13-6.28c-2.03-2.13-4.07-4.26-6.01-6.42c-0.98-1.07-1.95-2.13-2.91-3.18c-0.94-1.07-1.87-2.13-2.79-3.17
		c-1.85-2.06-3.55-4.13-5.21-6.06c-0.2-0.24-0.39-0.47-0.58-0.7c3.25-2.12,6.32-4.59,9.06-7.51c0.3,0.5,0.6,1.01,0.9,1.52
		c1.28,2.11,2.6,4.36,4.05,6.63c0.72,1.14,1.45,2.3,2.19,3.48c0.76,1.16,1.53,2.34,2.31,3.52c1.53,2.39,3.17,4.76,4.8,7.15
		c1.61,2.41,3.33,4.73,4.96,7.06c1.66,2.32,3.36,4.54,4.97,6.74c1.62,2.18,3.27,4.22,4.79,6.2c1.52,1.99,3.03,3.8,4.41,5.48
		c1.39,1.68,2.63,3.26,3.79,4.6c1.16,1.34,2.17,2.51,3,3.47C84.182,298.485,85.112,299.565,85.222,299.695z"/>
	<path style="fill:#666666;" d="M225.272,204.815c-5.93-0.71-11.67-2.42-16.99-5.05h-0.01c-2.64-8.79-8.62-27.45-17.71-48.58
		c-3.08-7.14-6.24-13.96-9.49-20.44c-1.08-2.15-2.17-4.27-3.27-6.34l-0.01-0.02c-13.17-24.94-27.52-44.24-42.19-56.57l-2.18-1.84
		c2.3-1.34,4.64-2.64,7.01-3.9c2.44-1.29,4.91-2.47,7.4-3.51c7.53,6.7,14.84,14.83,21.91,24.37c0.03-8.42,5.15-21.6,8.68-31.44
		c3.28-0.17,6.57-0.17,9.83,0.01c-3.04,14.58-7.15,43.92,2.76,65.72c0.01,0.03,0.02,0.05,0.03,0.08
		c4.59,8.72,9.06,18.11,13.38,28.16c12.96,30.15,19.61,54.72,19.89,55.75L225.272,204.815z"/>
	<path style="fill:#666666;" d="M234.292,205.115c0.24-10.49-1.59-25.02-9.78-41.4c-18.22-36.45-11.75-66.59,19.24-89.59
		c3.76,3.29,7.27,6.93,10.5,10.89l-0.6,0.44c-26.15,18.93-31,40.99-15.72,71.55C247.582,176.295,236.112,195.995,234.292,205.115"/>
	<path style="fill:#666666;" d="M290.862,150.225l-0.93,0.35c-14.6,5.44-19.32,26.76-20.71,43.69c-1.22,14.83-0.12,28.89,0.54,35.15
		c-6.58-2.69-12.29-7.61-15.89-14.38l-0.11-0.21c0-0.02,0-0.04-0.01-0.06c-0.18-6.46-0.12-13.97,0.52-21.73
		C256.772,162.655,273.662,143.625,290.862,150.225L290.862,150.225z"/>
	<path style="fill:#666666;" d="M317.556,200.457c3.764,7.085,1.073,15.88-6.012,19.645l-15.022,7.983
		c-2.82,1.5-5.75,2.52-8.72,3.11c-3.44-41.26,8.4-52.36,16.79-55.14L317.556,200.457z"/>
	<path style="fill:#666666;" d="M271.346,113.496c0,0-0.184,23.129-6.184,33.629c0,0,10.077-10.572,13.539-19.786L271.346,113.496z"
		/>
</g>
<g>
</g>
<g>
</g>
<g>
</g>
<g>
</g>
<g>
</g>
<g>
</g>
<g>
</g>
<g>
</g>
<g>
</g>
<g>
</g>
<g>
</g>
<g>
</g>
<g>
</g>
<g>
</g>
<g>
</g>
</svg>
