<?xml version="1.0" encoding="iso-8859-1"?>
<!-- Generator: Adobe Illustrator 19.0.0, SVG Export Plug-In . SVG Version: 6.00 Build 0)  -->
<svg version="1.1" id="Layer_1" xmlns="http://www.w3.org/2000/svg" xmlns:xlink="http://www.w3.org/1999/xlink" x="0px" y="0px"
	 viewBox="0 0 473.654 473.654" style="enable-background:new 0 0 473.654 473.654;" xml:space="preserve">
<circle style="fill:#337180;" cx="236.827" cy="236.827" r="236.827"/>
<path style="fill:#DDB68C;" d="M187.461,355.54v112.928c15.923,3.377,32.422,5.187,49.351,5.187c17.011,0,33.589-1.832,49.587-5.239
	V355.54L187.461,355.54L187.461,355.54z"/>
<g>
	<path style="fill:#CCA885;" d="M227.508,376.698v96.72c0.572,0.022,1.152,0.026,1.724,0.045v-96.761h-1.724V376.698z"/>
	<path style="fill:#CCA885;" d="M216.316,376.698v96.014c0.572,0.049,1.148,0.086,1.72,0.131v-96.144H216.316z"/>
	<path style="fill:#CCA885;" d="M256.094,376.698v96.107c0.572-0.045,1.148-0.079,1.72-0.131v-95.976H256.094z"/>
	<path style="fill:#CCA885;" d="M244.897,376.698v96.75c0.572-0.019,1.152-0.019,1.724-0.045v-96.705L244.897,376.698
		L244.897,376.698z"/>
	<rect x="187.465" y="431.397" style="fill:#CCA885;" width="98.938" height="2.199"/>
	<rect x="187.465" y="445.682" style="fill:#CCA885;" width="98.938" height="2.199"/>
</g>
<rect x="212.468" y="142.553" style="fill:#C4A860;" width="49.744" height="45.896"/>
<g>
	<polygon style="fill:#7F7B79;" points="258.913,135.956 215.766,135.956 212.468,142.553 262.211,142.553 	"/>
	<path style="fill:#7F7B79;" d="M250.394,129.457c0,0-10.875-42.324-10.875-76.766l-2.225-37.377l-2.132,37.377
		c0,34.168-10.875,76.766-10.875,76.766l-3.298,6.593h32.706L250.394,129.457z"/>
</g>
<rect x="217.531" y="150.78" style="fill:#D6AD29;" width="39.617" height="32.979"/>
<rect x="209.454" y="179.911" style="fill:#998779;" width="55.787" height="8.519"/>
<path style="fill:#BAA391;" d="M192.51,230.952v12.217c0,3.018,2.446,5.464,5.464,5.464h79.002c3.018,0,5.464-2.446,5.464-5.464
	v-12.217C282.443,227.938,192.51,227.938,192.51,230.952z"/>
<polygon style="fill:#D1B399;" points="265.184,186.661 209.771,186.661 192.51,230.952 282.443,230.952 "/>
<path style="fill:#EFC397;" d="M192.51,239.935v61.202c0,3.022,2.446,5.464,5.464,5.464h79.002c3.018,0,5.464-2.446,5.464-5.464
	v-61.202C282.443,236.917,192.51,236.917,192.51,239.935z"/>
<path style="fill:#DDB68C;" d="M285.027,263.767h-95.097c-3.631,0-6.578,2.943-6.578,6.578v73.67c0,3.635,2.947,6.578,6.578,6.578
	h95.097c3.635,0,6.578-2.947,6.578-6.578v-73.67C291.604,266.71,288.658,263.767,285.027,263.767z"/>
<g>
	<path style="fill:#CEA278;" d="M282.951,274.739H192.51c-1.328,0-2.401,0.699-2.401,1.559v4.592c0,0.86,1.073,1.559,2.401,1.559
		h90.442c1.324,0,2.401-0.699,2.401-1.559v-4.592C285.352,275.438,284.275,274.739,282.951,274.739z"/>
	<path style="fill:#CEA278;" d="M282.951,316.076H192.51c-1.328,0-2.401,0.696-2.401,1.559v4.592c0,0.86,1.073,1.559,2.401,1.559
		h90.442c1.324,0,2.401-0.699,2.401-1.559v-4.592C285.352,316.772,284.275,316.076,282.951,316.076z"/>
	<path style="fill:#CEA278;" d="M282.951,295.041H192.51c-1.328,0-2.401,0.696-2.401,1.559v4.592c0,0.86,1.073,1.559,2.401,1.559
		h90.442c1.324,0,2.401-0.699,2.401-1.559v-4.592C285.352,295.737,284.275,295.041,282.951,295.041z"/>
</g>
<path style="fill:#DDB68C;" d="M285.027,334.669h-95.097c-3.631,0-6.578,2.947-6.578,6.578v10.359c0,3.635,2.947,6.578,6.578,6.578
	h95.097c3.635,0,6.578-2.943,6.578-6.578v-10.359C291.604,337.616,288.658,334.669,285.027,334.669z"/>
<rect x="203.395" y="268.127" style="fill:#CCB03A;" width="68.726" height="68.726"/>
<rect x="205.048" y="269.81" style="fill:#A88A6C;" width="65.405" height="65.409"/>
<circle style="fill:#D3AA79;" cx="237.463" cy="302.225" r="29.131"/>
<circle style="fill:#EADED3;" cx="237.463" cy="302.225" r="26.932"/>
<g>
	<path style="fill:#C4BFBB;" d="M237.478,281.885c-0.374,0-0.733,0.037-1.099,0.056v6.047c0.366-0.026,0.725-0.056,1.099-0.056
		c0.37,0,0.733,0.03,1.099,0.056v-6.047C238.211,281.923,237.848,281.885,237.478,281.885z"/>
	<path style="fill:#C4BFBB;" d="M220.467,291.111c-0.404,0.613-0.767,1.249-1.099,1.903l5.239,3.033
		c0.322-0.666,0.681-1.305,1.099-1.907L220.467,291.111z"/>
	<path style="fill:#C4BFBB;" d="M250.346,308.399c-0.318,0.666-0.681,1.305-1.096,1.907l5.239,3.029
		c0.404-0.613,0.767-1.249,1.099-1.903L250.346,308.399z"/>
	<path style="fill:#C4BFBB;" d="M223.241,301.125h-6.047c-0.019,0.366-0.056,0.725-0.056,1.099c0,0.37,0.034,0.733,0.056,1.099
		h6.047c-0.026-0.366-0.056-0.729-0.056-1.099C223.185,301.851,223.215,301.488,223.241,301.125z"/>
	<path style="fill:#C4BFBB;" d="M257.758,301.125h-6.047c0.026,0.363,0.056,0.725,0.056,1.099c0,0.37-0.03,0.733-0.056,1.099h6.047
		c0.019-0.366,0.056-0.729,0.056-1.099C257.814,301.851,257.78,301.488,257.758,301.125z"/>
	<path style="fill:#C4BFBB;" d="M237.478,316.514c-0.374,0-0.733-0.026-1.099-0.056v6.047c0.366,0.019,0.725,0.056,1.099,0.056
		c0.37,0,0.733-0.037,1.099-0.056v-6.047C238.211,316.488,237.848,316.514,237.478,316.514z"/>
	<path style="fill:#C4BFBB;" d="M245.499,314.038c-0.606,0.411-1.249,0.767-1.915,1.084l3.007,5.254
		c0.654-0.329,1.298-0.692,1.911-1.088L245.499,314.038z"/>
	<path style="fill:#C4BFBB;" d="M228.361,284.069c-0.654,0.329-1.298,0.692-1.911,1.092l3.003,5.247
		c0.606-0.411,1.245-0.767,1.915-1.084L228.361,284.069z"/>
	<path style="fill:#C4BFBB;" d="M224.576,308.335l-5.254,3.003c0.329,0.658,0.696,1.298,1.092,1.911l5.247-2.999
		C225.249,309.644,224.898,309.001,224.576,308.335z"/>
	<path style="fill:#C4BFBB;" d="M254.542,291.201l-5.247,2.999c0.411,0.602,0.763,1.245,1.084,1.911l5.254-3.003
		C255.301,292.45,254.938,291.814,254.542,291.201z"/>
	<path style="fill:#C4BFBB;" d="M229.397,313.997l-3.033,5.239c0.613,0.4,1.249,0.763,1.903,1.096l3.033-5.239
		C230.638,314.771,229.995,314.412,229.397,313.997z"/>
	<path style="fill:#C4BFBB;" d="M246.688,284.114l-3.033,5.243c0.662,0.318,1.305,0.681,1.903,1.092l3.033-5.239
		C247.979,284.813,247.339,284.451,246.688,284.114z"/>
	<path style="fill:#C4BFBB;" d="M251.711,301.125c-0.135-1.784-0.606-3.47-1.335-5.011c-0.318-0.666-0.673-1.309-1.084-1.911
		c-1.002-1.473-2.27-2.741-3.736-3.751c-0.602-0.411-1.242-0.774-1.903-1.092c-1.559-0.752-3.272-1.23-5.078-1.369
		c-0.366-0.026-0.729-0.056-1.099-0.056c-0.374,0-0.733,0.03-1.099,0.056c-1.78,0.135-3.47,0.606-5.007,1.335
		c-0.669,0.318-1.313,0.669-1.915,1.084c-1.47,1.002-2.741,2.27-3.747,3.736c-0.419,0.602-0.778,1.242-1.099,1.907
		c-0.752,1.559-1.227,3.268-1.365,5.078c-0.026,0.363-0.056,0.725-0.056,1.099c0,0.37,0.03,0.733,0.056,1.099
		c0.135,1.784,0.606,3.47,1.335,5.011c0.318,0.666,0.673,1.313,1.084,1.915c1.002,1.47,2.27,2.737,3.736,3.747
		c0.602,0.415,1.242,0.774,1.903,1.096c1.559,0.752,3.272,1.227,5.078,1.365c0.366,0.03,0.725,0.056,1.099,0.056
		c0.37,0,0.733-0.026,1.099-0.056c1.78-0.135,3.47-0.606,5.007-1.335c0.666-0.314,1.313-0.669,1.915-1.084
		c1.47-1.002,2.741-2.27,3.747-3.732c0.419-0.602,0.778-1.245,1.096-1.907c0.752-1.559,1.227-3.268,1.369-5.075
		c0.026-0.366,0.056-0.729,0.056-1.099C251.771,301.851,251.741,301.488,251.711,301.125z M249.516,303.324
		c-0.127,1.406-0.505,2.745-1.077,3.975c-0.31,0.669-0.677,1.309-1.099,1.903c-0.804,1.133-1.795,2.12-2.932,2.921
		c-0.602,0.419-1.242,0.785-1.911,1.092c-1.212,0.553-2.532,0.92-3.919,1.047c-0.363,0.034-0.729,0.06-1.099,0.06
		c-0.374,0-0.737-0.022-1.099-0.06c-1.41-0.127-2.745-0.505-3.975-1.073c-0.669-0.31-1.305-0.677-1.9-1.103
		c-1.133-0.804-2.12-1.795-2.921-2.932c-0.423-0.598-0.785-1.238-1.092-1.907c-0.557-1.215-0.924-2.532-1.047-3.919
		c-0.034-0.363-0.056-0.729-0.056-1.099c0-0.374,0.022-0.737,0.056-1.099c0.127-1.41,0.505-2.745,1.077-3.975
		c0.31-0.669,0.677-1.309,1.099-1.903c0.804-1.133,1.795-2.12,2.932-2.921c0.602-0.419,1.242-0.785,1.907-1.092
		c1.215-0.557,2.532-0.924,3.919-1.047c0.363-0.034,0.725-0.056,1.099-0.056c0.37,0,0.737,0.019,1.099,0.056
		c1.41,0.127,2.745,0.505,3.975,1.077c0.669,0.31,1.305,0.681,1.9,1.099c1.133,0.804,2.12,1.795,2.921,2.936
		c0.423,0.598,0.785,1.238,1.092,1.907c0.553,1.212,0.924,2.528,1.047,3.919c0.034,0.363,0.056,0.725,0.056,1.099
		C249.568,302.595,249.546,302.962,249.516,303.324z"/>
	<path style="fill:#C4BFBB;" d="M259.956,301.125c-0.157-3.268-1.006-6.35-2.416-9.11c-0.333-0.654-0.699-1.294-1.092-1.907
		c-1.743-2.719-4.046-5.041-6.757-6.795c-0.613-0.4-1.245-0.767-1.903-1.103c-2.782-1.443-5.905-2.304-9.211-2.464
		c-0.366-0.019-0.729-0.056-1.099-0.056c-0.374,0-0.733,0.034-1.099,0.056c-3.265,0.157-6.35,1.006-9.106,2.416
		c-0.658,0.333-1.294,0.699-1.911,1.092c-2.719,1.743-5.041,4.046-6.795,6.757c-0.396,0.613-0.767,1.245-1.103,1.9
		c-1.44,2.786-2.304,5.905-2.464,9.214c-0.019,0.366-0.056,0.725-0.056,1.099c0,0.37,0.037,0.733,0.056,1.099
		c0.157,3.268,1.006,6.35,2.416,9.11c0.333,0.654,0.696,1.294,1.092,1.907c1.743,2.722,4.046,5.041,6.757,6.795
		c0.613,0.4,1.245,0.767,1.903,1.103c2.782,1.443,5.905,2.307,9.211,2.464c0.366,0.019,0.725,0.06,1.099,0.06
		c0.37,0,0.733-0.037,1.099-0.06c3.265-0.157,6.35-1.006,9.106-2.412c0.658-0.337,1.294-0.699,1.911-1.092
		c2.719-1.743,5.041-4.05,6.795-6.757c0.396-0.617,0.767-1.249,1.103-1.903c1.44-2.786,2.304-5.909,2.464-9.214
		c0.019-0.366,0.056-0.729,0.056-1.099C260.013,301.851,259.975,301.488,259.956,301.125z M257.758,303.324
		c-0.157,2.906-0.916,5.65-2.173,8.107c-0.333,0.654-0.696,1.294-1.099,1.903c-1.556,2.378-3.597,4.405-5.983,5.95
		c-0.613,0.396-1.253,0.759-1.911,1.088c-2.438,1.23-5.146,1.974-8.018,2.128c-0.366,0.019-0.729,0.056-1.099,0.056
		c-0.374,0-0.733-0.037-1.099-0.056c-2.906-0.157-5.65-0.916-8.111-2.173c-0.654-0.337-1.29-0.699-1.903-1.096
		c-2.378-1.559-4.405-3.601-5.95-5.987c-0.396-0.617-0.759-1.253-1.092-1.911c-1.227-2.434-1.974-5.146-2.128-8.014
		c-0.019-0.366-0.056-0.729-0.056-1.099c0-0.374,0.034-0.733,0.056-1.099c0.157-2.906,0.916-5.651,2.173-8.111
		c0.333-0.654,0.696-1.294,1.099-1.903c1.556-2.378,3.597-4.405,5.983-5.95c0.613-0.396,1.253-0.759,1.911-1.092
		c2.438-1.23,5.146-1.974,8.018-2.128c0.366-0.019,0.725-0.056,1.099-0.056c0.37,0,0.733,0.037,1.099,0.056
		c2.906,0.157,5.65,0.916,8.111,2.173c0.654,0.337,1.29,0.699,1.903,1.096c2.378,1.559,4.405,3.601,5.95,5.991
		c0.396,0.613,0.759,1.249,1.092,1.907c1.227,2.434,1.974,5.146,2.128,8.018c0.019,0.366,0.056,0.725,0.056,1.099
		S257.78,302.958,257.758,303.324z"/>
</g>
<g>
	<path style="fill:#6B6663;" d="M259.807,314.319l-26.891-15.553l-0.52-1.028c0,0-0.325,0.31-0.621,0.456
		c-0.37,0.183-0.86,0.284-0.86,0.284s0.142,0.482,0.183,0.811c0.041,0.333-0.079,0.823-0.079,0.823l1.133-0.262l27.037,15.635
		c0,0,0.445,0.034,0.651-0.378C260.046,314.696,259.807,314.319,259.807,314.319z"/>
	<path style="fill:#6B6663;" d="M238.783,295.161c-0.284-0.236-0.438-0.793-0.438-0.793s-0.34,0.524-0.752,0.632
		c-0.595,0.161-1.047,0.628-1.133,0.957c-0.086,0.329,0.606,1.458,0.606,1.458l-2.801,16.477l1.286,0.221l2.805-16.525
		c0,0,1.178-0.546,1.212-1.025C239.609,296.073,239.415,295.673,238.783,295.161z"/>
	<path style="fill:#6B6663;" d="M236.016,313.474c-0.434-0.112-0.871,0.004-1.185,0.277c-0.146-0.389-0.467-0.707-0.905-0.819
		c-0.703-0.183-1.421,0.239-1.604,0.942c-0.183,0.703,1.264,3.698,1.582,3.429c0.146,0.393,2.876-1.511,3.059-2.214
		C237.141,314.378,236.723,313.657,236.016,313.474z"/>
	<circle style="fill:#6B6663;" cx="233.91" cy="317.415" r="0.733"/>
</g>
<polygon style="fill:#A8886D;" points="271.774,336.853 203.732,336.853 195.142,351.326 280.36,351.326 "/>
<g>
	<path style="fill:#897664;" d="M211.17,342.971h-2.779c-0.531,0-0.961,0.681-0.961,1.518v6.836h4.701v-6.836
		C212.131,343.652,211.701,342.971,211.17,342.971z"/>
	<path style="fill:#897664;" d="M229.389,342.971h-2.778c-0.535,0-0.961,0.681-0.961,1.518v6.836h4.701v-6.836
		C230.354,343.652,229.92,342.971,229.389,342.971z"/>
	<path style="fill:#897664;" d="M247.608,342.971h-2.778c-0.531,0-0.961,0.681-0.961,1.518v6.836h4.701v-6.836
		C248.573,343.652,248.139,342.971,247.608,342.971z"/>
	<path style="fill:#897664;" d="M265.831,342.971h-2.779c-0.531,0-0.961,0.681-0.961,1.518v6.836h4.701v-6.836
		C266.792,343.652,266.359,342.971,265.831,342.971z"/>
	<path style="fill:#897664;" d="M220.28,342.971h-2.779c-0.531,0-0.961,0.681-0.961,1.518v6.836h4.701v-6.836
		C221.241,343.652,220.811,342.971,220.28,342.971z"/>
	<path style="fill:#897664;" d="M238.503,342.971h-2.782c-0.531,0-0.961,0.681-0.961,1.518v6.836h4.701v-6.836
		C239.464,343.652,239.03,342.971,238.503,342.971z"/>
	<path style="fill:#897664;" d="M256.718,342.971h-2.779c-0.535,0-0.961,0.681-0.961,1.518v6.836h4.697v-6.836
		C257.679,343.652,257.249,342.971,256.718,342.971z"/>
	<path style="fill:#897664;" d="M211.17,243.027h-2.779c-0.531,0-0.961,0.681-0.961,1.518v9.274c0,0.838,0.43,1.518,0.961,1.518
		h2.779c0.531,0,0.961-0.681,0.961-1.518v-9.274C212.131,243.708,211.701,243.027,211.17,243.027z"/>
	<path style="fill:#897664;" d="M229.389,243.027h-2.778c-0.535,0-0.961,0.681-0.961,1.518v9.274c0,0.838,0.426,1.518,0.961,1.518
		h2.778c0.531,0,0.961-0.681,0.961-1.518v-9.274C230.354,243.708,229.92,243.027,229.389,243.027z"/>
	<path style="fill:#897664;" d="M247.608,243.027h-2.778c-0.531,0-0.961,0.681-0.961,1.518v9.274c0,0.838,0.43,1.518,0.961,1.518
		h2.778c0.531,0,0.961-0.681,0.961-1.518v-9.274C248.573,243.708,248.139,243.027,247.608,243.027z"/>
	<path style="fill:#897664;" d="M265.831,243.027h-2.779c-0.531,0-0.961,0.681-0.961,1.518v9.274c0,0.838,0.43,1.518,0.961,1.518
		h2.779c0.531,0,0.961-0.681,0.961-1.518v-9.274C266.792,243.708,266.359,243.027,265.831,243.027z"/>
	<path style="fill:#897664;" d="M220.28,243.027h-2.779c-0.531,0-0.961,0.681-0.961,1.518v9.274c0,0.838,0.434,1.518,0.961,1.518
		h2.779c0.531,0,0.961-0.681,0.961-1.518v-9.274C221.241,243.708,220.811,243.027,220.28,243.027z"/>
	<path style="fill:#897664;" d="M238.503,243.027h-2.782c-0.531,0-0.961,0.681-0.961,1.518v9.274c0,0.838,0.43,1.518,0.961,1.518
		h2.782c0.531,0,0.961-0.681,0.961-1.518v-9.274C239.464,243.708,239.03,243.027,238.503,243.027z"/>
	<path style="fill:#897664;" d="M256.718,243.027h-2.779c-0.535,0-0.961,0.681-0.961,1.518v9.274c0,0.838,0.426,1.518,0.961,1.518
		h2.779c0.531,0,0.961-0.681,0.961-1.518v-9.274C257.679,243.708,257.249,243.027,256.718,243.027z"/>
	<path style="fill:#897664;" d="M212.931,213.676h-2.588c-0.497,0-0.898,0.553-0.898,1.238v7.539c0,0.684,0.4,1.234,0.898,1.234
		h2.588c0.494,0,0.894-0.55,0.894-1.234v-7.539C213.825,214.229,213.425,213.676,212.931,213.676z"/>
	<path style="fill:#897664;" d="M229.913,213.676h-2.588c-0.497,0-0.897,0.553-0.897,1.238v7.539c0,0.684,0.4,1.234,0.897,1.234
		h2.588c0.494,0,0.894-0.55,0.894-1.234v-7.539C230.81,214.229,230.41,213.676,229.913,213.676z"/>
	<path style="fill:#897664;" d="M246.894,213.676h-2.588c-0.497,0-0.897,0.553-0.897,1.238v7.539c0,0.684,0.4,1.234,0.897,1.234
		h2.588c0.497,0,0.897-0.55,0.897-1.234v-7.539C247.795,214.229,247.392,213.676,246.894,213.676z"/>
	<path style="fill:#897664;" d="M263.879,213.676h-2.592c-0.494,0-0.894,0.553-0.894,1.238v7.539c0,0.684,0.4,1.234,0.894,1.234
		h2.592c0.494,0,0.897-0.55,0.897-1.234v-7.539C264.777,214.229,264.373,213.676,263.879,213.676z"/>
	<path style="fill:#897664;" d="M221.241,194.806h-2.588c-0.494,0-0.894,0.553-0.894,1.234v7.539c0,0.681,0.4,1.234,0.894,1.234
		h2.588c0.497,0,0.897-0.553,0.897-1.234v-7.539C222.138,195.359,221.734,194.806,221.241,194.806z"/>
	<path style="fill:#897664;" d="M238.222,194.806h-2.588c-0.497,0-0.897,0.553-0.897,1.234v7.539c0,0.681,0.4,1.234,0.897,1.234
		h2.588c0.497,0,0.897-0.553,0.897-1.234v-7.539C239.12,195.359,238.719,194.806,238.222,194.806z"/>
	<path style="fill:#897664;" d="M255.207,194.806h-2.592c-0.494,0-0.894,0.553-0.894,1.234v7.539c0,0.681,0.4,1.234,0.894,1.234
		h2.592c0.494,0,0.897-0.553,0.897-1.234v-7.539C256.105,195.359,255.701,194.806,255.207,194.806z"/>
	<path style="fill:#897664;" d="M222.935,152.358h-2.311c-0.441,0-0.8,1.466-0.8,3.28v20.059c0,1.814,0.359,3.28,0.8,3.28h2.311
		c0.441,0,0.8-1.466,0.8-3.28v-20.059C223.735,153.824,223.376,152.358,222.935,152.358z"/>
	<path style="fill:#897664;" d="M238.084,152.358h-2.311c-0.441,0-0.797,1.466-0.797,3.28v20.059c0,1.814,0.355,3.28,0.797,3.28
		h2.311c0.438,0,0.797-1.466,0.797-3.28v-20.059C238.884,153.824,238.525,152.358,238.084,152.358z"/>
	<path style="fill:#897664;" d="M253.233,152.358h-2.311c-0.445,0-0.8,1.466-0.8,3.28v20.059c0,1.814,0.355,3.28,0.8,3.28h2.311
		c0.441,0,0.797-1.466,0.797-3.28v-20.059C254.029,153.824,253.674,152.358,253.233,152.358z"/>
	<path style="fill:#897664;" d="M230.631,152.358h-2.311c-0.441,0-0.8,1.466-0.8,3.28v20.059c0,1.814,0.359,3.28,0.8,3.28h2.311
		c0.441,0,0.797-1.466,0.797-3.28v-20.059C231.427,153.824,231.068,152.358,230.631,152.358z"/>
	<path style="fill:#897664;" d="M245.78,152.358h-2.311c-0.441,0-0.797,1.466-0.797,3.28v20.059c0,1.814,0.359,3.28,0.797,3.28
		h2.311c0.441,0,0.797-1.466,0.797-3.28v-20.059C246.576,153.824,246.221,152.358,245.78,152.358z"/>
</g>
<path style="fill:#E5C3A1;" d="M267.226,366.617h-59.773c-3.302,0-5.98,1.215-5.98,2.719v6.679c0,1.5,2.678,2.719,5.98,2.719h59.773
	c3.298,0,5.976-1.219,5.976-2.719v-6.679C273.202,367.832,270.525,366.617,267.226,366.617z"/>
<path style="fill:#7F7B79;" d="M240.559,48.36h-6.163c-1.028,0-1.866,0.591-1.866,1.32v3.04c0,0.729,0.834,1.32,1.866,1.32h6.159
	c1.028,0,1.866-0.591,1.866-1.32v-3.04C242.422,48.947,241.588,48.36,240.559,48.36z"/>
<g>
	<path style="fill:#897664;" d="M211.17,370.27h-2.779c-0.531,0-0.961,0.681-0.961,1.515v6.84h4.701v-6.84
		C212.131,370.951,211.701,370.27,211.17,370.27z"/>
	<path style="fill:#897664;" d="M229.389,370.27h-2.778c-0.535,0-0.961,0.681-0.961,1.515v6.84h4.701v-6.84
		C230.354,370.951,229.92,370.27,229.389,370.27z"/>
	<path style="fill:#897664;" d="M247.608,370.27h-2.778c-0.531,0-0.961,0.681-0.961,1.515v6.84h4.701v-6.84
		C248.573,370.951,248.139,370.27,247.608,370.27z"/>
	<path style="fill:#897664;" d="M265.831,370.27h-2.779c-0.531,0-0.961,0.681-0.961,1.515v6.84h4.701v-6.84
		C266.792,370.951,266.359,370.27,265.831,370.27z"/>
	<path style="fill:#897664;" d="M220.28,370.27h-2.779c-0.531,0-0.961,0.681-0.961,1.515v6.84h4.701v-6.84
		C221.241,370.951,220.811,370.27,220.28,370.27z"/>
	<path style="fill:#897664;" d="M238.503,370.27h-2.782c-0.531,0-0.961,0.681-0.961,1.515v6.84h4.701v-6.84
		C239.464,370.951,239.03,370.27,238.503,370.27z"/>
	<path style="fill:#897664;" d="M256.718,370.27h-2.779c-0.535,0-0.961,0.681-0.961,1.515v6.84h4.697v-6.84
		C257.679,370.951,257.249,370.27,256.718,370.27z"/>
</g>
<g>
</g>
<g>
</g>
<g>
</g>
<g>
</g>
<g>
</g>
<g>
</g>
<g>
</g>
<g>
</g>
<g>
</g>
<g>
</g>
<g>
</g>
<g>
</g>
<g>
</g>
<g>
</g>
<g>
</g>
</svg>
