<?xml version="1.0" encoding="iso-8859-1"?>
<!-- Generator: Adobe Illustrator 19.0.0, SVG Export Plug-In . SVG Version: 6.00 Build 0)  -->
<svg version="1.1" id="Layer_1" xmlns="http://www.w3.org/2000/svg" xmlns:xlink="http://www.w3.org/1999/xlink" x="0px" y="0px"
	 viewBox="0 0 475.584 475.584" style="enable-background:new 0 0 475.584 475.584;" xml:space="preserve">
<circle style="fill:#B9E8EA;" cx="237.783" cy="237.783" r="237.779"/>
<rect x="167.759" y="110.494" style="fill:#E8DACF;" width="137.67" height="70.71"/>
<path style="fill:#A0D2DC;" d="M0.004,237.835C0.03,369.137,106.481,475.58,237.79,475.58
	c131.317,0,237.768-106.443,237.794-237.745H0.004z"/>
<g>
	<path style="fill:#E8DACF;" d="M458.628,149.617l-153.199-39.123v27.221l162.886,41.601
		C465.743,169.13,462.466,159.233,458.628,149.617z"/>
	<path style="fill:#E8DACF;" d="M17.155,149.114c-3.867,9.619-7.175,19.524-9.777,29.718l161.005-41.12V110.49L17.155,149.114z"/>
</g>
<path style="fill:#BA9B7F;" d="M470.628,189.341c-0.698-3.368-1.476-6.709-2.313-10.025l-162.886-41.601h-137.67v0.158
	L7.378,178.832c-0.886,3.473-1.693,6.976-2.425,10.505c-1.539,7.43-2.715,15-3.537,22.667h472.749
	C473.343,204.337,472.167,196.771,470.628,189.341z"/>
<g>
	<path style="fill:#C6A889;" d="M474.589,216.562h-169.16v-4.554H168.383v4.554H0.995C0.375,223.56,0,230.63,0,237.79v0.045h475.58
		v-0.045C475.584,230.63,475.209,223.56,474.589,216.562z"/>
	<path style="fill:#C6A889;" d="M474.169,212.007H305.429v4.554h169.16C474.454,215.041,474.334,213.52,474.169,212.007z"/>
	<path style="fill:#C6A889;" d="M1.419,212.007c-0.165,1.513-0.285,3.034-0.421,4.554h167.388v-4.554H1.419z"/>
</g>
<path style="fill:#6597AA;" d="M0.004,237.79c0,131.325,106.462,237.79,237.786,237.79c131.332,0,237.794-106.465,237.794-237.79
	H0.004z"/>
<g>
	<path style="fill:#C6A889;" d="M364.095,224.72c0,0-55.7-17.557-59.938-33.296l-1.096,38.173l64.666,4.205L364.095,224.72z"/>
	<path style="fill:#C6A889;" d="M169.269,191.425c-4.239,15.739-59.935,33.296-59.935,33.296l-3.634,9.082l64.669-4.205
		L169.269,191.425z"/>
</g>
<path style="fill:#D1B695;" d="M236.927,148.04c-37.865,0-68.567,23.372-68.567,52.204v45.104h14.624v-34.126
	c0-25.084,24.153-45.423,53.942-45.423c29.789,0,53.939,20.339,53.939,45.423v34.126h14.624V200.24
	C305.489,171.413,274.792,148.04,236.927,148.04z"/>
<g>
	<path style="fill:#6597AA;" d="M236.927,157.111c-33.592,0-60.828,22.43-60.828,50.098v42.941h121.653v-42.941
		C297.751,179.541,270.519,157.111,236.927,157.111z"/>
	<path style="fill:#6597AA;" d="M236.927,172.757c-33.592,0-60.828,18.66-60.828,41.676v35.721h121.653v-35.725
		C297.751,191.413,270.519,172.757,236.927,172.757z"/>
</g>
<g>
	<path style="fill:#C1A78A;" d="M156.267,237.756c7.036,0,12.172,7.588,12.172,7.588v-7.588L156.267,237.756L156.267,237.756z"/>
	<path style="fill:#C1A78A;" d="M305.512,237.756v7.588c0,0,5.136-7.588,12.172-7.588L305.512,237.756L305.512,237.756z"/>
</g>
<path style="fill:#255140;" d="M34.73,264.324c0,0,1.708-3.582,2.564-5.114c0,0,2.561-6.649-1.367-11.594
	c0,0-4.093-3.924-10.235-4.265c0,0-1.359,12.109,1.025,15.518c0,0,1.025-2.046,2.561-1.877c0,0,2.384,0.169,2.043,4.434
	c0,0-0.338,7.16,0,11.936c0,0-0.511,13.471,9.552,15.859L34.73,264.324z"/>
<path style="fill:#DDAF78;" d="M337.174,229.181l-4.092,3.717l-3.969-1.363l-3.717-1.862c0,0-0.864-0.248-1.239,1.487
	c-0.375,1.735,1.239,2.854,1.239,2.854l9.173,2.974l8.549-3.841L337.174,229.181z"/>
<path style="fill:#1A3A2F;" d="M441.74,255.737l-2.977,0.743c-6.694,31.982-71.705,32.917-80.987,33.42
	c-102.621,5.576-105.594,4.46-253.698-2.185c-71.574-3.21-68.42-33.469-68.42-33.469c-11.072,50.541,28.092,54.01,46.933,58.97
	c96.985,25.52,211.564,11.268,211.564,11.268c75.865-5.208,131.223-31.561,131.223-31.561
	C444.71,280.281,441.74,255.737,441.74,255.737z"/>
<path style="fill:#143025;" d="M104.074,287.715c-71.574-3.21-68.42-33.469-68.42-33.469c-11.072,50.541,28.092,54.01,46.933,58.97
	c32.665,8.598,67.331,12.679,98.938,14.316l0.499-36.303C161.144,290.325,135.973,289.149,104.074,287.715z"/>
<path style="fill:#0A1E18;" d="M441.74,255.737l-2.977,0.743c-6.694,31.982-81.069,38.395-81.069,38.395
	c-42.082,3.529-90.569,7.198-133.803,6.942c-66.036-0.394-119.817-6.199-119.817-6.199c-71.398-5.947-68.42-41.368-68.42-41.368
	c-11.072,50.541,28.092,54.01,46.933,58.97c96.985,25.52,211.564,11.268,211.564,11.268c75.866-5.208,131.223-31.561,131.223-31.561
	C444.71,280.281,441.74,255.737,441.74,255.737z"/>
<polygon style="fill:#EABE83;" points="345.851,251.742 337.422,251.243 332.462,272.896 336.348,296.523 341.552,296.279 
	339.904,274.383 "/>
<path style="fill:#564E46;" d="M339.656,250.747l-3.721,0.248c0,0-4.213,20.245-4.46,22.392c-0.244,2.148,0.909,4.791,0.909,4.791
	l4.547,0.33l3.638-0.826L339.656,250.747z"/>
<path style="fill:#EABE83;" d="M348.573,282.977c0-1.982,0-7.686-0.991-11.403c-0.991-3.721-6.694-0.248-6.694-0.248
	s4.404,20.204,5.643,24.416l5.02-0.372C351.551,295.371,348.573,284.955,348.573,282.977z"/>
<polygon style="fill:#60584E;" points="337.422,251.243 337.67,265.623 340.813,278.926 345.352,279.008 348.99,278.182 
	349.073,248.765 "/>
<path style="fill:#EFE1E4;" d="M347.999,215.548c0,0-4.299-2.808-7.765,2.974c0,0-5.621,7.434-4.795,23.631l7.438,4.13l5.617-4.13
	C348.495,242.157,355.606,223.647,347.999,215.548z"/>
<g>
	<path style="fill:#DDAF78;" d="M343.576,200.135c-3.195,0-5.778,2.974-5.778,6.646c0,0.398-0.875,1.258-0.894,1.697
		c-0.026,0.518,0.796,0.526,0.788,0.777c-0.071,1.119-0.049,1.757,0.484,2.474c1.059,1.427,3.642,1.697,5.399,1.697
		c3.199,0,5.786-2.974,5.786-6.642C349.362,203.113,346.775,200.135,343.576,200.135z"/>
	<path style="fill:#DDAF78;" d="M347.575,211.395l-5.516,1.697c0,0,1.937,0.668-0.139,3.447l1.682,1.115c0,0,3.342-1.66,3.3-2.268
		C346.824,214.215,346.831,212.33,347.575,211.395z"/>
</g>
<path style="fill:#916F4E;" d="M339.942,204.258l1.949,1.554c0,0,1.198,2.088,1.765,2.617c0.567,0.529,4.468,2.471,4.772,2.294
	c0.849-0.492,1.63-4.629,1.63-4.629L339.942,204.258z"/>
<g>
	<path style="fill:#FFFBFF;" d="M354.205,205.617l-20.327-3.473c-0.353-0.06-0.695,0.203-0.755,0.586
		c-0.064,0.387,0.165,0.747,0.518,0.803l20.335,3.473c0.345,0.064,0.68-0.203,0.743-0.586
		C354.791,206.038,354.555,205.677,354.205,205.617z"/>
	<path style="fill:#FFFBFF;" d="M350.943,200.237l-12.202-2.084c-0.21-0.034-0.589,1.16-0.841,2.67
		c-0.259,1.509-0.3,2.763-0.09,2.797l12.199,2.084c0.207,0.034,0.586-1.16,0.849-2.67
		C351.115,201.524,351.153,200.274,350.943,200.237z"/>
</g>
<path style="fill:#F40029;" d="M337.756,201.802c-0.038,0.349-0.064,0.668-0.079,0.935l12.766,2.114
	c0.083-0.274,0.169-0.601,0.24-0.965L337.756,201.802z"/>
<polygon style="fill:#CEA16F;" points="338.691,206.022 338.507,206.969 340.152,206.638 "/>
<path style="fill:#B2875D;" d="M338.789,205.365c0,0,0.33,0.023,0.638,0.139c0.3,0.116,1.104,0.616,1.104,0.616
	C340.133,205.482,339.119,204.919,338.789,205.365z"/>
<path style="fill:#CEA16F;" d="M337.651,209.796l0.03,0.563c1.13,0,1.746-0.683,1.746-0.683
	C338.673,209.863,337.651,209.796,337.651,209.796z"/>
<g>
	<path style="fill:#0F0F59;" d="M335.312,238.973v1.611c0,0,9.544-1.982,13.881-0.743l0.499-1.239
		C349.692,238.601,340.892,237.486,335.312,238.973z"/>
	<path style="fill:#0F0F59;" d="M335.451,242.161l2.204,1.224c2.628-0.424,6.931-0.969,9.999-0.612l0.841-0.62
		c0,0,0.06-0.158,0.161-0.443C346.197,241.473,339.867,241.03,335.451,242.161z"/>
	<path style="fill:#0F0F59;" d="M335.436,236.041l-0.079,1.322c0.826-0.083,15.12-1.404,15.12-1.404l0.083-1.074
		C348.416,235.545,335.436,236.041,335.436,236.041z"/>
	<path style="fill:#0F0F59;" d="M335.601,232.489l-0.079,1.817c2.895,0.496,15.619-1.652,15.619-1.652v-1.404
		C340.396,233.315,335.601,232.489,335.601,232.489z"/>
	<path style="fill:#0F0F59;" d="M346.843,229.181l-10.825,0.743l-0.244,1.404l10.99-0.909c2.478-0.991,4.712-0.991,4.712-0.991
		v-1.322L346.843,229.181z"/>
	<path style="fill:#0F0F59;" d="M351.303,223.812l-3.053,1.9l-11.406,0.33l-0.409,1.9c0,0,1.813,0,2.726,0s8.429-0.578,9.42-1.074
		c0.995-0.496,2.895-1.569,2.895-1.569L351.303,223.812z"/>
	<polygon style="fill:#0F0F59;" points="350.477,220.177 348.99,221.664 347.586,223.234 339.818,223.481 338.087,222.821 
		337.591,224.39 339.491,224.886 348.082,224.555 349.899,222.408 351.142,222.077 	"/>
	<polygon style="fill:#0F0F59;" points="348.908,216.704 346.595,219.682 340.809,220.012 339.491,219.682 339.24,220.343 
		340.313,221.251 347.421,220.756 347.503,219.93 349.568,217.861 	"/>
	<polygon style="fill:#0F0F59;" points="346.321,215.131 343.287,217.117 342.052,216.291 341.143,217.283 342.213,217.943 
		342.626,220.095 344.196,219.764 344.365,218.112 347.338,215.135 	"/>
</g>
<path style="fill:#F40029;" d="M348.495,242.157l-6.612,2.148l-6.447-2.148c0,0,0.334,4.791,0.496,8.838
	c0.169,4.047,13.141-2.23,13.141-2.23S349.816,244.965,348.495,242.157z"/>
<path style="fill:#EFE1E4;" d="M344.196,220.012c0,0-5.538-0.496-4.708,9.751c0,0,2.309-0.496,3.882-0.578
	c1.569-0.083,4.134,0.413,4.134,0.413S349.324,220.012,344.196,220.012z"/>
<g>
	<path style="fill:#0F0F59;" d="M347.162,222.066l-6.248-0.143c-0.203,0.345-0.387,0.751-0.544,1.228h7.152
		C347.428,222.768,347.308,222.404,347.162,222.066z"/>
	<path style="fill:#0F0F59;" d="M347.751,224.6c-1.618,0.176-6.48,0.334-7.994,0.357c-0.041,0.289-0.079,0.597-0.101,0.92
		l8.159,0.068C347.811,225.501,347.793,225.051,347.751,224.6z"/>
	<path style="fill:#0F0F59;" d="M339.491,227.285c-0.008,0.454,0.004,0.939,0.026,1.453l8.117,0.008
		c0.041-0.323,0.083-0.721,0.12-1.171L339.491,227.285z"/>
</g>
<polygon style="fill:#A5805B;" points="318.582,220.26 317.59,221.991 419.888,338.169 422.366,335.939 "/>
<path style="fill:#EABE83;" d="M339.859,229.763l-0.706,2.643l-8.095-0.496l-1.325-3.469c-1.648-0.83-3.469,0.492-3.469,0.492
	c-1.648,2.317,2.478,4.96,2.478,4.96l11.444,3.469c3.308,2.643,3.803-0.826,3.803-0.826l2.808-7.107
	C344.488,228.276,339.859,229.763,339.859,229.763z"/>
<path style="fill:#A5805B;" d="M436.416,346.948l-13.134-12.27c-0.139-0.131-0.353-0.131-0.496-0.011l-3.969,3.345
	c-0.131,0.116-0.169,0.312-0.086,0.466l8.433,15.371c0.049,0.094,0.139,0.161,0.244,0.184c0.026,0.004,0.053,0.007,0.079,0.007
	c0.079,0,0.154-0.022,0.221-0.075l8.677-6.447c0.086-0.064,0.143-0.165,0.15-0.278S436.499,347.023,436.416,346.948z"/>
<path style="fill:#0F4363;" d="M317.26,280.916c-6.578-2.504-10.648,5.636-10.648,5.636c-1.254-6.263-6.266-8.455-11.902-5.636
	c-7.303,3.653-7.303,18.998-7.303,18.998l34.34-2.189c0,0,1.461-3.03,1.776-7.1C323.834,286.551,323.834,283.42,317.26,280.916z"/>
<g style="opacity:0.6;">
	<rect x="408.204" y="330.747" style="fill:#6597AA;" width="30.506" height="27.221"/>
</g>
<circle style="fill:#0A1E18;" cx="440.381" cy="257.547" r="2.816"/>
<g>
</g>
<g>
</g>
<g>
</g>
<g>
</g>
<g>
</g>
<g>
</g>
<g>
</g>
<g>
</g>
<g>
</g>
<g>
</g>
<g>
</g>
<g>
</g>
<g>
</g>
<g>
</g>
<g>
</g>
</svg>
