<?xml version="1.0" encoding="iso-8859-1"?>
<!-- Generator: Adobe Illustrator 19.0.0, SVG Export Plug-In . SVG Version: 6.00 Build 0)  -->
<svg version="1.1" id="Layer_1" xmlns="http://www.w3.org/2000/svg" xmlns:xlink="http://www.w3.org/1999/xlink" x="0px" y="0px"
	 viewBox="0 0 473.681 473.681" style="enable-background:new 0 0 473.681 473.681;" xml:space="preserve">
<path style="fill:#B9E8EA;" d="M236.844,0C106.037,0,0.002,106.032,0.002,236.838c0,26.85,4.536,52.627,12.767,76.691
	c59.549-31.394,134.034-46.363,214.872-46.363c87.91,0,168.311,17.692,230.145,54.968c10.231-26.472,15.893-55.215,15.893-85.296
	C473.679,106.032,367.643,0,236.844,0z"/>
<path style="fill:#83A34B;" d="M227.641,267.166c-80.838,0-155.323,14.973-214.872,46.363
	c31.88,93.149,120.126,160.151,224.075,160.151c100.722,0,186.702-62.907,220.942-151.546
	C395.952,284.858,315.551,267.166,227.641,267.166z"/>
<circle style="fill:#3A2F22;" cx="236.818" cy="190.557" r="10.531"/>
<path style="fill:#96723C;" d="M280.582,210.351l-30.623-4.08h-25.837l-27.056,4.087l-30.481,119.438
	c0,6.342,9.39,11.484,20.975,11.484h102.532c11.581,0,20.975-5.142,20.975-11.484L280.582,210.351z"/>
<path style="fill:#A07740;" d="M197.062,210.355l-30.481,119.438c0,6.342,9.39,11.484,20.975,11.484l36.562-135.01L197.062,210.355z
	"/>
<path style="fill:#A57A42;" d="M280.582,210.351l-30.623-4.08l40.129,135.01c11.581,0,20.975-5.142,20.975-11.484L280.582,210.351z"
	/>
<path style="fill:#C9934C;" d="M290.088,341.277H187.556l-17.471,88.849c19.932,5.688,54.979,8.96,67.66,8.96
	c11.626,0,41.087-2.337,60.562-8.65L290.088,341.277z"/>
<path style="fill:#5B4F3F;" d="M166.581,329.793c0,0.853,0.187,1.687,0.509,2.487L166.581,329.793z"/>
<path style="fill:#D89C55;" d="M167.09,332.28l-10.942,89.623c5.826,5.968,13.941,8.227,14.51,8.227l16.903-88.849
	C177.534,341.277,169.165,337.425,167.09,332.28z"/>
<path style="fill:#D39B57;" d="M310.559,332.28c-2.079,5.146-10.448,8.997-20.47,8.997l7.614,89.163
	c0.606,0,13.384-3.04,23.948-9.125L310.559,332.28z"/>
<path style="fill:#766959;" d="M310.559,332.28c0.322-0.8,0.509-1.634,0.509-2.487L310.559,332.28z"/>
<path style="fill:#E5DED6;" d="M238.822,171.998c-23.126,0-42.149,17.34-44.535,39.595l28.855-4.357l27.549-0.004l32.665,4.349
	C280.967,189.335,261.948,171.998,238.822,171.998z"/>
<g>
	<path style="fill:#665C51;" d="M242.386,242.096h-9.637c-2.042,0-3.691,1.634-3.691,3.65v16.222c0,2.019,1.649,3.654,3.691,3.654
		h9.637c2.031,0,3.68-1.634,3.68-3.654v-16.222C246.07,243.73,244.417,242.096,242.386,242.096z"/>
	<path style="fill:#665C51;" d="M242.386,290.849h-9.637c-2.042,0-3.691,1.634-3.691,3.65v16.226c0,2.019,1.649,3.654,3.691,3.654
		h9.637c2.031,0,3.68-1.634,3.68-3.654v-16.226C246.07,292.483,244.417,290.849,242.386,290.849z"/>
</g>
<path style="fill:#F9F9F4;" d="M315.297,325.751c-0.58-0.333-1.29-0.337-1.87-0.004l-23.836,13.661H188.016l-26.11-13.694
	c-0.58-0.303-1.279-0.284-1.836,0.056c-0.557,0.337-0.901,0.946-0.901,1.601v14.958c0,0.696,0.389,1.331,1.002,1.657l26.521,13.908
	c0.269,0.142,0.565,0.213,0.868,0.213h102.532c0.325,0,0.647-0.086,0.931-0.247l24.27-13.908c0.58-0.333,0.939-0.95,0.939-1.623
	V327.37C316.231,326.704,315.876,326.087,315.297,325.751z"/>
<g>
	<path style="fill:#51473A;" d="M353.844,301.888c-0.093-0.617-0.374-1.219-0.849-1.694l-0.374-0.366l-82.843-82.847l-30.837-30.844
		c-1.189-1.185-3.111-1.185-4.293-0.007l-1.716,1.728c-1.189,1.182-1.189,3.1,0,4.286l27.471,27.475l-14.382,14.379
		c-1.855,1.859-1.855,4.88,0.007,6.739l82.847,82.847c1.862,1.862,4.88,1.862,6.735,0l17.019-17.019
		C353.896,305.299,354.289,303.5,353.844,301.888z M336.732,299.996l-5.71,5.703l-4.719-4.727l5.703-5.703L336.732,299.996z
		 M330.722,293.983l-5.703,5.707l-4.727-4.727l5.703-5.703L330.722,293.983z M324.709,287.973l-5.703,5.703l-5.37-5.37l5.703-5.703
		L324.709,287.973z M318.049,281.313l-5.703,5.707l-4.936-4.932l5.71-5.703L318.049,281.313z M311.826,275.091l-5.703,5.707
		l-4.719-4.723l5.703-5.707L311.826,275.091z M305.82,269.085l-5.703,5.703l-5.157-5.153l5.703-5.703L305.82,269.085z
		 M299.381,262.641l-5.703,5.707l-4.727-4.727l5.703-5.703L299.381,262.641z M293.368,256.632l-5.703,5.703l-5.157-5.153l5.71-5.703
		L293.368,256.632z M286.928,250.192l-5.703,5.703l-4.719-4.719l5.703-5.707L286.928,250.192z M280.915,244.179l-5.703,5.703
		l-5.149-5.146l5.703-5.707L280.915,244.179z M274.479,237.743l-5.71,5.703l-4.719-4.723l5.703-5.703L274.479,237.743z
		 M260.138,228.514c1.417-1.41,3.923-1.189,5.602,0.49l2.726,2.726l-5.695,5.707l-5.778-5.774L260.138,228.514z M252.876,241.864
		c-1.679-1.683-1.9-4.188-0.482-5.602l3.302-3.31l5.785,5.77l-5.871,5.864L252.876,241.864z M256.892,245.877l5.871-5.867
		l4.719,4.727l-5.864,5.864L256.892,245.877z M262.905,251.89l5.864-5.867l5.157,5.153l-5.871,5.867L262.905,251.89z
		 M269.345,258.333l5.864-5.867l4.727,4.719l-5.864,5.871L269.345,258.333z M275.358,264.343l5.864-5.867l5.149,5.149l-5.864,5.867
		L275.358,264.343z M281.797,270.783l5.864-5.871l4.719,4.727l-5.864,5.86L281.797,270.783z M287.803,276.792l5.871-5.867
		l5.157,5.153l-5.871,5.864L287.803,276.792z M294.246,283.228l5.864-5.864l4.727,4.727l-5.871,5.864L294.246,283.228z
		 M300.256,289.241l5.864-5.867l4.936,4.936l-5.856,5.867L300.256,289.241z M306.486,295.467l5.864-5.867l5.363,5.366l-5.864,5.871
		L306.486,295.467z M313.139,302.124l5.864-5.867l4.719,4.723l-5.864,5.864L313.139,302.124z M319.145,308.133l5.871-5.867
		l4.719,4.723l-5.864,5.864L319.145,308.133z M333.344,317.213c-1.417,1.414-3.915,1.197-5.602-0.482l-2.584-2.588l5.864-5.867
		l5.632,5.632L333.344,317.213z M341.092,309.465l-3.149,3.152l-5.632-5.632l5.703-5.707l2.584,2.588
		C342.289,305.549,342.502,308.051,341.092,309.465z"/>
	<path style="fill:#51473A;" d="M240.531,187.592l-27.471-27.478l14.375-14.375c1.862-1.862,1.862-4.88,0-6.739l-82.847-82.847
		c-1.862-1.859-4.88-1.859-6.735,0l-17.019,17.023c-1.271,1.264-1.672,3.059-1.212,4.667c0.086,0.621,0.366,1.219,0.834,1.694
		l114.064,114.064c1.182,1.182,3.104,1.182,4.286,0l1.724-1.724C241.724,190.696,241.724,188.774,240.531,187.592z M220.577,137.874
		c1.687,1.679,1.9,4.185,0.49,5.598l-3.317,3.313l-5.77-5.774l5.871-5.867L220.577,137.874z M216.568,133.854l-5.871,5.864
		l-4.727-4.719l5.871-5.871L216.568,133.854z M210.551,127.845l-5.864,5.864l-5.149-5.149l5.871-5.864L210.551,127.845z
		 M204.115,121.402l-5.864,5.867l-4.727-4.723l5.864-5.864L204.115,121.402z M198.106,115.392l-5.864,5.867l-5.149-5.153
		l5.864-5.864L198.106,115.392z M191.663,108.952l-5.864,5.867l-4.719-4.727l5.864-5.864L191.663,108.952z M185.657,102.947
		l-5.871,5.864l-5.157-5.149l5.871-5.867L185.657,102.947z M179.21,96.503l-5.864,5.864l-4.719-4.719l5.864-5.867L179.21,96.503z
		 M173.204,90.494l-5.871,5.864l-4.929-4.929l5.864-5.871L173.204,90.494z M166.974,84.271l-5.864,5.864l-5.363-5.366l5.864-5.867
		L166.974,84.271z M160.321,77.615l-5.864,5.864l-4.727-4.719l5.871-5.871L160.321,77.615z M154.312,71.605l-5.864,5.864
		l-4.719-4.719l5.864-5.871L154.312,71.605z M140.12,62.518c1.41-1.41,3.923-1.189,5.602,0.49l2.577,2.584l-5.864,5.864
		l-5.624-5.624L140.12,62.518z M132.858,75.868c-1.679-1.675-1.9-4.188-0.49-5.598l3.149-3.149l5.632,5.628l-5.71,5.707
		L132.858,75.868z M136.732,79.743l5.703-5.703l4.719,4.727l-5.695,5.699L136.732,79.743z M142.741,85.752l5.703-5.703l4.727,4.723
		l-5.703,5.703L142.741,85.752z M148.751,91.765l5.703-5.703l5.37,5.366l-5.703,5.707L148.751,91.765z M155.415,98.418l5.703-5.703
		l4.936,4.936l-5.71,5.703L155.415,98.418z M161.637,104.641l5.695-5.703l4.727,4.727l-5.703,5.703L161.637,104.641z
		 M167.639,110.65l5.703-5.703l5.157,5.153l-5.703,5.707L167.639,110.65z M174.075,117.094l5.71-5.707l4.727,4.723l-5.703,5.703
		L174.075,117.094z M180.092,123.103l5.703-5.707l5.149,5.153l-5.703,5.703L180.092,123.103z M186.536,129.543l5.703-5.703
		l4.719,4.723l-5.703,5.703L186.536,129.543z M192.538,135.556l5.71-5.707l5.142,5.157l-5.695,5.703L192.538,135.556z
		 M198.981,141.992l5.71-5.703l4.719,4.727l-5.71,5.703L198.981,141.992z M207.716,150.731l-2.719-2.726l5.688-5.703l5.778,5.77
		l-3.149,3.149C211.909,152.627,209.403,152.414,207.716,150.731z"/>
	<path style="fill:#51473A;" d="M240.46,187.786l-1.724-1.724c-1.182-1.182-3.096-1.182-4.282,0l-27.478,27.478l-14.375-14.379
		c-1.862-1.859-4.88-1.859-6.735,0l-82.85,82.85c-1.862,1.859-1.855,4.876,0,6.739l17.026,17.019
		c1.256,1.264,3.051,1.664,4.66,1.212c0.628-0.09,1.227-0.37,1.702-0.849l0.374-0.366l82.847-82.847l30.837-30.844
		C241.642,190.89,241.642,188.972,240.46,187.786z M184.737,206.017c1.679-1.679,4.185-1.9,5.602-0.49l3.302,3.31l-5.77,5.778
		l-5.864-5.867L184.737,206.017z M180.721,210.037l5.864,5.864l-4.727,4.727l-5.864-5.871L180.721,210.037z M174.711,216.046
		l5.864,5.864l-5.157,5.149l-5.864-5.864L174.711,216.046z M168.268,222.486l5.864,5.867l-4.719,4.719l-5.871-5.864L168.268,222.486
		z M162.258,228.495l5.871,5.864l-5.157,5.153l-5.864-5.864L162.258,228.495z M155.822,234.935l5.864,5.864l-4.727,4.727
		l-5.864-5.864L155.822,234.935z M149.813,240.944l5.864,5.864l-5.149,5.153l-5.864-5.867L149.813,240.944z M143.37,247.388
		l5.864,5.864l-4.727,4.723l-5.864-5.867L143.37,247.388z M137.356,253.397l5.864,5.864l-4.936,4.936l-5.864-5.864L137.356,253.397z
		 M131.134,259.62l5.864,5.864l-5.37,5.37l-5.864-5.864L131.134,259.62z M124.474,266.276l5.871,5.864l-4.719,4.727l-5.871-5.867
		L124.474,266.276z M118.472,272.286l5.864,5.864l-4.727,4.727l-5.864-5.871L118.472,272.286z M109.384,286.481
		c-1.417-1.414-1.189-3.919,0.49-5.598l2.584-2.584l5.864,5.864l-5.632,5.632L109.384,286.481z M122.735,293.74
		c-1.687,1.679-4.192,1.903-5.602,0.486l-3.149-3.149l5.624-5.632l5.703,5.707L122.735,293.74z M126.601,289.866l-5.703-5.703
		l4.734-4.727l5.695,5.707L126.601,289.866z M132.618,283.856l-5.71-5.703l4.727-4.727l5.703,5.71L132.618,283.856z
		 M138.628,277.843l-5.703-5.703l5.363-5.37l5.703,5.703L138.628,277.843z M145.284,271.19l-5.703-5.703l4.929-4.936l5.71,5.703
		L145.284,271.19z M151.507,264.967l-5.703-5.707l4.719-4.723l5.703,5.703L151.507,264.967z M157.509,258.958l-5.695-5.707
		l5.149-5.153l5.703,5.707L157.509,258.958z M163.952,252.515l-5.703-5.703l4.727-4.727l5.703,5.707L163.952,252.515z
		 M169.962,246.501l-5.695-5.703l5.142-5.149l5.71,5.703L169.962,246.501z M176.405,240.066l-5.703-5.707l4.719-4.719l5.703,5.703
		L176.405,240.066z M182.415,234.052l-5.703-5.707l5.149-5.149l5.71,5.703L182.415,234.052z M188.858,227.617l-5.703-5.703
		l4.719-4.727l5.71,5.707L188.858,227.617z M197.593,218.877l-2.726,2.726l-5.703-5.703l5.77-5.77l3.149,3.149
		C199.493,214.689,199.273,217.198,197.593,218.877z"/>
	<path style="fill:#51473A;" d="M370.44,90.991l-17.019-17.023c-1.257-1.26-3.059-1.664-4.66-1.212
		c-0.628,0.09-1.227,0.37-1.702,0.845l-0.374,0.37l-82.846,82.847l-30.837,30.844c-1.189,1.182-1.189,3.104,0,4.286l1.716,1.728
		c1.189,1.182,3.104,1.182,4.286,0l27.478-27.478l14.375,14.375c1.862,1.862,4.88,1.862,6.742,0l82.839-82.847
		C372.31,95.864,372.303,92.85,370.44,90.991z M350.733,85.995c1.679-1.679,4.185-1.9,5.594-0.486l3.149,3.145l-5.624,5.632
		l-5.703-5.703L350.733,85.995z M346.855,89.873l5.703,5.695l-4.727,4.727l-5.695-5.703L346.855,89.873z M340.845,95.879
		l5.703,5.699l-4.719,4.727l-5.703-5.703L340.845,95.879z M334.832,101.892l5.703,5.699l-5.366,5.37l-5.703-5.703L334.832,101.892z
		 M328.187,108.545l5.695,5.703l-4.936,4.932l-5.703-5.703L328.187,108.545z M321.957,114.771l5.703,5.699l-4.719,4.723l-5.71-5.703
		L321.957,114.771z M315.951,120.781l5.703,5.699l-5.157,5.153l-5.703-5.703L315.951,120.781z M309.504,127.217l5.703,5.703
		l-4.719,4.727l-5.703-5.703L309.504,127.217z M303.498,133.23l5.695,5.699l-5.149,5.157l-5.703-5.707L303.498,133.23z
		 M297.059,139.669l5.703,5.703l-4.727,4.719l-5.695-5.695L297.059,139.669z M291.045,145.683l5.695,5.703l-5.142,5.149l-5.71-5.703
		L291.045,145.683z M284.61,152.122l5.695,5.695l-4.727,4.727l-5.703-5.699L284.61,152.122z M275.38,166.46
		c-1.41-1.414-1.189-3.923,0.49-5.602l2.726-2.726l5.703,5.695l-5.77,5.77L275.38,166.46z M288.723,173.722
		c-1.679,1.679-4.185,1.896-5.602,0.486l-3.31-3.313l5.77-5.77l5.871,5.864L288.723,173.722z M292.739,169.702l-5.864-5.867
		l4.727-4.723l5.864,5.864L292.739,169.702z M298.753,163.692l-5.864-5.864l5.149-5.157l5.871,5.867L298.753,163.692z
		 M305.2,157.249l-5.871-5.864l4.719-4.723l5.871,5.864L305.2,157.249z M311.205,151.24l-5.871-5.864l5.157-5.149l5.864,5.864
		L311.205,151.24z M317.645,144.8l-5.871-5.864l4.727-4.723l5.864,5.864L317.645,144.8z M323.651,138.794l-5.864-5.871l5.157-5.149
		l5.864,5.864L323.651,138.794z M330.094,132.351l-5.864-5.864l4.727-4.727l5.864,5.867L330.094,132.351z M336.104,126.341
		l-5.864-5.864l4.936-4.936l5.864,5.864L336.104,126.341z M342.326,120.119l-5.864-5.864l5.37-5.37l5.864,5.864L342.326,120.119z
		 M348.979,113.462l-5.864-5.867l4.719-4.723l5.871,5.864L348.979,113.462z M354.992,107.453l-5.864-5.867l4.727-4.723l5.864,5.864
		L354.992,107.453z M363.589,98.856l-2.584,2.584l-5.864-5.864l5.624-5.632l3.317,3.31
		C365.485,94.667,365.268,97.177,363.589,98.856z"/>
</g>
<path style="fill:#3A2F22;" d="M236.792,181.893c-4.79,0-8.653,3.878-8.653,8.661s3.863,8.661,8.653,8.661s8.661-3.878,8.661-8.661
	S241.586,181.893,236.792,181.893z"/>
<circle style="fill:#423528;" cx="236.78" cy="190.557" r="5.467"/>
<path style="fill:#4C3E30;" d="M239.342,187.338c-1.601-1.593-4.17-1.589-5.763,0.004c-1.586,1.589-1.593,4.162,0,5.751
	C235.172,194.686,240.928,188.931,239.342,187.338z"/>
<g>
</g>
<g>
</g>
<g>
</g>
<g>
</g>
<g>
</g>
<g>
</g>
<g>
</g>
<g>
</g>
<g>
</g>
<g>
</g>
<g>
</g>
<g>
</g>
<g>
</g>
<g>
</g>
<g>
</g>
</svg>
