<?xml version="1.0" encoding="iso-8859-1"?>
<!-- Generator: Adobe Illustrator 19.0.0, SVG Export Plug-In . SVG Version: 6.00 Build 0)  -->
<svg version="1.1" id="Layer_1" xmlns="http://www.w3.org/2000/svg" xmlns:xlink="http://www.w3.org/1999/xlink" x="0px" y="0px"
	 viewBox="0 0 473.654 473.654" style="enable-background:new 0 0 473.654 473.654;" xml:space="preserve">
<circle style="fill:#B9E8EA;" cx="236.827" cy="236.827" r="236.827"/>
<g>
	
		<rect x="231.114" y="319.207" transform="matrix(-0.7921 0.6103 -0.6103 -0.7921 718.312 403.0444)" style="fill:#989899;" width="118.822" height="9.259"/>
	
		<rect x="175.087" y="264.432" transform="matrix(-0.6103 0.7922 -0.7922 -0.6103 545.9388 379.1212)" style="fill:#989899;" width="9.256" height="118.831"/>
</g>
<circle style="fill:#E0E2E2;" cx="236.565" cy="70.012" r="31.633"/>
<path style="fill:#878787;" d="M207.662,74.922c0,13.687,12.935,24.786,28.896,24.786c15.957,0,28.896-11.099,28.896-24.786
	C265.45,61.232,207.662,61.232,207.662,74.922z"/>
<circle style="fill:#CACCCE;" cx="236.565" cy="368.61" r="33.955"/>
<path style="fill:#878787;" d="M205.546,373.871c0,14.689,13.881,26.6,31.009,26.6s31.009-11.911,31.009-26.6
	C267.563,359.182,205.546,359.182,205.546,373.871z"/>
<path style="fill:#7F7F7F;" d="M258.072,404.401l-35.698-12.475l33.645-15.351c0.845-0.385,1.399-1.294,1.41-2.307
	c0.007-1.013-0.527-1.937-1.361-2.341l-29.019-14.102l25.392-13.881c0.722-0.396,1.2-1.182,1.264-2.072
	c0.06-0.89-0.307-1.75-0.965-2.262l-21.921-17.071l18.511-8.526c0.722-0.333,1.245-1.058,1.372-1.915
	c0.131-0.856-0.146-1.728-0.733-2.307l-16.667-16.424c-0.939-0.924-2.378-0.834-3.209,0.213c-0.834,1.043-0.748,2.64,0.191,3.568
	l13.949,13.747l-18.982,8.728c-0.767,0.352-1.301,1.141-1.391,2.057c-0.09,0.92,0.277,1.817,0.954,2.345l22.168,17.262
	l-26.334,14.401c-0.793,0.434-1.29,1.339-1.271,2.322c0.019,0.984,0.55,1.866,1.361,2.259l28.593,13.896l-34.498,15.736
	c-0.886,0.4-1.451,1.38-1.406,2.446c0.041,1.062,0.677,1.978,1.589,2.3l36.382,12.718l-37.474,21.192
	c-1.118,0.632-1.563,2.154-0.995,3.396c0.4,0.875,1.197,1.38,2.027,1.38c0.348,0,0.699-0.086,1.028-0.277l42.433-23.997
	c0.823-0.464,1.313-1.436,1.234-2.457C259.575,405.572,258.951,404.708,258.072,404.401z"/>
<g>
	<path style="fill:#9E9E9E;" d="M369.833,295.714l-18.122,3.818l23.645,129.318c10.407-7.524,20.212-15.83,29.255-24.909
		L369.833,295.714z"/>
	<path style="fill:#9E9E9E;" d="M103.796,295.714L69.018,403.941c9.042,9.08,18.844,17.385,29.251,24.909l23.645-129.322
		L103.796,295.714z"/>
</g>
<g>
	<path style="fill:#878787;" d="M360.005,298.392l-8.291,1.137l23.645,129.318c5.602-4.05,11.013-8.339,16.23-12.853
		L360.005,298.392z"/>
	<path style="fill:#878787;" d="M113.623,298.392L82.039,415.998c5.22,4.514,10.628,8.803,16.23,12.853l23.645-129.322
		L113.623,298.392z"/>
	
		<rect x="252.979" y="174.55" transform="matrix(-0.9109 0.4126 -0.4126 -0.9109 652.0363 217.5704)" style="fill:#878787;" width="99.101" height="9.259"/>
	
		<rect x="320.836" y="206.552" transform="matrix(-0.1052 0.9945 -0.9945 -0.1052 609.1869 -125.7819)" style="fill:#878787;" width="80.693" height="9.26"/>
</g>
<rect x="296.341" y="59.413" transform="matrix(-0.5146 0.8574 -0.8574 -0.5146 547.2918 -96.5358)" style="fill:#ADADAD;" width="9.259" height="94.459"/>
<rect x="252.343" y="186.113" transform="matrix(-0.8379 0.5458 -0.5458 -0.8379 660.1237 185.4471)" style="fill:#A0A0A0;" width="100.365" height="9.259"/>
<polygon style="fill:#ADADAD;" points="241.464,231.906 236.554,239.755 349.059,284.57 353.969,276.721 "/>
<g>
	<polygon style="fill:#909396;" points="237.829,189.581 232.194,196.933 351.015,279.694 356.647,272.342 	"/>
	<polygon style="fill:#909396;" points="232.441,193.415 113.619,272.342 119.255,279.694 238.072,200.767 	"/>
</g>
<g>
	
		<rect x="163.126" y="129.628" transform="matrix(-0.4125 0.911 -0.911 -0.4125 400.1795 100.2712)" style="fill:#878787;" width="9.26" height="99.106"/>
	
		<rect x="104.484" y="170.869" transform="matrix(-0.9945 0.1049 -0.1049 -0.9945 239.7816 409.8167)" style="fill:#878787;" width="9.259" height="80.69"/>
</g>
<polygon style="fill:#ADADAD;" points="209.895,76.65 126.398,126.996 131.166,134.935 214.663,84.589 "/>
<rect x="163.103" y="140.569" transform="matrix(-0.5459 0.8378 -0.8378 -0.5459 419.1181 154.3533)" style="fill:#A0A0A0;" width="9.259" height="100.362"/>
<polygon style="fill:#ADADAD;" points="234.729,230.747 116.297,276.721 121.207,284.57 239.639,238.596 "/>
<circle style="fill:#9AA1A8;" cx="236.565" cy="190.382" r="27.003"/>
<circle style="fill:#D1D1D1;" cx="236.565" cy="195.767" r="27.003"/>
<path style="fill:#878787;" d="M211.892,194.566c0,11.69,11.043,21.162,24.666,21.162s24.666-9.472,24.666-21.162
	C261.22,182.884,211.892,182.884,211.892,194.566z"/>
<rect x="231.928" y="89.301" style="fill:#C1C1C1;" width="9.259" height="101.081"/>
<circle style="fill:#9AA1A8;" cx="236.565" cy="204.259" r="23.144"/>
<circle style="fill:#D1D1D1;" cx="236.565" cy="208.893" r="23.148"/>
<path style="fill:#878787;" d="M215.414,207.853c0,10.018,9.465,18.137,21.14,18.137s21.14-8.119,21.14-18.137
	C257.698,197.838,215.414,197.838,215.414,207.853z"/>
<path style="fill:#A5A5A5;" d="M247.354,263.674l-20.059,2.569l-20.059,172.278h60.951L247.354,263.674z M230.855,295.247h13.204
	l15.145,134.703h-42.99L230.855,295.247z"/>
<circle style="fill:#E0E2E2;" cx="353.838" cy="276.018" r="30.863"/>
<path style="fill:#878787;" d="M325.638,280.808c0,13.354,12.621,24.188,28.193,24.188c15.568,0,28.193-10.83,28.193-24.188
	S325.638,267.451,325.638,280.808z"/>
<circle style="fill:#E0E2E2;" cx="369.246" cy="144.852" r="34.722"/>
<path style="fill:#878787;" d="M337.545,150.241c0,15.026,14.199,27.209,31.715,27.209c17.512,0,31.715-12.184,31.715-27.209
	C400.976,135.216,337.545,135.216,337.545,150.241z"/>
<circle style="fill:#9AA1A8;" cx="236.565" cy="239.744" r="37.807"/>
<path style="fill:#E0E2E2;" d="M236.554,209.659c-19.58,0-35.683,14.88-37.613,33.952c1.933,19.072,18.032,33.952,37.613,33.952
	c19.577,0,35.683-14.88,37.613-33.952C272.237,224.543,256.135,209.659,236.554,209.659z"/>
<path style="fill:#878787;" d="M202.019,245.623c0,16.361,15.459,29.625,34.535,29.625c19.072,0,34.535-13.264,34.535-29.625
	S202.019,229.262,202.019,245.623z"/>
<circle style="fill:#E0E2E2;" cx="103.074" cy="144.852" r="34.722"/>
<path style="fill:#878787;" d="M71.359,150.241c0,15.026,14.199,27.209,31.715,27.209s31.715-12.184,31.715-27.209
	C134.789,135.216,71.359,135.216,71.359,150.241z"/>
<circle style="fill:#E0E2E2;" cx="115.418" cy="276.018" r="30.863"/>
<path style="fill:#878787;" d="M87.229,280.808c0,13.354,12.621,24.188,28.193,24.188s28.193-10.83,28.193-24.188
	S87.229,267.451,87.229,280.808z"/>
<g>
	<path style="fill:#526614;" d="M72.136,348.491c-22.991-32.183-45.971-37.628-60.117-37.126
		c17.64,53.21,53.599,98.048,100.449,127.015h52.335C138.854,430.963,72.136,348.491,72.136,348.491z"/>
	<path style="fill:#526614;" d="M400.991,348.491c0,0-66.718,82.473-92.667,89.888h52.833
		c46.846-28.963,82.802-73.797,100.445-126.996C447.504,310.736,424.251,315.93,400.991,348.491z"/>
</g>
<path style="fill:#677A1A;" d="M363.243,437.044H110.381c36.592,23.152,79.926,36.61,126.428,36.61
	C283.314,473.654,326.652,460.196,363.243,437.044z"/>
<g>
</g>
<g>
</g>
<g>
</g>
<g>
</g>
<g>
</g>
<g>
</g>
<g>
</g>
<g>
</g>
<g>
</g>
<g>
</g>
<g>
</g>
<g>
</g>
<g>
</g>
<g>
</g>
<g>
</g>
</svg>
