<?xml version="1.0" encoding="iso-8859-1"?>
<!-- Generator: Adobe Illustrator 19.0.0, SVG Export Plug-In . SVG Version: 6.00 Build 0)  -->
<svg version="1.1" id="Layer_1" xmlns="http://www.w3.org/2000/svg" xmlns:xlink="http://www.w3.org/1999/xlink" x="0px" y="0px"
	 viewBox="0 0 473.677 473.677" style="enable-background:new 0 0 473.677 473.677;" xml:space="preserve">
<circle style="fill:#6BBDC6;" cx="236.85" cy="236.838" r="236.827"/>
<g>
	<path style="fill:#B4947B;" d="M396.96,197.191c0,0-84.387-40.387-121.308-73.296s-119.55-20.942-151.198,7.479
		c-3.351,3.003-6.9,6.541-10.576,10.456c-9.338,9.932-19.476,22.329-29.101,34.812l9.446,6.241L79.085,395.868l-5.718,12.24
		c2.64,2.517,5.333,4.974,8.085,7.371l304.024-0.86c-0.366-8.605-5.759-140.017,7.273-156.06
		c13.477-16.585,3.115-19.696,8.294-30.062c2.775-5.546,7.045-11.368,12.475-14.33C403.481,203.867,396.96,197.191,396.96,197.191z"
		/>
	<path style="fill:#B4947B;" d="M84.78,176.643l-51.715-34.183l-11.851-3.583C7.629,168.733,0,201.881,0,236.823
		c0,51.715,16.626,99.521,44.755,138.469c8.522,11.806,18.107,22.781,28.611,32.811l5.718-12.24L94.222,182.88L84.78,176.643z"/>
</g>
<g>
	<path style="fill:#997B67;" d="M385.475,414.618c0.011,0.292,0.019,0.46,0.019,0.46c0.89,0.89,2.333,1.761,4.173,2.614
		c1.204-1.017,2.393-2.057,3.579-3.096L385.475,414.618z"/>
	<path style="fill:#997B67;" d="M454.949,230.567c-7.259-3.111-11.402-7.255-24.879-15.549c-6.26-3.852-11.836-3.425-16.544-0.853
		c-5.43,2.962-9.704,8.781-12.475,14.33c-5.183,10.366,5.179,13.477-8.294,30.062c-13.032,16.043-7.64,147.459-7.273,156.06
		l7.771-0.022c40.687-35.829,69.014-85.356,77.648-141.408c1.78-11.54,2.707-23.357,2.756-35.38
		C466.904,230.866,461.867,233.536,454.949,230.567z"/>
</g>
<g>
	<path style="fill:#B4947B;" d="M454.949,230.567c-7.259-3.111-11.402-7.255-24.879-15.549c-1.743-1.073-2.438,24.131-1.189,29.116
		l2.494,23.062c-0.086,7.404-1.245,7.479-2.494,19.322c-1.178,11.189,3.74,30.541,3.74,32.411c0,3.369-3.384,17.531-4.05,31.136
		c-0.696,14.203-1.492,27.785-1.492,27.785c22.426-30.171,37.841-65.85,43.82-104.659c1.78-11.54,2.707-23.357,2.756-35.38
		C466.904,230.866,461.867,233.536,454.949,230.567z"/>
	<path style="fill:#B4947B;" d="M378.546,167.275c0-5.983-34.438-28.421-42.635-37.392c-8.205-8.971-29.524-23.933-34.441-23.933
		c-4.918,0-42.642-22.437-45.922-26.921c-3.28-4.491-14.76-16.454-22.961-17.954c-8.197-1.496-11.48,1.496-18.043,8.975
		S191.582,88,185.023,98.47l-39.363,47.867l50.843,8.975l190.251,43.375C386.75,198.687,378.546,173.258,378.546,167.275z"/>
</g>
<polygon style="fill:#D6B499;" points="288.209,138.439 288.209,171.213 182.465,171.213 182.465,138.817 126.338,157.215 
	133.514,176.65 339.449,176.65 346.625,157.215 "/>
<g>
	<polygon style="fill:#E2BC97;" points="288.209,144.658 288.209,177.432 182.465,177.432 182.465,145.036 128.81,163.438 
		135.829,182.869 337.134,182.869 344.153,163.438 	"/>
	<rect x="79.077" y="175.883" style="fill:#E2BC97;" width="314.797" height="125.915"/>
</g>
<g>
	<rect x="138.162" y="174.32" style="fill:#E5C7A8;" width="41.21" height="96.38"/>
	<rect x="290.513" y="174.32" style="fill:#E5C7A8;" width="41.21" height="96.38"/>
	<rect x="215.904" y="174.32" style="fill:#E5C7A8;" width="41.21" height="96.38"/>
</g>
<rect x="81.029" y="180.072" style="fill:#DBB99A;" width="17.819" height="105.718"/>
<g>
	<rect x="81.029" y="180.072" style="fill:#D1AD8F;" width="5.295" height="105.718"/>
	<rect x="96.107" y="180.072" style="fill:#D1AD8F;" width="2.696" height="105.718"/>
</g>
<path style="fill:#CCA27F;" d="M100.198,175.016h-21.63c-0.871,0-1.582,1.298-1.582,2.906l3.695,4.716h17.411l3.691-4.716
	C101.784,176.313,101.077,175.016,100.198,175.016z"/>
<rect x="134.909" y="180.072" style="fill:#DBB99A;" width="12.139" height="105.718"/>
<rect x="145.189" y="180.072" style="fill:#D1AD8F;" width="1.836" height="105.718"/>
<path style="fill:#CCA27F;" d="M147.81,173.696h-13.919c0,0-2.954,2.405-2.954,4.787c0,2.386,2.954,4.959,2.954,4.959h13.919
	c0,0,2.954-2.461,2.954-4.959C150.765,175.984,147.81,173.696,147.81,173.696z"/>
<rect x="149.905" y="209.315" style="fill:#B2937D;" width="18.66" height="39.067"/>
<polygon style="fill:#DAB48D;" points="164.298,214.199 159.762,213.29 153.805,212.901 149.916,211.993 149.916,248.371 
	167.473,248.371 167.473,213.806 "/>
<rect x="373.269" y="180.072" style="fill:#DBB99A;" width="17.815" height="105.718"/>
<g>
	<rect x="385.797" y="180.072" style="fill:#D1AD8F;" width="5.288" height="105.718"/>
	<rect x="373.307" y="180.072" style="fill:#D1AD8F;" width="2.696" height="105.718"/>
</g>
<path style="fill:#CCA27F;" d="M393.556,175.016h-21.633c-0.875,0-1.582,1.298-1.582,2.906l3.691,4.716h17.415l3.691-4.716
	C395.142,176.313,394.432,175.016,393.556,175.016z"/>
<rect x="325.066" y="180.072" style="fill:#DBB99A;" width="12.139" height="105.718"/>
<rect x="325.104" y="180.072" style="fill:#D1AD8F;" width="1.836" height="105.718"/>
<path style="fill:#CCA27F;" d="M338.233,173.696h-13.919c0,0-2.954,2.289-2.954,4.787c0,2.494,2.954,4.959,2.954,4.959h13.919
	c0,0,2.954-2.573,2.954-4.959C341.188,176.1,338.233,173.696,338.233,173.696z"/>
<rect x="304.312" y="209.315" style="fill:#B2937D;" width="18.653" height="39.067"/>
<polygon style="fill:#DAB48D;" points="318.844,214.199 314.311,213.29 308.35,212.901 304.465,211.993 304.465,248.371 
	320.362,248.371 320.362,213.806 "/>
<rect x="171.074" y="180.558" style="fill:#DBB99A;" width="12.135" height="105.718"/>
<rect x="181.347" y="180.558" style="fill:#D1AD8F;" width="1.832" height="105.718"/>
<path style="fill:#CCA27F;" d="M183.968,174.148H170.05c0,0-2.954,2.405-2.954,4.787c0,2.39,2.954,4.962,2.954,4.962h13.919
	c0,0,2.954-2.461,2.954-4.962C186.923,176.441,183.968,174.148,183.968,174.148z"/>
<rect x="205.811" y="180.558" style="fill:#DBB99A;" width="12.139" height="105.718"/>
<rect x="216.065" y="180.558" style="fill:#D1AD8F;" width="1.84" height="105.718"/>
<path style="fill:#CCA27F;" d="M218.69,174.148h-13.919c0,0-2.954,2.405-2.954,4.787c0,2.39,2.954,4.962,2.954,4.962h13.919
	c0,0,2.954-2.461,2.954-4.962C221.645,176.441,218.69,174.148,218.69,174.148z"/>
<rect x="288.905" y="180.558" style="fill:#DBB99A;" width="12.139" height="105.718"/>
<rect x="288.942" y="180.558" style="fill:#D1AD8F;" width="1.836" height="105.718"/>
<path style="fill:#CCA27F;" d="M302.079,174.171H288.16c0,0-2.954,2.289-2.954,4.79c0,2.494,2.954,4.955,2.954,4.955h13.919
	c0,0,2.954-2.573,2.954-4.955C305.033,176.575,302.079,174.171,302.079,174.171z"/>
<rect x="253.67" y="180.558" style="fill:#DBB99A;" width="12.139" height="105.718"/>
<rect x="253.708" y="180.558" style="fill:#D1AD8F;" width="1.836" height="105.718"/>
<path style="fill:#CCA27F;" d="M266.837,174.171h-13.919c0,0-2.954,2.289-2.954,4.79c0,2.494,2.954,4.955,2.954,4.955h13.919
	c0,0,2.954-2.573,2.954-4.955C269.792,176.575,266.837,174.171,266.837,174.171z"/>
<rect x="79.077" y="269.934" style="fill:#E2BC97;" width="314.797" height="125.915"/>
<g>
	<rect x="79.152" y="286.65" style="fill:#E5C7A8;" width="66.845" height="109.196"/>
	<rect x="203.53" y="286.65" style="fill:#E5C7A8;" width="62.959" height="109.196"/>
	<rect x="324.767" y="286.65" style="fill:#E5C7A8;" width="68.401" height="109.196"/>
</g>
<rect x="79.077" y="285.191" style="fill:#E5C1A3;" width="314.797" height="2.913"/>
<rect x="79.077" y="270.27" style="fill:#CCA27F;" width="314.797" height="6.324"/>
<rect x="81.029" y="302.618" style="fill:#DBB99A;" width="17.819" height="93.041"/>
<g>
	<rect x="81.029" y="302.618" style="fill:#D1AD8F;" width="5.295" height="93.041"/>
	<rect x="96.107" y="302.618" style="fill:#D1AD8F;" width="2.696" height="93.041"/>
</g>
<path style="fill:#CCA27F;" d="M100.198,297.524h-21.63c-0.871,0-1.582,1.301-1.582,2.906l3.695,4.719h17.411l3.691-4.719
	C101.784,298.826,101.077,297.524,100.198,297.524z"/>
<rect x="134.909" y="302.618" style="fill:#DBB99A;" width="12.139" height="93.041"/>
<rect x="145.189" y="302.618" style="fill:#D1AD8F;" width="1.836" height="93.041"/>
<path style="fill:#CCA27F;" d="M147.81,296.2h-13.919c0,0-2.954,2.405-2.954,4.79c0,2.386,2.954,4.959,2.954,4.959h13.919
	c0,0,2.954-2.461,2.954-4.959C150.765,298.493,147.81,296.2,147.81,296.2z"/>
<rect x="171.074" y="302.618" style="fill:#DBB99A;" width="12.135" height="93.041"/>
<rect x="181.347" y="302.618" style="fill:#D1AD8F;" width="1.832" height="93.041"/>
<path style="fill:#CCA27F;" d="M183.968,296.2H170.05c0,0-2.954,2.405-2.954,4.79c0,2.386,2.954,4.959,2.954,4.959h13.919
	c0,0,2.954-2.461,2.954-4.959C186.923,298.493,183.968,296.2,183.968,296.2z"/>
<rect x="199.454" y="302.618" style="fill:#DBB99A;" width="12.139" height="93.041"/>
<rect x="209.7" y="302.618" style="fill:#D1AD8F;" width="1.84" height="93.041"/>
<path style="fill:#CCA27F;" d="M212.348,296.2h-13.922c0,0-2.954,2.405-2.954,4.79c0,2.386,2.954,4.959,2.954,4.959h13.922
	c0,0,2.954-2.461,2.954-4.959C215.298,298.493,212.348,296.2,212.348,296.2z"/>
<rect x="107.165" y="331.824" style="fill:#B2937D;" width="18.657" height="39.064"/>
<polygon style="fill:#DAB48D;" points="121.547,336.707 117.015,335.799 111.058,335.41 107.165,334.505 107.165,370.88 
	124.719,370.88 124.719,336.319 "/>
<path style="fill:#E5C7A8;" d="M116.761,311.959L116.761,311.959l-0.142-0.004v0.004c-12.382,0.049-15.411,6.843-15.411,6.843
	l1.111,3.654h28.746l1.111-3.654C132.175,318.802,129.139,312.008,116.761,311.959z"/>
<path style="fill:#B2937D;" d="M116.749,314.341L116.749,314.341c-0.019-0.004-0.041,0-0.06,0c-0.022,0-0.041-0.004-0.064-0.004
	v0.004c-10.834,0.041-13.485,5.987-13.485,5.987h27.093C130.238,320.328,127.583,314.382,116.749,314.341z"/>
<path style="fill:#D4AD84;" d="M116.749,315.841h-0.12c-10.834,0.037-13.485,4.484-13.485,4.484h27.093
	C130.238,320.328,127.583,315.882,116.749,315.841z"/>
<rect x="373.269" y="302.618" style="fill:#DBB99A;" width="17.815" height="93.041"/>
<g>
	<rect x="385.797" y="302.618" style="fill:#D1AD8F;" width="5.288" height="93.041"/>
	<rect x="373.307" y="302.618" style="fill:#D1AD8F;" width="2.696" height="93.041"/>
</g>
<path style="fill:#CCA27F;" d="M393.556,297.524h-21.633c-0.875,0-1.582,1.301-1.582,2.906l3.691,4.719h17.415l3.691-4.719
	C395.142,298.826,394.432,297.524,393.556,297.524z"/>
<rect x="325.066" y="302.618" style="fill:#DBB99A;" width="12.139" height="93.041"/>
<rect x="325.104" y="302.618" style="fill:#D1AD8F;" width="1.836" height="93.041"/>
<path style="fill:#CCA27F;" d="M338.233,296.2h-13.919c0,0-2.954,2.289-2.954,4.79c0,2.498,2.954,4.959,2.954,4.959h13.919
	c0,0,2.954-2.573,2.954-4.959C341.188,298.605,338.233,296.2,338.233,296.2z"/>
<rect x="288.905" y="302.618" style="fill:#DBB99A;" width="12.139" height="93.041"/>
<rect x="288.942" y="302.618" style="fill:#D1AD8F;" width="1.836" height="93.041"/>
<path style="fill:#CCA27F;" d="M302.079,296.2H288.16c0,0-2.954,2.289-2.954,4.79c0,2.498,2.954,4.959,2.954,4.959h13.919
	c0,0,2.954-2.573,2.954-4.959C305.033,298.605,302.079,296.2,302.079,296.2z"/>
<rect x="260.521" y="302.618" style="fill:#DBB99A;" width="12.139" height="93.041"/>
<rect x="260.559" y="302.618" style="fill:#D1AD8F;" width="1.836" height="93.041"/>
<path style="fill:#CCA27F;" d="M273.699,296.2h-13.919c0,0-2.954,2.289-2.954,4.79c0,2.498,2.954,4.959,2.954,4.959h13.919
	c0,0,2.954-2.573,2.954-4.959C276.654,298.605,273.699,296.2,273.699,296.2z"/>
<rect x="346.307" y="331.824" style="fill:#B2937D;" width="18.66" height="39.064"/>
<polygon style="fill:#DAB48D;" points="360.816,336.707 356.28,335.799 350.323,335.41 346.434,334.505 346.434,370.88 
	362.331,370.88 362.331,336.319 "/>
<path style="fill:#E5C7A8;" d="M355.506,311.959L355.506,311.959l-0.138-0.004v0.004c-12.382,0.049-15.415,6.843-15.415,6.843
	l1.111,3.654h28.746l1.111-3.654C370.921,318.802,367.884,312.008,355.506,311.959z"/>
<path style="fill:#B2937D;" d="M355.499,314.341L355.499,314.341c-0.019-0.004-0.037,0-0.06,0s-0.041-0.004-0.064-0.004v0.004
	c-10.83,0.041-13.485,5.987-13.485,5.987h27.093C368.984,320.328,366.329,314.382,355.499,314.341z"/>
<path style="fill:#D4AD84;" d="M355.499,315.841h-0.12c-10.83,0.037-13.485,4.484-13.485,4.484h27.093
	C368.984,320.328,366.329,315.882,355.499,315.841z"/>
<rect x="218.488" y="315.033" style="fill:#E5C7A8;" width="35.504" height="80.592"/>
<rect x="218.488" y="315.033" style="fill:#D6B99F;" width="35.504" height="11.66"/>
<g style="opacity:0.04;">
	<polygon points="322.37,362.447 277.289,353.895 202.67,349.235 148.177,332.175 79.085,326.97 79.085,395.868 393.878,395.868 
		393.878,359.336 	"/>
</g>
<polygon points="322.37,362.447 277.289,353.895 202.67,349.235 148.177,332.175 79.085,326.97 79.085,328.394 148.177,333.6 
	202.67,350.656 277.289,355.323 322.37,363.872 393.878,360.76 393.878,359.336 "/>
<path style="fill:#5B5552;" d="M249.287,368.587l-0.778-40.821c0,0,0-6.219-5.445-6.608h-8.552l-0.778,3.111l-11.271,0.778v35.765
	l-2.333-1.167l3.889,6.993l-3.111,4.274l2.333,1.559l1.556,6.993c0,0,20.605,2.726,25.272,1.559v-10.501L249.287,368.587z"/>
<path style="fill:#E5C7A8;" d="M258.603,314.289c-5.707-4.364-20.519-15.714-21.473-16.525c-0.105-0.12-0.236-0.187-0.378-0.187
	h-0.15c-0.142,0-0.273,0.067-0.374,0.179c-0.931,0.785-15.889,12.157-21.648,16.529c-0.254,0.194-0.389,0.621-0.318,1.036
	c0.067,0.415,0.318,0.707,0.61,0.707h43.443c0.288,0,0.542-0.292,0.61-0.703C258.992,314.913,258.861,314.487,258.603,314.289z"/>
<path style="fill:#B2937D;" d="M236.711,301.57L236.711,301.57c-0.015-0.004-0.034,0-0.049,0c-0.019,0-0.037-0.004-0.052-0.004
	v0.004c0.101,0-14.498,11.08-14.498,11.08h28.985C251.097,312.647,236.61,301.57,236.711,301.57z"/>
<path style="fill:#D4AD84;" d="M236.711,305.564h-0.101c0.101,0-14.498,7.083-14.498,7.083h28.985
	C251.097,312.647,236.61,305.564,236.711,305.564z"/>
<rect x="226.622" y="209.315" style="fill:#B2937D;" width="18.657" height="39.067"/>
<polygon style="fill:#DAB48D;" points="241.004,214.199 236.464,213.29 230.507,212.901 226.622,211.993 226.622,248.371 
	244.175,248.371 244.175,213.806 "/>
<g>
	<path style="fill:#E2BC97;" d="M239.06,145.559c-17.153,0-37.055,7.969-37.055,7.969l5.965,20.22h62.305l5.961-20.22
		C276.239,153.532,256.213,145.559,239.06,145.559z"/>
	<rect x="229.857" y="139.348" style="fill:#E2BC97;" width="13.47" height="22.28"/>
	<polygon style="fill:#E2BC97;" points="225.597,130.53 229.864,142.455 243.334,142.455 247.601,130.53 	"/>
	<polygon style="fill:#E2BC97;" points="229.225,127.31 232.085,135.305 241.116,135.305 243.974,127.31 	"/>
	<polygon style="fill:#E2BC97;" points="241.116,123.38 232.085,123.38 229.225,128.372 243.974,128.372 	"/>
	<polygon style="fill:#E2BC97;" points="241.116,105.239 236.599,95.815 232.085,105.239 229.225,110.231 243.974,110.231 	"/>
	<circle style="fill:#E2BC97;" cx="236.588" cy="115.527" r="9.846"/>
</g>
<path style="fill:#C8A68B;" d="M393.878,395.868H79.085l-5.718,12.24c42.511,40.586,100.056,65.558,163.468,65.558
	c66.381,0,126.345-27.344,169.35-71.34L393.878,395.868z"/>
<g>
</g>
<g>
</g>
<g>
</g>
<g>
</g>
<g>
</g>
<g>
</g>
<g>
</g>
<g>
</g>
<g>
</g>
<g>
</g>
<g>
</g>
<g>
</g>
<g>
</g>
<g>
</g>
<g>
</g>
</svg>
