<?xml version="1.0" encoding="iso-8859-1"?>
<!-- Generator: Adobe Illustrator 19.0.0, SVG Export Plug-In . SVG Version: 6.00 Build 0)  -->
<svg version="1.1" id="Layer_1" xmlns="http://www.w3.org/2000/svg" xmlns:xlink="http://www.w3.org/1999/xlink" x="0px" y="0px"
	 viewBox="0 0 473.677 473.677" style="enable-background:new 0 0 473.677 473.677;" xml:space="preserve">
<circle style="fill:#B9E8EA;" cx="236.85" cy="236.838" r="236.827"/>
<path style="fill:#83A34B;" d="M0,236.827c0,130.799,106.036,236.838,236.835,236.838c130.807,0,236.842-106.039,236.842-236.838
	L0,236.827L0,236.827z"/>
<polygon style="fill:#939393;" points="237.31,109.884 181.433,120.418 181.433,127.792 293.564,127.792 293.564,120.418 "/>
<polygon style="fill:#CECECE;" points="237.321,117.785 185.513,126.566 185.513,169.062 289.477,169.062 289.477,126.566 "/>
<polygon style="fill:#B6B4B5;" points="237.321,117.785 236.969,169.062 289.477,169.062 289.477,126.566 "/>
<polygon style="fill:#939393;" points="237.31,127.097 181.433,135.87 181.433,143.514 293.564,143.514 293.564,135.87 "/>
<polygon style="fill:#CECECE;" points="237.321,134.292 185.513,142.373 185.513,184.87 289.477,184.87 289.477,142.373 "/>
<polygon style="fill:#B6B4B5;" points="237.321,134.292 237.321,184.87 289.477,184.87 289.477,142.373 "/>
<g>
	<polygon style="fill:#898989;" points="245.223,141.431 245.223,175.67 281.575,175.67 281.575,146.049 	"/>
	<polygon style="fill:#898989;" points="205.624,144.127 205.624,158.12 213.174,158.12 213.174,143.214 	"/>
</g>
<g>
	<polygon style="fill:#B6B4B5;" points="251.808,141.143 251.808,177.847 256.924,177.847 256.924,141.491 	"/>
	<polygon style="fill:#B6B4B5;" points="271.725,141.143 271.725,177.847 276.833,177.847 276.833,143.491 	"/>
	<polygon style="fill:#B6B4B5;" points="447.354,275.487 438.046,275.487 430.144,263.195 419.737,262.843 411.177,248.442 
		401.346,248.442 394.671,235.447 383.826,234.655 377.11,220.698 366.527,219.775 360.603,206.294 348.42,204.959 341.636,192.248 
		330.75,190.842 325.478,177.144 313.186,175.386 307.916,161.688 237.321,149.747 237.321,294.802 455.435,290.587 	"/>
</g>
<g>
	<polygon style="fill:#939393;" points="255.585,279.963 237.321,279.963 237.321,289.447 257.077,289.447 	"/>
	<polygon style="fill:#939393;" points="287.24,279.963 269.062,279.963 269.986,289.447 288.16,289.447 	"/>
	<polygon style="fill:#939393;" points="314.064,279.787 297.995,279.701 300.105,289.099 316.435,288.654 	"/>
	<polygon style="fill:#939393;" points="338.211,279.701 324.864,279.963 326.887,287.427 339.527,287.338 	"/>
	<polygon style="fill:#939393;" points="253.251,263.075 237.321,263.075 237.321,271.534 254.553,271.534 	"/>
	<polygon style="fill:#939393;" points="280.868,263.075 265.009,263.075 265.816,271.534 281.672,271.534 	"/>
	<polygon style="fill:#939393;" points="304.27,262.922 290.254,262.843 292.091,270.36 306.073,270.876 	"/>
	<polygon style="fill:#939393;" points="325.343,262.843 313.698,263.075 315.426,270.745 327.411,271.142 	"/>
	<polygon style="fill:#939393;" points="250.933,245.032 237.321,245.032 237.321,253.491 252.047,253.491 	"/>
	<polygon style="fill:#939393;" points="274.545,245.956 260.989,245.956 261.673,254.414 275.233,254.414 	"/>
	<polygon style="fill:#939393;" points="294.551,247.377 282.566,247.298 284.137,254.818 296.092,255.334 	"/>
	<polygon style="fill:#939393;" points="314.674,247.829 304.715,248.061 306.193,255.731 316.678,255.993 	"/>
	<polygon style="fill:#939393;" points="249.041,228.963 237.321,228.963 237.321,237.422 250.002,237.422 	"/>
	<polygon style="fill:#939393;" points="269.384,229.89 257.702,229.89 258.296,238.342 269.975,238.342 	"/>
	<polygon style="fill:#939393;" points="286.62,231.311 276.295,231.233 277.648,238.749 287.947,239.265 	"/>
	<polygon style="fill:#939393;" points="303.953,231.76 295.374,231.996 296.649,239.658 305.811,239.86 	"/>
	<polygon style="fill:#939393;" points="247.309,212.501 237.321,212.501 237.321,220.96 248.128,220.96 	"/>
	<polygon style="fill:#939393;" points="264.657,213.421 254.699,213.421 255.2,221.88 265.162,221.88 	"/>
	<polygon style="fill:#939393;" points="279.357,214.846 270.554,214.767 271.706,222.288 280.49,222.804 	"/>
	<polygon style="fill:#939393;" points="294.136,215.295 286.822,215.53 287.91,223.2 295.602,223.724 	"/>
	<polygon style="fill:#939393;" points="245.761,197.356 237.321,197.356 237.321,204.977 246.453,205.811 	"/>
	<polygon style="fill:#939393;" points="260.428,198.276 252.006,198.276 252.425,206.294 260.854,206.735 	"/>
	<polygon style="fill:#939393;" points="272.858,199.697 265.413,199.622 266.389,207.142 273.815,207.655 	"/>
	<polygon style="fill:#939393;" points="285.359,200.146 279.174,200.381 280.09,208.051 286.384,208.754 	"/>
	<polygon style="fill:#939393;" points="243.959,183.262 237.321,183.262 237.321,189.787 244.505,190.262 	"/>
	<polygon style="fill:#939393;" points="255.518,184.021 248.884,184.021 249.22,190.666 255.854,191.025 	"/>
	<polygon style="fill:#939393;" points="265.308,185.202 259.444,185.135 260.215,191.358 266.063,191.784 	"/>
	<polygon style="fill:#939393;" points="275.158,185.573 270.285,185.767 271.007,192.113 275.913,192.424 	"/>
	<polygon style="fill:#939393;" points="242.227,169.694 237.321,169.694 237.321,175.738 242.631,176.343 	"/>
	<polygon style="fill:#939393;" points="250.791,170.457 245.877,170.457 246.124,176.616 251.038,177.458 	"/>
	<polygon style="fill:#939393;" points="258.046,171.635 253.7,171.572 254.269,177.405 258.606,178.221 	"/>
	<polygon style="fill:#939393;" points="265.341,172.009 261.733,172.204 262.268,178.55 265.902,178.901 	"/>
	<polygon style="fill:#939393;" points="240.997,154.022 237.321,154.022 237.321,160.286 241.3,161.019 	"/>
	<polygon style="fill:#939393;" points="247.433,154.788 243.738,154.788 243.929,161.161 247.62,161.781 	"/>
	<polygon style="fill:#939393;" points="252.889,155.963 249.62,155.899 250.047,162.118 253.304,162.548 	"/>
</g>
<g>
	<polygon style="fill:#9B9B9B;" points="447.754,276.343 237.321,275.704 237.321,279.918 450.133,280.621 	"/>
	<polygon style="fill:#9B9B9B;" points="430.634,264.115 237.321,257.967 237.321,263.763 432.482,267.451 	"/>
	<polygon style="fill:#9B9B9B;" points="411.57,249.332 237.717,241.636 237.717,246.64 414.21,253.457 	"/>
	<polygon style="fill:#9B9B9B;" points="395.161,236.401 237.321,224.603 237.321,229.696 396.855,239.561 	"/>
	<polygon style="fill:#9B9B9B;" points="377.446,221.596 237.321,209.323 237.321,213.889 379.204,225.107 	"/>
	<polygon style="fill:#9B9B9B;" points="360.959,207.184 237.321,193.957 237.321,198.433 362.742,211.047 	"/>
	<polygon style="fill:#9B9B9B;" points="342.171,193.201 237.321,179.645 237.321,183.508 344.108,196.885 	"/>
	<polygon style="fill:#9B9B9B;" points="325.825,177.989 237.321,165.244 237.321,169.638 326.884,181.149 	"/>
	<polygon style="fill:#9B9B9B;" points="308.246,162.6 237.321,150.671 237.321,154.534 309.3,165.409 	"/>
</g>
<g>
	<polygon style="fill:#939393;" points="449.605,279.6 438.641,279.571 441.075,286.021 453.162,286.287 	"/>
	<polygon style="fill:#939393;" points="431.726,279.35 419.3,279.481 420.926,286.156 433.963,286.418 	"/>
	<polygon style="fill:#939393;" points="432.25,266.355 423.559,266.231 426.281,272.589 436.206,272.503 	"/>
	<polygon style="fill:#939393;" points="416.215,266.231 405.953,266.003 408.459,271.886 418.556,272.151 	"/>
	<polygon style="fill:#939393;" points="397.831,265.738 392.124,265.738 396.866,271.886 400.905,271.886 	"/>
	<polygon style="fill:#939393;" points="399.809,251.868 390.939,251.557 393.792,258.539 402.397,258.539 	"/>
	<polygon style="fill:#939393;" points="413.507,252.391 406.129,252.085 410.123,259.504 417.677,259.332 	"/>
	<polygon style="fill:#939393;" points="396.361,238.607 389.005,237.859 392.124,245.193 399.85,245.544 	"/>
	<polygon style="fill:#939393;" points="384.006,237.728 375.749,237.201 378.512,244.665 385.804,245.017 	"/>
	<polygon style="fill:#939393;" points="378.778,224.21 373.288,223.679 376.145,230.268 381.852,230.526 	"/>
	<polygon style="fill:#939393;" points="368.154,223.286 360.779,222.714 363.236,229.21 369.997,229.389 	"/>
	<polygon style="fill:#939393;" points="362.267,210.071 358.229,209.805 361.217,216.57 365.08,216.656 	"/>
	<polygon style="fill:#939393;" points="353.049,209.192 346.991,208.664 350.151,215.515 356.123,215.34 	"/>
	<polygon style="fill:#939393;" points="343.48,195.8 340.757,195.318 343.566,201.642 346.64,201.563 	"/>
	<polygon style="fill:#939393;" points="337.07,195.101 331.364,194.443 333.731,200.853 339.351,201.204 	"/>
	<polygon style="fill:#939393;" points="326.708,180.479 324.602,180.304 326.356,186.803 329.165,186.627 	"/>
	<polygon style="fill:#939393;" points="320.384,179.78 315.119,179.425 318.279,185.924 322.669,185.573 	"/>
	<polygon style="fill:#939393;" points="308.971,164.676 306.338,164.5 308.971,170.644 311.252,170.293 	"/>
</g>
<g>
	<polygon style="fill:#AAAAAA;" points="447.354,275.487 237.321,274.78 237.321,278.995 449.463,279.698 	"/>
	<polygon style="fill:#AAAAAA;" points="430.144,263.195 237.321,257.047 237.321,262.843 432.317,266.527 	"/>
	<polygon style="fill:#AAAAAA;" points="411.177,248.442 237.321,240.716 237.321,245.72 413.634,252.522 	"/>
	<polygon style="fill:#AAAAAA;" points="394.671,235.447 237.321,223.679 237.321,228.772 396.361,238.607 	"/>
	<polygon style="fill:#AAAAAA;" points="377.11,220.698 237.321,208.399 237.321,212.969 378.864,224.21 	"/>
	<polygon style="fill:#AAAAAA;" points="360.603,206.294 237.321,193.037 237.321,197.513 362.38,210.157 	"/>
	<polygon style="fill:#AAAAAA;" points="341.636,192.248 237.321,178.722 237.321,182.585 343.566,195.931 	"/>
	<polygon style="fill:#AAAAAA;" points="325.478,177.144 237.321,164.324 237.321,168.715 326.532,180.304 	"/>
	<polygon style="fill:#AAAAAA;" points="307.916,161.688 237.321,149.747 237.497,153.61 308.971,164.5 	"/>
</g>
<polygon style="fill:#777777;" points="254.53,152.38 250.095,151.812 254.179,166.695 261.161,167.746 264.65,182.185 
	271.302,183.026 274.474,196.717 280.786,197.644 285.191,212.576 291.717,213.186 295.426,227.923 301.858,228.335 
	305.908,243.633 311.869,244.007 316.611,259.68 324.909,259.814 327.37,274.986 335.84,274.96 336.367,279.223 338.409,292.408 
	373.247,292.345 "/>
<polygon style="fill:#848484;" points="292.465,158.969 256.288,152.732 372.192,292.345 413.286,291.029 "/>
<g>
	<polygon style="fill:#E1E1E3;" points="259.317,153.326 251.808,152.032 368.965,292.278 376.276,292.214 	"/>
	<polygon style="fill:#E1E1E3;" points="298.085,160.02 291.676,158.969 408.631,291.29 414.954,291.29 	"/>
</g>
<polygon style="fill:#CECECE;" points="166.736,161.688 161.467,175.386 149.175,177.144 143.906,190.842 133.017,192.248 
	126.233,204.959 114.053,206.294 108.126,219.775 97.543,220.698 90.831,234.655 79.982,235.447 73.311,248.442 63.476,248.442 
	54.916,262.843 44.508,263.195 36.607,275.487 27.299,275.487 19.221,290.587 237.332,294.802 237.332,149.747 "/>
<g>
	<polygon style="fill:#AAAAAA;" points="219.068,279.963 217.576,289.447 237.332,289.447 237.332,279.963 	"/>
	<polygon style="fill:#AAAAAA;" points="187.412,279.963 186.493,289.447 204.667,289.447 205.591,279.963 	"/>
	<polygon style="fill:#AAAAAA;" points="160.589,279.787 158.221,288.654 174.552,289.099 176.657,279.701 	"/>
	<polygon style="fill:#AAAAAA;" points="136.442,279.701 135.126,287.338 147.769,287.427 149.789,279.963 	"/>
	<polygon style="fill:#AAAAAA;" points="221.405,263.075 220.1,271.534 237.332,271.534 237.332,263.075 	"/>
	<polygon style="fill:#AAAAAA;" points="193.785,263.075 192.981,271.534 208.84,271.534 209.644,263.075 	"/>
	<polygon style="fill:#AAAAAA;" points="170.382,262.922 168.58,270.876 182.562,270.36 184.402,262.843 	"/>
	<polygon style="fill:#AAAAAA;" points="149.314,262.843 147.246,271.142 159.227,270.745 160.959,263.075 	"/>
	<polygon style="fill:#AAAAAA;" points="223.72,245.032 222.606,253.491 237.332,253.491 237.332,245.032 	"/>
	<polygon style="fill:#AAAAAA;" points="200.112,245.956 199.424,254.414 212.98,254.414 213.668,245.956 	"/>
	<polygon style="fill:#AAAAAA;" points="180.102,247.377 178.565,255.334 190.516,254.818 192.087,247.298 	"/>
	<polygon style="fill:#AAAAAA;" points="159.983,247.829 157.978,255.993 168.46,255.731 169.937,248.061 	"/>
	<polygon style="fill:#AAAAAA;" points="225.612,228.963 224.655,237.422 237.332,237.422 237.332,228.963 	"/>
	<polygon style="fill:#AAAAAA;" points="205.273,229.89 204.678,238.342 216.357,238.342 216.951,229.89 	"/>
	<polygon style="fill:#AAAAAA;" points="188.033,231.311 186.706,239.265 197.004,238.749 198.358,231.233 	"/>
	<polygon style="fill:#AAAAAA;" points="170.7,231.76 168.842,239.86 178.004,239.658 179.279,231.996 	"/>
	<polygon style="fill:#AAAAAA;" points="227.344,212.501 226.528,220.96 237.332,220.96 237.332,212.501 	"/>
	<polygon style="fill:#AAAAAA;" points="209.996,213.421 209.491,221.88 219.453,221.88 219.954,213.421 	"/>
	<polygon style="fill:#AAAAAA;" points="195.299,214.846 194.162,222.804 202.95,222.288 204.102,214.767 	"/>
	<polygon style="fill:#AAAAAA;" points="180.517,215.295 179.051,223.724 186.743,223.2 187.831,215.53 	"/>
	<polygon style="fill:#AAAAAA;" points="228.896,197.356 228.2,205.811 237.332,204.977 237.332,197.356 	"/>
	<polygon style="fill:#AAAAAA;" points="214.225,198.276 213.799,206.735 222.228,206.294 222.647,198.276 	"/>
	<polygon style="fill:#AAAAAA;" points="201.795,199.697 200.838,207.655 208.264,207.142 209.24,199.622 	"/>
	<polygon style="fill:#AAAAAA;" points="189.297,200.146 188.273,208.754 194.563,208.051 195.479,200.381 	"/>
	<polygon style="fill:#AAAAAA;" points="230.694,183.262 230.148,190.262 237.332,189.787 237.332,183.262 	"/>
	<polygon style="fill:#AAAAAA;" points="219.139,184.021 218.802,191.025 225.436,190.666 225.773,184.021 	"/>
	<polygon style="fill:#AAAAAA;" points="209.345,185.202 208.59,191.784 214.442,191.358 215.209,185.135 	"/>
	<polygon style="fill:#AAAAAA;" points="199.499,185.573 198.743,192.424 203.646,192.113 204.368,185.767 	"/>
	<polygon style="fill:#AAAAAA;" points="232.426,169.694 232.022,176.343 237.332,175.738 237.332,169.694 	"/>
	<polygon style="fill:#AAAAAA;" points="223.862,170.457 223.615,177.458 228.529,176.616 228.78,170.457 	"/>
	<polygon style="fill:#AAAAAA;" points="216.607,171.635 216.046,178.221 220.384,177.405 220.953,171.572 	"/>
	<polygon style="fill:#AAAAAA;" points="209.311,172.009 208.75,178.901 212.385,178.55 212.924,172.204 	"/>
	<polygon style="fill:#AAAAAA;" points="233.656,154.022 233.353,161.019 237.332,160.286 237.332,154.022 	"/>
	<polygon style="fill:#AAAAAA;" points="227.22,154.788 227.033,161.781 230.728,161.161 230.915,154.788 	"/>
	<polygon style="fill:#AAAAAA;" points="221.768,155.963 221.345,162.548 224.61,162.118 225.033,155.899 	"/>
	<polygon style="fill:#AAAAAA;" points="25.048,279.6 21.495,286.287 33.578,286.021 36.016,279.571 	"/>
	<polygon style="fill:#AAAAAA;" points="42.93,279.35 40.69,286.418 53.73,286.156 55.353,279.481 	"/>
	<polygon style="fill:#AAAAAA;" points="42.403,266.355 38.45,272.503 48.375,272.589 51.098,266.231 	"/>
	<polygon style="fill:#AAAAAA;" points="58.438,266.231 56.097,272.151 66.198,271.886 68.7,266.003 	"/>
	<polygon style="fill:#AAAAAA;" points="76.822,265.738 73.748,271.886 77.787,271.886 82.529,265.738 	"/>
	<polygon style="fill:#AAAAAA;" points="74.848,251.868 72.256,258.539 80.865,258.539 83.718,251.557 	"/>
	<polygon style="fill:#AAAAAA;" points="61.15,252.391 56.976,259.332 64.53,259.504 68.524,252.085 	"/>
	<polygon style="fill:#AAAAAA;" points="78.295,238.607 74.803,245.544 82.529,245.193 85.647,237.859 	"/>
	<polygon style="fill:#AAAAAA;" points="90.651,237.728 88.852,245.017 96.141,244.665 98.904,237.201 	"/>
	<polygon style="fill:#AAAAAA;" points="95.875,224.21 92.801,230.526 98.508,230.268 101.365,223.679 	"/>
	<polygon style="fill:#AAAAAA;" points="106.503,223.286 104.656,229.389 111.417,229.21 113.878,222.714 	"/>
	<polygon style="fill:#AAAAAA;" points="112.385,210.071 109.573,216.656 113.436,216.57 116.424,209.805 	"/>
	<polygon style="fill:#AAAAAA;" points="121.603,209.192 118.53,215.34 124.502,215.515 127.662,208.664 	"/>
	<polygon style="fill:#AAAAAA;" points="131.173,195.8 128.013,201.563 131.087,201.642 133.899,195.318 	"/>
	<polygon style="fill:#AAAAAA;" points="137.586,195.101 135.302,201.204 140.922,200.853 143.289,194.443 	"/>
	<polygon style="fill:#AAAAAA;" points="147.949,180.479 145.488,186.627 148.297,186.803 150.054,180.304 	"/>
	<polygon style="fill:#AAAAAA;" points="154.269,179.78 151.984,185.573 156.374,185.924 159.538,179.425 	"/>
	<polygon style="fill:#AAAAAA;" points="165.682,164.676 163.401,170.293 165.682,170.644 168.318,164.5 	"/>
</g>
<g>
	<polygon style="fill:#A5A5A5;" points="26.899,276.343 24.524,280.621 237.332,279.918 237.332,275.704 	"/>
	<polygon style="fill:#A5A5A5;" points="44.019,264.115 42.171,267.451 237.332,263.763 237.332,257.967 	"/>
	<polygon style="fill:#A5A5A5;" points="63.087,249.332 60.446,253.457 236.936,246.64 236.936,241.636 	"/>
	<polygon style="fill:#A5A5A5;" points="79.492,236.401 77.798,239.561 237.332,229.696 237.332,224.603 	"/>
	<polygon style="fill:#A5A5A5;" points="97.21,221.596 95.449,225.107 237.332,213.889 237.332,209.323 	"/>
	<polygon style="fill:#A5A5A5;" points="113.694,207.184 111.91,211.047 237.332,198.433 237.332,193.957 	"/>
	<polygon style="fill:#A5A5A5;" points="132.482,193.201 130.549,196.885 237.332,183.508 237.332,179.645 	"/>
	<polygon style="fill:#A5A5A5;" points="148.828,177.989 147.769,181.149 237.332,169.638 237.332,165.244 	"/>
	<polygon style="fill:#A5A5A5;" points="166.411,162.6 165.353,165.409 237.332,154.534 237.332,150.671 	"/>
</g>
<g>
	<polygon style="fill:#B5B5B5;" points="27.299,275.487 25.19,279.698 237.332,278.995 237.332,274.78 	"/>
	<polygon style="fill:#B5B5B5;" points="44.508,263.195 42.336,266.527 237.332,262.843 237.332,257.047 	"/>
	<polygon style="fill:#B5B5B5;" points="63.476,248.442 61.019,252.522 237.332,245.72 237.332,240.716 	"/>
	<polygon style="fill:#B5B5B5;" points="79.982,235.447 78.295,238.607 237.332,228.772 237.332,223.679 	"/>
	<polygon style="fill:#B5B5B5;" points="97.543,220.698 95.789,224.21 237.332,212.969 237.332,208.399 	"/>
	<polygon style="fill:#B5B5B5;" points="114.053,206.294 112.273,210.157 237.332,197.513 237.332,193.037 	"/>
	<polygon style="fill:#B5B5B5;" points="133.017,192.248 131.087,195.931 237.332,182.585 237.332,178.722 	"/>
	<polygon style="fill:#B5B5B5;" points="149.175,177.144 148.121,180.304 237.332,168.715 237.332,164.324 	"/>
	<polygon style="fill:#B5B5B5;" points="166.736,161.688 165.682,164.5 237.156,153.61 237.332,149.747 	"/>
</g>
<polygon style="fill:#878787;" points="220.123,152.38 101.406,292.345 136.244,292.408 138.289,279.223 138.813,274.96 
	147.287,274.986 149.744,259.814 158.042,259.68 162.784,244.007 168.748,243.633 172.798,228.335 179.227,227.923 182.936,213.186 
	189.466,212.576 193.871,197.644 200.179,196.717 203.351,183.026 210.003,182.185 213.492,167.746 220.474,166.695 
	224.558,151.812 "/>
<polygon style="fill:#9B9B9B;" points="182.192,158.969 61.37,291.029 102.461,292.345 218.369,152.732 "/>
<g>
	<polygon style="fill:#EFEFEF;" points="215.34,153.326 98.381,292.214 105.692,292.278 222.845,152.032 	"/>
	<polygon style="fill:#EFEFEF;" points="176.568,160.02 59.699,291.29 66.022,291.29 182.981,158.969 	"/>
</g>
<g>
</g>
<g>
</g>
<g>
</g>
<g>
</g>
<g>
</g>
<g>
</g>
<g>
</g>
<g>
</g>
<g>
</g>
<g>
</g>
<g>
</g>
<g>
</g>
<g>
</g>
<g>
</g>
<g>
</g>
</svg>
