<?xml version="1.0" encoding="iso-8859-1"?>
<!-- Generator: Adobe Illustrator 19.0.0, SVG Export Plug-In . SVG Version: 6.00 Build 0)  -->
<svg version="1.1" id="Layer_1" xmlns="http://www.w3.org/2000/svg" xmlns:xlink="http://www.w3.org/1999/xlink" x="0px" y="0px"
	 viewBox="0 0 474.736 474.736" style="enable-background:new 0 0 474.736 474.736;" xml:space="preserve">
<circle style="fill:#B9E8EA;" cx="237.368" cy="237.368" r="237.368"/>
<path style="fill:#F4BF4A;" d="M1.469,263.755c13.137,118.669,113.71,210.981,235.88,210.981
	c122.054,0,222.593-92.117,235.891-210.61c0.015-0.124,0.019-0.247,0.03-0.371L1.469,263.755L1.469,263.755z"/>
<path style="fill:#C6853E;" d="M348.931,168.883c-2.579-3.804-6.762-3.804-9.34,0l-98.066,110.273H447L348.931,168.883z"/>
<path style="fill:#DD9452;" d="M344.347,166.034c-1.72-0.03-3.444,0.918-4.756,2.849l-98.066,110.273h63.999
	C305.524,279.156,346.007,166.064,344.347,166.034z"/>
<path style="fill:#D38E3C;" d="M234.857,125.79c-3.801-5.603-9.962-5.603-13.759,0L76.619,288.249h302.709L234.857,125.79z"/>
<path style="fill:#E89B4D;" d="M228.17,121.593c-2.534-0.049-5.075,1.349-7.005,4.198L76.694,288.249h94.288
	C170.982,288.249,230.622,121.638,228.17,121.593z"/>
<path style="fill:#C17E36;" d="M234.666,125.764c-3.797-5.6-9.962-5.6-13.759,0l-38.879,43.999l34.94-12.309l31.387,4.172
	l11.604,8.137l4.798-10.037L234.666,125.764z"/>
<path style="fill:#E5A05C;" d="M234.857,125.79c-3.801-5.603-9.962-5.603-13.759,0l-37.129,41.84l34.265-13.208l30.311,4.996
	l11.604,8.137l4.142-8.666L234.857,125.79z"/>
<path style="fill:#EFAF7B;" d="M220.944,125.637l-36.833,41.851l34.119-13.066l9.869-32.826
	C225.569,121.548,222.874,122.792,220.944,125.637z"/>
<path style="fill:#CC842E;" d="M137.41,180.738c-2.736-4.04-7.185-4.04-9.925,0L23.302,297.881h218.286L137.41,180.738z"/>
<path style="fill:#E59A4E;" d="M132.537,177.702c-1.825-0.03-3.662,0.978-5.052,3.036L23.302,297.881h67.991
	C91.293,297.881,134.302,177.739,132.537,177.702z"/>
<g>
</g>
<g>
</g>
<g>
</g>
<g>
</g>
<g>
</g>
<g>
</g>
<g>
</g>
<g>
</g>
<g>
</g>
<g>
</g>
<g>
</g>
<g>
</g>
<g>
</g>
<g>
</g>
<g>
</g>
</svg>
