<?xml version="1.0" encoding="iso-8859-1"?>
<!-- Generator: Adobe Illustrator 19.0.0, SVG Export Plug-In . SVG Version: 6.00 Build 0)  -->
<svg version="1.1" id="Layer_1" xmlns="http://www.w3.org/2000/svg" xmlns:xlink="http://www.w3.org/1999/xlink" x="0px" y="0px"
	 viewBox="0 0 473.654 473.654" style="enable-background:new 0 0 473.654 473.654;" xml:space="preserve">
<circle style="fill:#B9E8EA;" cx="236.827" cy="236.827" r="236.827"/>
<path style="fill:#F4BF4A;" d="M1.466,263.154c13.107,118.399,113.451,210.501,235.343,210.501
	c121.775,0,222.086-91.908,235.354-210.13c0.015-0.123,0.019-0.247,0.03-0.37L1.466,263.154L1.466,263.154z"/>
<rect x="200.123" y="287.442" style="fill:#BA883E;" width="71.201" height="22.838"/>
<path style="fill:#C69340;" d="M306.6,224.292c1.343-8.059-5.378-30.227-5.378-30.227l-8.732-1.343
	c-0.673-26.873-10.329-35.518-10.329-35.518l-16.54-25.616h-57.776l-16.54,25.616c0,0-9.656,8.646-10.329,35.518l-8.732,1.343
	c0,0-6.72,22.168-5.374,30.227c0,0-6.72,16.125-12.094,20.156H318.69C313.316,240.417,306.6,224.292,306.6,224.292z"/>
<g>
	<path style="fill:#BA8942;" d="M283.549,158.797h-93.628c-0.456,0.595-0.995,1.372-1.582,2.348h96.788
		C284.54,160.17,284.002,159.392,283.549,158.797z"/>
	<path style="fill:#BA8942;" d="M286.777,164.257h-100.09c-0.34,0.718-0.684,1.503-1.025,2.352h102.139
		C287.461,165.76,287.121,164.975,286.777,164.257z"/>
	<path style="fill:#BA8942;" d="M291.788,182.981H181.676c-0.146,1.182-0.269,2.416-0.374,3.695h110.86
		C292.057,185.397,291.934,184.163,291.788,182.981z"/>
	<path style="fill:#BA8942;" d="M290.056,173.576H183.411c-0.217,0.856-0.426,1.75-0.624,2.689h107.894
		C290.483,175.326,290.273,174.432,290.056,173.576z"/>
	<path style="fill:#BA8942;" d="M302.58,198.863c-0.075-0.28-0.15-0.546-0.221-0.808c-0.019-0.064-0.034-0.127-0.052-0.191
		c-0.079-0.292-0.157-0.568-0.228-0.834c-0.007-0.019-0.015-0.045-0.022-0.067c-0.161-0.591-0.31-1.103-0.434-1.529
		c-0.007-0.019-0.011-0.041-0.019-0.06c-0.052-0.176-0.097-0.333-0.138-0.475c-0.011-0.049-0.026-0.094-0.041-0.138
		c-0.026-0.097-0.052-0.187-0.075-0.266c-0.015-0.049-0.034-0.097-0.041-0.138c-0.019-0.071-0.041-0.135-0.056-0.176
		c0-0.007-0.004-0.022-0.007-0.03c-0.015-0.049-0.026-0.082-0.026-0.082l-8.732-1.342H180.973l-8.732,1.342
		c0,0-0.026,0.075-0.06,0.198c-0.007,0.022-0.007,0.034-0.015,0.06c-0.011,0.037-0.03,0.09-0.041,0.135
		c-0.019,0.064-0.037,0.127-0.06,0.202c-0.011,0.037-0.026,0.086-0.037,0.131c-0.03,0.097-0.056,0.198-0.09,0.31
		c-0.015,0.049-0.03,0.108-0.049,0.161c-0.037,0.127-0.075,0.262-0.116,0.408c-0.015,0.052-0.034,0.108-0.045,0.161
		c-0.045,0.157-0.093,0.318-0.142,0.494c-0.019,0.067-0.037,0.135-0.056,0.202c-0.052,0.183-0.105,0.374-0.161,0.572
		c-0.019,0.064-0.034,0.123-0.052,0.183c-0.06,0.224-0.123,0.452-0.191,0.692c-0.007,0.026-0.015,0.056-0.022,0.079l131.513,0.942
		C302.606,198.953,302.591,198.908,302.58,198.863z"/>
</g>
<g>
	<path style="fill:#BA883E;" d="M304.416,206.159H169.051c-0.452,1.963-0.89,4.02-1.264,6.043H305.68
		C305.303,210.179,304.869,208.122,304.416,206.159z"/>
	<path style="fill:#BA883E;" d="M307.778,226.981c-0.74-1.634-1.178-2.689-1.178-2.689c0.183-1.107,0.213-2.483,0.131-4.028H166.736
		c-0.079,1.544-0.052,2.921,0.135,4.028c0,0-0.441,1.055-1.182,2.689H307.778z"/>
	<path style="fill:#BA883E;" d="M310.37,232.355H163.098c-1.021,1.997-2.18,4.11-3.392,6.047h154.055
		C312.55,236.464,311.391,234.352,310.37,232.355z"/>
</g>
<g>
	<path style="fill:#A0794A;" d="M183.329,128.57c0,0,12.258,16.791,7.977,28.634c0,0,9.573-4.536,12.341-8.567
		c2.771-4.031,9.824-12.094,9.824-16.376L183.329,128.57z"/>
	<path style="fill:#A0794A;" d="M289.802,128.57l-30.141,3.695c0,4.282,7.053,12.344,9.82,16.376
		c2.771,4.031,12.344,8.567,12.344,8.567C277.544,145.361,289.802,128.57,289.802,128.57z"/>
</g>
<g>
	<path style="fill:#BA8942;" d="M269.81,149.056h-66.49c-0.535,0.673-1.223,1.346-2.023,2.016h70.536
		C271.033,150.406,270.341,149.729,269.81,149.056z"/>
	<path style="fill:#BA8942;" d="M262.705,139.314h-52.283c-0.366,0.561-0.752,1.118-1.144,1.679h54.568
		C263.457,140.436,263.072,139.875,262.705,139.314z"/>
</g>
<path style="fill:#BC8C46;" d="M288.665,117.146c0,0-23.477-54.65-51.995-49.123c-28.518-5.531-51.999,49.123-51.999,49.123
	c-3.022,4.031-1.343,11.424-1.343,11.424c6.821,2.696,19.098,3.893,30.16,4.409c1.099,0.052,2.191,0.093,3.261,0.135
	c10.546,0.378,19.285,0.176,19.921,0.161c0.628,0.011,9.218,0.213,19.636-0.153c1.238-0.045,2.494-0.093,3.773-0.157
	c11.002-0.52,23.159-1.72,29.932-4.398C290.011,128.57,291.687,121.177,288.665,117.146z"/>
<path style="fill:#AF854E;" d="M236.666,68.023c-28.518-5.531-51.999,49.123-51.999,49.123c-3.022,4.031-1.343,11.424-1.343,11.424
	c6.821,2.696,19.098,3.893,30.16,4.409c1.099,0.052,2.191,0.093,3.261,0.135c10.546,0.378,19.285,0.176,19.921,0.161
	C237.298,133.286,236.666,68.023,236.666,68.023z"/>
<g>
	<path style="fill:#AA7837;" d="M212.045,90.95c-0.711-1.425-2.008-2.016-2.008-2.016c-2.225,0-2.861,1.802-2.861,4.028
		l-1.17,11.084c0,2.225,1.802,4.031,4.031,4.031c0,0,1.507-0.168,2.008-1.174C212.55,105.897,213.391,93.635,212.045,90.95z"/>
	<path style="fill:#AA7837;" d="M265.341,92.962c0-2.225-0.632-4.028-2.861-4.028c0,0-1.298,0.591-2.012,2.016
		c-1.342,2.689-0.505,14.947,0,15.953c0.505,1.01,2.012,1.174,2.012,1.174c2.225,0,4.031-1.806,4.031-4.031L265.341,92.962z"/>
	<path style="fill:#AA7837;" d="M236.734,66.516c0,0-24.52,1.006-24.52,14.697v35.769c0,16.626,48.368,16.88,48.368,0V81.212
		C260.581,67.772,236.734,66.516,236.734,66.516z"/>
</g>
<g>
	<path style="fill:#C69340;" d="M260.581,110.093V81.209c0-13.436-23.847-14.697-23.847-14.697s-24.52,1.006-24.52,14.697v28.884
		c0,6.821-0.879,11.462,4.286,14.487c0,0,10.662-5.164,20.153-5.164c9.491,0,20.153,4.787,20.153,4.787
		C261.464,120.549,260.581,116.824,260.581,110.093z"/>
	<polygon style="fill:#C69340;" points="186.018,243.775 185.763,275.349 191.724,329.09 217.755,287.973 253.36,287.973 
		281.807,329.09 287.285,282.151 287.513,243.106 	"/>
</g>
<g>
	<polygon style="fill:#BA883E;" points="251.513,247.807 218.933,247.807 161.493,266.28 161.493,270.311 218.593,251.838 
		251.513,251.838 298.201,270.311 298.201,266.28 	"/>
	<polygon style="fill:#BA883E;" points="252.855,266.949 218.593,266.949 183.998,291.806 183.998,296.174 218.593,271.317 
		252.518,271.317 289.802,296.174 289.802,291.806 	"/>
</g>
<path style="fill:#DDAA43;" d="M53.341,272.66c0,0-18.137,47.694-15.452,56.094c0,0,20.9,4.031,36.012,0.337l5.639-52.399
	c0,0,2.689-6.047,6.043-8.059l15.452-12.094C101.036,256.539,60.731,260.57,53.341,272.66z"/>
<g>
	<path style="fill:#D3A044;" d="M186.687,257.881l-30.564,0.673l-4.368,9.738c-2.689,4.701-0.337,11.084-0.337,11.084l4.704,49.706
		c12.09,4.704,35.601,0,35.601,0L186.687,257.881z"/>
	<path style="fill:#D3A044;" d="M101.036,256.539l-15.452,12.094c-5.37,3.358-6.043,8.059-6.043,8.059l-6.982,52.399
		c19.82,4.364,37.882-0.337,37.882-0.337V279.38c0-4.704,3.358-7.393,3.358-7.393l15.448-16.794L101.036,256.539z"/>
</g>
<path style="fill:#CC9A48;" d="M156.123,258.558c-2.689-2.019-26.873-3.358-26.873-3.358l-15.448,16.794
	c-4.701,4.031-3.358,7.393-3.358,7.393v49.374c10.748,5.041,45.683,0.337,45.683,0.337l-4.368-56.426L156.123,258.558z"/>
<path style="fill:#C99447;" d="M186.018,243.106l-31.24,1.343c-14.611,6.885-66.516,13.657-65.951,13.836
	c-12.501,2.188-30.751,6.627-35.485,14.375c0,0,28.888-2.016,32.243-4.031c-2.386,1.492-4.731,4.746-4.731,4.746
	c6.41,5.333,32.949-1.387,32.949-1.387c-1.761,1.511-3.13,4.106-3.13,4.106c13.227,6.346,36.356-1.683,40.451-3.194
	c1.507,0.883,7.838,3.837,22.804,2.109c0,0,5.707-1.342,8.395-6.047l4.364-11.084L186.018,243.106z"/>
<path style="fill:#DDAA43;" d="M420.19,272.66c-7.389-12.09-47.695-16.125-47.695-16.125l15.452,12.094
	c3.354,2.016,6.043,8.059,6.043,8.059l5.636,52.399c15.115,3.695,36.012-0.337,36.012-0.337
	C438.327,320.358,420.19,272.66,420.19,272.66z"/>
<g>
	<path style="fill:#D3A044;" d="M321.772,268.296l-4.364-9.738l-30.567-0.673l-5.037,71.209c0,0,23.511,4.704,35.604,0l4.701-49.706
		C322.112,279.38,324.464,272.996,321.772,268.296z"/>
	<path style="fill:#D3A044;" d="M393.99,276.691c0,0-0.673-4.701-6.043-8.059l-15.452-12.094l-28.211-1.343l15.448,16.794
		c0,0,3.358,2.689,3.358,7.393v49.374c0,0,18.066,4.701,37.878,0.337L393.99,276.691z"/>
</g>
<path style="fill:#CC9A48;" d="M359.728,271.99l-15.448-16.794c0,0-24.184,1.343-26.873,3.358l4.364,14.106l-4.364,56.426
	c0,0,34.931,4.704,45.679-0.337v-49.37C363.09,279.38,364.433,276.022,359.728,271.99z"/>
<path style="fill:#C99447;" d="M387.947,268.632c3.354,2.016,32.243,4.031,32.243,4.031c-4.734-7.748-22.983-12.187-35.481-14.375
	c0.561-0.179-51.341-6.952-65.955-13.836l-31.24-1.343l-0.673,14.779l4.368,11.084c2.685,4.704,8.395,6.047,8.395,6.047
	c14.966,1.728,21.293-1.23,22.804-2.109c4.095,1.511,27.224,9.54,40.447,3.194c0,0-1.365-2.595-3.126-4.106
	c0,0,26.536,6.716,32.949,1.387C392.678,273.374,390.333,270.124,387.947,268.632z"/>
<path style="fill:#A0794A;" d="M245.993,231.008h-20.871c-4.065,0-7.367,3.302-7.367,7.367v49.598h35.604v-49.594
	C253.36,234.31,250.062,231.008,245.993,231.008z"/>
<g>
	<path style="fill:#AA7837;" d="M217.755,88.598h14.611C232.366,88.598,223.297,75.498,217.755,88.598z"/>
	<path style="fill:#AA7837;" d="M241.603,88.598h14.611C250.675,75.498,241.603,88.598,241.603,88.598z"/>
</g>
<g>
	<path style="fill:#BC8B42;" d="M236.734,82.719c-0.789,0-1.429,1.593-1.429,3.553v8.638c0,1.96,0.636,3.553,1.429,3.553
		c0.785,0,1.425-1.593,1.425-3.553v-8.638C238.159,84.312,237.523,82.719,236.734,82.719z"/>
	<path style="fill:#BC8B42;" d="M243.734,106.039l-5.321,0.699l-5.755-0.673l-4.996,1.679c0,0,7.389,8.732,21.162,0L243.734,106.039
		z"/>
</g>
<path style="fill:#C69758;" d="M239.479,93.721h-5.161c-1.634,0-2.962,1.746-2.962,3.904c0,2.158,1.328,3.904,2.962,3.904h5.161
	c1.638,0,2.962-3.904,2.962-3.904C242.44,95.468,241.117,93.721,239.479,93.721z"/>
<path style="fill:#BC8B42;" d="M239.479,93.721h-5.161c-1.634,0-2.962,1.746-2.962,3.904c0,2.158,1.328,3.904,2.962,3.904
	C234.322,101.529,241.117,93.721,239.479,93.721z"/>
<path style="fill:#B28242;" d="M241.311,69.728c-0.194-0.755-1.638-3.698-4.91-3.698c-3.276,0-4.54,2.876-4.622,3.743
	c-0.082,0.871,1.275,8.68,1.275,8.68c0,0.718,0.524,1.301,1.171,1.301h4.656c0.643,0,1.167-0.583,1.167-1.301
	C240.043,78.456,241.505,70.48,241.311,69.728z"/>
<g>
</g>
<g>
</g>
<g>
</g>
<g>
</g>
<g>
</g>
<g>
</g>
<g>
</g>
<g>
</g>
<g>
</g>
<g>
</g>
<g>
</g>
<g>
</g>
<g>
</g>
<g>
</g>
<g>
</g>
</svg>
