<?xml version="1.0" encoding="iso-8859-1"?>
<!-- Generator: Adobe Illustrator 19.0.0, SVG Export Plug-In . SVG Version: 6.00 Build 0)  -->
<svg version="1.1" id="Layer_1" xmlns="http://www.w3.org/2000/svg" xmlns:xlink="http://www.w3.org/1999/xlink" x="0px" y="0px"
	 viewBox="0 0 473.677 473.677" style="enable-background:new 0 0 473.677 473.677;" xml:space="preserve">
<circle style="fill:#B9E8EA;" cx="236.85" cy="236.838" r="236.827"/>
<path style="fill:#83A34B;" d="M0,236.827c0,130.799,106.036,236.838,236.835,236.838c130.807,0,236.842-106.039,236.842-236.838
	L0,236.827L0,236.827z"/>
<path style="fill:#474747;" d="M208.952,309.577l-74.002,70.491l71.575,2.588l110.478-20.504l1.709,20.504l120.22-22.31
	c17.015-27.781,28.41-59.351,32.736-93.138L208.952,309.577z"/>
<path style="fill:#6B706D;" d="M322.864,126.57c0,0-6.634-7.793-11.959-7.517l-19.132,46.92c8.41-0.778,27.557-2.651,29.176-3.463
	C326.745,159.616,325.762,138.159,322.864,126.57z"/>
<path style="fill:#424945;" d="M310.224,160.05l-1.025-37.583c0,0-135.29,6.152-172.873,22.55c0,0-4.551,16.144-3.302,24.599
	c0.415,2.82,4.839,4.443,6.38,4.783c6.152,1.365,38.607,3.418,76.186,2.049c28.428-1.036,79.41-7.838,98.052-12.756
	C313.642,163.696,311.02,162.556,310.224,160.05z"/>
<path style="fill:#49524D;" d="M310.908,119.053c0,0-140.073,6.152-177.656,22.55c0,0-4.783,28.013,1.369,29.382
	c6.152,1.365,38.948-2.734,76.527-4.099c37.579-1.369,93.609-4.102,99.076-6.832C315.687,157.316,313.642,129.984,310.908,119.053z"
	/>
<path style="fill:#6B706D;" d="M333.17,201.047c-4.476-29.382-8.317-31.431-23.664-36.214l-44.77,0.684
	c0,0-17.269,4.099-26.222,25.283c-8.956,21.181-8.956,64.912-8.956,64.912l5.116,66.965l8.956,61.494l80.584-2.73
	c0,0,14.072-12.299,14.711-22.55C339.31,352.713,337.646,230.429,333.17,201.047z"/>
<path style="fill:#505653;" d="M309.506,164.833l-44.77,0.684c0,0-17.269,4.099-26.222,25.283
	c-8.956,21.181-8.956,64.912-8.956,64.912l5.116,66.965l8.956,61.494l80.584-2.73C324.214,381.437,324.853,169.616,309.506,164.833z
	"/>
<path style="fill:#6B706D;" d="M206.312,177.817c-2.524-6.152-19.577-8.201-19.577-8.201h-37.893c0,0-5.052,2.734-10.104,6.836
	c-5.052,4.099-10.104,16.398-12.629,20.497s-3.788,36.898-3.788,50.563c0,13.664,1.26,34.165,2.524,50.563
	c1.264,16.398,10.104,81.994,10.104,81.994l71.575,2.588c0,0,14.468-14.468,15.515-19.479
	C223.092,358.169,212.726,193.426,206.312,177.817z"/>
<path style="fill:#49524D;" d="M201.892,337.706c-1.264-11.615-2.528-51.928-2.528-61.494s-3.788-40.316-2.524-53.981
	s1.264-32.8,1.264-32.8l-11.368-19.816h-37.893c0,0-5.052,2.734-10.104,6.836c-5.052,4.099-10.104,16.398-12.629,20.497
	s-3.788,36.898-3.788,50.563c0,13.664,1.26,34.165,2.524,50.563c1.264,16.398,10.104,81.994,10.104,81.994l71.575,2.734
	C206.525,375.969,202.685,345.013,201.892,337.706z"/>
<g>
</g>
<g>
</g>
<g>
</g>
<g>
</g>
<g>
</g>
<g>
</g>
<g>
</g>
<g>
</g>
<g>
</g>
<g>
</g>
<g>
</g>
<g>
</g>
<g>
</g>
<g>
</g>
<g>
</g>
</svg>
