<?xml version="1.0" encoding="iso-8859-1"?>
<!-- Generator: Adobe Illustrator 19.0.0, SVG Export Plug-In . SVG Version: 6.00 Build 0)  -->
<svg version="1.1" id="Layer_1" xmlns="http://www.w3.org/2000/svg" xmlns:xlink="http://www.w3.org/1999/xlink" x="0px" y="0px"
	 viewBox="0 0 473.654 473.654" style="enable-background:new 0 0 473.654 473.654;" xml:space="preserve">
<circle style="fill:#6BBDC6;" cx="236.827" cy="236.827" r="236.827"/>
<path style="fill:#0B4D75;" d="M3.28,275.91c18.642,112.187,116.091,197.745,233.566,197.745
	c117.482,0,214.932-85.558,233.574-197.745L3.28,275.91L3.28,275.91z"/>
<path style="fill:#1E1418;" d="M452.717,255.652h-76.658l0.464-2.416h-0.112l1.04-7.034l-10.149-14.352l-32.908,0.699l-31.154,3.852
	l-8.754-10.852l-51.105,5.95l-32.908-10.149l-35.361,7.004l-6.297-19.255l-5.022,17.621l-57.993-8.519l-21.005-4.551H63.442
	l-18.208,3.852l-17.15,5.598l4.981,5.953l6.922,14.001l320.672,12.026l12.726,11.791l3.612,0.108h94.708
	c0.157-1.23,0.333-2.457,0.471-3.691L452.717,255.652z"/>
<g>
	<path style="fill:#D6C2BC;" d="M452.717,250.75h-75.715l-0.479,2.487l74.795,1.713l20.949,7.659
		c0.12-1.096,0.228-2.191,0.333-3.295L452.717,250.75z"/>
	<path style="fill:#D6C2BC;" d="M451.318,254.949l-74.795-1.713l-0.464,2.416h76.658l19.465,7.629
		c0.026-0.224,0.064-0.445,0.082-0.669L451.318,254.949z"/>
</g>
<g>
	<polygon style="fill:#D9BEAC;" points="373.389,266.863 349.792,266.153 349.792,267.903 374.511,267.903 	"/>
	<path style="fill:#D9BEAC;" d="M377.001,266.972l-3.612-0.108l1.122,1.04h97.083c0.041-0.31,0.078-0.621,0.116-0.931H377.001z"/>
</g>
<g>
	<path style="fill:#D6C2BC;" d="M349.792,271.751v-3.852H2.109c0.385,2.936,0.815,5.852,1.309,8.754h466.871
		c0.277-1.634,0.576-3.257,0.819-4.903L349.792,271.751L349.792,271.751z"/>
	<path style="fill:#D6C2BC;" d="M376.399,269.653l-1.892-1.75h-24.715v3.852H471.1c0.15-1.013,0.251-2.042,0.389-3.063
		L376.399,269.653z"/>
	<polygon style="fill:#D6C2BC;" points="374.511,267.903 376.399,269.653 471.493,268.688 471.594,267.903 	"/>
</g>
<g>
	<rect x="166.688" y="268.053" style="fill:#E0D2CE;" width="0.34" height="8.425"/>
	<rect x="171.908" y="268.053" style="fill:#E0D2CE;" width="0.34" height="8.425"/>
	<rect x="177.144" y="268.053" style="fill:#E0D2CE;" width="0.337" height="8.425"/>
	<rect x="182.368" y="268.053" style="fill:#E0D2CE;" width="0.337" height="8.425"/>
	<rect x="187.577" y="268.053" style="fill:#E0D2CE;" width="0.34" height="8.425"/>
	<rect x="192.816" y="268.053" style="fill:#E0D2CE;" width="0.337" height="8.425"/>
	<rect x="198.048" y="268.053" style="fill:#E0D2CE;" width="0.337" height="8.425"/>
	<rect x="203.283" y="268.053" style="fill:#E0D2CE;" width="0.337" height="8.425"/>
	<rect x="208.492" y="268.053" style="fill:#E0D2CE;" width="0.333" height="8.425"/>
	<rect x="213.717" y="268.053" style="fill:#E0D2CE;" width="0.333" height="8.425"/>
	<rect x="218.952" y="268.053" style="fill:#E0D2CE;" width="0.337" height="8.425"/>
	<rect x="224.15" y="268.053" style="fill:#E0D2CE;" width="0.337" height="8.425"/>
	<rect x="229.385" y="268.053" style="fill:#E0D2CE;" width="0.333" height="8.425"/>
	<rect x="234.613" y="268.053" style="fill:#E0D2CE;" width="0.34" height="8.425"/>
	<rect x="239.856" y="268.053" style="fill:#E0D2CE;" width="0.34" height="8.425"/>
	<rect x="245.054" y="268.053" style="fill:#E0D2CE;" width="0.337" height="8.425"/>
	<rect x="250.29" y="268.053" style="fill:#E0D2CE;" width="0.34" height="8.425"/>
	<rect x="255.525" y="268.053" style="fill:#E0D2CE;" width="0.34" height="8.425"/>
	<rect x="260.742" y="268.053" style="fill:#E0D2CE;" width="0.337" height="8.425"/>
	<rect x="265.958" y="268.053" style="fill:#E0D2CE;" width="0.337" height="8.425"/>
	<rect x="271.194" y="268.053" style="fill:#E0D2CE;" width="0.337" height="8.425"/>
	<rect x="276.429" y="268.053" style="fill:#E0D2CE;" width="0.333" height="8.425"/>
	<rect x="281.627" y="268.053" style="fill:#E0D2CE;" width="0.337" height="8.425"/>
	<rect x="286.863" y="268.053" style="fill:#E0D2CE;" width="0.34" height="8.425"/>
	<rect x="292.098" y="268.053" style="fill:#E0D2CE;" width="0.34" height="8.425"/>
	<rect x="297.296" y="268.053" style="fill:#E0D2CE;" width="0.344" height="8.425"/>
	<rect x="302.532" y="268.053" style="fill:#E0D2CE;" width="0.344" height="8.425"/>
	<rect x="307.767" y="268.053" style="fill:#E0D2CE;" width="0.34" height="8.425"/>
	<rect x="313.002" y="268.053" style="fill:#E0D2CE;" width="0.34" height="8.425"/>
	<rect x="318.238" y="268.053" style="fill:#E0D2CE;" width="0.34" height="8.425"/>
	<rect x="323.436" y="268.053" style="fill:#E0D2CE;" width="0.34" height="8.425"/>
	<rect x="328.671" y="268.053" style="fill:#E0D2CE;" width="0.333" height="8.425"/>
	<rect x="333.907" y="268.053" style="fill:#E0D2CE;" width="0.34" height="8.425"/>
	<rect x="339.142" y="268.053" style="fill:#E0D2CE;" width="0.337" height="8.425"/>
	<rect x="344.34" y="268.053" style="fill:#E0D2CE;" width="0.337" height="8.425"/>
	<rect x="349.575" y="268.053" style="fill:#E0D2CE;" width="0.337" height="8.425"/>
	<rect x="354.811" y="268.053" style="fill:#E0D2CE;" width="0.34" height="8.425"/>
	<rect x="360.009" y="268.053" style="fill:#E0D2CE;" width="0.337" height="8.425"/>
	<rect x="365.244" y="268.053" style="fill:#E0D2CE;" width="0.34" height="8.425"/>
	<rect x="370.48" y="268.053" style="fill:#E0D2CE;" width="0.34" height="8.425"/>
	<rect x="375.678" y="268.053" style="fill:#E0D2CE;" width="0.337" height="8.425"/>
	<rect x="380.913" y="268.053" style="fill:#E0D2CE;" width="0.337" height="8.425"/>
	<rect x="386.148" y="268.053" style="fill:#E0D2CE;" width="0.337" height="8.425"/>
	<rect x="391.384" y="268.053" style="fill:#E0D2CE;" width="0.333" height="8.425"/>
	<rect x="396.582" y="268.053" style="fill:#E0D2CE;" width="0.337" height="8.425"/>
	<rect x="401.817" y="268.053" style="fill:#E0D2CE;" width="0.337" height="8.425"/>
	<rect x="407.053" y="268.053" style="fill:#E0D2CE;" width="0.333" height="8.425"/>
	<rect x="412.288" y="268.053" style="fill:#E0D2CE;" width="0.337" height="8.425"/>
	<rect x="417.486" y="268.053" style="fill:#E0D2CE;" width="0.34" height="8.425"/>
	<rect x="422.721" y="268.053" style="fill:#E0D2CE;" width="0.337" height="8.425"/>
	<rect x="427.957" y="268.053" style="fill:#E0D2CE;" width="0.337" height="8.425"/>
	<rect x="433.155" y="268.053" style="fill:#E0D2CE;" width="0.34" height="8.425"/>
	<rect x="438.39" y="268.053" style="fill:#E0D2CE;" width="0.337" height="8.425"/>
	<rect x="443.626" y="268.053" style="fill:#E0D2CE;" width="0.333" height="8.425"/>
	<rect x="448.861" y="268.053" style="fill:#E0D2CE;" width="0.337" height="8.425"/>
	<rect x="454.059" y="268.053" style="fill:#E0D2CE;" width="0.337" height="8.425"/>
	<rect x="459.294" y="268.053" style="fill:#E0D2CE;" width="0.333" height="8.425"/>
	<rect x="464.53" y="268.053" style="fill:#E0D2CE;" width="0.337" height="8.425"/>
	<rect x="469.765" y="268.053" style="fill:#E0D2CE;" width="0.258" height="8.425"/>
	<rect x="4.708" y="268.053" style="fill:#E0D2CE;" width="0.34" height="8.425"/>
	<rect x="9.932" y="268.053" style="fill:#E0D2CE;" width="0.337" height="8.425"/>
	<rect x="15.16" y="268.053" style="fill:#E0D2CE;" width="0.337" height="8.425"/>
	<rect x="20.381" y="268.053" style="fill:#E0D2CE;" width="0.34" height="8.425"/>
	<rect x="25.612" y="268.053" style="fill:#E0D2CE;" width="0.337" height="8.425"/>
	<rect x="30.837" y="268.053" style="fill:#E0D2CE;" width="0.333" height="8.425"/>
	<rect x="36.061" y="268.053" style="fill:#E0D2CE;" width="0.337" height="8.425"/>
	<rect x="41.285" y="268.053" style="fill:#E0D2CE;" width="0.337" height="8.425"/>
	<rect x="46.513" y="268.053" style="fill:#E0D2CE;" width="0.333" height="8.425"/>
	<rect x="51.733" y="268.053" style="fill:#E0D2CE;" width="0.34" height="8.425"/>
	<rect x="56.961" y="268.053" style="fill:#E0D2CE;" width="0.344" height="8.425"/>
	<rect x="62.185" y="268.053" style="fill:#E0D2CE;" width="0.34" height="8.425"/>
	<rect x="67.425" y="268.053" style="fill:#E0D2CE;" width="0.344" height="8.425"/>
	<rect x="72.634" y="268.053" style="fill:#E0D2CE;" width="0.344" height="8.425"/>
	<rect x="77.858" y="268.053" style="fill:#E0D2CE;" width="0.34" height="8.425"/>
	<rect x="83.082" y="268.053" style="fill:#E0D2CE;" width="0.344" height="8.425"/>
	<rect x="88.31" y="268.053" style="fill:#E0D2CE;" width="0.34" height="8.425"/>
	<rect x="93.527" y="268.053" style="fill:#E0D2CE;" width="0.337" height="8.425"/>
	<rect x="98.758" y="268.053" style="fill:#E0D2CE;" width="0.34" height="8.425"/>
	<rect x="103.99" y="268.053" style="fill:#E0D2CE;" width="0.337" height="8.425"/>
	<rect x="109.196" y="268.053" style="fill:#E0D2CE;" width="0.337" height="8.425"/>
	<rect x="114.442" y="268.053" style="fill:#E0D2CE;" width="0.337" height="8.425"/>
	<rect x="119.666" y="268.053" style="fill:#E0D2CE;" width="0.34" height="8.425"/>
	<rect x="124.891" y="268.053" style="fill:#E0D2CE;" width="0.34" height="8.425"/>
	<rect x="130.115" y="268.053" style="fill:#E0D2CE;" width="0.337" height="8.425"/>
	<rect x="135.335" y="268.053" style="fill:#E0D2CE;" width="0.34" height="8.425"/>
	<rect x="140.563" y="268.053" style="fill:#E0D2CE;" width="0.34" height="8.425"/>
	<rect x="145.769" y="268.053" style="fill:#E0D2CE;" width="0.337" height="8.425"/>
	<rect x="151.015" y="268.053" style="fill:#E0D2CE;" width="0.337" height="8.425"/>
	<rect x="156.239" y="268.053" style="fill:#E0D2CE;" width="0.337" height="8.425"/>
	<rect x="161.475" y="268.053" style="fill:#E0D2CE;" width="0.333" height="8.425"/>
</g>
<g>
	<polygon style="fill:#3D3538;" points="162.294,226.487 163.793,226.712 165.031,222.378 	"/>
	<polygon style="fill:#3D3538;" points="195.939,224.221 179.918,248.296 180.322,248.311 196.421,224.124 	"/>
	<polygon style="fill:#3D3538;" points="202.188,222.983 185.206,248.495 185.621,248.506 202.666,222.886 	"/>
	<polygon style="fill:#3D3538;" points="208.429,221.746 190.505,248.689 190.913,248.708 208.923,221.652 	"/>
	<polygon style="fill:#3D3538;" points="213.507,222.28 195.8,248.891 196.208,248.902 213.859,222.389 	"/>
	<polygon style="fill:#3D3538;" points="218.006,223.664 201.092,249.089 201.496,249.104 218.357,223.776 	"/>
	<polygon style="fill:#3D3538;" points="222.508,225.059 206.383,249.287 206.795,249.302 222.864,225.163 	"/>
	<polygon style="fill:#3D3538;" points="227.011,226.45 211.682,249.489 212.082,249.504 227.362,226.555 	"/>
	<polygon style="fill:#3D3538;" points="231.513,227.837 216.97,249.684 217.389,249.699 231.865,227.946 	"/>
	<polygon style="fill:#3D3538;" points="236.016,229.221 222.262,249.882 222.677,249.897 236.36,229.333 	"/>
	<polygon style="fill:#3D3538;" points="240.518,230.608 227.564,250.08 227.972,250.099 240.862,230.721 	"/>
	<polygon style="fill:#3D3538;" points="245.522,231.244 232.852,250.278 233.267,250.293 245.974,231.192 	"/>
	<polygon style="fill:#3D3538;" points="251.404,230.563 238.147,250.48 238.555,250.495 251.86,230.507 	"/>
	<polygon style="fill:#3D3538;" points="257.286,229.875 243.443,250.679 243.85,250.69 257.743,229.819 	"/>
	<polygon style="fill:#3D3538;" points="263.169,229.187 248.738,250.877 249.145,250.892 263.618,229.135 	"/>
	<polygon style="fill:#3D3538;" points="269.047,228.507 254.029,251.075 254.437,251.09 269.504,228.454 	"/>
	<polygon style="fill:#3D3538;" points="274.934,227.822 259.328,251.273 259.732,251.288 275.393,227.766 	"/>
	<polygon style="fill:#3D3538;" points="280.812,227.134 264.62,251.468 265.031,251.486 281.268,227.082 	"/>
	<polygon style="fill:#3D3538;" points="286.691,226.454 269.915,251.67 270.319,251.688 287.147,226.398 	"/>
	<polygon style="fill:#3D3538;" points="292.573,225.769 275.206,251.868 275.618,251.883 293.033,225.713 	"/>
	<polygon style="fill:#3D3538;" points="296.492,228.035 280.502,252.07 280.913,252.085 296.728,228.32 	"/>
	<polygon style="fill:#3D3538;" points="299.469,231.723 285.797,252.268 286.205,252.279 299.697,232.003 	"/>
	<polygon style="fill:#3D3538;" points="302.442,235.406 291.088,252.462 291.492,252.477 302.677,235.69 	"/>
	<polygon style="fill:#3D3538;" points="307.565,235.862 296.38,252.661 296.788,252.679 308.021,235.803 	"/>
	<polygon style="fill:#3D3538;" points="313.474,235.129 301.675,252.859 302.087,252.874 313.937,235.073 	"/>
	<polygon style="fill:#3D3538;" points="319.386,234.396 306.97,253.061 307.382,253.076 319.846,234.344 	"/>
	<polygon style="fill:#3D3538;" points="325.302,233.671 312.262,253.259 312.677,253.274 325.754,233.611 	"/>
	<polygon style="fill:#3D3538;" points="331.21,232.938 317.561,253.457 317.965,253.472 331.674,232.882 	"/>
	<polygon style="fill:#3D3538;" points="336.936,232.493 322.849,253.655 323.264,253.67 337.366,232.482 	"/>
	<polygon style="fill:#3D3538;" points="342.44,232.377 328.144,253.854 328.555,253.868 342.87,232.366 	"/>
	<polygon style="fill:#3D3538;" points="347.941,232.254 333.439,254.048 333.85,254.067 348.367,232.25 	"/>
	<polygon style="fill:#3D3538;" points="353.453,232.142 338.727,254.25 339.146,254.265 353.88,232.13 	"/>
	<polygon style="fill:#3D3538;" points="358.954,232.022 344.022,254.444 344.441,254.467 359.381,232.011 	"/>
	<polygon style="fill:#3D3538;" points="364.455,231.906 349.325,254.65 349.732,254.665 364.881,231.898 	"/>
	<polygon style="fill:#3D3538;" points="368.651,233.753 354.613,254.844 355.031,254.863 368.868,234.064 	"/>
	<polygon style="fill:#3D3538;" points="371.448,237.706 359.908,255.046 360.319,255.058 371.665,238.013 	"/>
	<polygon style="fill:#3D3538;" points="374.242,241.659 363.539,257.739 363.797,257.982 374.458,241.965 	"/>
	<polygon style="fill:#3D3538;" points="35.519,220.665 31.326,226.966 31.558,227.246 36.057,220.489 	"/>
	<polygon style="fill:#3D3538;" points="42.452,218.402 34.053,231.027 34.228,231.39 42.99,218.227 	"/>
	<polygon style="fill:#3D3538;" points="49.018,216.693 36.364,235.709 36.547,236.072 49.505,216.592 	"/>
	<polygon style="fill:#3D3538;" points="55.331,215.355 38.671,240.387 38.854,240.75 55.817,215.254 	"/>
	<polygon style="fill:#3D3538;" points="61.643,214.02 42.268,243.132 42.676,243.147 62.137,213.919 	"/>
	<polygon style="fill:#3D3538;" points="67.324,213.642 47.564,243.33 47.975,243.345 67.742,213.642 	"/>
	<polygon style="fill:#3D3538;" points="72.75,213.642 52.855,243.529 53.27,243.543 73.172,213.642 	"/>
	<polygon style="fill:#3D3538;" points="78.18,213.642 58.154,243.727 58.562,243.749 78.598,213.642 	"/>
	<polygon style="fill:#3D3538;" points="83.606,213.642 63.449,243.929 63.853,243.944 84.021,213.642 	"/>
	<polygon style="fill:#3D3538;" points="88.497,214.442 68.741,244.127 69.152,244.142 88.864,214.524 	"/>
	<polygon style="fill:#3D3538;" points="93.243,215.471 74.04,244.325 74.44,244.34 93.602,215.553 	"/>
	<polygon style="fill:#3D3538;" points="97.981,216.499 79.328,244.523 79.735,244.538 98.347,216.577 	"/>
	<polygon style="fill:#3D3538;" points="102.726,217.524 84.623,244.721 85.03,244.736 103.089,217.606 	"/>
	<polygon style="fill:#3D3538;" points="107.535,218.447 89.918,244.92 90.329,244.935 107.92,218.503 	"/>
	<polygon style="fill:#3D3538;" points="112.475,219.176 95.206,245.118 95.625,245.133 112.857,219.225 	"/>
	<polygon style="fill:#3D3538;" points="117.426,219.902 100.505,245.312 100.912,245.335 117.804,219.958 	"/>
	<polygon style="fill:#3D3538;" points="122.363,220.627 105.8,245.514 106.208,245.533 122.748,220.683 	"/>
	<polygon style="fill:#3D3538;" points="127.303,221.353 111.092,245.716 111.507,245.731 127.692,221.405 	"/>
	<polygon style="fill:#3D3538;" points="132.25,222.078 116.383,245.911 116.798,245.929 132.632,222.134 	"/>
	<polygon style="fill:#3D3538;" points="137.194,222.804 121.682,246.113 122.09,246.124 137.575,222.86 	"/>
	<polygon style="fill:#3D3538;" points="142.134,223.529 126.97,246.311 127.389,246.326 142.515,223.585 	"/>
	<polygon style="fill:#3D3538;" points="147.077,224.258 132.265,246.509 132.68,246.524 147.463,224.311 	"/>
	<polygon style="fill:#3D3538;" points="152.021,224.984 137.56,246.707 137.975,246.722 152.399,225.036 	"/>
	<polygon style="fill:#3D3538;" points="156.965,225.709 142.859,246.905 143.271,246.92 157.35,225.766 	"/>
	<polygon style="fill:#3D3538;" points="161.909,226.439 162.294,226.487 165.031,222.378 165.342,221.271 	"/>
	<polygon style="fill:#3D3538;" points="161.909,226.439 148.147,247.104 148.562,247.119 162.294,226.487 	"/>
	<polygon style="fill:#3D3538;" points="170.341,213.762 165.342,221.271 165.031,222.378 170.476,214.18 	"/>
	<polygon style="fill:#3D3538;" points="172.129,219.225 153.442,247.302 153.854,247.317 172.267,219.651 	"/>
	<polygon style="fill:#3D3538;" points="173.924,224.692 158.737,247.5 159.153,247.515 174.051,225.119 	"/>
	<polygon style="fill:#3D3538;" points="177.185,227.935 164.033,247.698 164.44,247.713 177.675,227.841 	"/>
	<polygon style="fill:#3D3538;" points="183.434,226.697 169.324,247.9 169.732,247.915 183.92,226.599 	"/>
	<polygon style="fill:#3D3538;" points="189.686,225.455 174.616,248.098 175.035,248.113 190.169,225.365 	"/>
</g>
<g>
	<path style="fill:#BEAE9C;" d="M256.333,189.836c0,0-12.606,38.858-12.255,51.812l5.598,0.699c0,0,7.883-38.263,10.044-52.979
		C260.256,185.677,255.978,190.823,256.333,189.836z"/>
	<path style="fill:#BEAE9C;" d="M110.703,197.543l-3.855-12.255c0,0-14.352,21.353-1.746,47.257l6.305,2.453
		C111.402,234.995,106.152,211.54,110.703,197.543z"/>
	<path style="fill:#BEAE9C;" d="M167.41,182.835l-1.043-9.45l-6.309,2.801c0,0-7.348,31.857,10.508,66.864
		C170.562,243.046,160.761,199.641,167.41,182.835z"/>
</g>
<polygon style="fill:#A0897D;" points="360.768,246.546 356.924,246.423 342.336,241.416 158.195,241.416 136.958,234.875 
	114.984,234.942 79.275,222.277 66.149,222.277 53.543,228.114 33.069,228.114 33.069,239.138 29.917,238.091 25.19,238.091 
	25.19,250.286 16.794,250.286 16.794,266.972 377.001,266.972 377.001,253.319 "/>
<polygon style="fill:#D2B7A6;" points="79.275,223.208 66.149,223.208 53.543,229.045 53.543,267.903 114.984,267.903 
	114.984,235.874 "/>
<polygon style="fill:#D9BEAC;" points="360.768,247.485 356.924,247.358 342.336,242.347 158.195,242.347 136.958,235.81 
	114.984,235.874 79.275,223.208 66.149,223.208 53.543,229.045 33.069,229.045 33.069,240.073 29.917,239.022 25.19,239.022 
	25.19,251.217 16.794,251.217 16.794,267.903 377.001,267.903 377.001,254.25 "/>
<polygon style="fill:#D5BCAD;" points="79.275,223.208 66.149,223.208 53.543,229.045 33.069,229.045 33.069,240.073 
	29.917,239.022 25.19,239.022 25.19,251.217 16.794,251.217 16.794,267.903 114.984,267.903 114.984,235.874 "/>
<polygon style="fill:#CFB49F;" points="33.069,229.045 33.069,240.073 16.794,267.903 53.543,267.903 53.543,229.045 "/>
<polygon style="fill:#BFA38E;" points="33.069,240.073 29.917,239.022 25.19,239.022 25.19,251.217 16.794,251.217 16.794,267.903 
	87.244,267.903 "/>
<polygon style="fill:#CFB5A0;" points="54.691,251.217 16.794,251.217 16.794,267.903 87.244,267.903 "/>
<polygon style="fill:#B89981;" points="136.958,235.81 114.984,235.874 114.984,267.903 158.195,267.903 158.195,242.347 "/>
<g>
	<rect x="165.027" y="242.347" style="fill:#E5D5CA;" width="0.352" height="25.556"/>
	<rect x="170.469" y="242.347" style="fill:#E5D5CA;" width="0.352" height="25.556"/>
	<rect x="175.91" y="242.347" style="fill:#E5D5CA;" width="0.355" height="25.556"/>
	<rect x="181.317" y="242.347" style="fill:#E5D5CA;" width="0.355" height="25.556"/>
	<rect x="186.754" y="242.347" style="fill:#E5D5CA;" width="0.352" height="25.556"/>
	<rect x="192.177" y="242.347" style="fill:#E5D5CA;" width="0.352" height="25.556"/>
	<rect x="197.595" y="242.347" style="fill:#E5D5CA;" width="0.352" height="25.556"/>
	<rect x="203.021" y="242.347" style="fill:#E5D5CA;" width="0.355" height="25.556"/>
	<rect x="208.448" y="242.347" style="fill:#E5D5CA;" width="0.352" height="25.556"/>
	<rect x="213.866" y="242.347" style="fill:#E5D5CA;" width="0.352" height="25.556"/>
	<rect x="219.304" y="242.347" style="fill:#E5D5CA;" width="0.352" height="25.556"/>
	<rect x="224.748" y="242.347" style="fill:#E5D5CA;" width="0.34" height="25.556"/>
	<rect x="230.171" y="242.347" style="fill:#E5D5CA;" width="0.348" height="25.556"/>
	<rect x="235.593" y="242.347" style="fill:#E5D5CA;" width="0.352" height="25.556"/>
	<rect x="241.016" y="242.347" style="fill:#E5D5CA;" width="0.355" height="25.556"/>
	<rect x="246.438" y="242.347" style="fill:#E5D5CA;" width="0.352" height="25.556"/>
	<rect x="251.86" y="242.347" style="fill:#E5D5CA;" width="0.352" height="25.556"/>
	<rect x="257.286" y="242.347" style="fill:#E5D5CA;" width="0.348" height="25.556"/>
	<rect x="262.705" y="242.347" style="fill:#E5D5CA;" width="0.348" height="25.556"/>
	<rect x="268.127" y="242.347" style="fill:#E5D5CA;" width="0.352" height="25.556"/>
	<rect x="273.587" y="242.347" style="fill:#E5D5CA;" width="0.344" height="25.556"/>
	<rect x="278.972" y="242.347" style="fill:#E5D5CA;" width="0.355" height="25.556"/>
	<rect x="284.432" y="242.347" style="fill:#E5D5CA;" width="0.352" height="25.556"/>
	<rect x="289.854" y="242.347" style="fill:#E5D5CA;" width="0.344" height="25.556"/>
	<rect x="295.277" y="242.347" style="fill:#E5D5CA;" width="0.348" height="25.556"/>
	<rect x="300.699" y="242.347" style="fill:#E5D5CA;" width="0.355" height="25.556"/>
	<rect x="306.122" y="242.347" style="fill:#E5D5CA;" width="0.348" height="25.556"/>
	<rect x="311.544" y="242.347" style="fill:#E5D5CA;" width="0.359" height="25.556"/>
	<rect x="316.966" y="242.347" style="fill:#E5D5CA;" width="0.352" height="25.556"/>
	<rect x="322.389" y="242.347" style="fill:#E5D5CA;" width="0.348" height="25.556"/>
	<rect x="327.811" y="242.347" style="fill:#E5D5CA;" width="0.352" height="25.556"/>
	<rect x="333.233" y="242.347" style="fill:#E5D5CA;" width="0.348" height="25.556"/>
	<rect x="338.693" y="242.347" style="fill:#E5D5CA;" width="0.359" height="25.556"/>
	<polygon style="fill:#E5D5CA;" points="344.104,242.953 344.104,267.903 344.452,267.903 344.452,243.069 	"/>
	<polygon style="fill:#E5D5CA;" points="349.527,244.815 349.527,267.903 349.882,267.903 349.882,244.935 	"/>
	<polygon style="fill:#E5D5CA;" points="354.953,246.681 354.953,267.903 355.304,267.903 355.304,246.801 	"/>
	<rect x="360.383" y="247.485" style="fill:#E5D5CA;" width="0.359" height="20.437"/>
	<polygon style="fill:#E5D5CA;" points="365.809,249.583 365.809,267.903 366.153,267.903 366.153,249.729 	"/>
	<polygon style="fill:#E5D5CA;" points="371.239,251.845 371.239,267.903 371.587,267.903 371.587,251.991 	"/>
	<polygon style="fill:#E5D5CA;" points="376.661,254.112 376.661,267.903 377.001,267.903 377.001,254.25 	"/>
	<polygon style="fill:#E5D5CA;" points="18.533,251.217 18.533,264.919 18.885,264.321 18.885,251.217 	"/>
	<polygon style="fill:#E5D5CA;" points="18.533,264.919 18.533,267.903 18.885,267.903 18.885,264.321 	"/>
	<polygon style="fill:#E5D5CA;" points="23.963,251.217 23.963,255.645 24.318,255.043 24.318,251.217 	"/>
	<polygon style="fill:#E5D5CA;" points="23.963,255.645 23.963,267.903 24.318,267.903 24.318,255.043 	"/>
	<polygon style="fill:#E5D5CA;" points="29.389,239.022 29.389,246.363 29.737,245.765 29.737,239.022 	"/>
	<polygon style="fill:#E5D5CA;" points="29.389,246.363 29.389,251.217 29.737,251.217 29.737,245.765 	"/>
	<rect x="29.389" y="251.225" style="fill:#E5D5CA;" width="0.348" height="16.686"/>
	<polygon style="fill:#E5D5CA;" points="34.823,229.045 34.823,240.971 35.16,241.154 35.16,229.045 	"/>
	<polygon style="fill:#E5D5CA;" points="34.823,240.971 34.823,251.217 35.16,251.217 35.16,241.154 	"/>
	<rect x="34.823" y="251.225" style="fill:#E5D5CA;" width="0.34" height="16.686"/>
	<polygon style="fill:#E5D5CA;" points="40.238,229.045 40.238,243.757 40.593,243.94 40.593,229.045 	"/>
	<polygon style="fill:#E5D5CA;" points="40.238,243.757 40.238,251.217 40.593,251.217 40.593,243.94 	"/>
	<rect x="40.238" y="251.225" style="fill:#E5D5CA;" width="0.355" height="16.686"/>
	<polygon style="fill:#E5D5CA;" points="45.668,229.045 45.668,246.546 46.015,246.726 46.015,229.045 	"/>
	<polygon style="fill:#E5D5CA;" points="45.668,246.546 45.668,251.217 46.015,251.217 46.015,246.726 	"/>
	<rect x="45.668" y="251.225" style="fill:#E5D5CA;" width="0.348" height="16.686"/>
	<polygon style="fill:#E5D5CA;" points="51.094,229.045 51.094,249.332 51.445,249.516 51.445,229.045 	"/>
	<polygon style="fill:#E5D5CA;" points="51.094,249.332 51.094,251.217 51.445,251.217 51.445,249.516 	"/>
	<rect x="51.094" y="251.225" style="fill:#E5D5CA;" width="0.352" height="16.686"/>
	<polygon style="fill:#E5D5CA;" points="56.516,227.673 56.516,252.122 56.868,252.298 56.868,227.508 	"/>
	<polygon style="fill:#E5D5CA;" points="56.516,252.122 56.516,252.156 56.868,252.331 56.868,252.298 	"/>
	<polygon style="fill:#E5D5CA;" points="56.516,252.156 56.516,267.903 56.868,267.903 56.868,252.331 	"/>
	<polygon style="fill:#E5D5CA;" points="61.95,225.156 61.95,254.904 62.298,255.088 62.298,224.995 	"/>
	<polygon style="fill:#E5D5CA;" points="61.95,254.904 61.95,254.934 62.298,255.117 62.298,255.088 	"/>
	<polygon style="fill:#E5D5CA;" points="61.95,254.934 61.95,267.903 62.298,267.903 62.298,255.117 	"/>
	<polygon style="fill:#E5D5CA;" points="67.376,223.208 67.376,257.694 67.72,257.877 67.72,223.208 	"/>
	<polygon style="fill:#E5D5CA;" points="67.376,257.694 67.376,257.716 67.72,257.896 67.72,257.877 	"/>
	<polygon style="fill:#E5D5CA;" points="67.376,257.716 67.376,267.903 67.72,267.903 67.72,257.896 	"/>
	<polygon style="fill:#E5D5CA;" points="72.802,223.208 72.802,260.48 73.146,260.66 73.146,223.208 	"/>
	<rect x="72.967" y="260.387" style="fill:#E5D5CA;" width="0.015" height="0.389"/>
	<polygon style="fill:#E5D5CA;" points="72.802,260.499 72.802,267.903 73.146,267.903 73.146,260.678 	"/>
	<polygon style="fill:#E5D5CA;" points="78.221,223.208 78.221,263.27 78.576,263.453 78.576,223.208 	"/>
	<rect x="78.382" y="263.154" style="fill:#E5D5CA;" width="0.007" height="0.396"/>
	<polygon style="fill:#E5D5CA;" points="78.221,263.277 78.221,267.903 78.576,267.903 78.576,263.457 	"/>
	<polygon style="fill:#E5D5CA;" points="83.651,224.763 83.651,266.059 84.002,266.235 84.002,224.887 	"/>
	<polygon style="fill:#E5D5CA;" points="83.651,266.059 83.651,267.903 84.002,267.903 84.002,266.239 	"/>
	<polygon style="fill:#E5D5CA;" points="89.077,226.686 89.077,267.903 89.424,267.903 89.424,226.813 	"/>
	<polygon style="fill:#E5D5CA;" points="94.507,228.611 94.507,267.903 94.851,267.903 94.851,228.735 	"/>
	<polygon style="fill:#E5D5CA;" points="99.929,230.534 99.929,267.903 100.28,267.903 100.28,230.664 	"/>
	<polygon style="fill:#E5D5CA;" points="105.355,232.459 105.355,267.903 105.703,267.903 105.703,232.583 	"/>
	<polygon style="fill:#E5D5CA;" points="110.781,234.382 110.781,267.903 111.133,267.903 111.133,234.509 	"/>
</g>
<g>
	<rect x="116.226" y="235.855" style="fill:#C4AB99;" width="0.348" height="32.033"/>
	<rect x="121.633" y="235.855" style="fill:#C4AB99;" width="0.352" height="32.044"/>
	<rect x="127.071" y="235.855" style="fill:#C4AB99;" width="0.348" height="32.059"/>
	<rect x="132.489" y="235.818" style="fill:#C4AB99;" width="0.348" height="32.078"/>
	<polygon style="fill:#C4AB99;" points="137.904,236.105 137.904,267.903 138.263,267.903 138.263,236.214 	"/>
	<polygon style="fill:#C4AB99;" points="143.334,237.777 143.334,267.903 143.689,267.903 143.689,237.882 	"/>
	<polygon style="fill:#C4AB99;" points="148.76,239.449 148.76,267.903 149.116,267.903 149.116,239.553 	"/>
	<polygon style="fill:#C4AB99;" points="154.19,241.117 154.19,267.903 154.538,267.903 154.538,241.225 	"/>
</g>
<rect x="159.616" y="242.347" style="fill:#E5D5CA;" width="0.355" height="25.556"/>
<polygon style="fill:#A0897D;" points="360.768,243.222 356.924,243.098 342.336,238.087 158.195,238.087 136.958,231.554 
	114.984,231.614 79.275,218.952 66.149,218.952 53.543,224.79 33.069,224.79 33.069,225.724 53.543,225.724 66.149,219.883 
	79.275,219.883 114.984,232.549 136.958,232.489 158.195,239.022 342.336,239.022 356.924,244.03 360.768,244.157 377.001,250.925 
	377.001,249.991 "/>
<path style="fill:#DBDBDA;" d="M160.293,179.335l-30.575,43.405l34.071,3.971C163.793,226.712,156.325,190.771,160.293,179.335z"/>
<path style="fill:#DFDCE1;" d="M41.999,164.635c0,0,14.177,31.562,24.15,58.577l9.454,3.384l40.436-53.558
	C116.035,173.034,88.202,156.232,41.999,164.635z"/>
<path style="fill:#D6D6D6;" d="M101.855,137.856l13.13,98.018l7.872,1.223l50.933-75.61
	C173.793,161.486,146.487,140.481,101.855,137.856z"/>
<g>
	<polygon style="fill:#DFDCE1;" points="364.268,213.874 346.767,233.477 369.399,234.408 	"/>
	<path style="fill:#DFDCE1;" d="M258.259,185.636l-50.821,36.409l37.515,11.024c0,0,7.352-37.28,14.525-45.335L258.259,185.636z"/>
	<path style="fill:#DFDCE1;" d="M259.478,187.738c0,0-9.801,28.937-10.033,44.344c0,0,35.006-5.134,46.677-4.903L259.478,187.738z"
		/>
</g>
<path style="fill:#E6E6E5;" d="M106.552,185.184l1.698-1.881C107.61,183.804,107.057,184.462,106.552,185.184z M80.244,214.341
	l23.574,4.435c0,0-3.583-24.565,2.734-33.589L80.244,214.341z"/>
<path style="fill:#DFDCE1;" d="M226.809,140.361l29.868,47.373l11.443-7.7C255.514,155.764,226.809,140.361,226.809,140.361z"/>
<path style="fill:#040202;" d="M315.493,236.513l14.468-0.703l28.006-68.849C345.368,169.066,315.493,236.513,315.493,236.513z"/>
<path style="fill:#F5F8F8;" d="M257.802,186.691l50.937,55.129h7.352c0,0,16.278-40.956,40.956-74.563
	C357.047,167.256,299.813,150.982,257.802,186.691z"/>
<path style="fill:#CECECE;" d="M145.44,100.049c0,0,24.154,78.767,28.353,142.298l11.028,0.527c0,0,65.098-49.359,72.982-56.183
	C257.802,186.691,237.328,115.803,145.44,100.049z"/>
<polygon style="fill:#1E1418;" points="384.806,241.296 375.352,250.75 435.215,250.75 442.107,241.82 "/>
<path style="fill:#040202;" d="M405.572,218.544l-23.099,23.802l28.709-7c0,0,26.147-32.792,29.872-37.635L405.572,218.544z"/>
<polygon style="fill:#722E1D;" points="416.383,226.068 382.472,241.82 442.107,241.82 "/>
<path style="fill:#F7F6F2;" d="M363.344,211.368l8.93,40.432l4.727,2.453c0,0,12.595-27.131,64.055-56.539
	C441.057,197.711,392.225,192.988,363.344,211.368z"/>
<path style="fill:#E7E4DE;" d="M313.156,197.307c0,0,10.504,12.602,13.534,18.204c3.04,5.602,9.57,26.371,9.57,26.371l6.077-0.467
	l24.031-30.104C344.437,198.474,313.156,197.307,313.156,197.307z"/>
<g style="opacity:0.1;">
	<g>
		<g>
			<path style="fill:#1E1418;" d="M377.001,286.429l-3.612,0.108l-12.726,11.791L39.991,310.355l-6.922,14.001l-4.981,5.953
				l17.15,5.598l18.208,3.852h21.349l21.005-4.551l57.993-8.519l5.022,17.621l6.297-19.255l35.361,7.004l32.908-10.149l51.105,5.95
				l8.754-10.852l31.154,3.852l32.908,0.699l10.149-14.352l-1.04-7.034h0.112l-0.464-2.416h76.658l14.865-7.629
				c-0.138-1.238,1.013-2.461,0.856-3.691h-91.44V286.429z"/>
			<g>
				<path style="fill:#D6C2BC;" d="M451.318,298.448l-74.795,1.713l0.479,2.487h75.715l14.087-8.567
					c-0.105-1.099,0.778-3.295,0.778-3.295L451.318,298.448z"/>
				<path style="fill:#D6C2BC;" d="M452.717,297.745h-76.658l0.464,2.416l74.795-1.713l16.185-7.659
					c-0.022-0.224,0.101-0.445,0.079-0.669L452.717,297.745z"/>
			</g>
			<g>
				<polygon style="fill:#D9BEAC;" points="349.792,285.498 349.792,287.244 373.389,286.534 374.511,285.498 				"/>
				<path style="fill:#D9BEAC;" d="M374.511,285.498l-1.122,1.04l3.612-0.108h91.436c-0.037-0.31,0.273-0.621,0.236-0.931H374.511z"
					/>
			</g>
			<g>
				<path style="fill:#D6C2BC;" d="M470.285,276.743H3.414c1.077,4.618,1.387,5.71,1.855,8.754h344.523v-3.852h119.58
					C469.13,280.001,470.285,276.654,470.285,276.743z"/>
				<path style="fill:#D6C2BC;" d="M349.792,281.646v3.852h24.715l1.892-1.75l92.502,0.961c-0.138-1.017,0.617-2.049,0.467-3.063
					H349.792z"/>
				<path style="fill:#D6C2BC;" d="M376.399,283.744l-1.892,1.75h94.162c-0.034-0.262,0.191-0.527,0.157-0.789L376.399,283.744z"/>
			</g>
		</g>
		<g>
			<polygon style="fill:#3D3538;" points="163.793,326.685 162.294,326.91 165.031,331.02 			"/>
			<polygon style="fill:#3D3538;" points="180.322,305.086 179.918,305.101 195.939,329.176 196.421,329.273 			"/>
			<polygon style="fill:#3D3538;" points="185.621,304.891 185.206,304.906 202.188,330.414 202.666,330.511 			"/>
			<polygon style="fill:#3D3538;" points="190.913,304.689 190.505,304.708 208.429,331.652 208.923,331.745 			"/>
			<polygon style="fill:#3D3538;" points="196.208,304.495 195.8,304.51 213.507,331.117 213.859,331.008 			"/>
			<polygon style="fill:#3D3538;" points="201.496,304.293 201.092,304.308 218.006,329.733 218.357,329.621 			"/>
			<polygon style="fill:#3D3538;" points="206.795,304.095 206.383,304.11 222.508,328.338 222.864,328.234 			"/>
			<polygon style="fill:#3D3538;" points="212.082,303.896 211.682,303.908 227.011,326.951 227.362,326.842 			"/>
			<polygon style="fill:#3D3538;" points="217.389,303.698 216.97,303.713 231.513,325.56 231.865,325.451 			"/>
			<polygon style="fill:#3D3538;" points="222.677,303.5 222.262,303.515 236.016,324.176 236.36,324.068 			"/>
			<polygon style="fill:#3D3538;" points="227.972,303.298 227.564,303.317 240.518,322.789 240.862,322.677 			"/>
			<polygon style="fill:#3D3538;" points="233.267,303.104 232.852,303.119 245.522,322.153 245.974,322.205 			"/>
			<polygon style="fill:#3D3538;" points="238.555,302.902 238.147,302.917 251.404,322.834 251.86,322.89 			"/>
			<polygon style="fill:#3D3538;" points="243.85,302.707 243.443,302.722 257.286,323.522 257.743,323.578 			"/>
			<polygon style="fill:#3D3538;" points="249.145,302.505 248.738,302.52 263.169,324.21 263.618,324.262 			"/>
			<polygon style="fill:#3D3538;" points="254.437,302.307 254.029,302.322 269.047,324.89 269.504,324.943 			"/>
			<polygon style="fill:#3D3538;" points="259.732,302.109 259.328,302.124 274.934,325.575 275.393,325.631 			"/>
			<polygon style="fill:#3D3538;" points="265.031,301.911 264.62,301.929 280.812,326.263 281.268,326.315 			"/>
			<polygon style="fill:#3D3538;" points="270.319,301.713 269.915,301.728 286.691,326.947 287.147,327 			"/>
			<polygon style="fill:#3D3538;" points="275.618,301.514 275.206,301.529 292.573,327.628 293.033,327.684 			"/>
			<polygon style="fill:#3D3538;" points="280.913,301.316 280.502,301.327 296.492,325.362 296.728,325.081 			"/>
			<polygon style="fill:#3D3538;" points="286.205,301.118 285.797,301.129 299.469,321.674 299.697,321.394 			"/>
			<polygon style="fill:#3D3538;" points="291.492,300.92 291.088,300.935 302.442,317.995 302.677,317.707 			"/>
			<polygon style="fill:#3D3538;" points="296.788,300.718 296.38,300.737 307.565,317.535 308.021,317.595 			"/>
			<polygon style="fill:#3D3538;" points="302.087,300.523 301.675,300.538 313.474,318.268 313.937,318.324 			"/>
			<polygon style="fill:#3D3538;" points="307.382,300.321 306.97,300.336 319.386,319.001 319.846,319.053 			"/>
			<polygon style="fill:#3D3538;" points="312.677,300.123 312.262,300.138 325.302,319.726 325.754,319.786 			"/>
			<polygon style="fill:#3D3538;" points="317.965,299.925 317.561,299.94 331.21,320.459 331.674,320.515 			"/>
			<polygon style="fill:#3D3538;" points="323.264,299.727 322.849,299.742 336.936,320.904 337.366,320.915 			"/>
			<polygon style="fill:#3D3538;" points="328.555,299.529 328.144,299.544 342.44,321.024 342.87,321.031 			"/>
			<polygon style="fill:#3D3538;" points="333.85,299.33 333.439,299.349 347.941,321.143 348.367,321.147 			"/>
			<polygon style="fill:#3D3538;" points="339.146,299.132 338.727,299.147 353.453,321.256 353.88,321.267 			"/>
			<polygon style="fill:#3D3538;" points="344.441,298.93 344.022,298.953 358.954,321.375 359.381,321.386 			"/>
			<polygon style="fill:#3D3538;" points="349.732,298.732 349.325,298.747 364.455,321.491 364.881,321.502 			"/>
			<polygon style="fill:#3D3538;" points="355.031,298.534 354.613,298.553 368.651,319.644 368.868,319.333 			"/>
			<polygon style="fill:#3D3538;" points="360.319,298.339 359.908,298.354 371.448,315.691 371.665,315.384 			"/>
			<polygon style="fill:#3D3538;" points="363.797,295.415 363.539,295.658 374.242,311.738 374.458,311.432 			"/>
			<polygon style="fill:#3D3538;" points="31.558,326.151 31.326,326.431 35.519,332.732 36.057,332.908 			"/>
			<polygon style="fill:#3D3538;" points="34.228,322.007 34.053,322.37 42.452,334.995 42.99,335.171 			"/>
			<polygon style="fill:#3D3538;" points="36.547,317.325 36.364,317.688 49.018,336.704 49.505,336.805 			"/>
			<polygon style="fill:#3D3538;" points="38.854,312.647 38.671,313.01 55.331,338.043 55.817,338.143 			"/>
			<polygon style="fill:#3D3538;" points="42.676,310.25 42.268,310.265 61.643,339.378 62.137,339.479 			"/>
			<polygon style="fill:#3D3538;" points="47.975,310.052 47.564,310.067 67.324,339.755 67.742,339.755 			"/>
			<polygon style="fill:#3D3538;" points="53.27,309.854 52.855,309.869 72.75,339.755 73.172,339.755 			"/>
			<polygon style="fill:#3D3538;" points="58.562,309.652 58.154,309.67 78.18,339.755 78.598,339.755 			"/>
			<polygon style="fill:#3D3538;" points="63.853,309.453 63.449,309.468 83.606,339.755 84.021,339.755 			"/>
			<polygon style="fill:#3D3538;" points="69.152,309.255 68.741,309.27 88.497,338.959 88.864,338.876 			"/>
			<polygon style="fill:#3D3538;" points="74.44,309.057 74.04,309.072 93.243,337.93 93.602,337.848 			"/>
			<polygon style="fill:#3D3538;" points="79.735,308.859 79.328,308.874 97.981,336.898 98.347,336.82 			"/>
			<polygon style="fill:#3D3538;" points="85.03,308.661 84.623,308.676 102.726,335.874 103.089,335.791 			"/>
			<polygon style="fill:#3D3538;" points="90.329,308.462 89.918,308.477 107.535,334.95 107.92,334.898 			"/>
			<polygon style="fill:#3D3538;" points="95.625,308.264 95.206,308.279 112.475,334.221 112.857,334.172 			"/>
			<polygon style="fill:#3D3538;" points="100.912,308.062 100.505,308.085 117.426,333.499 117.804,333.439 			"/>
			<polygon style="fill:#3D3538;" points="106.208,307.868 105.8,307.883 122.363,332.77 122.748,332.717 			"/>
			<polygon style="fill:#3D3538;" points="111.507,307.666 111.092,307.681 127.303,332.044 127.692,331.992 			"/>
			<polygon style="fill:#3D3538;" points="116.798,307.471 116.383,307.486 132.25,331.322 132.632,331.263 			"/>
			<polygon style="fill:#3D3538;" points="122.09,307.273 121.682,307.285 137.194,330.593 137.575,330.537 			"/>
			<polygon style="fill:#3D3538;" points="127.389,307.071 126.97,307.086 142.134,329.868 142.515,329.812 			"/>
			<polygon style="fill:#3D3538;" points="132.68,306.873 132.265,306.888 147.077,329.139 147.463,329.086 			"/>
			<polygon style="fill:#3D3538;" points="137.975,306.675 137.56,306.694 152.021,328.413 152.399,328.361 			"/>
			<polygon style="fill:#3D3538;" points="143.271,306.477 142.859,306.492 156.965,327.688 157.35,327.632 			"/>
			<polygon style="fill:#3D3538;" points="165.031,331.02 162.294,326.91 161.909,326.962 165.342,332.127 			"/>
			<polygon style="fill:#3D3538;" points="148.562,306.279 148.147,306.294 161.909,326.962 162.294,326.91 			"/>
			<polygon style="fill:#3D3538;" points="165.031,331.02 165.342,332.127 170.341,339.636 170.476,339.217 			"/>
			<polygon style="fill:#3D3538;" points="153.854,306.08 153.442,306.095 172.129,334.172 172.267,333.746 			"/>
			<polygon style="fill:#3D3538;" points="159.153,305.882 158.737,305.897 173.924,328.705 174.051,328.279 			"/>
			<polygon style="fill:#3D3538;" points="164.44,305.684 164.033,305.699 177.185,325.466 177.675,325.56 			"/>
			<polygon style="fill:#3D3538;" points="169.732,305.482 169.324,305.497 183.434,326.7 183.92,326.798 			"/>
			<polygon style="fill:#3D3538;" points="175.035,305.288 174.616,305.303 189.686,327.942 190.169,328.035 			"/>
		</g>
	</g>
	<g>
		<path style="fill:#BEAE9C;" d="M249.676,311.05l-5.598,0.699c-0.352,12.954,12.255,51.812,12.255,51.812
			c-0.355-0.987,3.923,4.158,3.384,0.467C257.559,349.314,249.676,311.05,249.676,311.05z"/>
		<path style="fill:#BEAE9C;" d="M111.402,318.402l-6.305,2.453c-12.606,25.904,1.746,47.257,1.746,47.257l3.855-12.255
			C106.152,341.857,111.402,318.402,111.402,318.402z"/>
		<path style="fill:#BEAE9C;" d="M170.562,310.351c-17.853,35.006-10.508,66.864-10.508,66.864l6.309,2.801l1.043-9.45
			C160.761,353.76,170.562,310.351,170.562,310.351z"/>
	</g>
	<polygon style="fill:#A0897D;" points="16.794,286.429 16.794,303.115 25.19,303.115 25.19,315.306 29.917,315.306 33.069,314.259 
		33.069,325.283 53.543,325.283 66.149,331.121 79.275,331.121 114.984,318.458 136.958,318.522 158.195,311.985 342.336,311.985 
		356.924,306.974 360.768,306.851 377.001,300.078 377.001,286.429 	"/>
	<polygon style="fill:#D2B7A6;" points="53.543,285.494 53.543,324.352 66.149,330.189 79.275,330.189 114.984,317.523 
		114.984,285.494 	"/>
	<g>
		<polygon style="fill:#D9BEAC;" points="16.794,285.494 16.794,302.184 25.19,302.184 25.19,314.375 29.917,314.375 
			33.069,313.324 33.069,324.352 53.543,324.352 66.149,330.189 79.275,330.189 114.984,317.523 136.958,317.587 158.195,311.05 
			342.336,311.05 356.924,306.039 360.768,305.916 377.001,299.147 377.001,285.494 		"/>
		<polygon style="fill:#D5BCAD;" points="16.794,285.494 16.794,302.184 25.19,302.184 25.19,314.375 29.917,314.375 
			33.069,313.324 33.069,324.352 53.543,324.352 66.149,330.189 79.275,330.189 114.984,317.523 114.984,285.494 		"/>
		<polygon style="fill:#CFB49F;" points="16.794,285.494 33.069,313.324 33.069,324.352 53.543,324.352 53.543,285.494 		"/>
		<polygon style="fill:#BFA38E;" points="16.794,285.494 16.794,302.184 25.19,302.184 25.19,314.375 29.917,314.375 
			33.069,313.324 87.244,285.494 		"/>
		<g>
			<polygon style="fill:#B89981;" points="16.794,285.494 16.794,302.184 54.691,302.184 87.244,285.494 			"/>
			<polygon style="fill:#B89981;" points="114.984,285.494 114.984,317.523 136.958,317.587 158.195,311.05 158.195,285.494 			"/>
		</g>
	</g>
	<polygon style="fill:#A0897D;" points="360.768,309.24 356.924,309.367 342.336,314.375 158.195,314.375 136.958,320.908 
		114.984,320.848 79.275,333.514 66.149,333.514 53.543,327.673 33.069,327.673 33.069,328.608 53.543,328.608 66.149,334.445 
		79.275,334.445 114.984,321.783 136.958,321.843 158.195,315.31 342.336,315.31 356.924,310.299 360.768,310.175 377.001,303.407 
		377.001,302.472 	"/>
	<path style="fill:#DBDBDA;" d="M163.793,326.685l-34.071,3.971l30.575,43.405C156.325,362.626,163.793,326.685,163.793,326.685z"/>
	<path style="fill:#DFDCE1;" d="M75.603,326.805l-9.454,3.384c-6.29,17.03-14.248,35.87-19.27,47.466l10.762,13.103
		c36.767,2.659,58.397-10.392,58.397-10.392L75.603,326.805z"/>
	<path style="fill:#D6D6D6;" d="M122.86,316.301l-7.872,1.223l-13.13,98.018c44.632-2.629,71.934-23.63,71.934-23.63L122.86,316.301
		z"/>
	<g>
		<polygon style="fill:#DFDCE1;" points="346.767,319.921 364.268,339.523 369.399,318.989 		"/>
		<path style="fill:#DFDCE1;" d="M244.953,320.328l-37.515,11.024l50.821,36.408l1.219-2.102
			C252.305,357.608,244.953,320.328,244.953,320.328z"/>
		<path style="fill:#DFDCE1;" d="M249.445,321.319c0.232,15.407,10.033,44.344,10.033,44.344l36.648-39.441
			C284.454,326.45,249.445,321.319,249.445,321.319z"/>
	</g>
	<path style="fill:#E6E6E5;" d="M106.552,368.213c0.505,0.722,1.055,1.38,1.698,1.881L106.552,368.213z M103.818,334.621
		l-23.574,4.435l26.308,29.154C100.236,359.186,103.818,334.621,103.818,334.621z"/>
	<path style="fill:#DFDCE1;" d="M256.677,365.663l-29.868,47.373c0,0,28.709-15.403,41.311-39.673L256.677,365.663z"/>
	<g>
		<path style="fill:#040202;" d="M329.961,317.587l-14.468-0.703c0,0,29.872,67.447,42.474,69.549L329.961,317.587z"/>
		<path style="fill:#F5F8F8;" d="M316.091,311.578h-7.352l-50.937,55.133c42.01,35.705,99.245,19.431,99.245,19.431
			C332.366,352.533,316.091,311.578,316.091,311.578z"/>
	</g>
	<path style="fill:#CECECE;" d="M184.821,310.523l-11.028,0.527c-4.2,63.532-28.353,142.298-28.353,142.298
		c91.889-15.755,112.363-86.638,112.363-86.638C249.919,359.882,184.821,310.523,184.821,310.523z"/>
	<g>
		<polygon style="fill:#1E1418;" points="435.215,302.651 375.352,302.651 384.806,312.101 442.107,311.578 		"/>
		<path style="fill:#040202;" d="M411.181,318.051l-28.709-7l23.099,23.802l35.481,20.833
			C437.328,350.843,411.181,318.051,411.181,318.051z"/>
		<polygon style="fill:#722E1D;" points="382.472,311.578 416.383,327.329 442.107,311.578 		"/>
		<path style="fill:#F7F6F2;" d="M377.001,299.147l-4.727,2.453l-8.93,40.432c28.881,18.38,77.708,13.657,77.708,13.657
			C389.596,326.278,377.001,299.147,377.001,299.147z"/>
	</g>
	<path style="fill:#E7E4DE;" d="M342.336,311.985l-6.077-0.467c0,0-6.529,20.77-9.57,26.371
		c-3.033,5.602-13.534,18.204-13.534,18.204s31.278-1.167,53.21-14.005L342.336,311.985z"/>
</g>
<g>
</g>
<g>
</g>
<g>
</g>
<g>
</g>
<g>
</g>
<g>
</g>
<g>
</g>
<g>
</g>
<g>
</g>
<g>
</g>
<g>
</g>
<g>
</g>
<g>
</g>
<g>
</g>
<g>
</g>
</svg>
