<?xml version="1.0" encoding="iso-8859-1"?>
<!-- Generator: Adobe Illustrator 19.0.0, SVG Export Plug-In . SVG Version: 6.00 Build 0)  -->
<svg version="1.1" id="Capa_1" xmlns="http://www.w3.org/2000/svg" xmlns:xlink="http://www.w3.org/1999/xlink" x="0px" y="0px"
	 viewBox="0 0 155.301 155.301" style="enable-background:new 0 0 155.301 155.301;" xml:space="preserve">
<g>
	<g>
		<circle style="fill:#98E2ED;" cx="77.651" cy="77.65" r="77.65"/>
	</g>
	<g>
		<g>
			<path style="fill:#FFCB00;" d="M74.998,120.834v7.412c0,0-9.107-0.917-9.233,2.063c-0.125,2.98,11.872,0.458,11.872,0.458
				s12.34,2.522,12.215-0.458c-0.126-2.98-8.853-2.063-8.853-2.063v-7.398c-1,0.113-2.034,0.178-2.949,0.178
				C77.099,121.025,75.998,120.956,74.998,120.834z"/>
			<path style="fill:#FFCB00;" d="M58.1,91.814c-1.861,1.653-4.148,4.215-6.089,7.994c-4.044,7.879-4.731,16.53,2.692,12.538
				c0,0,0.606,6.406,5.815,3.185c0.541-0.335,0.976-0.892,1.331-1.604c-3.324-3.736-5.346-8.655-5.346-14.048
				C56.504,97.022,57.074,94.299,58.1,91.814z"/>
			<path style="fill:#FFCB00;" d="M97.201,91.814c1.026,2.485,1.596,5.208,1.596,8.064c0,5.393-2.022,10.312-5.346,14.048
				c0.355,0.712,0.791,1.27,1.332,1.604c5.208,3.222,5.814-3.185,5.814-3.185c7.424,3.992,6.738-4.659,2.692-12.538
				C101.35,96.029,99.062,93.467,97.201,91.814z"/>
			<path style="fill:#FFBA00;" d="M97.201,91.814c-0.367-0.889-0.794-1.745-1.273-2.567c-5.152,3.686-11.459,5.861-18.277,5.861
				c-6.818,0-13.124-2.175-18.277-5.861c-0.479,0.823-0.906,1.679-1.273,2.567c-1.026,2.485-1.596,5.208-1.596,8.064
				c0,5.393,2.022,10.312,5.346,14.048c3.288,3.695,7.85,6.227,13,6.908c0.917,0.122,1.851,0.191,2.801,0.191
				c0.916,0,1.815-0.065,2.701-0.178c5.189-0.662,9.791-3.202,13.1-6.921c3.324-3.736,5.346-8.655,5.346-14.048
				C98.797,97.022,98.227,94.299,97.201,91.814z"/>
			<path style="fill:#FFCB00;" d="M77.651,95.108c6.818,0,13.125-2.175,18.277-5.861c7.979-5.706,13.185-15.042,13.185-25.6
				c0-16.707-13.023-30.364-29.47-31.392c0.686-1.533,1.671-2.858,2.489-4.315c0.269-0.477-0.079-1.338-0.74-1.121
				c-1.022,0.335-1.897,0.88-2.632,1.567c0.66-1.527,1.541-2.961,2.372-4.42c0.103-0.181-0.031-0.492-0.276-0.417
				c-3.693,1.13-5.418,4.873-5.948,8.763c-16.09,1.391-28.719,14.884-28.719,31.335c0,10.558,5.206,19.894,13.185,25.6
				C64.527,92.933,70.833,95.108,77.651,95.108z M91.615,58.066c3.777,0,6.839,3.062,6.839,6.838c0,3.776-3.062,6.838-6.839,6.838
				c-3.775,0-6.837-3.062-6.837-6.838C84.779,61.128,87.84,58.066,91.615,58.066z M77.651,75.33c3.854,0,5.323,4.556,5.323,4.556
				l-5.323,3.854l-5.323-3.854C72.327,79.886,73.797,75.33,77.651,75.33z M56.847,64.904c0-3.776,3.061-6.838,6.838-6.838
				c3.775,0,6.838,3.062,6.838,6.838c0,3.776-3.063,6.838-6.838,6.838C59.908,71.742,56.847,68.681,56.847,64.904z"/>
			<path style="fill:#FF802A;" d="M72.327,79.886l5.323,3.854l5.323-3.854c0,0-1.47-4.556-5.323-4.556
				C73.797,75.33,72.327,79.886,72.327,79.886z"/>
			<path style="fill:#FFFFFF;" d="M70.524,64.904c0-3.776-3.063-6.838-6.838-6.838c-3.777,0-6.838,3.062-6.838,6.838
				c0,3.776,3.061,6.838,6.838,6.838C67.461,71.742,70.524,68.681,70.524,64.904z M61.042,66.395
				c-0.25-0.443-0.404-0.946-0.404-1.491c0-1.683,1.363-3.047,3.048-3.047c1.625,0,2.942,1.277,3.03,2.881
				c-0.494-0.473-1.2-0.772-2.14-0.772C62.795,63.966,61.581,65.065,61.042,66.395z"/>
			<path style="fill:#353A42;" d="M66.716,64.738c-0.088-1.604-1.405-2.881-3.03-2.881c-1.685,0-3.048,1.364-3.048,3.047
				c0,0.545,0.155,1.048,0.404,1.491c0.539-1.33,1.753-2.429,3.534-2.429C65.516,63.966,66.222,64.266,66.716,64.738z"/>
			<path style="fill:#FFFFFF;" d="M91.615,71.742c3.777,0,6.839-3.062,6.839-6.838c0-3.776-3.062-6.838-6.839-6.838
				c-3.775,0-6.837,3.062-6.837,6.838C84.779,68.681,87.84,71.742,91.615,71.742z M91.615,61.857c1.685,0,3.048,1.364,3.048,3.047
				c0,0.545-0.154,1.048-0.404,1.491c-0.538-1.33-1.751-2.429-3.534-2.429c-0.94,0-1.646,0.3-2.14,0.772
				C88.674,63.134,89.99,61.857,91.615,61.857z"/>
			<path style="fill:#353A42;" d="M94.259,66.395c0.25-0.443,0.404-0.946,0.404-1.491c0-1.683-1.363-3.047-3.048-3.047
				c-1.625,0-2.942,1.277-3.03,2.881c0.494-0.473,1.2-0.772,2.14-0.772C92.508,63.966,93.72,65.065,94.259,66.395z"/>
		</g>
		<path style="opacity:0.3;fill:#FFFFFF;" d="M97.201,91.814c-0.367-0.889-0.794-1.745-1.273-2.567
			c7.979-5.706,13.185-15.042,13.185-25.6c0-16.707-13.023-30.364-29.47-31.392c0.686-1.533,1.671-2.858,2.489-4.315
			c0.269-0.477-0.079-1.338-0.74-1.121c-1.022,0.335-1.897,0.88-2.632,1.567c0.66-1.527,1.541-2.961,2.372-4.42
			c0.103-0.181-0.031-0.492-0.276-0.417c-1.104,0.338-2.03,0.914-2.803,1.654v105.612c1.64,0.326,11.795,2.235,11.68-0.505
			c-0.126-2.98-9.158-2.063-9.158-2.063v-7.427c5.099-0.705,9.617-3.227,12.878-6.893c0.355,0.712,0.791,1.27,1.332,1.604
			c5.208,3.222,5.814-3.185,5.814-3.185c7.424,3.992,6.738-4.659,2.692-12.538C101.35,96.028,99.062,93.467,97.201,91.814z"/>
	</g>
</g>
<g>
</g>
<g>
</g>
<g>
</g>
<g>
</g>
<g>
</g>
<g>
</g>
<g>
</g>
<g>
</g>
<g>
</g>
<g>
</g>
<g>
</g>
<g>
</g>
<g>
</g>
<g>
</g>
<g>
</g>
</svg>
