<?xml version="1.0" encoding="iso-8859-1"?>
<!-- Generator: Adobe Illustrator 19.0.0, SVG Export Plug-In . SVG Version: 6.00 Build 0)  -->
<svg version="1.1" id="Capa_1" xmlns="http://www.w3.org/2000/svg" xmlns:xlink="http://www.w3.org/1999/xlink" x="0px" y="0px"
	 viewBox="0 0 155.301 155.301" style="enable-background:new 0 0 155.301 155.301;" xml:space="preserve">
<g>
	<g>
		<circle style="fill:#98E2ED;" cx="77.651" cy="77.65" r="77.65"/>
	</g>
	<g>
		<g>
			<path style="fill:#3E494F;" d="M122.884,96.342c-2.063-3.839-9.857,0-9.857,0s-0.688-10.372-6.189-8.996
				c-5.502,1.375,0.688,12.607,0.688,12.607c-1.568,4.077-6.031,5.901-8.696,6.647c0.813,5.109,2.552,10.716,6.261,12.717
				c0.273,0.147,0.536,0.285,0.791,0.418c5.998-3.897,5.999-16.801,5.999-16.801C118.07,104.079,124.947,100.183,122.884,96.342z"/>
			<path style="fill:#515D65;" d="M98.829,106.6c-0.426-2.682-0.597-5.228-0.664-7.043c-0.012-0.769-0.024-1.533-0.04-2.258
				c0.001-0.283,0.005-0.439,0.005-0.439l-0.014,0.032c-0.043-2.021-0.099-3.658-0.164-4.053c-0.472-2.828-1.506-5.466-2.982-7.796
				c7.817-5.725,12.897-14.965,12.897-25.396c0-17.376-14.085-31.462-31.462-31.462c-17.375,0-31.462,14.086-31.462,31.462
				c0,10.627,5.275,20.017,13.344,25.712c-0.253-2.715-0.314-5.195-0.306-7.027c-0.28-0.555-0.522-1.127-0.73-1.71
				c-0.945-1.078-1.687-2.63-2.137-4.83c-1.724-8.435,3.311-13.249,9.906-15.615c-1.429-0.69-2.369-2.196-2.252-3.875
				c0.152-2.203,2.061-3.864,4.263-3.712c2.203,0.153,3.866,2.062,3.713,4.265c-0.052,0.752-0.312,1.438-0.716,2.014
				c2.208-0.39,4.444-0.57,6.55-0.57c1.94,0,3.991,0.151,6.028,0.479c-0.367-0.556-0.602-1.21-0.651-1.923
				c-0.153-2.203,1.51-4.111,3.712-4.265c2.202-0.152,4.111,1.509,4.263,3.712c0.111,1.604-0.743,3.05-2.064,3.777
				c6.726,2.332,11.923,7.164,10.175,15.713c-0.347,1.703-0.872,3.017-1.527,4.027c-0.515,1.763-1.363,3.416-2.489,4.914
				c-0.133,4.842-0.793,11.898-3.24,17.235l-2.783-12.093c-3.222,1.775-7.088,2.812-11.249,2.812c-4.733,0-9.086-1.343-12.541-3.589
				l-2.962,12.87c-1.592-3.473-2.425-7.671-2.851-11.515c-1.175,2.217-1.968,4.666-2.29,7.262c-0.068,0.544-0.114,5.214-0.14,8.803
				c-0.474,5.741-1.988,14.225-6.756,16.799c-4.605,2.485-6.735,2.681-3.874,5.576c2.638,2.667,16.181,2.221,20.938-0.569
				c3.165,1.784,6.863,2.793,10.816,2.793c3.978,0,7.698-1.021,10.876-2.826c4.706,2.819,18.345,3.28,20.993,0.602
				c2.692-2.723,0.965-3.06-3.083-5.159c-0.255-0.132-0.518-0.27-0.791-0.418C101.382,117.316,99.642,111.709,98.829,106.6z"/>
			<path style="fill:#FFFFFF;" d="M70.745,52.854c0.153-2.203-1.51-4.111-3.713-4.265c-2.202-0.152-4.11,1.509-4.263,3.712
				c-0.117,1.679,0.823,3.186,2.252,3.875c1.603-0.576,3.295-1.007,5.008-1.309C70.433,54.292,70.693,53.606,70.745,52.854z
				 M68.997,53.266c-0.37-0.383-0.906-0.646-1.634-0.695c-1.311-0.092-2.289,0.586-2.832,1.497c-0.34-0.464-0.526-1.046-0.482-1.665
				c0.096-1.392,1.301-2.441,2.692-2.345c1.391,0.097,2.441,1.302,2.345,2.693C69.072,52.929,69.043,53.1,68.997,53.266z"/>
			<path style="fill:#353A42;" d="M66.741,50.058c-1.392-0.096-2.596,0.953-2.692,2.345c-0.045,0.62,0.142,1.201,0.482,1.665
				c0.543-0.912,1.521-1.589,2.832-1.497c0.728,0.049,1.264,0.312,1.634,0.695c0.046-0.165,0.076-0.336,0.089-0.515
				C69.182,51.36,68.132,50.155,66.741,50.058z"/>
			<path style="fill:#FFFFFF;" d="M89.931,52.301c-0.152-2.203-2.061-3.864-4.263-3.712c-2.203,0.153-3.866,2.062-3.712,4.265
				c0.049,0.713,0.285,1.367,0.651,1.923c1.793,0.289,3.574,0.717,5.26,1.302C89.189,55.35,90.043,53.905,89.931,52.301z
				 M83.818,53.266c-0.046-0.165-0.076-0.336-0.09-0.515c-0.096-1.391,0.954-2.596,2.345-2.693c1.392-0.096,2.596,0.953,2.692,2.345
				c0.044,0.62-0.142,1.201-0.482,1.665c-0.543-0.912-1.521-1.589-2.832-1.497C84.724,52.62,84.188,52.882,83.818,53.266z"/>
			<path style="fill:#353A42;" d="M88.283,54.068c0.34-0.464,0.526-1.046,0.482-1.665c-0.096-1.392-1.3-2.441-2.692-2.345
				c-1.391,0.097-2.44,1.302-2.345,2.693c0.014,0.178,0.044,0.349,0.09,0.515c0.37-0.383,0.906-0.646,1.634-0.695
				C86.762,52.479,87.741,53.157,88.283,54.068z"/>
			<path style="fill:#BFA18D;" d="M76.579,75.383c-2.664,0-6.817,1.989-10.797,2.899l-1.569,6.816
				c3.455,2.246,7.808,3.589,12.541,3.589c4.161,0,8.027-1.037,11.249-2.812l-1.815-7.892
				C82.586,76.997,78.979,75.383,76.579,75.383z"/>
			<path style="fill:#BFA18D;" d="M57.252,76.621c0.208,0.583,0.451,1.155,0.73,1.71c0.002-0.355,0.005-0.687,0.011-0.991
				C57.734,77.13,57.487,76.89,57.252,76.621z"/>
			<path style="fill:#BFA18D;" d="M94.052,78.048c0.006,0.777,0.001,1.684-0.027,2.684c1.126-1.497,1.975-3.15,2.489-4.914
				C95.828,76.878,94.992,77.592,94.052,78.048z"/>
			<path style="fill:#FFFFFF;" d="M64.213,85.098l1.569-6.816c-2.905,0.663-5.713,0.744-7.788-0.942
				c-0.005,0.304-0.009,0.636-0.011,0.991c-0.008,1.832,0.053,4.313,0.306,7.027c0.034,0.362,0.07,0.726,0.111,1.095
				c0.426,3.844,1.259,8.041,2.851,11.515L64.213,85.098z"/>
			<path style="fill:#FFFFFF;" d="M94.052,78.048c-2.229,1.083-5.043,0.706-7.865-0.065l1.815,7.892l2.783,12.093
				c2.446-5.337,3.106-12.393,3.24-17.235C94.053,79.732,94.059,78.826,94.052,78.048z"/>
			<path style="fill:#FFD6BC;" d="M57.993,77.34c2.075,1.686,4.883,1.605,7.788,0.942c3.98-0.91,8.133-2.899,10.797-2.899
				c2.4,0,6.007,1.615,9.609,2.601c2.821,0.771,5.635,1.148,7.865,0.065c0.94-0.457,1.776-1.17,2.462-2.229
				c0.655-1.01,1.18-2.324,1.527-4.027c1.749-8.55-3.449-13.382-10.175-15.713c-1.686-0.584-3.466-1.013-5.26-1.302
				c-2.037-0.329-4.088-0.479-6.028-0.479c-2.106,0-4.342,0.181-6.55,0.57c-1.713,0.302-3.405,0.733-5.008,1.309
				c-6.595,2.367-11.63,7.181-9.906,15.615c0.45,2.199,1.192,3.751,2.137,4.83C57.487,76.89,57.734,77.13,57.993,77.34z
				 M76.579,56.746c3.926,0,5.421,1.405,5.421,2.9c0,1.496-1.496,4.58-5.421,4.58c-3.925,0-5.421-3.083-5.421-4.58
				C71.158,58.151,72.654,56.746,76.579,56.746z"/>
			<path style="fill:#3E494F;" d="M76.579,64.226c3.926,0,5.421-3.083,5.421-4.58c0-1.496-1.496-2.9-5.421-2.9
				c-3.925,0-5.421,1.405-5.421,2.9C71.158,61.143,72.654,64.226,76.579,64.226z"/>
		</g>
		<path style="opacity:0.3;fill:#FFFFFF;" d="M122.884,96.342c-2.063-3.839-9.857,0-9.857,0s-0.688-10.372-6.189-8.996
			c-5.502,1.375,0.688,12.607,0.688,12.607c-1.568,4.077-6.031,5.901-8.696,6.647c-0.426-2.682-0.597-5.228-0.664-7.043
			c-0.012-0.769-0.024-1.533-0.04-2.258c0.001-0.283,0.005-0.439,0.005-0.439l-0.014,0.032c-0.043-2.021-0.099-3.658-0.164-4.053
			c-0.472-2.828-1.506-5.466-2.982-7.796c7.817-5.725,12.897-14.965,12.897-25.396c0-16.896-13.318-30.676-30.028-31.426v98.872
			c3.696-0.119,7.152-1.11,10.13-2.801c4.706,2.819,18.345,3.28,20.993,0.602c2.692-2.723,0.965-3.06-3.083-5.159
			c5.998-3.897,5.999-16.801,5.999-16.801C118.07,104.079,124.947,100.183,122.884,96.342z"/>
	</g>
</g>
<g>
</g>
<g>
</g>
<g>
</g>
<g>
</g>
<g>
</g>
<g>
</g>
<g>
</g>
<g>
</g>
<g>
</g>
<g>
</g>
<g>
</g>
<g>
</g>
<g>
</g>
<g>
</g>
<g>
</g>
</svg>
