<?xml version="1.0" encoding="iso-8859-1"?>
<!-- Generator: Adobe Illustrator 19.0.0, SVG Export Plug-In . SVG Version: 6.00 Build 0)  -->
<svg version="1.1" id="Layer_1" xmlns="http://www.w3.org/2000/svg" xmlns:xlink="http://www.w3.org/1999/xlink" x="0px" y="0px"
	 viewBox="0 0 496.2 496.2" style="enable-background:new 0 0 496.2 496.2;" xml:space="preserve">
<path style="fill:#32BEA6;" d="M496.2,248.1C496.2,111.1,385.1,0,248.1,0S0,111.1,0,248.1s111.1,248.1,248.1,248.1
	S496.2,385.1,496.2,248.1z"/>
<path style="fill:#5B4F3F;" d="M407.4,143.1H88.8c-3.4,0-6.2,2.8-6.2,6.2v197.5c0,3.4,2.8,6.2,6.2,6.2h318.6c3.4,0,6.2-2.8,6.2-6.2
	V149.4C413.6,145.9,410.8,143.1,407.4,143.1z M406.2,279.2c0,2.7-2.2,5-5,5H97.9c-2.8,0-5-2.2-5-5v-80.9c0-2.8,2.2-5,5-5h303.3
	c2.7,0,5,2.2,5,5L406.2,279.2L406.2,279.2z"/>
<path style="fill:#F5F5F5;" d="M387.8,158.9H108.4c-3,0-5.5,2.4-5.5,5.5v17.7c0,3,2.4,5.5,5.5,5.5h279.5c3,0,5.5-2.4,5.5-5.5v-17.7
	C393.3,161.3,390.9,158.9,387.8,158.9z"/>
<polygon style="fill:#443B30;" points="364.7,350.6 131.5,350.6 144,297.5 352.2,297.5 "/>
<g>
	<circle style="fill:#141311;" cx="249.2" cy="315" r="8.1"/>
	<circle style="fill:#141311;" cx="329.4" cy="338" r="8.1"/>
	<circle style="fill:#141311;" cx="167.6" cy="338" r="8.1"/>
	<circle style="fill:#141311;" cx="295.6" cy="331.4" r="6.8"/>
	<circle style="fill:#141311;" cx="201.9" cy="331.4" r="6.8"/>
	<circle style="fill:#141311;" cx="92.1" cy="152.2" r="6"/>
</g>
<circle style="fill:#443B30;" cx="92.1" cy="152.2" r="4.3"/>
<circle style="fill:#141311;" cx="404.2" cy="152.2" r="6"/>
<circle style="fill:#443B30;" cx="404.2" cy="152.2" r="4.3"/>
<circle style="fill:#141311;" cx="92.1" cy="343.1" r="6"/>
<circle style="fill:#443B30;" cx="92.1" cy="343.1" r="4.3"/>
<circle style="fill:#141311;" cx="404.2" cy="343.1" r="6"/>
<circle style="fill:#443B30;" cx="404.2" cy="343.1" r="4.3"/>
<path style="fill:#453939;" d="M249,193.3H107c-8.6,13.3-13.6,29.1-13.6,46.1c0,16.5,4.7,31.8,12.8,44.8h143.6
	c8.1-13,12.8-28.4,12.8-44.8C262.6,222.4,257.6,206.6,249,193.3z"/>
<circle style="fill:#F8F4F1;" cx="178" cy="239.4" r="35.7"/>
<circle style="fill:#E2D9D3;" cx="178" cy="239.4" r="32.2"/>
<circle style="fill:#F8F4F1;" cx="178" cy="239.4" r="30.3"/>
<path style="fill:#49433B;" d="M182.3,212.6h-8.7c-0.3,0-0.6,0.3-0.6,0.6v52.3c0,0.3,0.3,0.6,0.6,0.6h8.7c0.3,0,0.6-0.3,0.6-0.6
	v-52.3C183,212.9,182.7,212.6,182.3,212.6z"/>
<circle style="fill:#5F574A;" cx="178" cy="239.4" r="22.4"/>
<circle style="fill:#F8F4F1;" cx="178" cy="239.4" r="18.7"/>
<g>
	<path style="fill:#5F574A;" d="M180.9,222.3c0,1.5-1.3,1.7-2.8,1.7l0,0c-1.5,0-2.8-0.1-2.8-1.7v-1.9c0-1.5,1.3-2.8,2.8-2.8l0,0
		c1.5,0,2.8,1.3,2.8,2.8V222.3z"/>
	<path style="fill:#5F574A;" d="M175.3,256.5c0-1.5,1.3-1.7,2.8-1.7l0,0c1.5,0,2.8,0.1,2.8,1.7v1.9c0,1.5-1.3,2.8-2.8,2.8l0,0
		c-1.5,0-2.8-1.3-2.8-2.8V256.5z"/>
	<path style="fill:#5F574A;" d="M195.1,242.2c-1.5,0-1.7-1.3-1.7-2.8l0,0c0-1.5,0.1-2.8,1.7-2.8h1.9c1.5,0,2.8,1.3,2.8,2.8l0,0
		c0,1.5-1.3,2.8-2.8,2.8H195.1z"/>
	<path style="fill:#5F574A;" d="M161,236.6c1.5,0,1.7,1.3,1.7,2.8l0,0c0,1.5-0.1,2.8-1.7,2.8h-1.9c-1.5,0-2.8-1.3-2.8-2.8l0,0
		c0-1.5,1.3-2.8,2.8-2.8H161z"/>
	<path style="fill:#5F574A;" d="M192.1,229.3c-1.1,1.1-2.1,0.3-3.2-0.8l0,0c-1.1-1.1-1.9-2.1-0.8-3.2l1.3-1.3c1.1-1.1,2.9-1.1,4,0
		l0,0c1.1,1.1,1.1,2.9,0,4L192.1,229.3z"/>
	<path style="fill:#5F574A;" d="M164,249.5c1.1-1.1,2.1-0.3,3.2,0.8l0,0c1.1,1.1,1.9,2.1,0.8,3.2l-1.3,1.3c-1.1,1.1-2.9,1.1-4,0l0,0
		c-1.1-1.1-1.1-2.9,0-4L164,249.5z"/>
	<path style="fill:#5F574A;" d="M188.2,253.5c-1.1-1.1-0.3-2.1,0.8-3.2l0,0c1.1-1.1,2.1-1.9,3.2-0.8l1.3,1.3c1.1,1.1,1.1,2.9,0,4
		l0,0c-1.1,1.1-2.9,1.1-4,0L188.2,253.5z"/>
	<path style="fill:#5F574A;" d="M168,225.4c1.1,1.1,0.3,2.1-0.8,3.2l0,0c-1.1,1.1-2.1,1.9-3.2,0.8l-1.3-1.3c-1.1-1.1-1.1-2.9,0-4
		l0,0c1.1-1.1,2.9-1.1,4,0L168,225.4z"/>
</g>
<circle style="fill:#F8F4F1;" cx="318.2" cy="239.4" r="35.7"/>
<circle style="fill:#E2D9D3;" cx="318.2" cy="239.4" r="32.2"/>
<circle style="fill:#F8F4F1;" cx="318.2" cy="239.4" r="30.3"/>
<path style="fill:#49433B;" d="M340.2,223.6l-6.2-6.2c-0.2-0.2-0.6-0.2-0.9,0l-37,37c-0.2,0.2-0.2,0.6,0,0.9l6.2,6.2
	c0.2,0.2,0.6,0.2,0.9,0l37-37C340.4,224.2,340.4,223.8,340.2,223.6z"/>
<circle style="fill:#5F574A;" cx="318.2" cy="239.4" r="22.4"/>
<circle style="fill:#F8F4F1;" cx="318.2" cy="239.4" r="18.7"/>
<g>
	<path style="fill:#5F574A;" d="M332.3,229.4c-1.1,1.1-2.1,0.3-3.2-0.8l0,0c-1.1-1.1-1.9-2.1-0.8-3.2l1.3-1.3c1.1-1.1,2.9-1.1,4,0
		l0,0c1.1,1.1,1.1,2.9,0,4L332.3,229.4z"/>
	<path style="fill:#5F574A;" d="M304.2,249.6c1.1-1.1,2.1-0.3,3.2,0.8l0,0c1.1,1.1,1.9,2.1,0.8,3.2l-1.3,1.3c-1.1,1.1-2.9,1.1-4,0
		l0,0c-1.1-1.1-1.1-2.9,0-4L304.2,249.6z"/>
	<path style="fill:#5F574A;" d="M328.3,253.5c-1.1-1.1-0.3-2.1,0.8-3.2l0,0c1.1-1.1,2.1-1.9,3.2-0.8l1.3,1.3c1.1,1.1,1.1,2.9,0,4
		l0,0c-1.1,1.1-2.9,1.1-4,0L328.3,253.5z"/>
	<path style="fill:#5F574A;" d="M308.1,225.4c1.1,1.1,0.3,2.1-0.8,3.2l0,0c-1.1,1.1-2.1,1.9-3.2,0.8l-1.3-1.3c-1.1-1.1-1.1-2.9,0-4
		l0,0c1.1-1.1,2.9-1.1,4,0L308.1,225.4z"/>
	<path style="fill:#5F574A;" d="M335.3,242.3c-1.5,0-1.7-1.3-1.7-2.8l0,0c0-1.5,0.1-2.8,1.7-2.8h1.9c1.5,0,2.8,1.3,2.8,2.8l0,0
		c0,1.5-1.3,2.8-2.8,2.8H335.3z"/>
	<path style="fill:#5F574A;" d="M301.2,236.7c1.5,0,1.7,1.3,1.7,2.8l0,0c0,1.5-0.1,2.8-1.7,2.8h-1.9c-1.5,0-2.8-1.3-2.8-2.8l0,0
		c0-1.5,1.3-2.8,2.8-2.8H301.2z"/>
	<path style="fill:#5F574A;" d="M315.4,256.5c0-1.5,1.3-1.7,2.8-1.7l0,0c1.5,0,2.8,0.1,2.8,1.7v1.9c0,1.5-1.3,2.8-2.8,2.8l0,0
		c-1.5,0-2.8-1.3-2.8-2.8V256.5z"/>
	<path style="fill:#5F574A;" d="M321,222.4c0,1.5-1.3,1.7-2.8,1.7l0,0c-1.5,0-2.8-0.1-2.8-1.7v-1.9c0-1.5,1.3-2.8,2.8-2.8l0,0
		c1.5,0,2.8,1.3,2.8,2.8V222.4z"/>
</g>
<path style="opacity:0.2;fill:#FAF6F3;enable-background:new    ;" d="M97.9,284.2c-2.8,0-5-2.2-5-5v-80.9c0-2.8,2.2-5,5-5h303.3
	c2.7,0,5,2.2,5,5L97.9,284.2z"/>
<path style="fill:#443B30;" d="M99.3,161.2c0-2.7,2.2-4.9,4.9-4.9h288.3c2.7,0,4.9,2.2,4.9,4.9v32.2h1.7v-32.2
	c0-3.6-2.9-6.5-6.5-6.5H104.1c-3.6,0-6.5,2.9-6.5,6.5v32.2h1.7V161.2z"/>
<g>
</g>
<g>
</g>
<g>
</g>
<g>
</g>
<g>
</g>
<g>
</g>
<g>
</g>
<g>
</g>
<g>
</g>
<g>
</g>
<g>
</g>
<g>
</g>
<g>
</g>
<g>
</g>
<g>
</g>
</svg>
