<?xml version="1.0" encoding="iso-8859-1"?>
<!-- Generator: Adobe Illustrator 19.0.0, SVG Export Plug-In . SVG Version: 6.00 Build 0)  -->
<svg version="1.1" id="Layer_1" xmlns="http://www.w3.org/2000/svg" xmlns:xlink="http://www.w3.org/1999/xlink" x="0px" y="0px"
	 viewBox="0 0 496.2 496.2" style="enable-background:new 0 0 496.2 496.2;" xml:space="preserve">
<path style="fill:#FABC3D;" d="M496.2,248.1C496.2,111.1,385.1,0,248.1,0S0,111.1,0,248.1s111.1,248.1,248.1,248.1
	S496.2,385.1,496.2,248.1z"/>
<g>
	<path style="fill:#3A3A38;" d="M400,255.8c0,1.2-0.9,2.1-2.1,2.1h-12.5c-1.2,0-2.1-0.9-2.1-2.1v-18.5c0-1.2,0.9-2.1,2.1-2.1h12.5
		c1.2,0,2.1,0.9,2.1,2.1V255.8z"/>
	<path style="fill:#3A3A38;" d="M75.1,325.8h-2.6c0-48.3,20.2-63.5,41.9-72.7c46.4-19.6,115.2-27.4,164.8-30.4
		c58.4-3.6,107.9-1.6,121.2,1.1c9,1.9,14.7,5.2,16.7,9.7c1.2,2.9,0.8,6.1-1.2,9.4c-4.6,7.4-19,5-19.6,4.9l0.4-2.5
		c0.1,0,13.3,2.2,16.9-3.7c1.6-2.6,1.9-4.9,1-7c-1.5-3.6-6.8-6.5-14.8-8.1c-28-5.8-200.6-6.4-284.5,29.1
		C94.5,264.4,75.1,279,75.1,325.8z"/>
	<path style="fill:#3A3A38;" d="M97.1,326c-0.1-0.8-1.8-20.9,9.6-42.7c10.5-20.1,34.7-45.4,90-51.7l0.3,2.6
		c-42.9,4.9-73.3,22.2-87.9,50.2c-11.1,21.2-9.4,41.2-9.4,41.4L97.1,326z"/>
</g>
<path style="fill:#111111;" d="M113.8,359.2c0.1-6.7-0.6-12.1-5.5-12.2s-12.4,5.4-12.5,12.1s7.2,12.1,12.2,12.2
	C113.2,371.4,113.8,365.9,113.8,359.2z"/>
<path style="fill:#3A3A38;" d="M111.2,347.9c0,0-0.8,5.1-0.8,11.6s0.7,10.8,0.7,10.8c-0.8,0.6-1.8,0.9-3,0.9c-4.5,0-10.6-4.2-12-9.8
	c-0.1-0.2-0.1-0.4-0.2-0.7c-0.3-1.6-0.7-4.4-0.7-5.7c-0.1-5.4,0-18.2,0-18.2h5.8v9.5c0.1,0.8,0.3,2.6,2,2.1c1.8-1,3.7-1.5,5.2-1.5
	C109.5,347.1,110.4,347.4,111.2,347.9z"/>
<path style="fill:#2D2D29;" d="M111.2,347.9c0,0-0.8,5.1-0.8,11.6s0.7,10.8,0.7,10.8c-0.8,0.6-1.8,0.9-3,0.9c-0.6,0-1.2-0.1-1.8-0.2
	c0,0-0.6-6.9-0.6-11.5c0-4.7,0.6-12.2,0.6-12.2c0.7-0.2,1.4-0.3,2-0.3C109.5,347.1,110.4,347.4,111.2,347.9z"/>
<path style="fill:#111111;" d="M110.9,359.6c0,2,0.1,3.9,0.1,5.5c0.1,2.2,0.3,3.9,0.4,5c-0.3,0.3-0.4,0.3-0.4,0.3s-0.3-1.6-0.5-4.4
	c-0.1-1.7-0.2-3.9-0.2-6.4c0-6.5,0.8-11.5,0.8-11.6c0.1,0.1,0.3,0.2,0.4,0.3C111.3,350.3,110.9,354.5,110.9,359.6z"/>
<g>
	<rect x="95.3" y="324.8" style="fill:#3A3A38;" width="5.8" height="13"/>
	<path style="fill:#3A3A38;" d="M76.6,349c0-16.6,0-12.1,0-12.1h-5.8V349H76.6z"/>
</g>
<g>
	<circle style="fill:#2D2D29;" cx="73.6" cy="359" r="12.3"/>
	<circle style="fill:#2D2D29;" cx="73.6" cy="359" r="11.5"/>
</g>
<circle style="fill:#111111;" cx="73.6" cy="359" r="10.5"/>
<g>
	<circle style="fill:#020202;" cx="73.6" cy="359" r="5"/>
	<path style="fill:#020202;" d="M64,363.1c0,0,2.4,0.4,2.4-4c0-4.3-2.5-4-2.5-4c-0.5,1.2-0.7,2.5-0.7,3.9
		C63.2,360.5,63.5,361.9,64,363.1z"/>
	<path style="fill:#020202;" d="M83.3,363.1c0,0-2.4,0.4-2.4-4c0-4.3,2.5-4,2.5-4c0.5,1.2,0.7,2.5,0.7,3.9
		C84.1,360.5,83.8,361.9,83.3,363.1z"/>
	<path style="fill:#020202;" d="M77.7,368.7c0,0,0.4-2.4-4-2.4c-4.3,0-4,2.5-4,2.5c1.2,0.5,2.5,0.7,3.9,0.7
		C75.1,369.5,76.5,369.2,77.7,368.7z"/>
	<path style="fill:#020202;" d="M77.8,349.4c0,0,0.4,2.4-4,2.4c-4.3,0-4-2.5-4-2.5c1.2-0.5,2.5-0.7,3.9-0.7
		C75.1,348.5,76.5,348.8,77.8,349.4z"/>
</g>
<rect x="70.7" y="324.8" style="fill:#3A3A38;" width="5.8" height="13"/>
<path style="fill:#6283B2;" d="M389.7,248.1c0-78.2-63.4-141.6-141.6-141.6s-141.6,63.4-141.6,141.6s63.4,141.6,141.6,141.6
	S389.7,326.3,389.7,248.1z"/>
<path style="fill:#516FA3;" d="M366.9,248.1c0-65.6-53.2-118.8-118.8-118.8s-118.8,53.2-118.8,118.8s53.2,118.8,118.8,118.8
	S366.9,313.7,366.9,248.1z"/>
<path style="fill:#3E5C87;" d="M288.3,301.9c-7.4,0-11.9-0.4-15.7-0.4c-3.9,0-8.2-8.1-24.5-8.1s-21.3,8.1-24.5,8.1
	s-8.3,0.4-15.7,0.4c-9.1,0-16.5,7.4-16.5,16.5s7.4,16.5,16.5,16.5c7.4,0,12.5,0,15.7,0s7,8.5,24.5,8.5s21.6-8.5,24.5-8.5
	c2.8,0,8.3,0,15.7,0c9.1,0,16.5-7.4,16.5-16.5C304.8,309.2,297.4,301.9,288.3,301.9z"/>
<path style="fill:#D9DBDA;" d="M248.1,144.8c-29,0-43.6,9.8-43.7,33.3c-0.1,23.6,24.2,67.9,43.7,67.9s43.7-44.1,43.7-67.7
	S277.2,144.8,248.1,144.8z"/>
<path style="fill:#E8E8E8;" d="M248.1,147.1c-27.7,0-41.6,9.3-41.7,31.8c-0.1,22.5,23.1,64.8,41.7,64.8s41.7-42.1,41.7-64.6
	S275.9,147.1,248.1,147.1z"/>
<path style="fill:#637D7A;" d="M278.1,180.7c0,2.6-2.1,4.8-4.8,4.8H223c-2.6,0-4.8-2.1-4.8-4.8v-16.6c0-2.6,2.1-4.8,4.8-4.8h50.3
	c2.6,0,4.8,2.1,4.8,4.8V180.7z"/>
<circle style="fill:#D9DBDA;" cx="248.1" cy="318.3" r="20.8"/>
<circle style="fill:#BCBCBC;" cx="248.1" cy="318.3" r="12.1"/>
<circle style="fill:#E8E8E8;" cx="248.1" cy="318.3" r="10.5"/>
<path style="fill:#B6B7B6;" d="M254.4,317.9l-8.7-5.4c-0.2-0.1-0.6-0.2-0.8,0c-0.2,0.1-0.4,0.4-0.4,0.7v10.7c0,0.3,0.2,0.5,0.4,0.7
	c0.1,0.1,0.3,0.1,0.4,0.1c0.1,0,0.3,0,0.4-0.1l8.7-5.3c0.2-0.1,0.4-0.4,0.4-0.7C254.8,318.3,254.7,318,254.4,317.9z"/>
<circle style="fill:#D9DBDA;" cx="288.3" cy="318.3" r="13"/>
<circle style="fill:#BCBCBC;" cx="288.3" cy="318.3" r="7.6"/>
<circle style="fill:#E8E8E8;" cx="288.3" cy="318.3" r="6.5"/>
<circle style="fill:#D9DBDA;" cx="207.9" cy="318.3" r="13"/>
<circle style="fill:#BCBCBC;" cx="207.9" cy="318.3" r="7.6"/>
<circle style="fill:#E8E8E8;" cx="207.9" cy="318.3" r="6.5"/>
<g>
</g>
<g>
</g>
<g>
</g>
<g>
</g>
<g>
</g>
<g>
</g>
<g>
</g>
<g>
</g>
<g>
</g>
<g>
</g>
<g>
</g>
<g>
</g>
<g>
</g>
<g>
</g>
<g>
</g>
</svg>
