<?xml version="1.0" encoding="iso-8859-1"?>
<!-- Generator: Adobe Illustrator 19.0.0, SVG Export Plug-In . SVG Version: 6.00 Build 0)  -->
<svg version="1.1" id="Layer_1" xmlns="http://www.w3.org/2000/svg" xmlns:xlink="http://www.w3.org/1999/xlink" x="0px" y="0px"
	 viewBox="0 0 496.2 496.2" style="enable-background:new 0 0 496.2 496.2;" xml:space="preserve">
<path style="fill:#32BEA6;" d="M496.2,248.1C496.2,111.1,385.1,0,248.1,0S0,111.1,0,248.1s111.1,248.1,248.1,248.1
	S496.2,385.1,496.2,248.1z"/>
<path style="fill:#F6A2A3;" d="M312.2,140.9c0,44.3-24.3,88.7-54.4,88.7c-30,0-54.4-44.5-54.4-88.7s24.3-71.5,54.4-71.5
	S312.2,96.7,312.2,140.9z"/>
<path style="fill:#E84849;" d="M298.6,156.6c0,32.4-17.8,63-39.8,63S219,189,219,156.6c0-32.5,17.8-54.4,39.8-54.4
	C280.8,102.1,298.6,124.1,298.6,156.6z"/>
<path style="fill:#F6A2A3;" d="M386,233.4c-35.2,26.7-85.3,34.3-103.5,10.3c-18.2-23.9,2.5-70.2,37.8-96.9
	c35.2-26.8,71.7-23.9,89.8,0C428.2,170.8,421.2,206.6,386,233.4z"/>
<path style="fill:#E84849;" d="M365.3,232c-25.8,19.6-61,23.9-74.3,6.4s0.3-50.2,26.1-69.8c25.9-19.6,54.2-18.7,67.5-1.2
	C397.8,184.9,391.1,212.4,365.3,232z"/>
<path style="fill:#F6A2A3;" d="M236.8,374.6c-17.3-40.7-12.3-91.2,15.4-102.9c27.6-11.7,67.4,19.7,84.7,60.4s5.5,75.3-22.1,87.1
	C287.1,430.9,254,415.3,236.8,374.6z"/>
<path style="fill:#E84849;" d="M243.1,354.8c-12.7-29.9-8.2-65,12.1-73.6c20.2-8.6,48.6,12.6,61.3,42.4
	c12.7,29.9,4.8,57.1-15.4,65.7C280.8,398,255.8,384.7,243.1,354.8z"/>
<path style="fill:#F6A2A3;" d="M134.3,216.9c44.2-0.5,89,23.2,89.3,53.3c0.4,30-43.8,54.9-88,55.4c-44.3,0.5-71.8-23.5-72.2-53.5
	C63,242.1,90,217.5,134.3,216.9z"/>
<path style="fill:#E84849;" d="M150.1,230.3c32.4-0.4,63.2,17.1,63.5,39.1c0.2,22-30.1,40.2-62.6,40.6
	c-32.4,0.4-54.6-17.2-54.9-39.2C95.9,248.8,117.6,230.7,150.1,230.3z"/>
<path style="fill:#F6A2A3;" d="M204.5,133.8c31.6,30.9,46.5,79.4,25.5,100.8c-21,21.5-69.8,7.9-101.4-23
	c-31.7-30.9-34.2-67.4-13.2-88.8C136.3,101.2,172.9,102.9,204.5,133.8z"/>
<path style="fill:#E84849;" d="M206.2,154.5c23.2,22.6,32.6,56.7,17.3,72.5c-15.4,15.7-49.7,7.2-72.9-15.5s-26.5-50.8-11.1-66.5
	C154.8,129.2,183,131.8,206.2,154.5z"/>
<path style="fill:#F6A2A3;" d="M357,355.3c-44.1-3.6-86.4-31.5-84-61.4s48.7-50.6,92.8-47s69.3,30,66.9,60
	C430.2,336.8,401,358.9,357,355.3z"/>
<path style="fill:#E84849;" d="M342.5,340.4c-32.3-2.6-61.4-22.9-59.6-44.8s33.7-37.2,66-34.6s52.8,22.2,51,44.1
	C398.1,327.1,374.8,343.1,342.5,340.4z"/>
<path style="fill:#F6A2A3;" d="M139.8,336.7c16.6-41,55.8-73.1,83.6-61.8c27.8,11.3,33.8,61.5,17.2,102.6
	c-16.6,41-49.4,57.2-77.2,45.9C135.5,412.1,123.2,377.7,139.8,336.7z"/>
<path style="fill:#E84849;" d="M158.2,327.2c12.1-30,40.2-51.7,60.6-43.5c20.4,8.3,25.5,43.3,13.3,73.4
	c-12.1,30.1-36.9,43.8-57.3,35.5C154.4,384.4,146.1,357.3,158.2,327.2z"/>
<path style="fill:#F4D72F;" d="M173.5,267.9c0-34.9,31.9-63.3,71.4-63.3c39.4,0,71.4,28.3,71.4,63.3c0,34.9-32,63.3-71.4,63.3
	C205.5,331.2,173.5,302.9,173.5,267.9z"/>
<path style="fill:#E5CE27;" d="M197.9,267.9c0-23,21.1-41.7,47-41.7c26,0,47.1,18.7,47.1,41.7s-21.1,41.7-47.1,41.7
	S197.9,291,197.9,267.9z"/>
<g>
</g>
<g>
</g>
<g>
</g>
<g>
</g>
<g>
</g>
<g>
</g>
<g>
</g>
<g>
</g>
<g>
</g>
<g>
</g>
<g>
</g>
<g>
</g>
<g>
</g>
<g>
</g>
<g>
</g>
</svg>
