<?xml version="1.0" encoding="iso-8859-1"?>
<!-- Generator: Adobe Illustrator 19.0.0, SVG Export Plug-In . SVG Version: 6.00 Build 0)  -->
<svg version="1.1" id="Layer_1" xmlns="http://www.w3.org/2000/svg" xmlns:xlink="http://www.w3.org/1999/xlink" x="0px" y="0px"
	 viewBox="0 0 496.2 496.2" style="enable-background:new 0 0 496.2 496.2;" xml:space="preserve">
<path style="fill:#E04F5F;" d="M496.2,248.1C496.2,111.1,385.1,0,248.1,0S0,111.1,0,248.1s111.1,248.1,248.1,248.1
	S496.2,385.1,496.2,248.1z"/>
<g>
	<rect x="234.6" y="176.6" style="fill:#D8C805;" width="27.4" height="267.5"/>
	<path style="fill:#D8C805;" d="M265,243.5c0,2.9-1,5.3-4.9,5.3c-4,0-7.2-2.4-7.2-5.3c0-2.9,3.2-5.3,7.2-5.3
		C264.1,238.2,265,240.6,265,243.5z"/>
	<path style="fill:#D8C805;" d="M265,252.7c0,2.9-1,5.3-4.9,5.3c-4,0-7.2-2.4-7.2-5.3s3.2-5.3,7.2-5.3S265,249.8,265,252.7z"/>
	<path style="fill:#D8C805;" d="M248.1,128.9c-21.2,0-38.4-17.2-38.4-38.4s17.2-38.4,38.4-38.4s38.4,17.2,38.4,38.4
		S269.3,128.9,248.1,128.9z M248.1,68.6c-12.1,0-21.9,9.8-21.9,22c0,12.1,9.8,21.9,21.9,21.9c12.1,0,22-9.8,22-21.9
		C270.1,78.4,260.2,68.6,248.1,68.6z"/>
	<path style="fill:#D8C805;" d="M308.6,189.4c-21.2,0-38.4-17.2-38.4-38.4s17.2-38.4,38.4-38.4c21.2,0,38.4,17.2,38.4,38.4
		S329.8,189.4,308.6,189.4z M308.6,129c-12.1,0-22,9.8-22,21.9c0,12.1,9.8,22,22,22c12.1,0,22-9.8,22-22
		C330.5,138.9,320.7,129,308.6,129z"/>
	<path style="fill:#D8C805;" d="M187.6,189.4c-21.2,0-38.4-17.2-38.4-38.4s17.2-38.4,38.4-38.4S226,129.8,226,151
		S208.8,189.4,187.6,189.4z M187.6,129c-12.1,0-21.9,9.8-21.9,21.9c0,12.1,9.8,22,21.9,22c12.1,0,22-9.8,22-22
		C209.6,138.9,199.7,129,187.6,129z"/>
	
		<rect x="200.41" y="95.935" transform="matrix(-0.7071 -0.7071 0.7071 -0.7071 277.3734 337.8616)" style="fill:#D8C805;" width="16.5" height="31.1"/>
	
		<rect x="186.624" y="196.159" transform="matrix(-0.7071 -0.7071 0.7071 -0.7071 235.3321 506.2948)" style="fill:#D8C805;" width="71.799" height="16.5"/>
	<polygon style="fill:#D8C805;" points="256.8,232.9 245.2,221.3 293,173.5 304.6,185.1 	"/>
	
		<rect x="271.597" y="102.929" transform="matrix(-0.7072 -0.707 0.707 -0.7072 411.8715 392.9258)" style="fill:#D8C805;" width="31.4" height="16.5"/>
	<path style="fill:#D8C805;" d="M248.1,188.6c-2.1,0-4.2-0.8-5.8-2.4l-29.4-29.4c-1.5-1.5-2.4-3.6-2.4-5.8s0.9-4.3,2.4-5.8
		l29.4-29.4c3.2-3.2,8.4-3.2,11.6,0l29.4,29.4c3.2,3.2,3.2,8.4,0,11.6l-29.4,29.4C252.3,187.8,250.2,188.6,248.1,188.6z M230.4,151
		l17.7,17.7l17.7-17.7l-17.7-17.7L230.4,151z"/>
	<rect x="261" y="363.8" style="fill:#D8C805;" width="54.3" height="8"/>
	<rect x="275" y="376.8" style="fill:#D8C805;" width="22.1" height="8"/>
	<rect x="307.1" y="363.8" style="fill:#D8C805;" width="8" height="23.5"/>
	<rect x="275" y="364.2" style="fill:#D8C805;" width="8" height="20.6"/>
	<rect x="261" y="410.5" style="fill:#D8C805;" width="54.3" height="8"/>
	<rect x="275" y="397.5" style="fill:#D8C805;" width="22.1" height="8"/>
	<rect x="307.1" y="395" style="fill:#D8C805;" width="8" height="23.5"/>
	<rect x="275" y="397.6" style="fill:#D8C805;" width="8" height="20.6"/>
</g>
<path style="fill:#C9B60A;" d="M247.4,68.6V52.1c-20.9,0.4-37.8,17.4-37.8,38.4c0,2.6,0.3,5.1,0.7,7.5l-15.2,15.3
	c-2.4-0.5-4.9-0.7-7.5-0.7c-21.2,0-38.4,17.2-38.4,38.4s17.2,38.4,38.4,38.4c2.6,0,5.1-0.3,7.5-0.7l39.5,39.5v10.2
	c-2.6,0.6-3.3,2.7-3.3,5.2c0,2,0.4,3.7,1.9,4.6c-1.5,0.9-1.9,2.6-1.9,4.6c0,2.5,0.7,4.6,3.3,5.2v186.1h12.8v-276L230.3,151
	l17.1-17.1v-21.5c-11.8-0.4-21.3-10-21.3-21.9C226.2,78.6,235.6,69,247.4,68.6z M187.6,173c-12.1,0-21.9-9.8-21.9-22
	c0-12.1,9.8-21.9,21.9-21.9c12.1,0,22,9.8,22,21.9C209.6,163.1,199.7,173,187.6,173z M234.6,178.5v26.3l-23.5-23.4
	c5-3.9,9-8.9,11.6-14.7L234.6,178.5z M232.5,125.6l-9.8,9.8c-2.6-5.8-6.6-10.9-11.6-14.7l6.6-6.6C221.6,119,226.7,123,232.5,125.6z"
	/>
<g>
</g>
<g>
</g>
<g>
</g>
<g>
</g>
<g>
</g>
<g>
</g>
<g>
</g>
<g>
</g>
<g>
</g>
<g>
</g>
<g>
</g>
<g>
</g>
<g>
</g>
<g>
</g>
<g>
</g>
</svg>
