<?xml version="1.0" encoding="iso-8859-1"?>
<!-- Generator: Adobe Illustrator 19.0.0, SVG Export Plug-In . SVG Version: 6.00 Build 0)  -->
<svg version="1.1" id="Layer_1" xmlns="http://www.w3.org/2000/svg" xmlns:xlink="http://www.w3.org/1999/xlink" x="0px" y="0px"
	 viewBox="0 0 496.2 496.2" style="enable-background:new 0 0 496.2 496.2;" xml:space="preserve">
<path style="fill:#32BEA6;" d="M496.2,248.1C496.2,111.1,385.1,0,248.1,0S0,111.1,0,248.1s111.1,248.1,248.1,248.1
	S496.2,385.1,496.2,248.1z"/>
<rect x="141.2" y="353.2" style="fill:#EDE3B7;" width="213.8" height="34.6"/>
<rect x="141.2" y="113.9" style="fill:#E8D78E;" width="213.8" height="241.1"/>
<path style="fill:#D1C17C;" d="M329.3,132.2H166.9c-2.6,0-4.7,2.1-4.7,4.7v132.5c0,2.6,2.1,4.7,4.7,4.7h162.3c2.6,0,4.7-2.1,4.7-4.7
	V136.9C333.9,134.3,331.8,132.2,329.3,132.2z"/>
<path style="fill:#353535;" d="M324.5,262.4c0,0-5.7,6.2-76.5,6.2s-76.4-6.2-76.4-6.2s-3.6-6.2-3.6-59.4s3.6-59.7,3.6-59.7
	s6-6.2,76.4-6.2s76.5,6.2,76.5,6.2s3.6,7.3,3.6,59.7C328.2,255.4,324.5,262.4,324.5,262.4z"/>
<g>
	<path style="fill:#D1C17C;" d="M333.9,321.4c0,0.7-0.6,1.2-1.2,1.2h-20c-0.7,0-1.2-0.6-1.2-1.2v-12.8c0-0.7,0.6-1.2,1.2-1.2h20
		c0.7,0,1.2,0.6,1.2,1.2V321.4z"/>
	<path style="fill:#D1C17C;" d="M324.1,317.3c0,0.7-0.6,1.2-1.2,1.2h-74.3c-0.7,0-1.2-0.6-1.2-1.2v-5.1c0-0.7,0.6-1.2,1.2-1.2h74.3
		c0.7,0,1.2,0.6,1.2,1.2V317.3z"/>
</g>
<path style="fill:#E8D78E;" d="M331.3,319.1c0,0.5-0.4,0.9-0.9,0.9h-15.6c-0.5,0-0.9-0.4-0.9-0.9v-8.2c0-0.5,0.4-0.9,0.9-0.9h15.6
	c0.5,0,0.9,0.4,0.9,0.9V319.1z"/>
<path style="fill:#353535;" d="M331.3,319.1c0,0.5-0.4,0.9-0.9,0.9h-15.6c-0.5,0-0.9-0.4-0.9-0.9v-6.2h17.5v6.2H331.3z"/>
<rect x="313.9" y="313.4" style="fill:#48A1AF;" width="17.5" height="4.6"/>
<path style="fill:#353535;" d="M331.4,316.7h-80.9c-1.3,0-2.4-0.9-2.4-2s1.1-2,2.4-2h80.9V316.7z"/>
<rect x="151.4" y="328.3" style="fill:#F2EAC9;" width="16.2" height="16.2"/>
<circle style="fill:#EB9783;" cx="159.6" cy="336.3" r="6.6"/>
<g>
</g>
<g>
</g>
<g>
</g>
<g>
</g>
<g>
</g>
<g>
</g>
<g>
</g>
<g>
</g>
<g>
</g>
<g>
</g>
<g>
</g>
<g>
</g>
<g>
</g>
<g>
</g>
<g>
</g>
</svg>
