<?xml version="1.0" encoding="iso-8859-1"?>
<!-- Generator: Adobe Illustrator 19.0.0, SVG Export Plug-In . SVG Version: 6.00 Build 0)  -->
<svg version="1.1" id="Layer_1" xmlns="http://www.w3.org/2000/svg" xmlns:xlink="http://www.w3.org/1999/xlink" x="0px" y="0px"
	 viewBox="0 0 496.2 496.2" style="enable-background:new 0 0 496.2 496.2;" xml:space="preserve">
<path style="fill:#4ABC96;" d="M496.2,248.1C496.2,111.1,385.1,0,248.1,0S0,111.1,0,248.1s111.1,248.1,248.1,248.1
	S496.2,385.1,496.2,248.1z"/>
<path style="fill:#3A3A38;" d="M315.8,414.8c0,7.2-5.8,13.1-13.1,13.1H193.4c-7.2,0-13.1-5.8-13.1-13.1V163.4
	c0-7.2,5.8-13.1,13.1-13.1h109.3c7.2,0,13.1,5.8,13.1,13.1V414.8z"/>
<path style="fill:#2D2D2C;" d="M306.6,401.8c0,6.2-5,11.3-11.3,11.3h-94.4c-6.2,0-11.3-5-11.3-11.3v-90.5c0-6.2,5-11.3,11.3-11.3
	h94.4c6.2,0,11.3,5,11.3,11.3V401.8z"/>
<path style="fill:#3A3A38;" d="M304.1,400c0,6-4.8,10.8-10.8,10.8h-90.5c-6,0-10.8-4.8-10.8-10.8v-87c0-6,4.8-10.8,10.8-10.8h90.5
	c6,0,10.8,4.8,10.8,10.8V400z"/>
<path style="fill:#262626;" d="M171.4,336.9c0-7,6.6-12.7,14.8-12.7h123.9c8.2,0,14.8,5.7,14.8,12.7v8H171.4V336.9z"/>
<path style="fill:#444442;" d="M315.8,416.2c0,7.2-5.8,13.1-13.1,13.1H193.4c-7.2,0-13.1-5.8-13.1-13.1l-9-71.3
	c0-7,6.6-12.7,14.8-12.7H310c8.2,0,14.8,5.7,14.8,12.7L315.8,416.2z"/>
<path style="fill:#333332;" d="M301.2,365.3c0,5.2-4.6,9.4-10.2,9.4h-85.7c-5.6,0-10.2-4.2-10.2-9.4l-1.9-11.5c0-5,4.7-9.1,10.6-9.1
	h88.7c5.9,0,10.6,4.1,10.6,9.1L301.2,365.3z"/>
<path style="fill:#262626;" d="M315.8,282c0,7.2-5.8,13.1-13.1,13.1H193.4c-7.2,0-13.1-5.8-13.1-13.1v-95.3h135.5V282z"/>
<path style="fill:#3A3A38;" d="M315.8,273c0,7.2-5.8,13.1-13.1,13.1H193.4c-7.2,0-13.1-5.8-13.1-13.1v-91.8
	c0-7.2,5.8-13.1,13.1-13.1h109.3c7.2,0,13.1,5.8,13.1,13.1V273z"/>
<path style="fill:#444442;" d="M308.8,275.9c0,1.8-1.5,3.3-3.3,3.3H191.1c-1.8,0-3.3-1.5-3.3-3.3v-31.1c0-1.8,1.5-3.3,3.3-3.3h114.3
	c1.8,0,3.3,1.5,3.3,3.3v31.1H308.8z"/>
<path style="fill:#9CB797;" d="M295.1,268.3c0,1.1-0.9,2-2,2h-90c-1.1,0-2-0.9-2-2v-15.5c0-1.1,0.9-2,2-2h90c1.1,0,2,0.9,2,2V268.3z
	"/>
<g>
	<path style="fill:#3A3A38;" d="M303.9,161.3c0,2.9-2.4,5.3-5.3,5.3h-20.4c-2.9,0-5.3-2.4-5.3-5.3v-30.1c0-2.9,2.4-5.3,5.3-5.3h20.4
		c2.9,0,5.3,2.4,5.3,5.3V161.3z"/>
	<path style="fill:#3A3A38;" d="M291.1,160.2c0,1.8-1.5,3.3-3.3,3.3l0,0c-1.8,0-3.3-1.5-3.3-3.3V40.5c0-1.8,1.5-3.3,3.3-3.3l0,0
		c1.8,0,3.3,1.5,3.3,3.3V160.2z"/>
	<path style="fill:#3A3A38;" d="M295.7,39.4c0,4.6-3.6,5.4-8,5.4s-8-0.8-8-5.4c0-4.7,3.6-5.4,8-5.4C292.1,34,295.7,34.8,295.7,39.4z
		"/>
</g>
<path style="fill:#545454;" d="M296,178.7c0,41.7-8.6,55.3-47.6,55.3s-47.6-14.6-47.6-55.3c0-17.4,21.3-16.1,47.6-16.1
	S296,161.2,296,178.7z"/>
<path style="fill:#4C4C4B;" d="M285.6,182.9c0,32.6-6.7,43.2-37.2,43.2s-37.2-11.4-37.2-43.2c0-13.6,16.7-12.5,37.2-12.5
	S285.6,169.3,285.6,182.9z"/>
<g>
	<circle style="fill:#3A3A38;" cx="248.1" cy="205.8" r="2.4"/>
	<circle style="fill:#3A3A38;" cx="256.9" cy="205.8" r="2.4"/>
	<circle style="fill:#3A3A38;" cx="239.3" cy="205.8" r="2.4"/>
	<circle style="fill:#3A3A38;" cx="248.1" cy="197.4" r="2.4"/>
	<circle style="fill:#3A3A38;" cx="256.9" cy="197.4" r="2.4"/>
	<circle style="fill:#3A3A38;" cx="239.3" cy="197.4" r="2.4"/>
	<circle style="fill:#3A3A38;" cx="248.1" cy="189" r="2.4"/>
	<circle style="fill:#3A3A38;" cx="256.9" cy="189" r="2.4"/>
	<circle style="fill:#3A3A38;" cx="239.3" cy="189" r="2.4"/>
</g>
<path style="fill:#898988;" d="M225.4,312.5c0,3.5-2.6,6.4-5.8,6.4H206c-3.2,0-5.8-2.9-5.8-6.4l0,0c0-3.5,2.6-6.4,5.8-6.4h13.6
	C222.9,306.1,225.4,309,225.4,312.5L225.4,312.5z"/>
<path style="fill:#2D2D2C;" d="M223.5,312.5c0,2.8-2.2,5-4.9,5h-11.5c-2.7,0-4.9-2.2-4.9-5l0,0c0-2.8,2.2-5,4.9-5h11.5
	C221.3,307.5,223.5,309.8,223.5,312.5L223.5,312.5z"/>
<path style="fill:#898988;" d="M261.4,312.5c0,3.5-2.6,6.4-5.8,6.4H242c-3.2,0-5.8-2.9-5.8-6.4l0,0c0-3.5,2.6-6.4,5.8-6.4h13.6
	C258.8,306.1,261.4,309,261.4,312.5L261.4,312.5z"/>
<path style="fill:#2D2D2C;" d="M259.4,312.5c0,2.8-2.2,5-4.9,5H243c-2.7,0-4.9-2.2-4.9-5l0,0c0-2.8,2.2-5,4.9-5h11.5
	C257.2,307.5,259.4,309.8,259.4,312.5L259.4,312.5z"/>
<path style="fill:#898988;" d="M297.3,312.5c0,3.5-2.6,6.4-5.8,6.4h-13.6c-3.2,0-5.8-2.9-5.8-6.4l0,0c0-3.5,2.6-6.4,5.8-6.4h13.6
	C294.7,306.1,297.3,309,297.3,312.5L297.3,312.5z"/>
<path style="fill:#2D2D2C;" d="M295.4,312.5c0,2.8-2.2,5-4.9,5H279c-2.7,0-4.9-2.2-4.9-5l0,0c0-2.8,2.2-5,4.9-5h11.5
	C293.2,307.5,295.4,309.8,295.4,312.5L295.4,312.5z"/>
<g>
</g>
<g>
</g>
<g>
</g>
<g>
</g>
<g>
</g>
<g>
</g>
<g>
</g>
<g>
</g>
<g>
</g>
<g>
</g>
<g>
</g>
<g>
</g>
<g>
</g>
<g>
</g>
<g>
</g>
</svg>
