<?xml version="1.0" encoding="iso-8859-1"?>
<!-- Generator: Adobe Illustrator 19.0.0, SVG Export Plug-In . SVG Version: 6.00 Build 0)  -->
<svg version="1.1" id="Layer_1" xmlns="http://www.w3.org/2000/svg" xmlns:xlink="http://www.w3.org/1999/xlink" x="0px" y="0px"
	 viewBox="0 0 496.2 496.2" style="enable-background:new 0 0 496.2 496.2;" xml:space="preserve">
<path style="fill:#4ABC96;" d="M496.2,248.1C496.2,111.1,385.1,0,248.1,0S0,111.1,0,248.1s111.1,248.1,248.1,248.1
	S496.2,385.1,496.2,248.1z"/>
<g>
	<path style="fill:#565654;" d="M142.4,145.7c0,3.3-2.2,6.1-5,6.1h-36.6c-2.7,0-5-2.7-5-6.1l0,0c0-3.3,2.2-6.1,5-6.1h36.6
		C140.2,139.6,142.4,142.3,142.4,145.7L142.4,145.7z"/>
	<path style="fill:#565654;" d="M395.2,145.7c0,3.3-2.2,6.1-5,6.1h-36.6c-2.7,0-5-2.7-5-6.1l0,0c0-3.3,2.2-6.1,5-6.1h36.6
		C393,139.6,395.2,142.3,395.2,145.7L395.2,145.7z"/>
	<path style="fill:#565654;" d="M208.9,143.6c0,2.2-1.5,4-3.2,4h-23.9c-1.8,0-3.2-1.8-3.2-4l0,0c0-2.2,1.5-4,3.2-4h23.9
		C207.4,139.6,208.9,141.4,208.9,143.6L208.9,143.6z"/>
</g>
<g>
	<path style="fill:#3A3A38;" d="M411.2,154.3c0-6.2-5-11.2-11.2-11.2H173.5l-6.8,8H96.3c-6.2,0-11.2,5-11.2,11.2v42.2h326.2v-50.2
		H411.2z"/>
	<path style="fill:#3A3A38;" d="M411.2,348H85v8.5c0,6.2,5,11.2,11.2,11.2H400c6.2,0,11.2-5,11.2-11.2V348z"/>
</g>
<rect x="85" y="204.5" style="fill:#E79E2F;" width="326.2" height="143.4"/>
<circle style="fill:#3A3A38;" cx="248.2" cy="278.4" r="72"/>
<path style="fill:#5B5B5B;" d="M197.2,227.5c28.1-28.1,73.7-28.1,101.9,0L197.2,329.3C169.1,301.2,169.1,255.6,197.2,227.5z"/>
<circle style="fill:#F8F8F8;" cx="248.2" cy="278.4" r="57.8"/>
<path style="fill:#FFFFFF;" d="M207.3,319.2c-22.6-22.6-22.6-59.1,0-81.7s59.1-22.6,81.7,0L207.3,319.2z"/>
<circle style="fill:#3A3A38;" cx="248.2" cy="278.4" r="42.8"/>
<path style="fill:#515151;" d="M217.9,308.7c-16.7-16.7-16.7-43.9,0-60.6s43.9-16.7,60.6,0L217.9,308.7z"/>
<circle style="fill:#212121;" cx="248.2" cy="278.4" r="34.2"/>
<path style="fill:#333333;" d="M224,302.6c-13.3-13.3-13.3-35,0-48.3c13.3-13.3,35-13.3,48.3,0L224,302.6z"/>
<circle style="fill:#162E30;" cx="248.2" cy="278.4" r="27.3"/>
<path style="fill:#224344;" d="M228.8,297.7c-10.7-10.7-10.7-28,0-38.6c10.7-10.7,28-10.7,38.6,0L228.8,297.7z"/>
<circle style="fill:#4C2844;" cx="248.2" cy="278.4" r="21.7"/>
<path style="fill:#63395B;" d="M232.8,293.8c-8.5-8.5-8.5-22.2,0-30.7s22.2-8.5,30.7,0L232.8,293.8z"/>
<circle style="fill:#F8F8F8;" cx="248.2" cy="278.4" r="14.3"/>
<rect x="214.5" y="128.5" style="fill:#E79E2F;" width="66.1" height="66.1"/>
<rect x="226" y="140" style="fill:#515151;" width="43.2" height="43.2"/>
<polygon style="fill:#727272;" points="226,140 269.1,140 226,183.1 "/>
<rect x="348.3" y="154.2" style="fill:#F8F8F8;" width="47.8" height="27"/>
<rect x="348.3" y="167.7" style="fill:#EDEBED;" width="47.8" height="13.5"/>
<g>
</g>
<g>
</g>
<g>
</g>
<g>
</g>
<g>
</g>
<g>
</g>
<g>
</g>
<g>
</g>
<g>
</g>
<g>
</g>
<g>
</g>
<g>
</g>
<g>
</g>
<g>
</g>
<g>
</g>
</svg>
