<?xml version="1.0" encoding="iso-8859-1"?>
<!-- Generator: Adobe Illustrator 19.0.0, SVG Export Plug-In . SVG Version: 6.00 Build 0)  -->
<svg version="1.1" id="Layer_1" xmlns="http://www.w3.org/2000/svg" xmlns:xlink="http://www.w3.org/1999/xlink" x="0px" y="0px"
	 viewBox="0 0 496.2 496.2" style="enable-background:new 0 0 496.2 496.2;" xml:space="preserve">
<path style="fill:#FABC3D;" d="M496.2,248.1C496.2,111.1,385.1,0,248.1,0S0,111.1,0,248.1s111.1,248.1,248.1,248.1
	S496.2,385.1,496.2,248.1z"/>
<g>
	<path style="fill:#3A3A38;" d="M424.3,131.8H71.9c-1.9,0-3.4,1.5-3.4,3.4v74.3c0,1.9,1.5,3.4,3.4,3.4h5.3V151c0-1.6,1.4-3,3-3H416
		c1.7,0,3,1.3,3,3v61.9h5.3c1.9,0,3.4-1.5,3.4-3.4v-74.3C427.7,133.3,426.2,131.8,424.3,131.8z"/>
	<path style="fill:#3A3A38;" d="M113,199.4c0,3-2.5,5.5-5.5,5.5H96.9c-3,0-5.5-2.5-5.5-5.5v-6.7c0-3,2.5-5.5,5.5-5.5h10.6
		c3,0,5.5,2.5,5.5,5.5V199.4z"/>
	<path style="fill:#3A3A38;" d="M135.4,199.4c0,3-2.5,5.5-5.5,5.5h-10.6c-3,0-5.5-2.5-5.5-5.5v-6.7c0-3,2.5-5.5,5.5-5.5h10.6
		c3,0,5.5,2.5,5.5,5.5V199.4z"/>
	<path style="fill:#3A3A38;" d="M157.9,205.6c0,3-2.5,5.5-5.5,5.5h-10.6c-3,0-5.5-2.5-5.5-5.5v-6.7c0-3,2.5-5.5,5.5-5.5h10.6
		c3,0,5.5,2.5,5.5,5.5V205.6z"/>
	<path style="fill:#3A3A38;" d="M180.2,205.6c0,3-2.5,5.5-5.5,5.5h-10.6c-3,0-5.5-2.5-5.5-5.5v-6.7c0-3,2.5-5.5,5.5-5.5h10.6
		c3,0,5.5,2.5,5.5,5.5V205.6z"/>
	<path style="fill:#3A3A38;" d="M202.8,199.4c0,3-2.5,5.5-5.5,5.5h-10.6c-3,0-5.5-2.5-5.5-5.5v-6.7c0-3,2.5-5.5,5.5-5.5h10.6
		c3,0,5.5,2.5,5.5,5.5V199.4z"/>
	<path style="fill:#3A3A38;" d="M225.2,199.4c0,3-2.5,5.5-5.5,5.5h-10.6c-3,0-5.5-2.5-5.5-5.5v-6.7c0-3,2.5-5.5,5.5-5.5h10.6
		c3,0,5.5,2.5,5.5,5.5V199.4z"/>
	<path style="fill:#3A3A38;" d="M247.7,199.4c0,3-2.5,5.5-5.5,5.5h-10.6c-3,0-5.5-2.5-5.5-5.5v-6.7c0-3,2.5-5.5,5.5-5.5h10.6
		c3,0,5.5,2.5,5.5,5.5V199.4z"/>
	<path style="fill:#3A3A38;" d="M270.1,199.4c0,3-2.5,5.5-5.5,5.5H254c-3,0-5.5-2.5-5.5-5.5v-6.7c0-3,2.5-5.5,5.5-5.5h10.6
		c3,0,5.5,2.5,5.5,5.5V199.4z"/>
	<path style="fill:#3A3A38;" d="M292.6,205.6c0,3-2.5,5.5-5.5,5.5h-10.6c-3,0-5.5-2.5-5.5-5.5v-6.7c0-3,2.5-5.5,5.5-5.5h10.6
		c3,0,5.5,2.5,5.5,5.5V205.6z"/>
	<path style="fill:#3A3A38;" d="M314.9,199.4c0,3-2.5,5.5-5.5,5.5h-10.6c-3,0-5.5-2.5-5.5-5.5v-6.7c0-3,2.5-5.5,5.5-5.5h10.6
		c3,0,5.5,2.5,5.5,5.5V199.4z"/>
	<path style="fill:#3A3A38;" d="M337.5,205.6c0,3-2.5,5.5-5.5,5.5h-10.6c-3,0-5.5-2.5-5.5-5.5v-6.7c0-3,2.5-5.5,5.5-5.5H332
		c3,0,5.5,2.5,5.5,5.5V205.6z"/>
	<path style="fill:#3A3A38;" d="M359.9,199.4c0,3-2.5,5.5-5.5,5.5h-10.6c-3,0-5.5-2.5-5.5-5.5v-6.7c0-3,2.5-5.5,5.5-5.5h10.6
		c3,0,5.5,2.5,5.5,5.5V199.4z"/>
	<path style="fill:#3A3A38;" d="M382.4,199.4c0,3-2.5,5.5-5.5,5.5h-10.6c-3,0-5.5-2.5-5.5-5.5v-6.7c0-3,2.5-5.5,5.5-5.5h10.6
		c3,0,5.5,2.5,5.5,5.5V199.4z"/>
	<path style="fill:#3A3A38;" d="M404.8,205.6c0,3-2.5,5.5-5.5,5.5h-10.6c-3,0-5.5-2.5-5.5-5.5v-6.7c0-3,2.5-5.5,5.5-5.5h10.6
		c3,0,5.5,2.5,5.5,5.5V205.6z"/>
</g>
<path style="fill:#68635C;" d="M417.4,195.7H78.8c-1.8,0-3.2,1.5-3.2,3.2v161.4c0,1.8,1.5,3.2,3.2,3.2h338.5c1.8,0,3.2-1.5,3.2-3.2
	V198.9C420.6,197.1,419.2,195.7,417.4,195.7z"/>
<rect x="207" y="195.7" style="fill:#7F796F;" width="82.1" height="167.9"/>
<circle style="fill:#544E48;" cx="224.3" cy="333.9" r="7.7"/>
<path style="fill:#2D2926;" d="M219.6,341.4c-0.4,0.4-1,0.4-1.3,0l-1.5-1.5c-0.4-0.4-0.4-1,0-1.3l12.2-12.2c0.4-0.4,1-0.4,1.3,0
	l1.5,1.5c0.4,0.4,0.4,1,0,1.3L219.6,341.4z"/>
<circle style="fill:#544E48;" cx="248.1" cy="333.9" r="7.7"/>
<path style="fill:#2D2926;" d="M246.1,325.3c0-0.5,0.4-0.9,0.9-0.9h2.1c0.5,0,0.9,0.4,0.9,0.9v17.2c0,0.5-0.4,0.9-0.9,0.9h-2
	c-0.5,0-0.9-0.4-0.9-0.9L246.1,325.3z"/>
<circle style="fill:#544E48;" cx="271.9" cy="333.9" r="7.7"/>
<path style="fill:#2D2926;" d="M280.5,332c0.5,0,0.9,0.4,0.9,0.9v2.1c0,0.5-0.4,0.9-0.9,0.9h-17.2c-0.5,0-0.9-0.4-0.9-0.9v-2.1
	c0-0.5,0.4-0.9,0.9-0.9H280.5z"/>
<path style="fill:#918D87;" d="M417.4,195.7H78.8c-1.8,0-3.2,1.5-3.2,3.2v25.4h345v-25.4C420.6,197.1,419.2,195.7,417.4,195.7z"/>
<rect x="75.6" y="224.3" style="fill:#232322;" width="345" height="3.3"/>
<circle style="fill:#AFA9A0;" cx="144.8" cy="294.9" r="58"/>
<circle style="fill:#2D2D2D;" cx="144.8" cy="294.9" r="49.7"/>
<path style="fill:#494949;" d="M95.1,294.9c0-27.5,22.3-49.7,49.7-49.7c0,0,0,48.6,0,49.2S95.1,294.9,95.1,294.9z"/>
<circle style="fill:#212120;" cx="144.8" cy="294.9" r="17.9"/>
<g>
	<rect x="90.2" y="282" style="fill:#AFA9A0;" width="109" height="4"/>
	<rect x="90.2" y="303.5" style="fill:#AFA9A0;" width="109" height="4"/>
	<circle style="fill:#AFA9A0;" cx="100.2" cy="210.2" r="11.7"/>
</g>
<circle style="fill:#2D2D2D;" cx="100.2" cy="210.2" r="10"/>
<path style="fill:#494949;" d="M90.2,210.2c0-5.5,4.5-10,10-10c0,0,0,9.8,0,9.9C100.2,210.2,90.2,210.2,90.2,210.2z"/>
<circle style="fill:#212120;" cx="100.2" cy="210.2" r="3.6"/>
<g>
	<rect x="89.2" y="207.6" style="fill:#AFA9A0;" width="21.9" height="0.8"/>
	<rect x="89.2" y="211.9" style="fill:#AFA9A0;" width="21.9" height="0.8"/>
	<circle style="fill:#AFA9A0;" cx="396.1" cy="210.2" r="11.7"/>
</g>
<circle style="fill:#2D2D2D;" cx="396.1" cy="210.2" r="10"/>
<path style="fill:#494949;" d="M386.1,210.2c0-5.5,4.5-10,10-10c0,0,0,9.8,0,9.9C396.1,210.2,386.1,210.2,386.1,210.2z"/>
<circle style="fill:#212120;" cx="396.1" cy="210.2" r="3.6"/>
<g>
	<rect x="385.1" y="207.6" style="fill:#AFA9A0;" width="21.9" height="0.8"/>
	<rect x="385.1" y="211.9" style="fill:#AFA9A0;" width="21.9" height="0.8"/>
	<circle style="fill:#AFA9A0;" cx="351.6" cy="294.9" r="58"/>
</g>
<circle style="fill:#2D2D2D;" cx="351.6" cy="294.9" r="49.7"/>
<path style="fill:#494949;" d="M301.9,294.9c0-27.5,22.3-49.7,49.7-49.7c0,0,0,48.6,0,49.2S301.9,294.9,301.9,294.9z"/>
<circle style="fill:#212120;" cx="351.6" cy="294.9" r="17.9"/>
<g>
	<rect x="297" y="282" style="fill:#AFA9A0;" width="109" height="4"/>
	<rect x="297" y="303.5" style="fill:#AFA9A0;" width="109" height="4"/>
</g>
<path style="fill:#999992;" d="M283.7,262h-71.5c-0.8,0-1.5,0.7-1.5,1.5v47.7c0,0.8,0.7,1.5,1.5,1.5h71.5c0.8,0,1.5-0.7,1.5-1.5
	v-47.7C285.3,262.7,284.6,262,283.7,262z"/>
<path style="fill:#3F3F3F;" d="M281.4,275.3h-66.8c-0.7,0-1.3,0.6-1.3,1.3v17.5c0,0.7,0.6,1.3,1.3,1.3h66.8c0.7,0,1.3-0.6,1.3-1.3
	v-17.5C282.7,275.9,282.1,275.3,281.4,275.3z"/>
<path style="fill:#212120;" d="M248.2,275.3h-31.4c-1.9,2.9-3,6.4-3,10.2c0,3.6,1,7,2.8,9.9h31.7c1.8-2.9,2.8-6.3,2.8-9.9
	C251.2,281.7,250.1,278.2,248.2,275.3z"/>
<circle style="fill:#F8F4F1;" cx="232.5" cy="285.5" r="7.9"/>
<circle style="fill:#E2D9D3;" cx="232.5" cy="285.5" r="7.1"/>
<circle style="fill:#F8F4F1;" cx="232.5" cy="285.5" r="6.7"/>
<path style="fill:#49433B;" d="M233.5,279.6h-1.9c-0.1,0-0.1,0.1-0.1,0.1v11.5c0,0.1,0.1,0.1,0.1,0.1h1.9c0.1,0,0.1-0.1,0.1-0.1
	v-11.5C233.6,279.6,233.6,279.6,233.5,279.6z"/>
<circle style="fill:#5F574A;" cx="232.5" cy="285.5" r="4.9"/>
<circle style="fill:#F8F4F1;" cx="232.5" cy="285.5" r="4.1"/>
<g>
	<path style="fill:#5F574A;" d="M233.2,281.7c0,0.3-0.3,0.4-0.6,0.4l0,0c-0.3,0-0.6,0-0.6-0.4v-0.4c0-0.3,0.3-0.6,0.6-0.6l0,0
		c0.3,0,0.6,0.3,0.6,0.6V281.7z"/>
	<path style="fill:#5F574A;" d="M231.9,289.3c0-0.3,0.3-0.4,0.6-0.4l0,0c0.3,0,0.6,0,0.6,0.4v0.4c0,0.3-0.3,0.6-0.6,0.6l0,0
		c-0.3,0-0.6-0.3-0.6-0.6V289.3z"/>
	<path style="fill:#5F574A;" d="M236.3,286.1c-0.3,0-0.4-0.3-0.4-0.6l0,0c0-0.3,0-0.6,0.4-0.6h0.4c0.3,0,0.6,0.3,0.6,0.6l0,0
		c0,0.3-0.3,0.6-0.6,0.6H236.3z"/>
	<path style="fill:#5F574A;" d="M228.8,284.9c0.3,0,0.4,0.3,0.4,0.6l0,0c0,0.3,0,0.6-0.4,0.6h-0.4c-0.3,0-0.6-0.3-0.6-0.6l0,0
		c0-0.3,0.3-0.6,0.6-0.6H228.8z"/>
	<path style="fill:#5F574A;" d="M235.7,283.3c-0.2,0.2-0.5,0.1-0.7-0.2l0,0c-0.2-0.2-0.4-0.5-0.2-0.7l0.3-0.3c0.2-0.2,0.6-0.2,0.9,0
		l0,0c0.2,0.2,0.2,0.6,0,0.9L235.7,283.3z"/>
	<path style="fill:#5F574A;" d="M229.5,287.7c0.2-0.2,0.5-0.1,0.7,0.2l0,0c0.2,0.2,0.4,0.5,0.2,0.7l-0.3,0.3c-0.2,0.2-0.6,0.2-0.9,0
		l0,0c-0.2-0.2-0.2-0.6,0-0.9L229.5,287.7z"/>
	<path style="fill:#5F574A;" d="M234.8,288.6c-0.2-0.2-0.1-0.5,0.2-0.7l0,0c0.2-0.2,0.5-0.4,0.7-0.2l0.3,0.3c0.2,0.2,0.2,0.6,0,0.9
		l0,0c-0.2,0.2-0.6,0.2-0.9,0L234.8,288.6z"/>
	<path style="fill:#5F574A;" d="M230.3,282.4c0.2,0.2,0.1,0.5-0.2,0.7l0,0c-0.2,0.2-0.5,0.4-0.7,0.2l-0.3-0.3
		c-0.2-0.2-0.2-0.6,0-0.9l0,0c0.2-0.2,0.6-0.2,0.9,0L230.3,282.4z"/>
</g>
<circle style="fill:#F8F4F1;" cx="263.5" cy="285.5" r="7.9"/>
<circle style="fill:#E2D9D3;" cx="263.5" cy="285.5" r="7.1"/>
<circle style="fill:#F8F4F1;" cx="263.5" cy="285.5" r="6.7"/>
<path style="fill:#49433B;" d="M268.4,282l-1.4-1.4c-0.1-0.1-0.1-0.1-0.2,0l-8.2,8.2c-0.1,0.1-0.1,0.1,0,0.2l1.4,1.4
	c0.1,0.1,0.1,0.1,0.2,0l8.2-8.2C268.4,282.1,268.4,282,268.4,282z"/>
<circle style="fill:#5F574A;" cx="263.5" cy="285.5" r="4.9"/>
<circle style="fill:#F8F4F1;" cx="263.5" cy="285.5" r="4.1"/>
<g>
	<path style="fill:#5F574A;" d="M266.6,283.3c-0.2,0.2-0.5,0.1-0.7-0.2l0,0c-0.2-0.2-0.4-0.5-0.2-0.7l0.3-0.3c0.2-0.2,0.6-0.2,0.9,0
		l0,0c0.2,0.2,0.2,0.6,0,0.9L266.6,283.3z"/>
	<path style="fill:#5F574A;" d="M260.4,287.7c0.2-0.2,0.5-0.1,0.7,0.2l0,0c0.2,0.2,0.4,0.5,0.2,0.7l-0.3,0.3c-0.2,0.2-0.6,0.2-0.9,0
		l0,0c-0.2-0.2-0.2-0.6,0-0.9L260.4,287.7z"/>
	<path style="fill:#5F574A;" d="M265.7,288.6c-0.2-0.2-0.1-0.5,0.2-0.7l0,0c0.2-0.2,0.5-0.4,0.7-0.2l0.3,0.3c0.2,0.2,0.2,0.6,0,0.9
		l0,0c-0.2,0.2-0.6,0.2-0.9,0L265.7,288.6z"/>
	<path style="fill:#5F574A;" d="M261.3,282.4c0.2,0.2,0.1,0.5-0.2,0.7l0,0c-0.2,0.2-0.5,0.4-0.7,0.2l-0.3-0.3
		c-0.2-0.2-0.2-0.6,0-0.9l0,0c0.2-0.2,0.6-0.2,0.9,0L261.3,282.4z"/>
	<path style="fill:#5F574A;" d="M267.3,286.1c-0.3,0-0.4-0.3-0.4-0.6l0,0c0-0.3,0-0.6,0.4-0.6h0.4c0.3,0,0.6,0.3,0.6,0.6l0,0
		c0,0.3-0.3,0.6-0.6,0.6H267.3z"/>
	<path style="fill:#5F574A;" d="M259.7,284.9c0.3,0,0.4,0.3,0.4,0.6l0,0c0,0.3,0,0.6-0.4,0.6h-0.4c-0.3,0-0.6-0.3-0.6-0.6l0,0
		c0-0.3,0.3-0.6,0.6-0.6H259.7z"/>
	<path style="fill:#5F574A;" d="M262.9,289.3c0-0.3,0.3-0.4,0.6-0.4l0,0c0.3,0,0.6,0,0.6,0.4v0.4c0,0.3-0.3,0.6-0.6,0.6l0,0
		c-0.3,0-0.6-0.3-0.6-0.6V289.3z"/>
	<path style="fill:#5F574A;" d="M264.1,281.7c0,0.3-0.3,0.4-0.6,0.4l0,0c-0.3,0-0.6,0-0.6-0.4v-0.4c0-0.3,0.3-0.6,0.6-0.6l0,0
		c0.3,0,0.6,0.3,0.6,0.6V281.7z"/>
</g>
<rect x="123.6" y="199.6" style="fill:#545454;" width="247.9" height="20.7"/>
<rect x="123.6" y="213.5" style="fill:#7CA52B;" width="247.9" height="3.5"/>
<path style="fill:#544E48;" d="M214.3,231.7c0-0.8,0.6-1.4,1.4-1.4h3c0.7,0,1.4,0.6,1.4,1.4v24.9c0,0.7-0.6,1.4-1.4,1.4h-3
	c-0.7,0-1.4-0.6-1.4-1.4V231.7z"/>
<path style="fill:#2D2926;" d="M220.5,241.3c0.8,0,1.4,0.6,1.4,1.4v3c0,0.7-0.6,1.4-1.4,1.4h-6.8c-0.8,0-1.4-0.6-1.4-1.4v-3
	c0-0.7,0.6-1.4,1.4-1.4H220.5z"/>
<path style="fill:#544E48;" d="M229.8,231.7c0-0.8,0.6-1.4,1.4-1.4h3c0.7,0,1.4,0.6,1.4,1.4v24.9c0,0.7-0.6,1.4-1.4,1.4h-3
	c-0.7,0-1.4-0.6-1.4-1.4V231.7z"/>
<path style="fill:#2D2926;" d="M236,235.8c0.8,0,1.4,0.6,1.4,1.4v3c0,0.7-0.6,1.4-1.4,1.4h-6.8c-0.8,0-1.4-0.6-1.4-1.4v-3
	c0-0.7,0.6-1.4,1.4-1.4H236z"/>
<path style="fill:#544E48;" d="M245.3,231.7c0-0.8,0.6-1.4,1.4-1.4h3c0.7,0,1.4,0.6,1.4,1.4v24.9c0,0.7-0.6,1.4-1.4,1.4h-3
	c-0.7,0-1.4-0.6-1.4-1.4L245.3,231.7z"/>
<path style="fill:#2D2926;" d="M251.5,247.5c0.8,0,1.4,0.6,1.4,1.4v3c0,0.7-0.6,1.4-1.4,1.4h-6.8c-0.8,0-1.4-0.6-1.4-1.4v-3
	c0-0.7,0.6-1.4,1.4-1.4H251.5z"/>
<path style="fill:#544E48;" d="M260.8,231.7c0-0.8,0.6-1.4,1.4-1.4h3c0.7,0,1.4,0.6,1.4,1.4v24.9c0,0.7-0.6,1.4-1.4,1.4h-3
	c-0.7,0-1.4-0.6-1.4-1.4V231.7z"/>
<path style="fill:#2D2926;" d="M267,239.1c0.8,0,1.4,0.6,1.4,1.4v3c0,0.7-0.6,1.4-1.4,1.4h-6.8c-0.8,0-1.4-0.6-1.4-1.4v-3
	c0-0.7,0.6-1.4,1.4-1.4H267z"/>
<path style="fill:#544E48;" d="M276.3,231.7c0-0.8,0.6-1.4,1.4-1.4h3c0.7,0,1.4,0.6,1.4,1.4v24.9c0,0.7-0.6,1.4-1.4,1.4h-3
	c-0.7,0-1.4-0.6-1.4-1.4V231.7z"/>
<path style="fill:#2D2926;" d="M282.5,251.8c0.8,0,1.4,0.6,1.4,1.4v3c0,0.7-0.6,1.4-1.4,1.4h-6.8c-0.8,0-1.4-0.6-1.4-1.4v-3
	c0-0.7,0.6-1.4,1.4-1.4H282.5z"/>
<g>
</g>
<g>
</g>
<g>
</g>
<g>
</g>
<g>
</g>
<g>
</g>
<g>
</g>
<g>
</g>
<g>
</g>
<g>
</g>
<g>
</g>
<g>
</g>
<g>
</g>
<g>
</g>
<g>
</g>
</svg>
