<?xml version="1.0" encoding="iso-8859-1"?>
<!-- Generator: Adobe Illustrator 19.0.0, SVG Export Plug-In . SVG Version: 6.00 Build 0)  -->
<svg version="1.1" id="Layer_1" xmlns="http://www.w3.org/2000/svg" xmlns:xlink="http://www.w3.org/1999/xlink" x="0px" y="0px"
	 viewBox="0 0 496.2 496.2" style="enable-background:new 0 0 496.2 496.2;" xml:space="preserve">
<path style="fill:#32BEA6;" d="M496.2,248.1C496.2,111.1,385.1,0,248.1,0S0,111.1,0,248.1s111.1,248.1,248.1,248.1
	S496.2,385.1,496.2,248.1z"/>
<g>
	<path style="fill:#EA4949;" d="M252.9,185.9c70.5-13,132.9,18.5,171.1,58.8l18.9-72.7c-36.3-46.4-108.8-70.3-186.9-55.9
		c-103.6,19-173.2,129.4-161.4,208.3c0-0.1,0-0.2,0-0.3C97.8,253.3,159.9,203,252.9,185.9z"/>
	<path style="fill:#EA4949;" d="M94.6,324.4c0-0.1,0-0.2,0-0.3c0.2-5.4,0.8-10.7,1.8-15.9c-1,2.9-1.8,5.9-2.6,8.9
		C93.9,319.6,94.2,322,94.6,324.4z"/>
	<path style="fill:#EA4949;" d="M90.6,336.3c0-0.1,0-0.2,0-0.3l0,0C90.6,336.1,90.6,336.2,90.6,336.3z"/>
	<path style="fill:#EA4949;" d="M94.6,287.7c-4.1,16.6-5.6,33-3.9,48.3c0.6-6.5,1.6-12.8,3.1-18.9C92.9,307.6,93.2,297.7,94.6,287.7
		z"/>
</g>
<path style="fill:#E5CF0A;" d="M260.7,221.5c59.8-3.9,115.1,43.8,146.3,88.8l20.6-79.5c-37.8-42.2-102-76.1-174.7-62.7
	c-93,17.1-155.1,85.1-158.4,156c0,0.1,0,0.2,0,0.3C113.3,270.1,180.1,226.7,260.7,221.5z"/>
<path style="fill:#4ABC96;" d="M273.7,204.1c-85.4,5.5-156.4,50.8-178,107.9c-0.6,4-0.9,8-1.1,12.1c0,0.1,0,0.2,0,0.3
	c18.7-54.3,85.5-97.7,166.1-102.9c59.8-3.9,115.1,43.8,146.3,88.8l8.2-31.5C380.4,237.6,328.8,200.6,273.7,204.1z"/>
<path style="fill:#FFF2A0;" d="M180.9,298.4c0.1-1,0.7-1.9,0.7-3c0-16.3-15.8-29.6-35.2-29.6c-2.5,0-4.8,0.8-7.2,1.2
	c-5.8-8.7-16.5-14.8-29.2-14.8c-16.5,0-29.6,10-32.7,23.1c-16,3.6-28,15.2-28,29.8c0,13.8,10.7,25.1,25.4,29.3
	c5,12.6,18.6,21.8,35.2,21.8c15.1,0,27.8-7.5,33.8-18.3c3.9,1.4,8.1,2.3,12.6,2.3c17.2,0,31.2-11.8,31.2-26.3
	C187.6,308,184.8,302.8,180.9,298.4z"/>
<g>
</g>
<g>
</g>
<g>
</g>
<g>
</g>
<g>
</g>
<g>
</g>
<g>
</g>
<g>
</g>
<g>
</g>
<g>
</g>
<g>
</g>
<g>
</g>
<g>
</g>
<g>
</g>
<g>
</g>
</svg>
