<?xml version="1.0" encoding="iso-8859-1"?>
<!-- Generator: Adobe Illustrator 19.0.0, SVG Export Plug-In . SVG Version: 6.00 Build 0)  -->
<svg version="1.1" id="Layer_1" xmlns="http://www.w3.org/2000/svg" xmlns:xlink="http://www.w3.org/1999/xlink" x="0px" y="0px"
	 viewBox="0 0 496.2 496.2" style="enable-background:new 0 0 496.2 496.2;" xml:space="preserve">
<path style="fill:#E04F5F;" d="M496.2,248.1C496.2,111.1,385.1,0,248.1,0S0,111.1,0,248.1s111.1,248.1,248.1,248.1
	S496.2,385.1,496.2,248.1z"/>
<rect x="188.9" y="100.7" style="fill:#CCAB81;" width="118.4" height="42.2"/>
<rect x="359.7" y="112.7" style="fill:#CCCAC6;" width="24.5" height="18.3"/>
<polygon style="fill:#CCAB81;" points="307.3,142.9 323.1,134.4 323.1,109.1 307.3,100.7 "/>
<polygon style="fill:#DDBF9E;" points="336.1,139.3 322.6,134.4 322.6,109.1 336.1,104.3 "/>
<g>
	<polygon style="fill:#CCAB81;" points="336.1,139.3 360.5,133.1 360.5,110.4 336.1,104.3 	"/>
	<path style="fill:#CCAB81;" d="M431.8,195.3c0,0-3.7,13.7-41.6,13.7s-43.5-13.7-43.5-13.7v-28c0,0,22.8-13.7,43.5-13.7
		s41.6,13.7,41.6,13.7V195.3z"/>
</g>
<path style="fill:#E2E2E2;" d="M423.7,169.1c0,0-3,11.1-33.7,11.1s-35.2-11.1-35.2-11.1v-22.6c0,0,14.9-8.3,34.8-8.3
	s34.2,8.3,34.2,8.3v22.6H423.7z"/>
<g>
	<path style="fill:#CCCAC6;" d="M423.7,169.1c0,0-3,11.1-33.7,11.1s-35.2-11.1-35.2-11.1v-22.6c0,0,9.3,10.3,34.8,10.3
		s34.2-10.3,34.2-10.3v22.6H423.7z"/>
	<path style="fill:#CCCAC6;" d="M380.5,144.6v-37.8h18.3v37.8c0,0-4,2.3-8.8,2.3C385.3,146.8,380.5,144.6,380.5,144.6z"/>
	<path style="fill:#CCCAC6;" d="M407.3,120.4c0,8.2-6.7,14.9-14.9,14.9h-5.3c-8.2,0-14.9-6.7-14.9-14.9v-0.9
		c0-8.2,6.7-14.9,14.9-14.9h5.3c8.2,0,14.9,6.7,14.9,14.9L407.3,120.4L407.3,120.4z"/>
	<path style="fill:#CCCAC6;" d="M395.7,106.5c0,2.8-2.3,5.1-5.1,5.1h-1.8c-2.8,0-5.1-2.3-5.1-5.1v-0.4c0-2.8,2.3-5.1,5.1-5.1h1.8
		c2.8,0,5.1,2.3,5.1,5.1V106.5z"/>
</g>
<polygon style="fill:#CCAB81;" points="189.4,142.9 173.7,134.4 173.7,109.1 189.4,100.7 "/>
<polygon style="fill:#DDBF9E;" points="160.6,139.3 174.2,134.4 174.2,109.1 160.6,104.3 "/>
<path style="fill:#CCAB81;" d="M120.2,193.4c0,0,0.2,25.6,31.8,10.4l6.8-6.2l2.8,5.4L149,273l-2.9,1.6l-9.9-13.3
	c0,0-43.6-28.9-42.8-67.8h26.8V193.4z"/>
<path style="fill:#B69562;" d="M168.7,198.3c0,0,6.2,5.4,0.5,39.7c-5.8,34.3-13.4,37.4-13.4,37.4l-9.7-0.8l12.9-77.1L168.7,198.3z"
	/>
<rect x="112" y="112.7" style="fill:#CCCAC6;" width="26.8" height="18.3"/>
<path style="fill:#E2E2E2;" d="M75.2,174.4c0,0-5.7,20.7,30.9,20.7s32.7-20.7,32.7-20.7l9.3-15.1c0,0-17.8-16.4-41.5-16.4
	s-40.7,16.4-40.7,16.4L75.2,174.4z"/>
<g>
	<path style="fill:#CCCAC6;" d="M65.9,174.4c0,0,3.6,11.1,40.2,11.1s42-11.1,42-11.1v-15.1c0,0-11.1,10.3-41.5,10.3
		s-40.7-10.3-40.7-10.3V174.4z"/>
	<path style="fill:#CCCAC6;" d="M115.7,144.6v-37.8H97.4v37.8c0,0,4,2.3,8.8,2.3C110.9,146.8,115.7,144.6,115.7,144.6z"/>
	<path style="fill:#CCCAC6;" d="M89,120.4c0,8.2,6.7,14.9,14.9,14.9h5.3c8.2,0,14.9-6.7,14.9-14.9v-0.9c0-8.2-6.7-14.9-14.9-14.9
		h-5.3c-8.2,0-14.9,6.7-14.9,14.9C89,119.5,89,120.4,89,120.4z"/>
	<path style="fill:#CCCAC6;" d="M100.6,106.5c0,2.8,2.3,5.1,5.1,5.1h1.8c2.8,0,5.1-2.3,5.1-5.1v-0.4c0-2.8-2.3-5.1-5.1-5.1h-1.8
		c-2.8,0-5.1,2.3-5.1,5.1V106.5z"/>
</g>
<polygon style="fill:#CCAB81;" points="160.6,139.3 136.3,133.1 136.3,110.4 160.6,104.3 "/>
<g>
	<path style="fill:#3A3A38;" d="M325.1,180.1l4.6-65.4c0-0.7-0.6-1.2-1.3-1.2h-5.3c-0.4,0-0.7,0.1-0.9,0.4c-0.3,0.2-0.4,0.5-0.4,0.9
		l-7.8,65.8c0,0.3,0.2,6.4-4,10.8c-3.1,3.2-7.9,4.8-14.4,4.8h-94c-6.5,0-11.4-1.6-14.4-4.8c-4.2-4.4-4-10.6-4-10.9l-7.1-65.8
		c0-0.3-0.1-0.6-0.4-0.9c-0.3-0.2-0.6-0.4-0.9-0.4l-5.6-0.2c-0.7,0-1.3,0.6-1.3,1.2l4.2,65.6c-0.1,1.8,0,11.4,7,18.9
		c5.3,5.6,12.9,8.4,22.6,8.4h94c9.7,0,17.3-2.8,22.6-8.4C325.1,191.5,325.2,181.9,325.1,180.1z"/>
	<ellipse style="fill:#3A3A38;" cx="248.6" cy="379.4" rx="103.4" ry="52.2"/>
	<rect x="145.2" y="364.1" style="fill:#3A3A38;" width="206.8" height="15.9"/>
</g>
<g>
	<ellipse style="fill:#B69562;" cx="248.6" cy="364.5" rx="103.4" ry="52.2"/>
	<rect x="145.2" y="344.8" style="fill:#B69562;" width="206.8" height="19.6"/>
</g>
<g>
	<path style="fill:#545454;" d="M258.8,223.7c0-5.9-4.1-9.9-4.1-9.9h-12.6c0,0-4.1,4.1-4.1,9.9c0,37.3-21.3,62.9-21.3,62.9h63.4
		C280.1,286.6,258.8,260.9,258.8,223.7z"/>
	<circle style="fill:#545454;" cx="248.4" cy="204.6" r="15.5"/>
</g>
<ellipse style="fill:#CCAB81;" cx="248.6" cy="344.6" rx="103.4" ry="52.2"/>
<path style="fill:#B69562;" d="M181.5,337c0-30.7,30-55.6,67.1-55.6c37,0,67.1,24.9,67.1,55.6c0,40.3-30,55.6-67.1,55.6
	C211.6,392.6,181.5,377.4,181.5,337z"/>
<path style="fill:#373C36;" d="M181.5,328.8c0-30.4,30-55,67.1-55c37,0,67.1,24.6,67.1,55c0,41.2-30,55-67.1,55
	C211.6,383.8,181.5,370,181.5,328.8z"/>
<ellipse style="fill:#B69562;" cx="248.6" cy="325.1" rx="67.1" ry="51.3"/>
<ellipse style="fill:#CCAB81;" cx="248.6" cy="320.6" rx="67.1" ry="46.8"/>
<g>
	<path style="fill:#896F4C;" d="M204.4,293.1c0-4.7,3.8-8.5,8.5-8.5s8.5,3.8,8.5,8.5s-3.8,8.5-8.5,8.5
		C208.2,301.5,204.4,297.7,204.4,293.1z"/>
	<ellipse style="fill:#896F4C;" cx="235.6" cy="285.9" rx="8.5" ry="8.5"/>
	<path style="fill:#896F4C;" d="M257.8,287.1c0-4.7,3.8-8.5,8.5-8.5s8.5,3.8,8.5,8.5s-3.8,8.5-8.5,8.5S257.8,291.8,257.8,287.1z"/>
	<ellipse style="fill:#896F4C;" cx="248.6" cy="357" rx="9.1" ry="9.1"/>
	<path style="fill:#896F4C;" d="M213.1,352.4c0-5,4.1-9.1,9.1-9.1s9.1,4.1,9.1,9.1s-4.1,9.1-9.1,9.1
		C217.2,361.4,213.1,357.4,213.1,352.4z"/>
	<ellipse style="fill:#896F4C;" cx="201.1" cy="337.5" rx="9.1" ry="9.1"/>
	<ellipse style="fill:#896F4C;" cx="195.8" cy="312.6" rx="8.5" ry="8.5"/>
	<ellipse style="fill:#896F4C;" cx="284.9" cy="293.1" rx="8.5" ry="8.5"/>
	<ellipse style="fill:#896F4C;" cx="275" cy="352.4" rx="9.1" ry="9.1"/>
	<path style="fill:#896F4C;" d="M305.2,337.5c0-5-4.1-9.1-9.1-9.1s-9.1,4.1-9.1,9.1s4.1,9.1,9.1,9.1
		C301.2,346.5,305.2,342.5,305.2,337.5z"/>
	<ellipse style="fill:#896F4C;" cx="302.3" cy="312.6" rx="8.5" ry="8.5"/>
</g>
<ellipse style="fill:#B69562;" cx="248.6" cy="311.9" rx="45.7" ry="35"/>
<ellipse style="fill:#CCAB81;" cx="248.6" cy="308.8" rx="45.7" ry="31.9"/>
<path style="fill:#3A3A38;" d="M212.4,308.8c0-13.9,16.2-25.3,36.2-25.3s36.2,11.3,36.2,25.3c0,13.9-16.2,25.3-36.2,25.3
	S212.4,322.8,212.4,308.8z"/>
<ellipse style="fill:#CCAB81;" cx="248.6" cy="306.9" rx="23.4" ry="16.4"/>
<ellipse style="fill:#E5DEE5;" cx="248.6" cy="306.9" rx="19.5" ry="13.6"/>
<g>
</g>
<g>
</g>
<g>
</g>
<g>
</g>
<g>
</g>
<g>
</g>
<g>
</g>
<g>
</g>
<g>
</g>
<g>
</g>
<g>
</g>
<g>
</g>
<g>
</g>
<g>
</g>
<g>
</g>
</svg>
