<?xml version="1.0" encoding="iso-8859-1"?>
<!-- Generator: Adobe Illustrator 19.0.0, SVG Export Plug-In . SVG Version: 6.00 Build 0)  -->
<svg version="1.1" id="Layer_1" xmlns="http://www.w3.org/2000/svg" xmlns:xlink="http://www.w3.org/1999/xlink" x="0px" y="0px"
	 viewBox="0 0 496.2 496.2" style="enable-background:new 0 0 496.2 496.2;" xml:space="preserve">
<path style="fill:#E04F5F;" d="M496.2,248.1C496.2,111.1,385.1,0,248.1,0S0,111.1,0,248.1s111.1,248.1,248.1,248.1
	S496.2,385.1,496.2,248.1z"/>
<path style="fill:#3A3A38;" d="M259.6,140.5c0,6.3-5.1,11.5-11.5,11.5l0,0c-6.3,0-11.5-5.1-11.5-11.5l5.2-21.7V55.3
	c0-6.3,2.8-6.1,6.3-6.1l0,0c3.5,0,6.3-0.2,6.3,6.1v63.4L259.6,140.5z"/>
<path style="fill:#565655;" d="M243.1,46.5c-1.7,0-3.1,1.4-3.1,3.1v11.7c0,1.3,0.8,2.4,1.8,2.8v54.6l-5.2,21.7
	c0,6.2,5,11.3,11.1,11.4V46.5H243.1z"/>
<path style="fill:#F4EBE6;" d="M285.5,133.3h-74.9c-1.9,0-3.4,1.5-3.4,3.4v309.6c0,1.9,1.5,3.4,3.4,3.4h74.9c1.9,0,3.4-1.5,3.4-3.4
	V136.7C288.9,134.9,287.4,133.3,285.5,133.3z"/>
<path style="fill:#EADCD0;" d="M284.2,135.3H212c-1.8,0-3.3,1.5-3.3,3.3V429c0,1.8,1.5,3.3,3.3,3.3h72.2c1.8,0,3.3-1.5,3.3-3.3
	V138.6C287.5,136.8,286,135.3,284.2,135.3z"/>
<path style="fill:#F4EBE6;" d="M282.4,137.2h-68.7c-1.7,0-3.1,1.4-3.1,3.1v287.4c0,1.7,1.4,3.1,3.1,3.1h68.7c1.7,0,3.1-1.4,3.1-3.1
	V140.3C285.5,138.6,284.1,137.2,282.4,137.2z"/>
<path style="fill:#3A3A38;" d="M276.4,206.9h-56c-1.5,0-2.7,1.2-2.7,2.7v19.1c0,1.5,1.2,2.7,2.7,2.7h56c1.5,0,2.7-1.2,2.7-2.7v-19.1
	C279.1,208.2,277.9,206.9,276.4,206.9z"/>
<path style="fill:#EAE3DF;" d="M279.1,179.1c0,13.4-10.8,24.2-24.2,24.2h-13.1c-13.4,0-24.2-10.8-24.2-24.2V166
	c0-13.4,10.8-24.2,24.2-24.2h13.1c13.4,0,24.2,10.8,24.2,24.2V179.1z"/>
<path style="fill:#F4EBE6;" d="M268.2,176.8c0,8.6-7,15.6-15.6,15.6h-8.5c-8.6,0-15.6-7-15.6-15.6v-8.5c0-8.6,7-15.6,15.6-15.6h8.5
	c8.6,0,15.6,7,15.6,15.6V176.8z"/>
<g>
	<circle style="fill:#595959;" cx="248.3" cy="172.6" r="2"/>
	<circle style="fill:#595959;" cx="238.6" cy="172.6" r="2"/>
	<circle style="fill:#595959;" cx="258.1" cy="172.6" r="2"/>
	<circle style="fill:#595959;" cx="248.3" cy="162.7" r="2"/>
	<circle style="fill:#595959;" cx="238.6" cy="162.7" r="2"/>
	<circle style="fill:#595959;" cx="258.1" cy="162.7" r="2"/>
	<circle style="fill:#595959;" cx="248.3" cy="182.5" r="2"/>
	<circle style="fill:#595959;" cx="238.6" cy="182.5" r="2"/>
	<circle style="fill:#595959;" cx="258.1" cy="182.5" r="2"/>
	<circle style="fill:#595959;" cx="248.3" cy="172.6" r="2"/>
	<circle style="fill:#595959;" cx="243.6" cy="167.7" r="2"/>
	<circle style="fill:#595959;" cx="253.4" cy="167.7" r="2"/>
	<circle style="fill:#595959;" cx="243.6" cy="177.8" r="2"/>
	<circle style="fill:#595959;" cx="253.4" cy="177.8" r="2"/>
</g>
<path style="fill:#3A3A38;" d="M256.7,424.3c0,0.9-0.7,1.7-1.7,1.7h-13.4c-0.9,0-1.7-0.7-1.7-1.7v-3.8c0-0.9,0.7-1.7,1.7-1.7h13.5
	c0.9,0,1.7,0.7,1.7,1.7v3.8H256.7z"/>
<g>
	<path style="fill:#B7AD97;" d="M234.4,257.5c0,0.9-0.7,1.7-1.7,1.7h-13.4c-0.9,0-1.7-0.7-1.7-1.7v-11.2c0-0.9,0.7-1.7,1.7-1.7h13.4
		c0.9,0,1.7,0.7,1.7,1.7V257.5z"/>
	<path style="fill:#B7AD97;" d="M256.7,257.5c0,0.9-0.7,1.7-1.7,1.7h-13.4c-0.9,0-1.7-0.7-1.7-1.7v-11.2c0-0.9,0.7-1.7,1.7-1.7h13.5
		c0.9,0,1.7,0.7,1.7,1.7v11.2H256.7z"/>
	<path style="fill:#B7AD97;" d="M279.1,257.5c0,0.9-0.7,1.7-1.7,1.7H264c-0.9,0-1.7-0.7-1.7-1.7v-11.2c0-0.9,0.7-1.7,1.7-1.7h13.4
		c0.9,0,1.7,0.7,1.7,1.7V257.5z"/>
	<path style="fill:#B7AD97;" d="M234.4,277.5c0,0.9-0.7,1.7-1.7,1.7h-13.4c-0.9,0-1.7-0.7-1.7-1.7v-11.2c0-0.9,0.7-1.7,1.7-1.7h13.4
		c0.9,0,1.7,0.7,1.7,1.7V277.5z"/>
	<path style="fill:#B7AD97;" d="M256.7,277.5c0,0.9-0.7,1.7-1.7,1.7h-13.4c-0.9,0-1.7-0.7-1.7-1.7v-11.2c0-0.9,0.7-1.7,1.7-1.7h13.5
		c0.9,0,1.7,0.7,1.7,1.7v11.2H256.7z"/>
	<path style="fill:#B7AD97;" d="M279.1,277.5c0,0.9-0.7,1.7-1.7,1.7H264c-0.9,0-1.7-0.7-1.7-1.7v-11.2c0-0.9,0.7-1.7,1.7-1.7h13.4
		c0.9,0,1.7,0.7,1.7,1.7V277.5z"/>
	<path style="fill:#B7AD97;" d="M234.4,297.5c0,0.9-0.7,1.7-1.7,1.7h-13.4c-0.9,0-1.7-0.7-1.7-1.7v-11.2c0-0.9,0.7-1.7,1.7-1.7h13.4
		c0.9,0,1.7,0.7,1.7,1.7V297.5z"/>
	<path style="fill:#B7AD97;" d="M256.7,297.5c0,0.9-0.7,1.7-1.7,1.7h-13.4c-0.9,0-1.7-0.7-1.7-1.7v-11.2c0-0.9,0.7-1.7,1.7-1.7h13.5
		c0.9,0,1.7,0.7,1.7,1.7v11.2H256.7z"/>
	<path style="fill:#B7AD97;" d="M279.1,297.5c0,0.9-0.7,1.7-1.7,1.7H264c-0.9,0-1.7-0.7-1.7-1.7v-11.2c0-0.9,0.7-1.7,1.7-1.7h13.4
		c0.9,0,1.7,0.7,1.7,1.7V297.5z"/>
	<path style="fill:#B7AD97;" d="M234.4,317.5c0,0.9-0.7,1.7-1.7,1.7h-13.4c-0.9,0-1.7-0.7-1.7-1.7v-11.2c0-0.9,0.7-1.7,1.7-1.7h13.4
		c0.9,0,1.7,0.7,1.7,1.7V317.5z"/>
	<path style="fill:#B7AD97;" d="M256.7,317.5c0,0.9-0.7,1.7-1.7,1.7h-13.4c-0.9,0-1.7-0.7-1.7-1.7v-11.2c0-0.9,0.7-1.7,1.7-1.7h13.5
		c0.9,0,1.7,0.7,1.7,1.7v11.2H256.7z"/>
	<path style="fill:#B7AD97;" d="M279.1,317.5c0,0.9-0.7,1.7-1.7,1.7H264c-0.9,0-1.7-0.7-1.7-1.7v-11.2c0-0.9,0.7-1.7,1.7-1.7h13.4
		c0.9,0,1.7,0.7,1.7,1.7V317.5z"/>
	<path style="fill:#B7AD97;" d="M234.4,344.7c0,0.9-0.7,1.7-1.7,1.7h-13.4c-0.9,0-1.7-0.7-1.7-1.7v-11.2c0-0.9,0.7-1.7,1.7-1.7h13.4
		c0.9,0,1.7,0.7,1.7,1.7V344.7z"/>
	<path style="fill:#B7AD97;" d="M256.7,344.7c0,0.9-0.7,1.7-1.7,1.7h-13.4c-0.9,0-1.7-0.7-1.7-1.7v-11.2c0-0.9,0.7-1.7,1.7-1.7h13.5
		c0.9,0,1.7,0.7,1.7,1.7v11.2H256.7z"/>
</g>
<path style="fill:#EA4949;" d="M279.1,344.7c0,0.9-0.7,1.7-1.7,1.7H264c-0.9,0-1.7-0.7-1.7-1.7v-11.2c0-0.9,0.7-1.7,1.7-1.7h13.4
	c0.9,0,1.7,0.7,1.7,1.7V344.7z"/>
<g>
	<path style="fill:#B7AD97;" d="M234.4,364.7c0,0.9-0.7,1.7-1.7,1.7h-13.4c-0.9,0-1.7-0.7-1.7-1.7v-11.2c0-0.9,0.7-1.7,1.7-1.7h13.4
		c0.9,0,1.7,0.7,1.7,1.7V364.7z"/>
	<path style="fill:#B7AD97;" d="M256.7,364.7c0,0.9-0.7,1.7-1.7,1.7h-13.4c-0.9,0-1.7-0.7-1.7-1.7v-11.2c0-0.9,0.7-1.7,1.7-1.7h13.5
		c0.9,0,1.7,0.7,1.7,1.7v11.2H256.7z"/>
	<path style="fill:#B7AD97;" d="M279.1,364.7c0,0.9-0.7,1.7-1.7,1.7H264c-0.9,0-1.7-0.7-1.7-1.7v-11.2c0-0.9,0.7-1.7,1.7-1.7h13.4
		c0.9,0,1.7,0.7,1.7,1.7V364.7z"/>
	<path style="fill:#B7AD97;" d="M234.4,384.7c0,0.9-0.7,1.7-1.7,1.7h-13.4c-0.9,0-1.7-0.7-1.7-1.7v-11.2c0-0.9,0.7-1.7,1.7-1.7h13.4
		c0.9,0,1.7,0.7,1.7,1.7V384.7z"/>
	<path style="fill:#B7AD97;" d="M279.1,384.7c0,0.9-0.7,1.7-1.7,1.7H264c-0.9,0-1.7-0.7-1.7-1.7v-11.2c0-0.9,0.7-1.7,1.7-1.7h13.4
		c0.9,0,1.7,0.7,1.7,1.7V384.7z"/>
</g>
<path style="fill:#3A3A38;" d="M255.8,61.3c0,1.7-1.4,3.1-3.1,3.1h-9.6c-1.7,0-3.1-1.4-3.1-3.1V49.6c0-1.7,1.4-3.1,3.1-3.1h9.6
	c1.7,0,3.1,1.4,3.1,3.1V61.3z"/>
<g>
</g>
<g>
</g>
<g>
</g>
<g>
</g>
<g>
</g>
<g>
</g>
<g>
</g>
<g>
</g>
<g>
</g>
<g>
</g>
<g>
</g>
<g>
</g>
<g>
</g>
<g>
</g>
<g>
</g>
</svg>
