<?xml version="1.0" encoding="iso-8859-1"?>
<!-- Generator: Adobe Illustrator 19.0.0, SVG Export Plug-In . SVG Version: 6.00 Build 0)  -->
<svg version="1.1" id="Layer_1" xmlns="http://www.w3.org/2000/svg" xmlns:xlink="http://www.w3.org/1999/xlink" x="0px" y="0px"
	 viewBox="0 0 496.2 496.2" style="enable-background:new 0 0 496.2 496.2;" xml:space="preserve">
<path style="fill:#E04F5F;" d="M496.2,248.1C496.2,111.1,385.1,0,248.1,0S0,111.1,0,248.1s111.1,248.1,248.1,248.1
	S496.2,385.1,496.2,248.1z"/>
<path style="fill:#E5CF0A;" d="M369.6,150.9H142c-18.6,0-38,6-50.4,15.5c-1.1,0.8-0.1,2.5,2.5,2.5l-30.7,51.9
	c-5.6,17.6-8.1,34.5-9.2,45.5c-0.6,5.9-0.7,29.5-0.7,29.5h389C442.4,295.7,451.4,150.9,369.6,150.9z"/>
<path style="fill:#FFFFFF;" d="M182.8,213.3c0,4.1-3.3,7.4-7.3,7.4H98.6c-4.1,0-5.6-3.3-3.5-7.4l19.4-37.2c2.1-4.1,7.1-7.3,11.2-7.3
	h49.9c4.1,0,7.3,3.3,7.3,7.3v37.2H182.8z"/>
<path style="fill:#A3D5E0;" d="M179.4,211.2c0,3.6-2.9,6.5-6.5,6.5h-69.6c-3.6,0-5-2.9-3.1-6.5l17.1-32.8c1.9-3.6,6.3-6.5,9.9-6.5
	H173c3.6,0,6.5,2.9,6.5,6.5v32.8H179.4z"/>
<path style="fill:#C0E6ED;" d="M133.2,217.6h-29.9c-1.8,0-3-0.7-3.6-1.9s-0.4-2.8,0.5-4.6l17.1-32.8c1.9-3.6,6.3-6.5,9.9-6.5H173
	c1.8,0,3.4,0.7,4.6,1.9L133.2,217.6z"/>
<path style="fill:#FFFFFF;" d="M86,213.3l19.4-37.2c2.1-4.1,0.5-7.3-3.5-7.3h-7.8l-30.7,51.9h11.3C78.8,220.7,83.8,217.4,86,213.3z"
	/>
<path style="fill:#A3D5E0;" d="M83.6,211.4l17.4-33.3c1.9-3.6,0.5-6.6-3.2-6.6h-5.3L65,218h8.6C77.3,218,81.7,215.1,83.6,211.4z"/>
<path style="fill:#FFFFFF;" d="M375.8,213.3c0,4.1-3.3,7.4-7.3,7.4h-37.2c-4.1,0-7.4-3.3-7.4-7.4v-37.2c0-4.1,3.3-7.3,7.4-7.3h37.2
	c4.1,0,7.3,3.3,7.3,7.3V213.3z"/>
<path style="fill:#A3D5E0;" d="M373.1,211.4c0,3.6-2.9,6.6-6.6,6.6h-33.2c-3.6,0-6.6-2.9-6.6-6.6v-33.2c0-3.6,2.9-6.6,6.6-6.6h33.2
	c3.6,0,6.6,2.9,6.6,6.6V211.4z"/>
<path style="fill:#C0E6ED;" d="M328.6,216c-1.2-1.2-1.9-2.8-1.9-4.6v-33.2c0-3.6,2.9-6.6,6.6-6.6h33.2c1.7,0,3.2,0.6,4.4,1.7
	L328.6,216z"/>
<path style="fill:#FFFFFF;" d="M311.3,213.3c0,4.1-3.3,7.4-7.3,7.4h-37.2c-4.1,0-7.4-3.3-7.4-7.4v-37.2c0-4.1,3.3-7.3,7.4-7.3H304
	c4.1,0,7.3,3.3,7.3,7.3V213.3z"/>
<path style="fill:#A3D5E0;" d="M308.6,211.4c0,3.6-2.9,6.6-6.6,6.6h-33.2c-3.6,0-6.6-2.9-6.6-6.6v-33.2c0-3.6,2.9-6.6,6.6-6.6H302
	c3.6,0,6.6,2.9,6.6,6.6V211.4z"/>
<path style="fill:#C0E6ED;" d="M264.2,216c-1.2-1.2-1.9-2.8-1.9-4.6v-33.2c0-3.6,2.9-6.6,6.6-6.6h33.2c1.7,0,3.2,0.6,4.4,1.7
	L264.2,216z"/>
<path style="fill:#FFFFFF;" d="M247.7,213.3c0,4.1-3.3,7.4-7.3,7.4h-37.2c-4.1,0-7.4-3.3-7.4-7.4v-37.2c0-4.1,3.3-7.3,7.4-7.3h37.2
	c4.1,0,7.3,3.3,7.3,7.3V213.3z"/>
<path style="fill:#A3D5E0;" d="M245,211.4c0,3.6-2.9,6.6-6.6,6.6h-33.2c-3.6,0-6.6-2.9-6.6-6.6v-33.2c0-3.6,2.9-6.6,6.6-6.6h33.2
	c3.6,0,6.6,2.9,6.6,6.6V211.4z"/>
<path style="fill:#C0E6ED;" d="M200.5,216c-1.2-1.2-1.9-2.8-1.9-4.6v-33.2c0-3.6,2.9-6.6,6.6-6.6h33.2c1.7,0,3.2,0.6,4.4,1.7
	L200.5,216z"/>
<circle style="fill:#5B4F3F;" cx="386.1" cy="317.2" r="28.2"/>
<circle style="fill:#D8C805;" cx="386.1" cy="317.2" r="19.4"/>
<circle style="fill:#FFFFFF;" cx="386.1" cy="317.2" r="14.1"/>
<circle style="fill:#5B4F3F;" cx="115.2" cy="317.2" r="28.2"/>
<circle style="fill:#D8C805;" cx="115.2" cy="317.2" r="19.4"/>
<circle style="fill:#FFFFFF;" cx="115.2" cy="317.2" r="14.1"/>
<path style="fill:#578E0A;" d="M442.4,295.7c0,0,1.8-29.4-3.7-61.7c-66.3,0-236.4,0-285.4,0c-53,0-84.2,7.9-96.5,13.1
	c-1.3,7.3-2.2,13.9-2.7,19.1C53.6,272.1,442.4,295.7,442.4,295.7z"/>
<path style="fill:#64A80D;" d="M53.5,315.8h30.8l13.4-16.1h36.2l12.1,16.1h210.4l12.3-15.4h34.9l12.7,15.4h26.2
	c0,0,1.6-46.8-2.9-77.2c-70.4,0-239.2,0-288.4,0s-80.1,6.7-94.8,11.8c-1,6-1.7,11.3-2.1,15.7C53.6,272.1,53.5,315.8,53.5,315.8z"/>
<path style="fill:#F6A2A3;" d="M349.4,253.5c0,4.9-2.7,9.8-6,9.8s-6-4.9-6-9.8s2.7-7.9,6-7.9C346.8,245.6,349.4,248.6,349.4,253.5z"
	/>
<path style="fill:#E84849;" d="M347.9,255.3c0,3.6-2,7-4.4,7s-4.4-3.4-4.4-7s2-6,4.4-6C346,249.3,347.9,251.7,347.9,255.3z"/>
<path style="fill:#F6A2A3;" d="M356.9,261.9c-3.5,3.5-8.8,5-11.2,2.7c-2.3-2.3-0.8-7.7,2.7-11.2c3.4-3.5,7.5-3.7,9.8-1.3
	C360.6,254.5,360.4,258.5,356.9,261.9z"/>
<path style="fill:#E84849;" d="M354.7,262.1c-2.5,2.5-6.3,3.5-8,1.8s-0.7-5.5,1.8-8s5.6-2.9,7.4-1.1
	C357.5,256.5,357.2,259.6,354.7,262.1z"/>
<path style="fill:#F6A2A3;" d="M341.1,279.3c-1.9-4.5-1.4-10.1,1.7-11.4c3-1.3,7.4,2.2,9.3,6.7s0.6,8.3-2.4,9.6
	C346.7,285.5,343,283.8,341.1,279.3z"/>
<path style="fill:#E84849;" d="M341.8,277.1c-1.4-3.3-0.9-7.2,1.3-8.1c2.2-1,5.4,1.4,6.8,4.7c1.4,3.3,0.5,6.3-1.7,7.2
	C346,281.9,343.2,280.4,341.8,277.1z"/>
<path style="fill:#F6A2A3;" d="M329.8,261.9c4.9-0.1,9.8,2.6,9.9,5.9c0,3.3-4.8,6.1-9.7,6.1c-4.9,0.1-7.9-2.6-8-5.9
	S324.9,262,329.8,261.9z"/>
<path style="fill:#E84849;" d="M331.5,263.4c3.6,0,7,1.9,7,4.3s-3.3,4.4-6.9,4.5c-3.6,0-6-1.9-6.1-4.3
	C325.6,265.4,328,263.4,331.5,263.4z"/>
<path style="fill:#F6A2A3;" d="M337.6,252.7c3.5,3.4,5.1,8.8,2.8,11.1c-2.3,2.4-7.7,0.9-11.2-2.5s-3.8-7.4-1.5-9.8
	C330,249.2,334.1,249.3,337.6,252.7z"/>
<path style="fill:#E84849;" d="M337.7,255c2.6,2.5,3.6,6.3,1.9,8s-5.5,0.8-8-1.7c-2.6-2.5-2.9-5.6-1.2-7.3
	C332.1,252.2,335.2,252.5,337.7,255z"/>
<path style="fill:#F6A2A3;" d="M354.4,277.2c-4.9-0.4-9.5-3.5-9.3-6.8c0.3-3.3,5.4-5.6,10.2-5.2c4.9,0.4,7.6,3.3,7.4,6.6
	C362.5,275.1,359.2,277.6,354.4,277.2z"/>
<path style="fill:#E84849;" d="M352.8,275.6c-3.6-0.3-6.8-2.5-6.6-4.9c0.2-2.4,3.7-4.1,7.3-3.8c3.6,0.3,5.8,2.4,5.6,4.9
	C358.9,274.1,356.3,275.8,352.8,275.6z"/>
<path style="fill:#F6A2A3;" d="M330.4,275.1c1.8-4.5,6.2-8.1,9.2-6.8c3.1,1.2,3.7,6.8,1.9,11.3c-1.8,4.5-5.4,6.3-8.5,5.1
	C329.9,283.5,328.6,279.7,330.4,275.1z"/>
<path style="fill:#E84849;" d="M332.4,274.1c1.3-3.3,4.4-5.7,6.7-4.8c2.3,0.9,2.8,4.8,1.5,8.1c-1.3,3.3-4.1,4.8-6.3,3.9
	C332,280.4,331.1,277.4,332.4,274.1z"/>
<ellipse style="fill:#F4E028;" cx="342" cy="267.5" rx="7.9" ry="7"/>
<ellipse style="fill:#E5CE27;" cx="342" cy="267.5" rx="5.2" ry="4.6"/>
<path style="fill:#83B93D;" d="M257.6,300.6c-2.4-4.7-8.5-6.4-15.4-2.9c-0.4,0.2-0.8,0.4-1.2,0.7l0,0c2.4-7.3-0.1-13.2-5.1-14.8
	c-5-1.6-10.5,1.5-12.9,8.9c-0.2,0.5-0.3,1.1-0.5,1.6c-0.5-0.5-1-1.1-1.6-1.6c-5.8-5.1-12.2-5-15.6-1.1c-3.4,3.9-2.6,10,2.9,15
	c-6.7,0.8-10.7,4.7-10.8,9.4h55.7c-0.7-0.4-1.4-0.8-2.3-1.2C257.6,311.2,259.9,305.3,257.6,300.6z"/>
<path style="fill:#91C7CF;" d="M121,252c0,4.1-2.3,8.3-5.1,8.3s-5.1-4.1-5.1-8.3c0-4.1,2.3-6.7,5.1-6.7S121,247.9,121,252z"/>
<path style="fill:#48A1AF;" d="M119.7,253.5c0,3-1.7,5.9-3.7,5.9s-3.7-2.8-3.7-5.9c0-3,1.7-5.1,3.7-5.1S119.7,250.4,119.7,253.5z"/>
<path style="fill:#91C7CF;" d="M127.3,259.1c-2.9,2.9-7.4,4.2-9.4,2.3c-2-2-0.7-6.5,2.3-9.4c2.9-2.9,6.3-3.1,8.3-1.1
	C130.4,252.8,130.2,256.2,127.3,259.1z"/>
<path style="fill:#48A1AF;" d="M125.4,259.3c-2.1,2.1-5.3,3-6.8,1.5c-1.4-1.4-0.6-4.6,1.5-6.8c2.1-2.1,4.8-2.4,6.2-1
	C127.8,254.5,127.5,257.1,125.4,259.3z"/>
<path style="fill:#91C7CF;" d="M113.9,273.8c-1.6-3.8-1.1-8.5,1.4-9.6c2.6-1.1,6.3,1.8,7.9,5.6c1.6,3.8,0.5,7-2.1,8.1
	C118.6,279,115.5,277.6,113.9,273.8z"/>
<path style="fill:#48A1AF;" d="M114.5,271.9c-1.2-2.8-0.8-6.1,1.1-6.9s4.5,1.2,5.7,4s0.5,5.3-1.4,6.1
	C118,276,115.7,274.7,114.5,271.9z"/>
<path style="fill:#91C7CF;" d="M104.4,259.1c4.1-0.1,8.3,2.2,8.3,5s-4.1,5.1-8.2,5.2s-6.7-2.2-6.7-5
	C97.7,261.4,100.3,259.1,104.4,259.1z"/>
<path style="fill:#48A1AF;" d="M105.8,260.3c3,0,5.9,1.6,5.9,3.6c0,2.1-2.8,3.7-5.8,3.8c-3,0-5.1-1.6-5.1-3.7
	C100.8,262.1,102.8,260.4,105.8,260.3z"/>
<path style="fill:#91C7CF;" d="M110.9,251.3c2.9,2.9,4.3,7.4,2.4,9.4c-2,2-6.5,0.7-9.4-2.1c-3-2.9-3.2-6.3-1.2-8.3
	C104.6,248.3,108,248.5,110.9,251.3z"/>
<path style="fill:#48A1AF;" d="M111.1,253.3c2.2,2.1,3,5.3,1.6,6.8s-4.6,0.7-6.8-1.4c-2.2-2.1-2.5-4.7-1-6.2
	C106.3,250.9,108.9,251.2,111.1,253.3z"/>
<path style="fill:#91C7CF;" d="M125.1,272c-4.1-0.3-8.1-2.9-7.8-5.7c0.2-2.8,4.5-4.7,8.6-4.4c4.1,0.3,6.5,2.8,6.2,5.6
	C132,270.3,129.2,272.3,125.1,272z"/>
<path style="fill:#48A1AF;" d="M123.8,270.6c-3-0.2-5.7-2.1-5.6-4.2c0.2-2,3.1-3.5,6.2-3.2c3,0.2,4.9,2.1,4.8,4.1
	C129,269.4,126.8,270.8,123.8,270.6z"/>
<path style="fill:#91C7CF;" d="M104.9,270.2c1.5-3.8,5.2-6.8,7.8-5.8c2.6,1,3.1,5.7,1.6,9.6c-1.5,3.8-4.6,5.3-7.2,4.3
	C104.5,277.3,103.3,274.1,104.9,270.2z"/>
<path style="fill:#48A1AF;" d="M106.6,269.4c1.1-2.8,3.7-4.8,5.6-4.1c1.9,0.8,2.4,4,1.2,6.8c-1.1,2.8-3.4,4.1-5.3,3.3
	C106.2,274.7,105.5,272.2,106.6,269.4z"/>
<ellipse style="fill:#91C7CF;" cx="114.7" cy="263.8" rx="6.7" ry="5.9"/>
<ellipse style="fill:#D3E9EC;" cx="114.7" cy="263.8" rx="4.4" ry="3.9"/>
<path style="fill:#F6A2A3;" d="M185.2,262c-3.6,6-10.6,10.1-14.7,7.6c-4.1-2.5-3.7-10.5-0.1-16.5c3.6-6,9.2-7.7,13.3-5.3
	C187.8,250.3,188.9,256,185.2,262z"/>
<path style="fill:#E84849;" d="M182.1,263c-2.7,4.4-7.6,7.1-10.6,5.3c-3-1.8-2.9-7.4-0.3-11.8c2.7-4.4,6.9-5.9,9.9-4.1
	C184.1,254.2,184.8,258.6,182.1,263z"/>
<path style="fill:#F6A2A3;" d="M188.2,278c-6.8,1.7-14.6-0.4-15.8-5s4.8-10.1,11.6-11.8c6.8-1.7,12,1,13.1,5.7
	C198.3,271.5,195.1,276.3,188.2,278z"/>
<path style="fill:#E84849;" d="M185.3,276.5c-5,1.2-10.4-0.3-11.2-3.7c-0.8-3.4,3.2-7.3,8.2-8.6c5-1.2,9.1,0.7,9.9,4.1
	C193,271.7,190.3,275.2,185.3,276.5z"/>
<path style="fill:#F6A2A3;" d="M155.8,287.6c1-7,5.8-13.4,10.5-12.7c4.7,0.7,7.6,8.2,6.6,15.2s-5.4,10.7-10.2,10
	C158,299.4,154.8,294.6,155.8,287.6z"/>
<path style="fill:#E84849;" d="M158.3,285.5c0.7-5.1,4.2-9.5,7.7-9s5.6,5.7,4.9,10.8c-0.7,5.1-4,8.2-7.5,7.7
	C159.9,294.4,157.5,290.6,158.3,285.5z"/>
<path style="fill:#F6A2A3;" d="M154.8,257.8c6.1,3.6,10.2,10.5,7.8,14.6s-10.5,3.9-16.5,0.3c-6.1-3.6-7.8-9.1-5.4-13.2
	C143,255.3,148.7,254.2,154.8,257.8z"/>
<path style="fill:#E84849;" d="M155.8,260.9c4.4,2.6,7.2,7.5,5.4,10.5s-7.4,3-11.8,0.4c-4.4-2.6-6-6.8-4.3-9.8
	C146.9,258.9,151.4,258.3,155.8,260.9z"/>
<path style="fill:#F6A2A3;" d="M171.2,252.2c1.8,6.8-0.2,14.6-4.8,15.8c-4.6,1.2-10.1-4.7-11.9-11.5c-1.8-6.8,0.9-12,5.5-13.2
	C164.6,242.2,169.4,245.4,171.2,252.2z"/>
<path style="fill:#E84849;" d="M169.7,255.2c1.3,5-0.2,10.4-3.6,11.3c-3.4,0.9-7.4-3.1-8.7-8.1s0.6-9.1,4-10
	S168.4,250.2,169.7,255.2z"/>
<path style="fill:#F6A2A3;" d="M173.7,294.9c-5.7-4.1-9.2-11.4-6.4-15.3s10.8-2.9,16.5,1.2s7,9.8,4.2,13.7
	C185.2,298.4,179.4,299,173.7,294.9z"/>
<path style="fill:#E84849;" d="M173,291.7c-4.2-3-6.5-8.2-4.4-11c2-2.8,7.6-2.3,11.8,0.7s5.4,7.4,3.3,10.2
	C181.6,294.4,177.1,294.7,173,291.7z"/>
<path style="fill:#F6A2A3;" d="M145.7,274.5c5.6-4.2,13.6-5.4,16.5-1.6s-0.5,11.1-6.1,15.4c-5.6,4.2-11.4,3.7-14.3-0.1
	C138.9,284.4,140.1,278.7,145.7,274.5z"/>
<path style="fill:#E84849;" d="M149,274.7c4.1-3.1,9.7-3.7,11.8-0.9c2.1,2.8-0.1,8-4.2,11.1c-4.1,3.1-8.6,2.9-10.7,0.1
	C143.8,282.2,144.9,277.8,149,274.7z"/>
<path style="fill:#F4E028;" d="M155.9,267.9c2.9-4.8,9.5-6,14.9-2.7c5.4,3.2,7.4,9.7,4.5,14.5s-9.5,6-14.9,2.8
	C155.1,279.2,153.1,272.7,155.9,267.9z"/>
<path style="fill:#E5CE27;" d="M159.2,269.9c1.9-3.1,6.3-3.9,9.8-1.8s4.9,6.4,3,9.5s-6.3,3.9-9.8,1.8
	C158.7,277.3,157.3,273.1,159.2,269.9z"/>
<path style="fill:#FFFFFF;" d="M312,282.8c-2.4-0.3-6.2,0.3-9.2,1.6c2.5-2.2,4.7-5.8,5.3-8c1.6-5.3-0.7-8.3-4.3-9.4
	c-3.6-1.1-7.2,0.2-8.7,5.5c-0.5,1.8-0.7,4.7-0.3,7.3c-1.3-2.8-3.6-5.8-5.3-7c-4.4-3.3-8-2.2-10.3,0.8s-2.3,6.8,2.1,10.1
	c1.3,0.9,3.3,1.9,5.5,2.5c-2.3,0.1-4.6,0.6-6,1.3c-5,2.3-5.8,6-4.3,9.4c1.6,3.4,4.8,5.3,9.9,3c1.8-0.8,4.2-2.7,6-4.8
	c-0.9,2.3-1.4,4.7-1.4,6.3c0.1,5.5,3.1,7.7,6.9,7.7s6.8-2.3,6.7-7.9c0-2.3-1-5.9-2.6-8.6c2.6,1.9,6.2,3.3,8.3,3.6
	c5.5,0.7,8.1-2.1,8.5-5.8C319.3,286.8,317.5,283.5,312,282.8z"/>
<path style="fill:#D8C805;" d="M427.5,268.1c-2.5-0.9-6.8-1.2-10.3-0.5c3.2-1.8,6.5-5.1,7.8-7.3c3-5.4,1.3-9.2-2.4-11.2
	c-3.6-2-7.8-1.5-10.8,3.9c-1,1.8-1.9,4.9-2.2,7.8c-0.7-3.4-2.5-7.1-4-8.9c-4-4.7-8.2-4.4-11.3-1.7c-3.2,2.7-4.1,6.8-0.2,11.5
	c1.1,1.3,3.1,2.9,5.3,4.1c-2.6-0.4-5.2-0.4-6.8-0.1c-6,1.2-7.8,5.1-6.9,9.1c0.8,4.1,4,6.9,10,5.6c2.1-0.4,5.2-1.9,7.7-3.7
	c-1.5,2.3-2.7,4.8-3,6.5c-1.3,6,1.5,9.1,5.6,10s7.9-0.9,9.2-6.9c0.5-2.5,0.3-6.6-0.7-9.9c2.3,2.7,5.9,5.1,8.2,6
	c5.8,2.1,9.3-0.3,10.7-4.2C434.5,274.2,433.3,270.2,427.5,268.1z M405.9,267.8c0,0.1-0.1,0.1-0.1,0.2c-0.1-0.1-0.2-0.1-0.2-0.2
	C405.7,267.8,405.8,267.8,405.9,267.8z M409.7,265.2L409.7,265.2C409.7,265.1,409.7,265.1,409.7,265.2
	C409.7,265.1,409.7,265.1,409.7,265.2z"/>
<g>
	<path style="fill:#64A80D;" d="M73.1,282.2L73.1,282.2C73.1,282.3,73.1,282.3,73.1,282.2C73.1,282.3,73.1,282.2,73.1,282.2z"/>
	<path style="fill:#64A80D;" d="M68.4,284.1c-0.1,0-0.2-0.1-0.3-0.1c0.1,0.1,0.1,0.2,0.2,0.2C68.3,284.1,68.4,284.1,68.4,284.1z"/>
</g>
<path style="fill:#F6A2A3;" d="M63.3,292.5c-2.2,2-4,4.3-4.9,6c-2.9,5.9-0.8,9.9,3.2,11.9s8.5,1.2,11.4-4.7
	c1.2-2.5,2.1-6.8,1.9-10.5c1.7,3.4,4.8,6.9,6.9,8.4c5.5,3.7,9.7,2.1,12.2-1.6s2.3-8.2-3.2-11.9c-2.4-1.6-6.8-3.1-10.6-3.3
	c3.8-1,8.1-3.6,10-5.6c4.5-4.8,3.7-9.2,0.5-12.3c-3.3-3.1-7.7-3.6-12.3,1.2c-1.6,1.6-3.3,4.6-4.3,7.6c0.2-3.7-0.7-8.1-1.8-10.4
	c-2.9-5.9-7.3-6.7-11.4-4.7c-4,2-6.1,6-3.2,11.9c0.8,1.7,2.5,3.8,4.4,5.6c-2.6-1.1-5.3-1.8-7.1-1.9c-0.4,0-0.8,0-1.2,0
	c-0.1,4.9-0.2,10.6-0.2,16.2c0.2,0,0.5,0,0.7,0.1C56.7,294.5,60.3,293.8,63.3,292.5z M73.1,282.2C73.1,282.2,73.1,282.3,73.1,282.2
	C73.1,282.3,73.1,282.3,73.1,282.2L73.1,282.2z M68.4,284.1c0,0.1-0.1,0.1-0.1,0.1c-0.1-0.1-0.1-0.2-0.2-0.2
	C68.2,284,68.3,284,68.4,284.1z"/>
<path style="fill:#91C7CF;" d="M250.5,250.9c0,3.6-2,7.3-4.5,7.3s-4.5-3.7-4.5-7.3c0-3.6,2-5.9,4.5-5.9
	C248.5,245.1,250.5,247.3,250.5,250.9z"/>
<path style="fill:#48A1AF;" d="M249.3,252.2c0,2.7-1.5,5.2-3.3,5.2s-3.3-2.5-3.3-5.2s1.5-4.5,3.3-4.5
	C247.9,247.8,249.3,249.6,249.3,252.2z"/>
<path style="fill:#91C7CF;" d="M256.1,257.2c-2.6,2.6-6.6,3.7-8.3,2s-0.6-5.7,2-8.3c2.6-2.6,5.6-2.7,7.3-1
	C258.8,251.6,258.6,254.6,256.1,257.2z"/>
<path style="fill:#48A1AF;" d="M254.3,257.3c-1.9,1.9-4.7,2.6-6,1.3c-1.3-1.3-0.5-4.1,1.3-6c1.9-1.9,4.2-2.1,5.5-0.8
	C256.5,253.1,256.2,255.5,254.3,257.3z"/>
<path style="fill:#91C7CF;" d="M244.2,270.2c-1.4-3.4-1-7.5,1.3-8.5s5.5,1.6,7,5c1.4,3.4,0.5,6.2-1.8,7.2
	C248.4,274.8,245.7,273.5,244.2,270.2z"/>
<path style="fill:#48A1AF;" d="M244.8,268.6c-1-2.5-0.7-5.3,1-6.1c1.7-0.7,4,1,5,3.5s0.4,4.7-1.3,5.4
	C247.9,272.1,245.8,271,244.8,268.6z"/>
<path style="fill:#91C7CF;" d="M235.8,257.2c3.6,0,7.3,1.9,7.4,4.4c0,2.5-3.6,4.5-7.2,4.6c-3.6,0-5.9-1.9-5.9-4.4
	C229.9,259.3,232.2,257.2,235.8,257.2z"/>
<path style="fill:#48A1AF;" d="M237.1,258.3c2.7,0,5.2,1.4,5.2,3.2c0,1.8-2.5,3.3-5.1,3.3c-2.7,0-4.5-1.4-4.5-3.2
	C232.6,259.8,234.4,258.3,237.1,258.3z"/>
<path style="fill:#91C7CF;" d="M241.6,250.4c2.6,2.5,3.8,6.5,2.1,8.3s-5.7,0.6-8.3-1.9s-2.8-5.5-1.1-7.3S239,247.8,241.6,250.4z"/>
<path style="fill:#48A1AF;" d="M241.7,252.1c1.9,1.9,2.7,4.7,1.4,6s-4.1,0.6-6-1.3s-2.2-4.2-0.9-5.5
	C237.5,250,239.8,250.2,241.7,252.1z"/>
<path style="fill:#91C7CF;" d="M254.1,268.6c-3.6-0.3-7.1-2.6-6.9-5.1c0.2-2.5,4-4.2,7.6-3.9c3.6,0.3,5.7,2.5,5.5,4.9
	C260.2,267.1,257.8,268.9,254.1,268.6z"/>
<path style="fill:#48A1AF;" d="M252.9,267.4c-2.7-0.2-5.1-1.9-4.9-3.7c0.1-1.8,2.8-3.1,5.4-2.8c2.7,0.2,4.3,1.8,4.2,3.6
	C257.5,266.3,255.6,267.6,252.9,267.4z"/>
<path style="fill:#91C7CF;" d="M236.3,267.1c1.4-3.4,4.6-6,6.9-5.1c2.3,0.9,2.8,5.1,1.4,8.4c-1.4,3.4-4.1,4.7-6.4,3.8
	C235.9,273.3,234.9,270.4,236.3,267.1z"/>
<path style="fill:#48A1AF;" d="M237.8,266.3c1-2.5,3.3-4.3,5-3.6c1.7,0.7,2.1,3.6,1.1,6c-1,2.5-3,3.6-4.7,2.9
	C237.5,271,236.8,268.8,237.8,266.3z"/>
<ellipse style="fill:#91C7CF;" cx="244.9" cy="261.4" rx="5.9" ry="5.2"/>
<ellipse style="fill:#D3E9EC;" cx="244.9" cy="261.4" rx="3.9" ry="3.4"/>
<g>
</g>
<g>
</g>
<g>
</g>
<g>
</g>
<g>
</g>
<g>
</g>
<g>
</g>
<g>
</g>
<g>
</g>
<g>
</g>
<g>
</g>
<g>
</g>
<g>
</g>
<g>
</g>
<g>
</g>
</svg>
