<?xml version="1.0" encoding="UTF-8" standalone="no"?>
<!-- Generator: Adobe Illustrator 16.0.0, SVG Export Plug-In . SVG Version: 6.00 Build 0)  -->

<svg
   xmlns:dc="http://purl.org/dc/elements/1.1/"
   xmlns:cc="http://creativecommons.org/ns#"
   xmlns:rdf="http://www.w3.org/1999/02/22-rdf-syntax-ns#"
   xmlns:svg="http://www.w3.org/2000/svg"
   xmlns="http://www.w3.org/2000/svg"
   xmlns:sodipodi="http://sodipodi.sourceforge.net/DTD/sodipodi-0.dtd"
   xmlns:inkscape="http://www.inkscape.org/namespaces/inkscape"
   version="1.1"
   id="Capa_1"
   x="0px"
   y="0px"
   width="21.664px"
   height="21.665px"
   viewBox="0 0 21.664 21.665"
   style="enable-background:new 0 0 21.664 21.665;"
   xml:space="preserve"
   inkscape:version="0.91 r13725"
   sodipodi:docname="hot-coffee-rounded-cup-on-a-plate-from-side-view.svg"><metadata
     id="metadata3853"><rdf:RDF><cc:Work
         rdf:about=""><dc:format>image/svg+xml</dc:format><dc:type
           rdf:resource="http://purl.org/dc/dcmitype/StillImage" /><dc:title></dc:title></cc:Work></rdf:RDF></metadata><defs
     id="defs3851" /><sodipodi:namedview
     pagecolor="#ffffff"
     bordercolor="#666666"
     borderopacity="1"
     objecttolerance="10"
     gridtolerance="10"
     guidetolerance="10"
     inkscape:pageopacity="0"
     inkscape:pageshadow="2"
     inkscape:window-width="3840"
     inkscape:window-height="2031"
     id="namedview3849"
     showgrid="false"
     inkscape:zoom="21.78629"
     inkscape:cx="-0.77655546"
     inkscape:cy="13.820398"
     inkscape:window-x="0"
     inkscape:window-y="55"
     inkscape:window-maximized="1"
     inkscape:current-layer="Capa_1" /><g
     id="g3807"
     transform="matrix(0.52117245,0,0,0.52117245,5.186564,5.1871605)"><g
       id="g3809"><path
         d="m 2.756,20.725 2.95,0 c 0.041,0.257 0.254,0.458 0.523,0.458 l 6.707,0 c 0.27,0 0.482,-0.2 0.523,-0.458 l 2.95,0 c 0.499,0 0.903,-0.404 0.903,-0.903 l -15.458,0 c 0,0.499 0.404,0.903 0.902,0.903 z"
         id="path3811"
         inkscape:connector-curvature="0" /><path
         d="m 20.865,11.444 c -0.752,-0.609 -1.811,-0.619 -2.508,-0.542 0.02,-0.486 0.031,-0.983 0.031,-1.5 L 0,9.402 c 0,4.97 0.752,8.556 5.511,9.894 l 7.366,0 c 1.885,-0.529 3.135,-1.418 3.964,-2.6 1.806,-0.035 4.711,-0.746 4.82,-3.24 0.047,-1.092 -0.407,-1.698 -0.796,-2.012 z m -3.267,3.826 c 0.346,-0.889 0.551,-1.889 0.664,-2.988 0.488,-0.08 1.329,-0.131 1.754,0.215 0.078,0.064 0.321,0.262 0.293,0.901 -0.057,1.292 -1.661,1.726 -2.711,1.872 z"
         id="path3813"
         inkscape:connector-curvature="0" /><path
         d="m 7.491,8.704 c 0,0 3.5,-0.257 1.896,-3.208 -1.288,-2.369 -0.994,-3.759 0.654,-5.015 0,0 -5.398,1.375 -2.25,5.63 1.155,1.854 -0.3,2.593 -0.3,2.593 z"
         id="path3815"
         inkscape:connector-curvature="0" /><path
         d="m 9.85,8.468 c 0,0 2.804,-0.591 1.278,-2.846 -0.554,-0.978 0.21,-1.327 0.21,-1.327 0,0 -1.805,0.057 -1.043,1.608 0.61,1.247 0.429,1.955 -0.445,2.565 z"
         id="path3817"
         inkscape:connector-curvature="0" /></g></g><g
     id="g3819" /><g
     id="g3821" /><g
     id="g3823" /><g
     id="g3825" /><g
     id="g3827" /><g
     id="g3829" /><g
     id="g3831" /><g
     id="g3833" /><g
     id="g3835" /><g
     id="g3837" /><g
     id="g3839" /><g
     id="g3841" /><g
     id="g3843" /><g
     id="g3845" /><g
     id="g3847" /></svg>